<?xml version="1.0" encoding="UTF-8"?>
<svg id="Layer_1" data-name="Layer 1" xmlns="http://www.w3.org/2000/svg" viewBox="0 0 177.68 53.45">
  <defs>
    <style>
      .cls-1 {
        fill: #231f20;
      }
    </style>
  </defs>
  <g>
    <path class="cls-1" d="M166.85,1.31c.24,.01,.15-.09,.19-.11-.4,.02-.18,.14-.19,.11Z"/>
    <polygon class="cls-1" points="162.92 1.52 162.99 1.48 162.42 1.58 162.92 1.52"/>
    <path class="cls-1" d="M159.26,1.49c.35,.18,1.33-.02,1.98,.05l.11,.04,.3-.14c-.79,.02-1.83,.1-2.38,.05Z"/>
    <path class="cls-1" d="M157.31,1.09c.12,.07-.42,.06,.46,.03-.04,0-.06-.01-.08-.02-.08,0-.19,0-.37,0Z"/>
    <path class="cls-1" d="M157.68,1.09c.39,0-.25-.06,0,0h0Z"/>
    <path class="cls-1" d="M155.9,1.12l.51-.06c-.11-.04-.56-.05-.39-.08-.52,.03-.41,.07-.12,.14Z"/>
    <path class="cls-1" d="M155.41,1.24l.26-.02s-.12-.02-.26,.02Z"/>
    <path class="cls-1" d="M156.24,1.17l-.56,.05c.07,.03,.08,.09,.26-.02-.05,.05,.06,0,.3-.03Z"/>
    <path class="cls-1" d="M156.55,1.2c.28,.04,.65,.07,.14,.13,.97-.02,.83-.14-.14-.13Z"/>
    <path class="cls-1" d="M159.07,1.67l.38,.06,.33-.06c-.17,.03-.73-.05-.71,0Z"/>
    <path class="cls-1" d="M152.73,1s.17,.1,.21,.15l.38-.04c-.19-.03-.56-.05-.58-.11Z"/>
    <path class="cls-1" d="M152.94,1.15l-.56,.06c.5,.01,.59-.02,.56-.06Z"/>
    <polygon class="cls-1" points="155.32 1.44 156.25 1.31 155.14 1.44 155.32 1.44"/>
    <polygon class="cls-1" points="150.58 .98 150.9 .89 150.34 1.02 150.58 .98"/>
    <path class="cls-1" d="M149.16,.98c.24-.07-.32-.13-.07-.17-.39,.01-.72,.07-1.02,.12,.32-.03,.65-.02,1.09,.04Z"/>
    <path class="cls-1" d="M147.57,1.02c.16-.02,.32-.05,.5-.08-.17,.02-.33,.04-.5,.08Z"/>
    <path class="cls-1" d="M151.42,1.19s-.13-.08-.44-.11l.22,.11c.07,0,.14,0,.22,0Z"/>
    <path class="cls-1" d="M151.21,1.19h0c-.24,0-.41-.01-.48-.01,.06,0,.21,0,.49,.01Z"/>
    <path class="cls-1" d="M151.47,1.19s-.04,0-.06,0c.02,.01,.03,.01,.06,0Z"/>
    <path class="cls-1" d="M153.85,1.33c-.33,.06-1.02,.12-.35,.21,.24-.07-.14-.13,.35-.21Z"/>
    <path class="cls-1" d="M151.75,1.32l.6,.03s-.12-.07,.04-.1l-.64,.07Z"/>
    <polygon class="cls-1" points="151.46 1.36 151.75 1.32 151.53 1.31 151.46 1.36"/>
    <path class="cls-1" d="M148.6,1.12c-.26,.04-.54,.05-.86,.05,.34,.02,.69,.04,1.03,.04,.05-.03,.2-.09-.17-.09Z"/>
    <path class="cls-1" d="M149.86,1.16s-.04,0-.06,0c.04,0,.06,.01,.06,0Z"/>
    <path class="cls-1" d="M144.6,1.15s.03,.01,.05,.02c0,0,0-.01,.01-.02h-.06Z"/>
    <path class="cls-1" d="M148.82,1.24c.26,.02,.41,0,.56-.03-.19,0-.4,.01-.61,.01-.02,.01-.03,.02,.06,.02Z"/>
    <path class="cls-1" d="M146.7,1.06c.13,.02,.28,.04,.44,.06-.13-.03-.4-.09-.44-.06Z"/>
    <path class="cls-1" d="M149.72,1.14s.02,0,.04,0c-.08-.02-.07-.01-.04,0Z"/>
    <path class="cls-1" d="M149.72,1.14c-.13,.01-.24,.04-.34,.06,.16,0,.3-.02,.43-.03-.03,0-.06-.02-.09-.03Z"/>
    <path class="cls-1" d="M143.64,1.83c.05-.1,.72-.18,1.3-.07,.57-.07,.2-.4-.3-.58-.02,.04-.02,.08-.61,.14,.21,.06,1.31,.14,.81,.22-.78,.04-.64-.04-1.02-.1,.32,.13-1,.17-.83,.35l.69-.06s-.24,.07-.05,.1Z"/>
    <path class="cls-1" d="M145.77,1.19h.24c-.28-.03-.47-.07-.84-.15-.4,.05-.49,.08-.52,.11l1.2,.02h-.08Z"/>
    <path class="cls-1" d="M147.11,1.19c-.19,.11-.77,.15-.42,.27,.71,0,.5-.09,.93-.13-1.15,.02,.33-.06-.5-.13,.23-.02,.43-.02,.62-.02-.21-.01-.41-.03-.59-.05,.01,0,.02,0,.03,0h0s0,0,0,0c.05,.01,.07,.02,0,.01,0,0-.02,0-.02,0,0,.01-.03,.03-.05,.04-.33-.02-.05-.03,.05-.04,0,0,.01-.01,.01-.02,0,0,0,0,0,0l-1.15,.05c.24,.02,.55,.02,1.09,0Z"/>
    <path class="cls-1" d="M152.88,1.77s-.03-.02-.04-.03c-.07,.01-.1,.02,.04,.03Z"/>
    <path class="cls-1" d="M152.41,1.7c.08-.01,.15-.06,.43-.04,.24,.03,0,.05,.01,.09,.16-.03,.57-.07,.06-.13h-.08c-.46-.03-1.06-.17-.98-.18,.13,.1,.25,.17,.56,.27Z"/>
    <path class="cls-1" d="M149.72,1.47l-.96,.05,.49,.1-.02-.06c.55,.03,.43-.04,.5-.09Z"/>
    <polygon class="cls-1" points="144.49 1.1 144.62 .98 144.06 1.14 144.49 1.1"/>
    <polygon class="cls-1" points="143.24 1.1 143.29 1 142.96 1.06 143.24 1.1"/>
    <path class="cls-1" d="M72.92,1.78l-.28,.03c.13,0,.22-.02,.28-.03Z"/>
    <path class="cls-1" d="M74.96,1.8l.05-.05c-.09,.03-.13,.05-.05,.05Z"/>
    <path class="cls-1" d="M112.64,.87c-.41-.1-.87-.24-.82-.13l.13,.11c.29-.02,.51,0,.69,.02Z"/>
    <path class="cls-1" d="M91.68,1.35s.08,.02,.12,.03c.1-.04,.19-.07,.28-.1-.12,.02-.26,.04-.4,.07Z"/>
    <path class="cls-1" d="M91.39,1.8l-.54-.07c.12,.03,.3,.05,.54,.07Z"/>
    <path class="cls-1" d="M61.78,1.8l-.33,.11c.51,0,.29-.05,.33-.11Z"/>
    <path class="cls-1" d="M130.48,1.04c-.35-.05-.64-.07-.88-.07,.43,.07,.77,.16,.88,.07Z"/>
    <path class="cls-1" d="M73.73,.63c-.17,.02-.25,.04-.24,.06,.18-.02,.28-.04,.24-.06Z"/>
    <path class="cls-1" d="M128.58,.96c.06,.01,.12,.02,.19,.03,.26-.02,.52-.03,.84-.02-.31-.05-.68-.08-1.02,0Z"/>
    <path class="cls-1" d="M21.38,1.4s-.06,0-.09-.01c0,.01,.03,.02,.09,.01Z"/>
    <path class="cls-1" d="M9.62,.21c.12,0,.31,0,.48,0-.09,0-.23,0-.48,0Z"/>
    <path class="cls-1" d="M138.23,1.01c.26,0,.04-.01,0,0h0Z"/>
    <path class="cls-1" d="M139.51,1.45c-.06,.01-.1,.03-.11,.05,.02-.03,.06-.04,.11-.05Z"/>
    <path class="cls-1" d="M125.94,1.61s-.01,0-.02,0c.08,.02,.06,.02,.02,0Z"/>
    <path class="cls-1" d="M138.63,1.07c-.1-.01-.21-.03-.34-.03,.05,0,.16,.02,.34,.03Z"/>
    <path class="cls-1" d="M138.58,1.01c.09,0,.16,0,.23,.01,.03-.02,0-.03-.23-.01Z"/>
    <path class="cls-1" d="M137.86,1.02c.15,0,.29,0,.43,.01-.05,0-.07-.01-.06-.02-.08,0-.19,0-.37,0Z"/>
    <path class="cls-1" d="M43.03,1.28s-.04,0-.06-.01c-.27,.04-.15,.04,.06,.01Z"/>
    <path class="cls-1" d="M105.76,1.94s.02,0,.03,0c-.01,0-.03,0-.04,0h0Z"/>
    <path class="cls-1" d="M104.81,2.02c.41-.13,.63-.11,.94-.08l-.31-.32-.63,.4Z"/>
    <path class="cls-1" d="M68.04,1.77l.67,.1c-.81,.15-1.39,.09-.76,.24,.1-.34,2.59-.01,2.69-.35l.44,.07c-.13,0-.15,.02-.27,.01,.85,.17,.64-.24,1.74-.18,.38,.03,.65,.08,.39,.12l.86-.08c.25,0,.19,.07-.06,.06l1.3-.02h0c.19-.04,.61-.12,.81-.15,.33,.05-.17,.03-.08,.08l.72-.08c.29,.09-.31,.17-.8,.15,.67,.34,.6-.08,2.05,.13l-.68,.04c.44,.2,.97,.13,1.74,.26-.18-.06-1.54-.31-.76-.39,.22,.03,.51,.04,.93-.02,0,.12,.42,.09,.93,.09l-.04,.16c.56-.04,.52-.12,.84-.19,.62,.02,.75,.15,.9,.25,1,.03-.69-.2,.49-.22,.83,.07,1.41,0,2.4-.08,.58,.06-.1,.1,.11,.14l.52-.12c.13,0,.08,.04,.06,.06,.43-.05,.04-.16,.72-.2,.19-.17,1.4,.27,2.24,.07,.21,.05-.1,.1-.04,.16,1.16-.12,.99-.09,1.94-.26l.81,.11c-.59-.12,.17-.26,.83-.37-.21-.06-.39-.11-.51-.14l1.06-.08c.13,.03,.02,.08-.15,.15,.07-.01,.14-.03,.19-.04,.38,.06,.18,.15-.09,.24-.13-.03-.26-.07-.38-.1-.26,.1-.51,.2-.46,.29,.07-.02,.2-.03,.35-.04-.07,.03-.11,.05-.08,.07,.04,.02,.15-.02,.32-.06l.24,.18,.06-.07,1.39,.12c1-.17,1.86-.43,3.44-.49-.39,.13-.09,.21-.11,.37-.43-.17-1.22,.06-2.04,.02,.43,.02,.33,.09,.22,.12l1.46-.14c-.03,.13,.31,.1,.69,.15-.29-.25,1.09-.16,1.68-.23,.04,.08-.11,.17-.83,.14,.8,.19,1.03-.29,1.82-.12-.18,0-.27-.01-.34,.03,.41-.07,1.42,0,1.18,.07h-.18c1.17,.04,3.57,.03,3.75-.18,.01,.03-.16,.26-.23,.3l2.1-.7c-.19,.18,.52,.62-.46,.72,.28,.03,.62,.06,1.21,0-.19-.03-.47-.27-.21-.28,.71,.21,.5,.11,1.38,.29-.29-.04,.03-.33,.49-.31-.07,.04,.04,.28-.13,.31l1.13-.27c-.28,.05-.05,.24,.2,.32-.12-.06,.97,.01,1.27-.01l-.48-.07c1.27,.05,1.26-.39,2.52-.36-.15,.06-.38,.35,.26,.39,.29-.14,1.3-.68,2.42-.78l.21,.08,.86-.09c-.53,.21-2.03,.66-2.85,.83,.47,.07,.13,.1,.84,.1,.25,.08-.39,.11-.6,.12l1.66,.06c-.07-.17,1.27-.16,1.21-.3l-1.8,.16c-.07-.17,1.04-.47,2.22-.43,.3,.07-.23,.3-.2,.35,.15-.06,1.11-.1,1.22-.06l-.5,.09c.65,.07,1.07-.21,1.85-.05,.27,.01,.81,.22,.85,.12-.44-.2-.52-.79-.23-.93,.09,.01,1.42,.19,1.73,.29,.44,.15-.67,.35-.29,.49,.02-.05,.26-.1,.37-.12,.28,.04-.12,.14,.5,.13,.1-.17,1.26,.02,.29-.14,.61-.04,.64,.04,1.35,.04-.23-.11,.64-.37,1.25-.41-.04,.04,.1,.1,.17,.13,1.24,.03,1.9,.11,3.06,.12,.11,.04,.66,.1,.43,.17,.17-.03,.32-.09,.68-.09,.69,.15-.8,.02-.27,.2,.05-.1,.92-.13,1.43-.19-.15-.15-1.17-.04-1.68,.02,0-.21,.89-.42,2.09-.51,.96-.04,.42,.14,.58,.11,1.8,.05,1.54-.36,3.04-.19,.59,.14,.02,.27,.16,.37-.78,.04-1.2-.09-1.73-.09l.65,.07c-.25,.04-.77,.07-1.06,.03,.5,.12,3.05,.05,4.44,.17,.25-.04,.67-.09,.47-.14l-.44,.02c-.4-.11,.83-.14,.27-.2,.59-.07,1.25-.19,2.08-.12l.15,.15s-.54-.1-.78-.05c.35-.07,1.27,.22,1.65,.02l-.58-.11c.59-.07,1.33-.23,2.06-.18-.33-.15-.17,.02-.69-.17,.45,.22-1.88-.02-1.16,.21-.54-.21-.93-.09-1.63-.28,.02,.05,.25,.1-.37,.07-.03,.01-.09,.03-.14,.04-.02,0-.03,0-.04,0,.01,0,.02,0,.03,0-.03,0-.03,0,.01,0,.15,.02,.27,.05,.31,.08-.31,.11-1.29,.1-1.62,.16-.37-.03,.15-.06-.05-.11l-.5,.09c-.05-.11-.97-.19-.11-.25h-.78c-.46-.08-1.09-.11-1.48-.06-.37-.03-.93,.12-.61,.03l-1.22,.06v-.03c-1.22-.02-2.49,.17-3.87-.05-.41,.03-.82,.06-1.5,.02l-.13-.1c-.52,.03-1.56-.11-1.79,0-.56-.27-2.53-.08-3.44-.13l-.04,.13c-.63-.01-1.23,.02-2.02,.06l.05,.11c-.68,.09-1.73-.09-2.8-.09,.07-.04,.34-.03,.53,0-1.27-.26-2.69,.16-3.84-.03-.29,.04-.5,.02-.7,0,.03,0,.05,0,.07,0-.03,0-.07,0-.12,0-.13-.02-.26-.04-.4-.06,.12,.03,.24,.05,.34,.06-.22,0-.56,.01-.89,.04l-.14-.12s-.05,0-.08,0c-.32-.05-.26,.05-.09,.15-.17,.02-.32,.04-.44,.07-.26-.2-.87,.06-1.22-.15-.22,.1-1.66,.06-1.84,.27-.01-.03-.11-.04,.07-.04-.37-.03-.74-.05-1.07,0l-.15-.15-.81,.2c-.49-.1-.69-.15-.2-.27-1.17,.17-.95,.06-1.95,.23l.05-.1c-.36,0-.93,.13-1.14,.05-.79-.19-3.94-.06-5.98-.25,.39,.29-.95-.14-1.03,.09-.12-.07-.4-.11-.07-.17-1.04,.06-1.57-.12-2.29,.06-.12-.07,.22-.1,.12-.14-.08,.01-.33,.06-.44,.02-.11-.04,.15-.06,.32-.09-1.07,0-1.17,.21-1.25,.41-.54-.1-.81-.09-1.2,.04-.19-.07-.5-.14,.16-.16-.37-.01-2.27-.11-2.31,.05-.12-.04-.52-.02-.62,0-.84-.02-.91-.03-1.73-.02l.23,.03c-.33,.19-.68,.04-1.34,.06l.02-.02c-1.52-.15-.66,.06-2.15-.11l.08,.12c-.14,.26-1.32-.16-2.19-.07l.31,.07c-.48,.08-1.32-.36-1.8-.4-.1-.02,.16-.03,.31-.05-1.25-.16-.16,.16-1.09,.19-.17-.09,.22-.21-.4-.23-.31-.07-1.82,.26-2.67,.09,.19,.07,.37,.13-.06,.18-.66,.02-1.79-.26-2.39-.06-.08-.02-.12-.04-.12-.05-.51,.05-1.64,.08-1.95,.18-.46-.42-3.15,.18-3.13-.21h-1.56s.04-.03,.04-.03c-.99-.03-1.35,.06-1.7,.14-.23-.03-.06-.06-.04-.08-1.45-.09-1.6-.07-2.82,.11l-.13-.12c-.33,.07-2.1-.21-3.53-.08,.01-.01,.04-.04,.16-.05-1.6,.13-3.84-.37-4.43,.07l-1.06,.1c1.37,.05-.21,.19,.36,.27-.54,.02-1.39-.15-.73-.17l.1,.02c.24-.23-1.7-.1-1.66-.26-2.69,0-5.32-.16-7.84-.19l.29,.19-.88-.02c-.23-.04-.31-.15,.32-.13-.33-.11-1.05,.08-1.07,.12-1.23-.08,.48-.21,.1-.22h-.51s.12,.03,.12,.03c-.42,.07-.45,.15-1.21,.14-.48-.04-.24-.11-.43-.12,0-.01-.06-.02-.29,0l-1.11-.02,.44,.15c-.49,.07-1.04-.02-.53,.15-.75-.26-4.14-.12-4.6-.2-.69,.1-1.37,.09-2.21,.07,.21,.03,.33,.19-.39,.17,.27-.33-1.33-.16-1.91-.4,.52,.16-2.06,.02-1.24,.26-.61-.03-.04-.13-.49-.21-1.44,.12-3.18-.11-4.96-.08-.03,.04,.27,.11-.11,.18l-.94-.23c-.35,.02-.33,.25-.97,.09,.09,.04,.23,.09-.01,.11-3.49-.24-7.14,.12-10.68-.31,.48,.09,.16,.09-.21,.1,.24,.02,0,.11,.04,.17l-1.48-.18c-.27,.16-1.59,0-1.75,.16l.47-.02c-.63,.18,.87,.42,.78,.66,.7-.21,1.84,.33,2.99,.03,.25,.05-.22,.08-.08,.13,.29-.1,.64-.12,1.29-.07l-.07,.02c1.83-.01,2.61,.1,4.67,.18l-.15-.12c.44,.02,.53,.06,.74,.09,.51-.18-1.24-.02-.78-.21,.58,.25,3.12,.03,3.51,.31,.68,0-.2-.14,.48-.13l.18,.08,.17-.09c.45,.02,.67,.11,.69,.18-.11,0-.31,.02-.42,.02,.58,.09,1.63-.02,1.83,.01l-.65-.05c1.86-.05,4.12,.06,5.91-.08l-.14-.06c1.37-.09,1.1,.07,2.6,.03h-.05c.3-.04,.7-.07,1.11-.06-.38,.06,.71,.13,.21,.2,1.48-.1,.73-.08,1.72-.28l.23,.09c.33-.08,.36-.13,1.11-.14-.62,.07,.48,.15-.21,.24,1.57,.22,2.34-.19,3.06,.12,.73-.25-1.36-.15-.96-.2-.34-.09,.6-.19,1.09-.16,.5,0,.85,.33,2.12,.34-.13,0-.13,.02-.26,.02,.47,.07,.93-.08,1.51,.03,.33-.15,.75,.01,.85-.18l-1.16,.04c.66-.05,1.28-.27,2.36-.15-.08,.04-.41,.09-.63,.12,.32,.06,.61-.03,.94,.03-.1,.2-1.41,.03-2.12,.18,.34,.09,1.33-.13,.98,.08,.51-.27,1.25,.04,2.11-.16l-.06,.12c.14-.02,.42-.07,.67-.07l-.45,.15c.69-.13,1.34,.13,2,.06-1.39,0-.31-.15-.9-.24,1.72-.15,.99,.32,2.91,.28-.26,.01-.98-.08-.57-.13,.37,.03,.85,.08,1.07,.14,1.27-.01-.19-.12,.35-.19,.43,.15,.63-.05,1.19-.1v.12c1.45,.09,.39-.25,1.7-.14l-.55,.16,.68-.04-.14,.14c.74-.1,.97-.07,1.7-.02-.17-.09,.1-.22,.74-.22,.44,.08-.25,.11,.67,.1-.21,.07-.43,.17-.83,.05-.04,.04-.2,.07-.25,.11,.47,.09,1.19,.03,1.52,.03-.13,0-.28-.01-.36-.03l1.32-.16c.21,.05,.04,.08-.12,.12,.27-.01,.45-.06,.85-.07-.1,.1-.08,.2-.64,.24l1.26-.1c.08,.04,.65,.12,.48,.16,.7,.06,1.71-.18,2.64-.09,.05-.02,.14-.04,.34-.05,.87,.03,1.64,.16,2.67,.03l.58,.18c.81-.03-.79-.23,.56-.28,.95-.05,.35,.15,.69,.2,.47-.08,1.3-.26,2.17-.11-.29,.03-.52,0-.79,.01Zm9.96,0c-.19,.02-.58,.1-.72,.03,.22-.14,.39-.07,.72-.03Zm15.14-.17c-.14,.04-.37,.02-.62-.03,.18,0,.39,0,.62,.03Zm42.19-.51s-.01,0-.02,0c-.43-.05-.28-.03,.02,0Zm.89,.06c.09-.02,.08-.03,.05-.05-.06,.03-.26,.03-.49,.02,.06,.03,.18,.05,.45,.03ZM40.21,.44l.17,.03c-.39,.03-.28,0-.17-.03Z"/>
    <path class="cls-1" d="M91.43,1.75c-.05-.02-.07-.04-.08-.07-.08,.02-.08,.04,.08,.07Z"/>
    <path class="cls-1" d="M61.84,1.78s-.02,0-.03,0c-.02,0-.03,.01-.03,.02l.06-.02Z"/>
    <path class="cls-1" d="M122.37,2.06c-.18-.02-.29-.04-.35-.07-.01,.03,.07,.06,.35,.07Z"/>
    <path class="cls-1" d="M140.97,.98l-.57,.03c.28,0,.38,.02,.52,.04-.01-.03-.12-.07,.06-.07Z"/>
    <path class="cls-1" d="M145.93,1.77c.08-.01,.18,0,.26-.01l-.02-.06c-.36,0-.61,.04-.24,.07Z"/>
    <path class="cls-1" d="M141.49,1.39c.04,.1,.4,.07,.81,.05-.02,0-.05,0-.07,0,.12-.14-.31-.1-.73-.05Z"/>
    <path class="cls-1" d="M142.39,1.44c.12,0,.25,0,.37,0,.05-.06-.15-.01-.37,0Z"/>
    <path class="cls-1" d="M137.36,1.09c.19,.03,.12-.13,.23-.09,.21-.13-1.27,.15-.23,.09Z"/>
    <polygon class="cls-1" points="141.82 1.72 141.67 1.6 141.45 1.69 141.82 1.72"/>
    <path class="cls-1" d="M138.65,1.61l.64,.04s.07-.03,.17-.04c-.39,0-.83-.04-.81,0Z"/>
    <path class="cls-1" d="M139.46,1.6c.21,0,.4,0,.52-.02-.11,0-.35,0-.52,.02Z"/>
    <polygon class="cls-1" points="140.94 1.75 140.75 1.73 140.3 1.71 140.94 1.75"/>
    <path class="cls-1" d="M131.76,1.53l-.7,.03c-.07,.04,.12,.07,.38,.06,.17-.03,.43-.04,.32-.09Z"/>
    <path class="cls-1" d="M133.87,1.89c-.19-.03-.2-.06-.31-.1l-.02,.16,.33-.06Z"/>
    <path class="cls-1" d="M131.83,1.91c-.07,.04-1.02,.12-.13,.11,.07-.04,.77-.07,.13-.11Z"/>
    <polygon class="cls-1" points="121.29 1.63 121.47 1.63 121.45 1.37 121.29 1.63"/>
    <path class="cls-1" d="M112,2.16c.83,.07,.2-.16,.95-.07,.2-.06-.61-.07-.41-.12-.5,.06-.76,.02-.53,.19Z"/>
    <path class="cls-1" d="M112.53,1.97c.08,0,.17-.02,.26-.04-.15,.01-.21,.03-.26,.04Z"/>
    <polygon class="cls-1" points="7.67 .06 7.13 0 7.48 .09 7.67 .06"/>
    <path class="cls-1" d="M6.64,.24l-.12-.16-.32,.14c.12,0,.35-.02,.45,.02Z"/>
    <path class="cls-1" d="M79.48,2.11l.04-.04c-.08-.04-.21-.05-.46-.06l.42,.09Z"/>
    <polygon class="cls-1" points="72.25 1.93 72.37 1.93 72.14 1.78 72.25 1.93"/>
    <path class="cls-1" d="M66.18,2.07c.25,0,.54-.02,.79-.01-.54,.02-.85-.17-.79,.01Z"/>
  </g>
  <g>
    <path class="cls-1" d="M167.61,24.99c.24,0,.15-.1,.19-.12-.4,.02-.18,.14-.19,.12Z"/>
    <polygon class="cls-1" points="163.7 25.24 163.77 25.19 163.19 25.3 163.7 25.24"/>
    <path class="cls-1" d="M160.04,25.25c.35,.18,1.33-.03,1.98,.03l.11,.04,.29-.14c-.79,.03-1.82,.12-2.38,.08Z"/>
    <path class="cls-1" d="M158.09,24.87c.12,.07-.42,.06,.46,.02-.04,0-.06-.01-.08-.02-.08,0-.19,0-.37,0Z"/>
    <path class="cls-1" d="M158.46,24.87c.39,0-.25-.06,0,0h0Z"/>
    <path class="cls-1" d="M156.68,24.92l.51-.06c-.11-.04-.56-.05-.39-.08-.52,.03-.41,.08-.12,.14Z"/>
    <path class="cls-1" d="M156.2,25.05l.26-.03s-.12-.02-.26,.03Z"/>
    <path class="cls-1" d="M157.02,24.96l-.56,.06c.07,.03,.08,.09,.26-.02-.05,.05,.06,0,.3-.04Z"/>
    <path class="cls-1" d="M157.33,24.99c.29,.04,.65,.06,.14,.12,.97-.03,.83-.15-.14-.12Z"/>
    <path class="cls-1" d="M159.85,25.43l.38,.05,.33-.06c-.16,.03-.73-.05-.71,.01Z"/>
    <path class="cls-1" d="M153.51,24.83s.17,.1,.21,.15l.38-.04c-.19-.03-.56-.05-.58-.11Z"/>
    <path class="cls-1" d="M153.72,24.98l-.56,.07c.5,0,.59-.02,.56-.07Z"/>
    <polygon class="cls-1" points="156.11 25.25 157.03 25.11 155.93 25.25 156.11 25.25"/>
    <polygon class="cls-1" points="151.37 24.83 151.69 24.74 151.12 24.87 151.37 24.83"/>
    <path class="cls-1" d="M149.95,24.84c.24-.07-.32-.12-.07-.17-.39,.01-.72,.08-1.01,.13,.32-.03,.65-.02,1.09,.03Z"/>
    <path class="cls-1" d="M148.36,24.89c.16-.02,.32-.05,.5-.08-.17,.02-.33,.04-.5,.08Z"/>
    <path class="cls-1" d="M152.21,25.03s-.13-.08-.44-.11l.22,.11c.07,0,.14,0,.22,0Z"/>
    <path class="cls-1" d="M151.99,25.03h0c-.24,0-.41,0-.48,0,.06,0,.21,0,.48,0Z"/>
    <path class="cls-1" d="M152.26,25.03s-.04,0-.06,0c.02,.01,.03,.01,.06,0Z"/>
    <path class="cls-1" d="M154.64,25.15c-.33,.06-1.02,.13-.35,.22,.24-.07-.14-.12,.35-.22Z"/>
    <path class="cls-1" d="M152.54,25.16l.6,.02s-.12-.07,.04-.1l-.64,.08Z"/>
    <polygon class="cls-1" points="152.24 25.19 152.54 25.16 152.31 25.15 152.24 25.19"/>
    <path class="cls-1" d="M149.38,24.99c-.26,.05-.54,.05-.86,.06,.34,.02,.69,.03,1.03,.03,.05-.03,.19-.09-.17-.09Z"/>
    <path class="cls-1" d="M150.65,25.02h-.06s.06,.02,.06,0Z"/>
    <polygon class="cls-1" points="145.39 25.05 145.44 25.07 145.46 25.05 145.39 25.05"/>
    <path class="cls-1" d="M149.61,25.1c.26,.02,.41,0,.56-.04-.19,.01-.39,.02-.61,.02-.02,.02-.03,.03,.06,.02Z"/>
    <path class="cls-1" d="M147.49,24.94c.14,.02,.29,.04,.44,.06-.13-.03-.4-.09-.44-.06Z"/>
    <path class="cls-1" d="M150.51,24.99h.04c-.08-.03-.07-.02-.04,0Z"/>
    <path class="cls-1" d="M150.51,24.99c-.13,.02-.24,.04-.34,.07,.16,0,.3-.02,.43-.04-.03,0-.06-.02-.09-.03Z"/>
    <path class="cls-1" d="M144.45,25.73c.05-.1,.72-.19,1.3-.08,.57-.07,.2-.4-.3-.58-.02,.04-.02,.08-.61,.14,.21,.05,1.31,.13,.81,.22-.78,.05-.64-.04-1.02-.09,.32,.12-.99,.18-.82,.36l.68-.06s-.24,.07-.05,.1Z"/>
    <path class="cls-1" d="M146.57,25.08h.24c-.28-.03-.47-.07-.84-.15-.4,.05-.49,.08-.51,.12h1.19s-.08,.03-.08,.03Z"/>
    <path class="cls-1" d="M147.9,25.07c-.19,.11-.77,.15-.41,.27,.71,0,.5-.09,.92-.14-1.15,.03,.33-.06-.5-.12,.23-.02,.43-.02,.62-.03-.2-.02-.4-.03-.59-.05h.03s0,0,0,0h0s.07,.02,0,.02c0,0-.02,0-.02,0,0,.02-.03,.03-.05,.04-.33-.02-.05-.03,.05-.04,0,0,.01-.01,.01-.02h0s-1.15,.06-1.15,.06c.24,.01,.55,.01,1.09,0Z"/>
    <path class="cls-1" d="M153.67,25.6s-.03-.02-.04-.02c-.07,.01-.1,.02,.04,.02Z"/>
    <path class="cls-1" d="M153.2,25.53c.08-.02,.15-.06,.43-.05,.24,.03,0,.05,.01,.09,.16-.03,.57-.08,.06-.13h-.08c-.46-.02-1.06-.16-.98-.17,.14,.1,.25,.17,.56,.26Z"/>
    <path class="cls-1" d="M150.51,25.33l-.96,.05,.49,.09-.02-.06c.54,.02,.43-.05,.49-.09Z"/>
    <polygon class="cls-1" points="145.29 24.99 145.41 24.88 144.86 25.04 145.29 24.99"/>
    <polygon class="cls-1" points="144.04 25.01 144.09 24.91 143.76 24.97 144.04 25.01"/>
    <path class="cls-1" d="M73.8,25.67l-.28,.02c.13,0,.22-.01,.28-.02Z"/>
    <path class="cls-1" d="M75.83,25.71l.05-.05c-.09,.03-.13,.04-.05,.05Z"/>
    <path class="cls-1" d="M113.48,24.9c-.41-.1-.87-.24-.82-.13l.13,.11c.29-.02,.51,0,.69,.02Z"/>
    <path class="cls-1" d="M92.54,25.36l.12,.03c.1-.04,.19-.07,.28-.1-.12,.02-.26,.04-.4,.07Z"/>
    <path class="cls-1" d="M92.24,25.8l-.54-.08c.12,.03,.29,.05,.54,.08Z"/>
    <path class="cls-1" d="M62.67,25.6l-.33,.1c.51,0,.29-.05,.33-.1Z"/>
    <path class="cls-1" d="M131.29,25.02c-.35-.04-.63-.06-.88-.07,.43,.06,.77,.16,.88,.07Z"/>
    <path class="cls-1" d="M74.61,24.54c-.17,.02-.25,.04-.24,.06,.18-.02,.28-.03,.24-.06Z"/>
    <path class="cls-1" d="M129.39,24.95c.07,0,.12,.02,.19,.03,.26-.02,.52-.03,.83-.02-.31-.05-.67-.08-1.02,0Z"/>
    <path class="cls-1" d="M22.31,24.61l-.09-.02s.03,.02,.09,.02Z"/>
    <path class="cls-1" d="M10.59,23.19c.12,0,.3,0,.48,0-.09,0-.23-.01-.48,0Z"/>
    <path class="cls-1" d="M139.03,24.96c.26,0,.04-.01,0,0h0Z"/>
    <path class="cls-1" d="M140.32,25.39c-.06,.01-.1,.03-.11,.05,.02-.03,.06-.04,.11-.05Z"/>
    <path class="cls-1" d="M126.76,25.62h-.02c.08,.02,.06,.02,.02,0Z"/>
    <path class="cls-1" d="M139.43,25.01c-.1-.01-.21-.02-.34-.03,.06,0,.16,.02,.34,.03Z"/>
    <path class="cls-1" d="M139.38,24.95c.09,0,.16,0,.23,.01,.03-.02,0-.03-.23-.01Z"/>
    <path class="cls-1" d="M138.67,24.96c.15,0,.29,0,.43,.01-.05,0-.07-.01-.06-.02-.08,0-.19,0-.37,0Z"/>
    <path class="cls-1" d="M43.94,24.85s-.03,0-.06-.01c-.27,.04-.15,.03,.06,.01Z"/>
    <path class="cls-1" d="M106.6,25.98h.03s-.03,0-.04,0h0Z"/>
    <path class="cls-1" d="M105.65,26.05c.4-.13,.63-.11,.94-.08l-.31-.32-.63,.4Z"/>
    <path class="cls-1" d="M68.92,25.63l.66,.11c-.81,.15-1.39,.08-.76,.23,.1-.34,2.59,0,2.69-.33l.44,.08c-.13,0-.15,.01-.27,0,.85,.18,.64-.24,1.74-.17,.38,.03,.65,.09,.39,.12l.86-.07c.25,.01,.19,.07-.06,.06h1.3s0,0,0,0c.19-.05,.61-.13,.82-.16,.33,.05-.17,.03-.08,.08l.72-.07c.29,.09-.31,.17-.8,.15,.67,.35,.6-.08,2.05,.14l-.68,.03c.44,.2,.97,.14,1.74,.27-.18-.07-1.54-.32-.75-.4,.22,.03,.51,.04,.93-.02,0,.12,.41,.1,.93,.1l-.04,.16c.56-.04,.52-.12,.84-.19,.62,.02,.75,.15,.89,.26,1,.04-.68-.21,.49-.22,.83,.07,1.41,.02,2.4-.07,.58,.06-.1,.1,.1,.15l.52-.12c.13,0,.08,.04,.06,.06,.43-.04,.04-.16,.72-.19,.19-.17,1.39,.28,2.24,.08,.21,.05-.1,.1-.04,.16,1.16-.12,.99-.08,1.94-.25l.81,.11c-.59-.13,.17-.26,.83-.37-.21-.06-.39-.11-.51-.14l1.06-.07c.13,.03,.02,.08-.15,.15,.07-.01,.14-.03,.19-.04,.38,.06,.18,.15-.09,.24-.13-.03-.25-.07-.38-.1-.26,.09-.51,.2-.46,.29,.07-.02,.2-.03,.35-.04-.07,.03-.11,.05-.08,.06,.04,.02,.15-.02,.32-.06l.24,.18,.06-.07,1.39,.13c1-.17,1.86-.42,3.44-.48-.39,.13-.09,.21-.11,.37-.43-.17-1.22,.06-2.04,.01,.43,.02,.33,.09,.22,.12l1.46-.13c-.03,.13,.31,.1,.69,.15-.29-.25,1.09-.16,1.68-.23,.04,.08-.11,.17-.83,.14,.8,.2,1.03-.28,1.82-.12-.18,0-.27-.01-.34,.03,.41-.07,1.42,0,1.18,.07h-.18c1.17,.04,3.57,.04,3.75-.18,.01,.03-.16,.25-.23,.3l2.1-.7c-.19,.18,.52,.62-.46,.72,.28,.03,.62,.06,1.21,0-.19-.03-.47-.27-.21-.28,.71,.21,.49,.11,1.37,.29-.29-.04,.03-.33,.49-.31-.07,.04,.04,.28-.13,.31l1.12-.27c-.28,.05-.05,.24,.2,.32-.12-.06,.97,.01,1.27-.01l-.48-.07c1.27,.05,1.26-.39,2.51-.36-.15,.06-.38,.35,.26,.39,.29-.14,1.3-.68,2.42-.79l.21,.08,.85-.09c-.53,.21-2.03,.66-2.84,.83,.47,.07,.13,.1,.84,.1,.25,.08-.39,.11-.6,.12l1.65,.06c-.07-.17,1.27-.16,1.2-.3l-1.8,.16c-.07-.17,1.04-.47,2.21-.43,.3,.07-.22,.3-.2,.35,.15-.06,1.11-.1,1.22-.06l-.5,.09c.65,.07,1.07-.22,1.85-.05,.27,.01,.81,.22,.85,.12-.44-.19-.52-.79-.23-.93,.09,.01,1.42,.19,1.73,.29,.44,.15-.67,.36-.29,.49,.02-.05,.26-.1,.37-.12,.28,.04-.12,.14,.5,.12,.1-.17,1.26,.02,.29-.14,.6-.05,.64,.04,1.35,.03-.23-.11,.64-.37,1.24-.42-.04,.04,.1,.1,.17,.13,1.24,.02,1.9,.1,3.06,.1,.11,.04,.66,.09,.43,.17,.17-.03,.32-.09,.68-.09,.69,.15-.79,.02-.27,.2,.05-.1,.92-.13,1.43-.19-.16-.15-1.17-.03-1.68,.03,0-.21,.88-.43,2.09-.52,.96-.05,.42,.14,.58,.11,1.8,.04,1.54-.36,3.03-.21,.59,.14,.03,.27,.16,.36-.78,.05-1.2-.09-1.73-.08l.65,.07c-.25,.04-.77,.08-1.05,.04,.5,.12,3.04,.03,4.43,.15,.25-.04,.67-.09,.47-.15l-.44,.02c-.4-.11,.83-.15,.27-.2,.59-.08,1.25-.2,2.08-.13l.16,.15s-.54-.09-.78-.05c.35-.07,1.27,.21,1.65,0l-.58-.11c.59-.08,1.32-.24,2.06-.19-.33-.15-.17,.02-.69-.16,.45,.22-1.88-.01-1.15,.22-.54-.21-.93-.09-1.63-.26,.02,.05,.25,.1-.37,.07-.03,.01-.09,.03-.14,.04-.02,0-.03,0-.04,0h.03s-.03,.02,.01,0c.15,.02,.27,.05,.31,.08-.31,.12-1.29,.11-1.62,.17-.37-.02,.15-.06-.05-.11l-.5,.09c-.05-.11-.97-.19-.11-.25h-.78c-.46-.07-1.09-.1-1.48-.05-.37-.03-.93,.12-.61,.03l-1.22,.07v-.03c-1.21-.02-2.49,.18-3.86-.03-.41,.03-.82,.06-1.5,.03l-.13-.1c-.52,.03-1.56-.1-1.78,0-.56-.26-2.52-.07-3.44-.12l-.04,.13c-.63-.01-1.23,.02-2.01,.07l.05,.11c-.67,.09-1.73-.09-2.8-.08,.07-.04,.34-.03,.53,0-1.27-.26-2.69,.17-3.84-.03-.29,.04-.5,.02-.7,0,.03,0,.05,0,.07,0-.03,0-.07,0-.12,0-.13-.02-.26-.04-.4-.06,.12,.03,.24,.05,.34,.06-.22,0-.56,.01-.89,.04l-.14-.12s-.05,0-.08,0c-.32-.05-.26,.06-.09,.15-.17,.02-.32,.04-.44,.07-.26-.2-.87,.06-1.22-.15-.22,.1-1.66,.06-1.84,.28-.01-.03-.11-.04,.07-.04-.37-.03-.73-.05-1.06,0l-.15-.15-.8,.2c-.49-.1-.69-.15-.2-.27-1.17,.17-.95,.06-1.95,.23l.05-.1c-.36,0-.92,.13-1.14,.04-.79-.2-3.93-.06-5.97-.26,.39,.3-.95-.14-1.03,.08-.12-.07-.4-.11-.07-.17-1.04,.06-1.56-.13-2.29,.05-.12-.07,.22-.1,.12-.14-.08,.01-.33,.06-.44,.01-.11-.04,.15-.06,.32-.08-1.06,0-1.17,.21-1.25,.41-.54-.1-.81-.09-1.2,.04-.19-.07-.5-.14,.16-.15-.37-.01-2.27-.12-2.31,.04-.12-.04-.52-.02-.62,0-.83-.02-.91-.03-1.73-.03l.23,.03c-.33,.19-.68,.03-1.34,.05l.02-.02c-1.51-.16-.65,.06-2.15-.12l.08,.12c-.14,.26-1.32-.17-2.19-.08l.31,.07c-.47,.08-1.32-.37-1.79-.41-.1-.02,.16-.03,.31-.05-1.24-.17-.16,.15-1.09,.18-.17-.09,.22-.21-.4-.24-.31-.07-1.82,.25-2.67,.08,.19,.07,.37,.14-.06,.18-.66,.01-1.78-.28-2.38-.08-.08-.02-.12-.04-.12-.05-.51,.05-1.64,.06-1.95,.17-.46-.42-3.14,.15-3.13-.23h-1.55s.04-.04,.04-.04c-.99-.04-1.35,.04-1.7,.13-.23-.03-.06-.06-.04-.08-1.45-.1-1.59-.09-2.81,.08l-.12-.13c-.33,.07-2.09-.23-3.52-.11,.01-.01,.04-.04,.16-.05-1.6,.12-3.83-.41-4.42,.02l-1.06,.09c1.37,.06-.21,.19,.35,.28-.54,.02-1.39-.16-.73-.17l.1,.02c.25-.23-1.7-.12-1.66-.28-2.69-.04-5.31-.22-7.83-.29l.29,.19-.88-.03c-.23-.05-.31-.15,.32-.13-.33-.11-1.05,.06-1.07,.1-1.23-.1,.48-.2,.11-.22h-.51s.11,.03,.11,.03c-.42,.07-.45,.14-1.21,.12-.48-.05-.24-.12-.43-.13,0-.01-.06-.02-.29-.01l-1.11-.04,.44,.15c-.49,.06-1.04-.03-.53,.14-.74-.27-4.13-.18-4.59-.28-.69,.09-1.37,.07-2.21,.04,.21,.04,.33,.2-.4,.16,.27-.33-1.32-.18-1.9-.43,.52,.17-2.06-.01-1.25,.24-.6-.04-.03-.13-.49-.22-1.44,.1-3.17-.17-4.95-.17-.03,.04,.27,.12-.12,.17l-.93-.24c-.35,.01-.33,.25-.97,.08,.09,.04,.22,.1-.01,.11-3.48-.3-7.13-.02-10.66-.52,.48,.1,.16,.1-.21,.09,.24,.03,0,.11,.04,.17l-1.48-.21c-.27,.16-1.59-.03-1.75,.12h.47c-.63,.15,.86,.42,.76,.66,.71-.19,1.83,.37,2.99,.1,.25,.06-.22,.07-.08,.13,.29-.09,.65-.11,1.29-.04l-.07,.02c1.83,.03,2.61,.15,4.66,.28l-.15-.12c.44,.03,.53,.07,.74,.1,.51-.17-1.24-.04-.77-.23,.58,.26,3.11,.09,3.5,.37,.68,.02-.2-.14,.48-.12l.18,.08,.17-.09c.44,.03,.67,.13,.68,.19-.11-.01-.31,0-.42,.01,.57,.1,1.63,.01,1.83,.05l-.65-.06c1.85-.02,4.11,.14,5.91,.03l-.13-.06c1.37-.07,1.09,.09,2.59,.08h-.05c.3-.04,.7-.05,1.11-.04-.38,.06,.71,.14,.21,.2,1.48-.07,.74-.07,1.72-.25l.22,.1c.34-.08,.36-.12,1.11-.12-.62,.06,.47,.15-.22,.24,1.57,.24,2.34-.15,3.05,.16,.73-.24-1.36-.17-.95-.22-.34-.09,.6-.18,1.09-.14,.5,.02,.85,.35,2.11,.37-.13,0-.13,.02-.26,.01,.47,.08,.93-.07,1.51,.05,.33-.15,.75,.03,.85-.17l-1.16,.02c.66-.04,1.28-.25,2.36-.12-.09,.04-.41,.08-.63,.11,.32,.07,.61-.03,.94,.04-.1,.2-1.41,.01-2.12,.15,.34,.09,1.34-.11,.98,.09,.51-.26,1.24,.06,2.1-.13l-.06,.12c.14-.02,.42-.07,.67-.06l-.45,.14c.7-.12,1.33,.15,2,.09-1.39-.02-.31-.15-.9-.25,1.72-.12,.98,.33,2.9,.31-.26,.01-.98-.09-.57-.14,.37,.03,.85,.09,1.07,.15,1.27,0-.19-.13,.35-.19,.43,.15,.63-.05,1.19-.08v.12c1.45,.11,.39-.24,1.7-.12l-.56,.16,.68-.03-.14,.13c.74-.09,.97-.06,1.7,0-.17-.09,.1-.22,.74-.21,.44,.08-.25,.11,.66,.11-.21,.07-.43,.16-.83,.04-.04,.04-.2,.07-.25,.11,.47,.09,1.19,.04,1.52,.05-.13,0-.28-.02-.36-.04l1.32-.14c.21,.05,.04,.08-.12,.12,.27,0,.45-.06,.85-.06-.1,.1-.08,.2-.64,.23l1.26-.09c.08,.04,.64,.13,.48,.16,.7,.07,1.71-.16,2.64-.07,.05-.02,.15-.03,.34-.05,.87,.04,1.64,.17,2.67,.06l.58,.19c.81-.03-.79-.24,.56-.28,.95-.04,.35,.16,.69,.21,.47-.08,1.3-.25,2.17-.09-.29,.03-.52,0-.79,0Zm9.95,.08c-.19,.02-.58,.1-.72,.02,.22-.14,.39-.07,.72-.02Zm15.13-.1c-.14,.04-.37,.02-.61-.03,.18,0,.39,0,.61,.03Zm42.14-.56h-.02c-.43-.04-.28-.02,.02,0Zm.89,.05c.09-.02,.08-.03,.05-.05-.06,.03-.26,.03-.49,.02,.06,.03,.18,.05,.45,.03Zm-95.89-1.13l.17,.04c-.39,.03-.28,0-.17-.04Z"/>
    <path class="cls-1" d="M92.28,25.75c-.05-.02-.07-.04-.08-.07-.08,.02-.08,.04,.08,.07Z"/>
    <path class="cls-1" d="M62.73,25.58h-.03s-.03,.01-.03,.02l.06-.02Z"/>
    <path class="cls-1" d="M123.19,26.08c-.18-.02-.29-.04-.35-.06-.01,.03,.07,.05,.35,.06Z"/>
    <path class="cls-1" d="M141.77,24.9l-.57,.03c.28,0,.38,.02,.52,.04-.01-.03-.12-.07,.06-.07Z"/>
    <path class="cls-1" d="M146.73,25.65c.08-.01,.18,0,.26-.02l-.02-.06c-.36,0-.61,.05-.24,.07Z"/>
    <path class="cls-1" d="M142.29,25.3c.05,.1,.4,.07,.8,.05h-.07c.12-.14-.31-.1-.73-.05Z"/>
    <path class="cls-1" d="M143.19,25.35c.12,0,.25,0,.37,0,.05-.06-.15-.01-.37,0Z"/>
    <path class="cls-1" d="M138.17,25.04c.19,.03,.12-.13,.23-.09,.21-.13-1.27,.16-.23,.09Z"/>
    <polygon class="cls-1" points="142.62 25.64 142.48 25.51 142.25 25.61 142.62 25.64"/>
    <path class="cls-1" d="M139.45,25.55l.64,.04s.07-.03,.17-.04c-.39,0-.83-.03-.81,0Z"/>
    <path class="cls-1" d="M140.27,25.54c.21,0,.4,0,.52-.02-.11,0-.35,0-.52,.02Z"/>
    <polygon class="cls-1" points="141.74 25.68 141.55 25.65 141.1 25.64 141.74 25.68"/>
    <path class="cls-1" d="M132.57,25.5l-.7,.03c-.07,.04,.12,.07,.38,.05,.17-.03,.43-.05,.32-.09Z"/>
    <path class="cls-1" d="M134.68,25.85c-.19-.03-.2-.05-.31-.1l-.02,.16,.33-.06Z"/>
    <path class="cls-1" d="M132.65,25.88c-.07,.04-1.01,.12-.13,.11,.07-.04,.77-.08,.13-.11Z"/>
    <polygon class="cls-1" points="122.12 25.65 122.29 25.64 122.27 25.39 122.12 25.65"/>
    <path class="cls-1" d="M112.83,26.2c.83,.07,.2-.16,.95-.07,.19-.06-.61-.07-.41-.12-.5,.06-.76,.02-.53,.19Z"/>
    <path class="cls-1" d="M113.37,26.01c.08-.01,.16-.02,.26-.04-.14,.01-.21,.03-.26,.04Z"/>
    <polygon class="cls-1" points="8.65 23 8.11 22.93 8.46 23.03 8.65 23"/>
    <path class="cls-1" d="M7.62,23.16l-.12-.17-.32,.14c.12,0,.35-.01,.44,.03Z"/>
    <path class="cls-1" d="M80.34,26.05l.04-.04c-.08-.04-.21-.05-.46-.06l.42,.1Z"/>
    <polygon class="cls-1" points="73.12 25.82 73.25 25.83 73.02 25.68 73.12 25.82"/>
    <path class="cls-1" d="M67.06,25.91c.25,0,.54,0,.79,0-.54,.02-.85-.18-.79,0Z"/>
  </g>
  <g>
    <path class="cls-1" d="M177.47,52.24c.26,0,.17-.1,.21-.11-.44,.02-.2,.14-.21,.11Z"/>
    <polygon class="cls-1" points="173.14 52.48 173.21 52.43 172.58 52.54 173.14 52.48"/>
    <path class="cls-1" d="M169.09,52.47c.38,.18,1.47-.03,2.19,.03l.12,.04,.33-.14c-.88,.02-2.02,.12-2.63,.07Z"/>
    <path class="cls-1" d="M166.93,52.09c.13,.07-.47,.06,.5,.02-.05,0-.06-.01-.09-.02-.09,0-.21,0-.41,0Z"/>
    <path class="cls-1" d="M167.34,52.09c.43,0-.28-.06,0,0h0Z"/>
    <path class="cls-1" d="M165.37,52.13l.56-.06c-.12-.04-.62-.05-.43-.08-.58,.03-.46,.07-.13,.14Z"/>
    <path class="cls-1" d="M164.84,52.26l.29-.03c-.05-.02-.13-.02-.29,.03Z"/>
    <path class="cls-1" d="M165.75,52.18l-.62,.05c.08,.03,.09,.09,.28-.02-.05,.05,.07,0,.33-.03Z"/>
    <path class="cls-1" d="M166.1,52.21c.32,.04,.72,.06,.16,.13,1.07-.02,.92-.15-.16-.13Z"/>
    <path class="cls-1" d="M168.88,52.66l.42,.05,.36-.06c-.18,.03-.81-.05-.79,0Z"/>
    <path class="cls-1" d="M161.87,52.03s.19,.1,.23,.15l.41-.04c-.21-.03-.62-.05-.65-.11Z"/>
    <path class="cls-1" d="M162.1,52.18l-.62,.06c.55,0,.66-.02,.62-.06Z"/>
    <polygon class="cls-1" points="164.74 52.46 165.76 52.32 164.54 52.46 164.74 52.46"/>
    <polygon class="cls-1" points="159.5 52.02 159.85 51.94 159.23 52.07 159.5 52.02"/>
    <path class="cls-1" d="M157.93,52.04c.26-.07-.36-.12-.08-.17-.43,.01-.79,.07-1.12,.13,.35-.03,.72-.02,1.2,.04Z"/>
    <path class="cls-1" d="M156.18,52.08c.17-.02,.36-.05,.55-.08-.19,.02-.37,.04-.55,.08Z"/>
    <path class="cls-1" d="M160.43,52.23s-.14-.08-.49-.11l.24,.11c.07,0,.16,0,.24,0Z"/>
    <path class="cls-1" d="M160.19,52.23h0c-.26,0-.45,0-.53-.01,.07,0,.23,0,.54,.01Z"/>
    <path class="cls-1" d="M160.49,52.23s-.04,0-.06,0c.02,.01,.04,.01,.06,0Z"/>
    <path class="cls-1" d="M163.11,52.36c-.36,.06-1.13,.12-.39,.21,.26-.07-.16-.13,.39-.21Z"/>
    <path class="cls-1" d="M160.79,52.36l.66,.03s-.13-.07,.05-.1l-.71,.07Z"/>
    <polygon class="cls-1" points="160.47 52.39 160.79 52.36 160.55 52.35 160.47 52.39"/>
    <path class="cls-1" d="M157.31,52.18c-.28,.05-.6,.05-.95,.06,.38,.02,.77,.03,1.14,.03,.05-.03,.22-.09-.19-.09Z"/>
    <path class="cls-1" d="M158.71,52.21h-.06s.07,.02,.06,0Z"/>
    <polygon class="cls-1" points="152.89 52.23 152.95 52.25 152.96 52.23 152.89 52.23"/>
    <path class="cls-1" d="M157.56,52.29c.28,.02,.45,0,.61-.04-.22,0-.44,.01-.68,.02-.02,.02-.03,.03,.06,.02Z"/>
    <path class="cls-1" d="M155.21,52.13c.16,.02,.32,.04,.49,.06-.14-.03-.44-.09-.49-.06Z"/>
    <path class="cls-1" d="M158.55,52.19h.04c-.09-.03-.08-.02-.04,0Z"/>
    <path class="cls-1" d="M158.55,52.19c-.15,.02-.26,.04-.38,.06,.17,0,.33-.02,.47-.04-.04,0-.07-.02-.1-.03Z"/>
    <path class="cls-1" d="M151.84,52.91c.05-.1,.8-.19,1.44-.08,.63-.07,.22-.4-.33-.58-.02,.04-.02,.08-.67,.14,.23,.05,1.45,.13,.9,.22-.86,.05-.71-.04-1.13-.09,.36,.12-1.1,.18-.91,.36l.76-.06s-.26,.07-.05,.1Z"/>
    <path class="cls-1" d="M154.19,52.26h.27c-.31-.03-.52-.07-.93-.15-.45,.05-.54,.08-.57,.12l1.32,.02h-.09Z"/>
    <path class="cls-1" d="M155.66,52.25c-.21,.11-.85,.15-.46,.27,.79,0,.55-.09,1.02-.14-1.27,.03,.36-.06-.55-.12,.25-.02,.47-.02,.69-.03-.22-.02-.44-.03-.66-.05h.03s0,0,0,0h0c.05,.02,.07,.02,.01,.02,0,0-.02,0-.03,0,0,.01-.03,.03-.06,.04-.37-.02-.06-.03,.06-.04,0,0,.01-.01,.02-.02h0s-1.27,.05-1.27,.05c.27,.02,.61,.01,1.2,0Z"/>
    <path class="cls-1" d="M162.04,52.8s-.04-.02-.04-.03c-.08,.01-.11,.02,.04,.03Z"/>
    <path class="cls-1" d="M161.52,52.74c.09-.01,.17-.06,.47-.05,.26,.03,0,.05,.01,.09,.18-.03,.63-.08,.07-.13h-.09c-.51-.02-1.17-.16-1.08-.17,.15,.1,.28,.17,.62,.26Z"/>
    <path class="cls-1" d="M158.55,52.52l-1.06,.05,.54,.09-.03-.06c.6,.02,.47-.05,.55-.09Z"/>
    <polygon class="cls-1" points="152.77 52.18 152.91 52.06 152.3 52.22 152.77 52.18"/>
    <polygon class="cls-1" points="151.39 52.19 151.45 52.09 151.08 52.15 151.39 52.19"/>
    <path class="cls-1" d="M73.71,52.91l-.31,.02c.15,0,.24-.02,.31-.02Z"/>
    <path class="cls-1" d="M75.96,52.94l.06-.05c-.1,.03-.15,.05-.06,.05Z"/>
    <path class="cls-1" d="M117.59,52.06c-.45-.1-.96-.24-.9-.13l.14,.11c.32-.02,.56,0,.77,.02Z"/>
    <path class="cls-1" d="M94.43,52.54l.13,.03c.11-.04,.21-.07,.31-.1-.13,.02-.28,.04-.44,.07Z"/>
    <path class="cls-1" d="M94.11,52.99l-.6-.07c.13,.03,.33,.05,.6,.07Z"/>
    <path class="cls-1" d="M61.4,52.89l-.36,.11c.57,0,.32-.05,.36-.11Z"/>
    <path class="cls-1" d="M137.3,52.18c-.39-.04-.7-.06-.98-.07,.47,.06,.85,.16,.98,.07Z"/>
    <path class="cls-1" d="M74.6,51.77c-.19,.02-.27,.04-.27,.06,.2-.02,.31-.04,.27-.06Z"/>
    <path class="cls-1" d="M135.19,52.11c.07,0,.14,.02,.21,.03,.29-.02,.57-.03,.92-.02-.35-.05-.75-.08-1.13,0Z"/>
    <path class="cls-1" d="M16.76,52.16h-.1s.03,0,.1,0Z"/>
    <path class="cls-1" d="M3.78,50.83c.13,0,.34,0,.53,0-.1,0-.26-.01-.53,0Z"/>
    <path class="cls-1" d="M145.86,52.13c.29,0,.05-.01,0,0h0Z"/>
    <path class="cls-1" d="M147.27,52.56c-.06,.01-.11,.03-.12,.05,.02-.03,.06-.04,.12-.05Z"/>
    <path class="cls-1" d="M132.28,52.77h-.03c.09,.02,.07,.02,.03,0Z"/>
    <path class="cls-1" d="M146.29,52.18c-.12-.01-.24-.02-.37-.03,.07,0,.18,.02,.37,.03Z"/>
    <path class="cls-1" d="M146.24,52.13c.1,0,.18,0,.26,.01,.04-.02,0-.03-.26-.01Z"/>
    <path class="cls-1" d="M145.45,52.13c.17,0,.32,0,.47,.01-.06,0-.08-.01-.07-.02-.09,0-.21,0-.41,0Z"/>
    <path class="cls-1" d="M40.68,52.24s-.04,0-.06-.01c-.3,.04-.17,.04,.06,.01Z"/>
    <path class="cls-1" d="M109.98,53.14h.03s-.03,0-.04,0h0Z"/>
    <path class="cls-1" d="M108.93,53.21c.45-.13,.7-.11,1.04-.08l-.34-.32-.69,.4Z"/>
    <path class="cls-1" d="M68.31,52.88l.74,.11c-.89,.15-1.53,.09-.84,.23,.11-.34,2.86,0,2.97-.34l.48,.08c-.14,0-.16,.01-.3,.01,.94,.17,.7-.24,1.92-.18,.42,.03,.72,.08,.43,.12l.95-.07c.27,0,.21,.07-.07,.06h1.44s-.01,0-.01,0c.21-.05,.67-.13,.9-.16,.37,.05-.18,.03-.09,.08l.8-.07c.32,.09-.34,.17-.89,.15,.74,.35,.66-.08,2.27,.14l-.75,.04c.48,.2,1.07,.13,1.92,.26-.2-.06-1.7-.32-.84-.4,.24,.03,.57,.04,1.03-.02,0,.12,.46,.1,1.03,.09l-.04,.16c.62-.04,.57-.12,.93-.19,.69,.02,.83,.15,.99,.25,1.1,.04-.76-.21,.55-.22,.92,.07,1.56,.01,2.66-.07,.64,.06-.11,.1,.12,.14l.57-.12c.14,0,.09,.04,.07,.06,.48-.04,.04-.16,.79-.2,.2-.17,1.54,.27,2.48,.08,.23,.05-.11,.1-.04,.16,1.28-.12,1.1-.09,2.15-.25l.89,.11c-.66-.13,.18-.26,.92-.37-.23-.06-.43-.11-.56-.14l1.17-.08c.14,.03,.02,.08-.17,.15,.08-.01,.15-.03,.22-.04,.42,.06,.2,.15-.1,.24l-.42-.1c-.29,.09-.56,.2-.5,.29,.08-.02,.22-.03,.38-.04-.08,.03-.12,.05-.09,.07,.04,.02,.16-.02,.35-.06l.27,.18,.07-.07,1.53,.12c1.1-.17,2.06-.43,3.8-.49-.43,.13-.09,.21-.12,.37-.47-.17-1.35,.06-2.25,.02,.47,.02,.37,.09,.25,.12l1.61-.14c-.04,.13,.34,.1,.76,.15-.32-.25,1.2-.16,1.86-.23,.04,.08-.12,.17-.92,.14,.88,.19,1.14-.29,2.01-.12-.2,0-.3-.01-.38,.03,.46-.07,1.57,0,1.31,.07h-.19c1.3,.04,3.95,.03,4.14-.18,.01,.03-.17,.26-.25,.3l2.32-.7c-.21,.18,.57,.62-.5,.72,.31,.03,.69,.06,1.34,0-.21-.03-.52-.27-.24-.28,.79,.21,.55,.11,1.52,.29-.32-.04,.04-.33,.54-.31-.08,.04,.04,.28-.14,.31l1.24-.27c-.31,.05-.06,.24,.22,.32-.13-.06,1.07,.01,1.4-.01l-.53-.07c1.4,.05,1.39-.39,2.78-.36-.17,.06-.42,.35,.29,.39,.32-.14,1.44-.68,2.67-.79l.24,.08,.94-.09c-.59,.21-2.24,.66-3.14,.83,.52,.07,.15,.1,.93,.1,.28,.08-.43,.11-.66,.12l1.83,.06c-.08-.17,1.4-.16,1.33-.3l-1.99,.16c-.08-.17,1.15-.47,2.45-.43,.33,.07-.25,.3-.22,.35,.17-.06,1.23-.1,1.35-.06l-.55,.09c.72,.07,1.18-.22,2.05-.05,.3,.01,.89,.22,.94,.12-.49-.19-.58-.79-.25-.93,.1,.01,1.57,.19,1.91,.29,.49,.15-.74,.35-.32,.49,.02-.05,.29-.1,.4-.12,.31,.04-.13,.14,.55,.12,.11-.17,1.39,.02,.32-.14,.67-.05,.71,.04,1.49,.03-.25-.11,.71-.37,1.38-.42-.04,.04,.11,.1,.18,.13,1.37,.02,2.1,.1,3.38,.11,.12,.04,.73,.09,.47,.17,.18-.03,.35-.09,.75-.09,.76,.15-.88,.02-.3,.2,.05-.1,1.02-.13,1.58-.19-.17-.15-1.3-.03-1.86,.03,0-.21,.98-.43,2.31-.52,1.06-.05,.46,.14,.64,.11,1.99,.04,1.7-.36,3.35-.2,.66,.14,.03,.27,.17,.37-.86,.05-1.33-.09-1.91-.09l.72,.07c-.27,.04-.85,.08-1.17,.04,.55,.12,3.37,.04,4.9,.15,.27-.04,.74-.09,.52-.14l-.49,.02c-.45-.11,.92-.15,.3-.2,.65-.07,1.38-.19,2.3-.13l.17,.15s-.6-.09-.86-.05c.38-.07,1.41,.21,1.83,.01l-.64-.11c.66-.08,1.47-.24,2.28-.19-.37-.15-.19,.02-.77-.16,.5,.22-2.08-.01-1.28,.22-.59-.21-1.03-.09-1.8-.27,.02,.05,.27,.1-.41,.07-.03,.01-.1,.03-.15,.04-.02,0-.03,0-.05,0h.04s-.03,.02,.01,0c.16,.02,.29,.05,.35,.08-.34,.12-1.43,.11-1.79,.17-.41-.03,.17-.06-.05-.11l-.55,.09c-.05-.11-1.08-.19-.12-.25h-.86c-.51-.07-1.2-.1-1.63-.05-.41-.03-1.02,.12-.67,.03l-1.35,.06v-.03c-1.34-.02-2.75,.18-4.27-.03-.45,.03-.91,.06-1.66,.03l-.15-.1c-.58,.03-1.73-.11-1.97,0-.62-.26-2.79-.07-3.8-.12l-.04,.13c-.7-.01-1.36,.02-2.23,.07l.05,.11c-.75,.09-1.91-.09-3.09-.08,.08-.04,.38-.03,.59,0-1.41-.26-2.97,.17-4.25-.02-.32,.04-.55,.02-.77,0,.03,0,.06,0,.08,0-.03,0-.08,0-.13,0-.14-.02-.29-.04-.44-.06,.13,.03,.26,.05,.37,.06-.25,0-.62,.01-.98,.04l-.15-.12s-.05,0-.08,0c-.36-.05-.29,.06-.1,.15-.18,.02-.35,.04-.48,.07-.29-.2-.96,.06-1.35-.15-.25,.1-1.83,.06-2.03,.28-.01-.03-.12-.04,.08-.04-.41-.03-.81-.05-1.18,0l-.17-.15-.89,.2c-.54-.1-.76-.15-.23-.27-1.29,.17-1.05,.06-2.15,.23l.05-.1c-.39,0-1.02,.13-1.26,.05-.88-.19-4.35-.06-6.61-.25,.44,.29-1.05-.14-1.14,.09-.13-.07-.45-.11-.08-.17-1.15,.06-1.73-.12-2.53,.06-.13-.07,.25-.1,.13-.14-.09,.01-.37,.06-.49,.01-.12-.04,.17-.06,.35-.08-1.18,0-1.3,.21-1.39,.41-.6-.1-.89-.09-1.33,.04-.21-.07-.55-.14,.18-.16-.41-.01-2.51-.12-2.56,.04-.13-.04-.57-.02-.68,0-.92-.02-1-.03-1.91-.02l.25,.03c-.36,.19-.75,.04-1.48,.05l.02-.02c-1.67-.16-.72,.06-2.38-.11l.09,.12c-.16,.26-1.46-.17-2.42-.08l.35,.07c-.52,.08-1.46-.36-1.99-.4-.11-.02,.18-.03,.34-.05-1.38-.17-.18,.16-1.21,.18-.19-.09,.25-.21-.44-.24-.34-.07-2.01,.26-2.95,.08,.21,.07,.41,.13-.06,.18-.73,.02-1.97-.27-2.64-.07-.09-.02-.13-.04-.13-.05-.56,.05-1.82,.07-2.15,.18-.51-.42-3.48,.16-3.46-.22h-1.72s.05-.04,.05-.04c-1.1-.04-1.49,.05-1.87,.14-.25-.03-.07-.06-.05-.08-1.6-.1-1.76-.08-3.11,.09l-.14-.13c-.37,.07-2.32-.22-3.89-.1,.02-.01,.05-.04,.17-.05-1.77,.13-4.24-.4-4.89,.05l-1.17,.1c1.51,.06-.23,.19,.39,.28-.6,.02-1.54-.16-.8-.17l.11,.02c.27-.23-1.88-.11-1.84-.27-2.98-.03-5.87-.2-8.66-.25l.32,.19-.97-.02c-.25-.05-.34-.15,.35-.13-.36-.11-1.16,.07-1.18,.11-1.36-.09,.53-.21,.12-.22h-.57s.13,.03,.13,.03c-.46,.07-.5,.15-1.33,.13-.53-.04-.27-.12-.48-.13,0-.01-.07-.02-.32,0l-1.22-.03,.49,.15c-.54,.06-1.15-.02-.59,.15-.83-.26-4.57-.16-5.08-.24-.76,.09-1.51,.08-2.44,.05,.23,.03,.37,.2-.44,.17,.3-.33-1.47-.17-2.11-.42,.58,.17-2.28,0-1.38,.24-.67-.04-.04-.13-.55-.21-1.59,.11-3.51-.14-5.48-.13-.03,.04,.3,.12-.13,.17l-1.04-.24c-.39,.02-.36,.25-1.07,.08,.1,.04,.25,.1-.01,.11-3.85-.28-7.88,.04-11.79-.43,.53,.09,.18,.1-.23,.09,.26,.03,0,.11,.04,.17l-1.64-.19c-.3,.16-1.76-.02-1.93,.13l.52-.02c-.69,.17,.96,.43,.85,.67,.78-.2,2.03,.35,3.31,.07,.28,.05-.24,.07-.09,.13,.32-.1,.71-.11,1.43-.05l-.08,.02c2.02,.01,2.89,.13,5.16,.24l-.17-.12c.49,.02,.59,.06,.82,.1,.56-.17-1.37-.03-.86-.22,.64,.25,3.44,.06,3.87,.34,.75,.01-.22-.14,.53-.13l.2,.08,.19-.09c.49,.02,.74,.12,.76,.18-.12,0-.34,.01-.47,.02,.64,.1,1.8,0,2.02,.03l-.72-.06c2.05-.03,4.55,.1,6.53-.02l-.15-.06c1.51-.08,1.21,.08,2.87,.06h-.06c.33-.04,.78-.06,1.23-.05-.42,.06,.79,.14,.24,.2,1.64-.09,.81-.07,1.9-.27l.25,.1c.37-.08,.4-.12,1.23-.13-.68,.07,.53,.15-.24,.24,1.74,.23,2.59-.17,3.38,.14,.8-.25-1.5-.16-1.06-.21-.37-.09,.66-.18,1.21-.15,.56,.01,.94,.34,2.34,.36-.14,0-.15,.02-.29,.01,.52,.07,1.03-.07,1.67,.04,.36-.15,.83,.02,.94-.18l-1.28,.03c.73-.04,1.41-.26,2.61-.13-.09,.04-.45,.09-.7,.11,.35,.06,.67-.03,1.04,.04-.11,.2-1.56,.02-2.34,.16,.37,.09,1.48-.12,1.08,.09,.57-.26,1.38,.05,2.33-.14l-.06,.12c.15-.02,.46-.07,.74-.06l-.5,.15c.77-.12,1.48,.14,2.21,.07-1.54-.02-.34-.15-.99-.24,1.9-.13,1.09,.32,3.21,.3-.29,.01-1.08-.09-.63-.13,.4,.03,.94,.08,1.19,.15,1.41,0-.21-.12,.39-.19,.48,.15,.69-.05,1.31-.09v.12c1.61,.1,.43-.25,1.88-.13l-.61,.16,.75-.03-.16,.14c.82-.09,1.08-.06,1.88-.01-.19-.09,.11-.22,.82-.21,.48,.08-.27,.11,.73,.11-.23,.07-.48,.16-.92,.05-.05,.04-.23,.07-.27,.11,.52,.09,1.31,.04,1.68,.04-.14,0-.31-.02-.39-.03l1.46-.15c.23,.05,.05,.08-.13,.12,.3,0,.5-.06,.94-.07-.11,.1-.09,.2-.7,.24l1.39-.09c.09,.04,.71,.13,.53,.16,.77,.07,1.89-.17,2.92-.08,.05-.02,.16-.04,.38-.05,.96,.03,1.81,.16,2.95,.04l.64,.18c.89-.03-.87-.23,.61-.28,1.05-.04,.39,.15,.76,.21,.52-.08,1.44-.25,2.4-.1-.32,.03-.57,0-.87,.01Zm11.01,.04c-.21,.02-.64,.1-.79,.02,.24-.14,.43-.07,.79-.02Zm16.73-.14c-.16,.04-.4,.02-.68-.03,.2,0,.43,0,.68,.03Zm46.61-.57h-.02c-.48-.04-.31-.02,.02,0Zm.99,.06c.1-.02,.09-.03,.05-.05-.07,.03-.29,.03-.54,.02,.07,.03,.2,.05,.49,.03Zm-106.07-.89l.19,.03c-.43,.03-.31,0-.19-.03Z"/>
    <path class="cls-1" d="M94.15,52.93c-.06-.02-.08-.04-.09-.07-.08,.02-.09,.04,.09,.07Z"/>
    <path class="cls-1" d="M61.46,52.87h-.03s-.03,.01-.03,.02l.07-.02Z"/>
    <path class="cls-1" d="M128.34,53.23c-.2-.02-.32-.04-.39-.06-.01,.03,.08,.05,.39,.06Z"/>
    <path class="cls-1" d="M148.88,52.08l-.63,.03c.31,0,.42,.02,.57,.04-.01-.03-.13-.07,.06-.07Z"/>
    <path class="cls-1" d="M154.37,52.84c.09-.01,.2,0,.29-.02l-.03-.06c-.39,0-.67,.05-.26,.07Z"/>
    <path class="cls-1" d="M149.46,52.48c.05,.1,.45,.07,.89,.05h-.08c.13-.14-.34-.1-.81-.05Z"/>
    <path class="cls-1" d="M150.46,52.53c.14,0,.28,0,.41,0,.05-.06-.17-.01-.41,0Z"/>
    <path class="cls-1" d="M144.9,52.21c.21,.03,.13-.13,.25-.09,.24-.13-1.4,.15-.25,.09Z"/>
    <polygon class="cls-1" points="149.82 52.82 149.66 52.69 149.41 52.79 149.82 52.82"/>
    <path class="cls-1" d="M146.32,52.72l.71,.04s.08-.03,.19-.04c-.44,0-.91-.03-.9,0Z"/>
    <path class="cls-1" d="M147.22,52.71c.23,0,.44,0,.57-.02-.12,0-.39,0-.57,.02Z"/>
    <polygon class="cls-1" points="148.85 52.85 148.64 52.83 148.14 52.81 148.85 52.85"/>
    <path class="cls-1" d="M138.71,52.67l-.77,.03c-.08,.04,.13,.07,.42,.05,.19-.03,.47-.04,.35-.09Z"/>
    <path class="cls-1" d="M141.04,53.02c-.21-.03-.22-.05-.34-.1l-.02,.16,.36-.06Z"/>
    <path class="cls-1" d="M138.79,53.05c-.08,.04-1.12,.12-.14,.11,.08-.04,.85-.08,.14-.11Z"/>
    <polygon class="cls-1" points="127.14 52.8 127.34 52.8 127.31 52.54 127.14 52.8"/>
    <path class="cls-1" d="M116.88,53.35c.92,.07,.22-.16,1.05-.07,.22-.06-.68-.07-.46-.12-.55,.06-.84,.02-.59,.19Z"/>
    <path class="cls-1" d="M117.47,53.16c.09-.01,.18-.02,.28-.04-.16,.01-.24,.03-.28,.04Z"/>
    <polygon class="cls-1" points="1.63 50.66 1.04 50.6 1.42 50.69 1.63 50.66"/>
    <path class="cls-1" d="M.49,50.83l-.14-.16-.36,.14c.13,0,.39-.01,.49,.02Z"/>
    <path class="cls-1" d="M80.95,53.27l.05-.04c-.09-.04-.23-.05-.5-.06l.46,.1Z"/>
    <polygon class="cls-1" points="72.96 53.06 73.1 53.07 72.84 52.92 72.96 53.06"/>
    <path class="cls-1" d="M66.26,53.18c.27,0,.6,0,.87-.01-.6,.02-.94-.17-.87,.01Z"/>
  </g>
</svg>