<?xml version="1.0" encoding="UTF-8"?>
<svg id="Layer_1" data-name="Layer 1" xmlns="http://www.w3.org/2000/svg" viewBox="0 0 177.68 149.03">
  <defs>
    <style>
      .cls-1 {
        fill: #231f20;
      }
    </style>
  </defs>
  <g>
    <path class="cls-1" d="M166.85,43.36c.24,.01,.15-.09,.19-.11-.4,.02-.18,.14-.19,.11Z"/>
    <polygon class="cls-1" points="162.92 43.57 162.99 43.53 162.42 43.63 162.92 43.57"/>
    <path class="cls-1" d="M159.26,43.54c.35,.18,1.33-.02,1.98,.05l.11,.04,.3-.14c-.79,.02-1.83,.1-2.38,.05Z"/>
    <path class="cls-1" d="M157.31,43.14c.12,.07-.42,.06,.46,.03-.04,0-.06-.01-.08-.02-.08,0-.19,0-.37,0Z"/>
    <path class="cls-1" d="M157.68,43.14c.39,0-.25-.06,0,0h0Z"/>
    <path class="cls-1" d="M155.9,43.17l.51-.06c-.11-.04-.56-.05-.39-.08-.52,.03-.41,.07-.12,.14Z"/>
    <path class="cls-1" d="M155.41,43.3l.26-.02s-.12-.02-.26,.02Z"/>
    <path class="cls-1" d="M156.24,43.22l-.56,.05c.07,.03,.08,.09,.26-.02-.05,.05,.06,0,.3-.03Z"/>
    <path class="cls-1" d="M156.55,43.25c.28,.04,.65,.07,.14,.13,.97-.02,.83-.14-.14-.13Z"/>
    <path class="cls-1" d="M159.07,43.72l.38,.06,.33-.06c-.17,.03-.73-.05-.71,0Z"/>
    <path class="cls-1" d="M152.73,43.05s.17,.1,.21,.15l.38-.04c-.19-.03-.56-.05-.58-.11Z"/>
    <path class="cls-1" d="M152.94,43.2l-.56,.06c.5,.01,.59-.02,.56-.06Z"/>
    <polygon class="cls-1" points="155.32 43.49 156.25 43.36 155.14 43.49 155.32 43.49"/>
    <polygon class="cls-1" points="150.58 43.03 150.9 42.95 150.34 43.07 150.58 43.03"/>
    <path class="cls-1" d="M149.16,43.04c.24-.07-.32-.13-.07-.17-.39,.01-.72,.07-1.02,.12,.32-.03,.65-.02,1.09,.04Z"/>
    <path class="cls-1" d="M147.57,43.07c.16-.02,.32-.05,.5-.08-.17,.02-.33,.04-.5,.08Z"/>
    <path class="cls-1" d="M151.42,43.24s-.13-.08-.44-.11l.22,.11c.07,0,.14,0,.22,0Z"/>
    <path class="cls-1" d="M151.21,43.24h0c-.24,0-.41-.01-.48-.01,.06,0,.21,0,.49,.01Z"/>
    <path class="cls-1" d="M151.47,43.24s-.04,0-.06,0c.02,.01,.03,.01,.06,0Z"/>
    <path class="cls-1" d="M153.85,43.39c-.33,.06-1.02,.12-.35,.21,.24-.07-.14-.13,.35-.21Z"/>
    <path class="cls-1" d="M151.75,43.37l.6,.03s-.12-.07,.04-.1l-.64,.07Z"/>
    <polygon class="cls-1" points="151.46 43.41 151.75 43.37 151.53 43.36 151.46 43.41"/>
    <path class="cls-1" d="M148.6,43.18c-.26,.04-.54,.05-.86,.05,.34,.02,.69,.04,1.03,.04,.05-.03,.2-.09-.17-.09Z"/>
    <path class="cls-1" d="M149.86,43.22s-.04,0-.06,0c.04,0,.06,.01,.06,0Z"/>
    <path class="cls-1" d="M144.6,43.2s.03,.01,.05,.02c0,0,0-.01,.01-.02h-.06Z"/>
    <path class="cls-1" d="M148.82,43.29c.26,.02,.41,0,.56-.03-.19,0-.4,.01-.61,.01-.02,.01-.03,.02,.06,.02Z"/>
    <path class="cls-1" d="M146.7,43.11c.13,.02,.28,.04,.44,.06-.13-.03-.4-.09-.44-.06Z"/>
    <path class="cls-1" d="M149.72,43.19s.02,0,.04,0c-.08-.02-.07-.01-.04,0Z"/>
    <path class="cls-1" d="M149.72,43.19c-.13,.01-.24,.04-.34,.06,.16,0,.3-.02,.43-.03-.03,0-.06-.02-.09-.03Z"/>
    <path class="cls-1" d="M143.64,43.88c.05-.1,.72-.18,1.3-.07,.57-.07,.2-.4-.3-.58-.02,.04-.02,.08-.61,.14,.21,.06,1.31,.14,.81,.22-.78,.04-.64-.04-1.02-.1,.32,.13-1,.17-.83,.35l.69-.06s-.24,.07-.05,.1Z"/>
    <path class="cls-1" d="M145.77,43.24h.24c-.28-.03-.47-.07-.84-.15-.4,.05-.49,.08-.52,.11l1.2,.02h-.08Z"/>
    <path class="cls-1" d="M147.11,43.24c-.19,.11-.77,.15-.42,.27,.71,0,.5-.09,.93-.13-1.15,.02,.33-.06-.5-.13,.23-.02,.43-.02,.62-.02-.21-.01-.41-.03-.59-.05,.01,0,.02,0,.03,0h0s0,0,0,0c.05,.01,.07,.02,0,.01,0,0-.02,0-.02,0,0,.01-.03,.03-.05,.04-.33-.02-.05-.03,.05-.04,0,0,.01-.01,.01-.02,0,0,0,0,0,0l-1.15,.05c.24,.02,.55,.02,1.09,0Z"/>
    <path class="cls-1" d="M152.88,43.82s-.03-.02-.04-.03c-.07,.01-.1,.02,.04,.03Z"/>
    <path class="cls-1" d="M152.41,43.76c.08-.01,.15-.06,.43-.04,.24,.03,0,.05,.01,.09,.16-.03,.57-.07,.06-.13h-.08c-.46-.03-1.06-.17-.98-.18,.13,.1,.25,.17,.56,.27Z"/>
    <path class="cls-1" d="M149.72,43.52l-.96,.05,.49,.1-.02-.06c.55,.03,.43-.04,.5-.09Z"/>
    <polygon class="cls-1" points="144.49 43.15 144.62 43.03 144.06 43.19 144.49 43.15"/>
    <polygon class="cls-1" points="143.24 43.15 143.29 43.05 142.96 43.11 143.24 43.15"/>
    <path class="cls-1" d="M72.92,43.83l-.28,.03c.13,0,.22-.02,.28-.03Z"/>
    <path class="cls-1" d="M74.96,43.85l.05-.05c-.09,.03-.13,.05-.05,.05Z"/>
    <path class="cls-1" d="M112.64,42.92c-.41-.1-.87-.24-.82-.13l.13,.11c.29-.02,.51,0,.69,.02Z"/>
    <path class="cls-1" d="M91.68,43.41s.08,.02,.12,.03c.1-.04,.19-.07,.28-.1-.12,.02-.26,.04-.4,.07Z"/>
    <path class="cls-1" d="M91.39,43.85l-.54-.07c.12,.03,.3,.05,.54,.07Z"/>
    <path class="cls-1" d="M61.78,43.85l-.33,.11c.51,0,.29-.05,.33-.11Z"/>
    <path class="cls-1" d="M130.48,43.09c-.35-.05-.64-.07-.88-.07,.43,.07,.77,.16,.88,.07Z"/>
    <path class="cls-1" d="M73.73,42.68c-.17,.02-.25,.04-.24,.06,.18-.02,.28-.04,.24-.06Z"/>
    <path class="cls-1" d="M128.58,43.01c.06,.01,.12,.02,.19,.03,.26-.02,.52-.03,.84-.02-.31-.05-.68-.08-1.02,0Z"/>
    <path class="cls-1" d="M21.38,43.45s-.06,0-.09-.01c0,.01,.03,.02,.09,.01Z"/>
    <path class="cls-1" d="M9.62,42.26c.12,0,.31,0,.48,0-.09,0-.23,0-.48,0Z"/>
    <path class="cls-1" d="M138.23,43.06c.26,0,.04-.01,0,0h0Z"/>
    <path class="cls-1" d="M139.51,43.5c-.06,.01-.1,.03-.11,.05,.02-.03,.06-.04,.11-.05Z"/>
    <path class="cls-1" d="M125.94,43.67s-.01,0-.02,0c.08,.02,.06,.02,.02,0Z"/>
    <path class="cls-1" d="M138.63,43.12c-.1-.01-.21-.03-.34-.03,.05,0,.16,.02,.34,.03Z"/>
    <path class="cls-1" d="M138.58,43.07c.09,0,.16,0,.23,.01,.03-.02,0-.03-.23-.01Z"/>
    <path class="cls-1" d="M137.86,43.07c.15,0,.29,0,.43,.01-.05,0-.07-.01-.06-.02-.08,0-.19,0-.37,0Z"/>
    <path class="cls-1" d="M43.03,43.33s-.04,0-.06-.01c-.27,.04-.15,.04,.06,.01Z"/>
    <path class="cls-1" d="M105.76,43.99s.02,0,.03,0c-.01,0-.03,0-.04,0h0Z"/>
    <path class="cls-1" d="M104.81,44.07c.41-.13,.63-.11,.94-.08l-.31-.32-.63,.4Z"/>
    <path class="cls-1" d="M68.04,43.82l.67,.1c-.81,.15-1.39,.09-.76,.24,.1-.34,2.59-.01,2.69-.35l.44,.07c-.13,0-.15,.02-.27,.01,.85,.17,.64-.24,1.74-.18,.38,.03,.65,.08,.39,.12l.86-.08c.25,0,.19,.07-.06,.06l1.3-.02h0c.19-.04,.61-.12,.81-.15,.33,.05-.17,.03-.08,.08l.72-.08c.29,.09-.31,.17-.8,.15,.67,.34,.6-.08,2.05,.13l-.68,.04c.44,.2,.97,.13,1.74,.26-.18-.06-1.54-.31-.76-.39,.22,.03,.51,.04,.93-.02,0,.12,.42,.09,.93,.09l-.04,.16c.56-.04,.52-.12,.84-.19,.62,.02,.75,.15,.9,.25,1,.03-.69-.2,.49-.22,.83,.07,1.41,0,2.4-.08,.58,.06-.1,.1,.11,.14l.52-.12c.13,0,.08,.04,.06,.06,.43-.05,.04-.16,.72-.2,.19-.17,1.4,.27,2.24,.07,.21,.05-.1,.1-.04,.16,1.16-.12,.99-.09,1.94-.26l.81,.11c-.59-.12,.17-.26,.83-.37-.21-.06-.39-.11-.51-.14l1.06-.08c.13,.03,.02,.08-.15,.15,.07-.01,.14-.03,.19-.04,.38,.06,.18,.15-.09,.24-.13-.03-.26-.07-.38-.1-.26,.1-.51,.2-.46,.29,.07-.02,.2-.03,.35-.04-.07,.03-.11,.05-.08,.07,.04,.02,.15-.02,.32-.06l.24,.18,.06-.07,1.39,.12c1-.17,1.86-.43,3.44-.49-.39,.13-.09,.21-.11,.37-.43-.17-1.22,.06-2.04,.02,.43,.02,.33,.09,.22,.12l1.46-.14c-.03,.13,.31,.1,.69,.15-.29-.25,1.09-.16,1.68-.23,.04,.08-.11,.17-.83,.14,.8,.19,1.03-.29,1.82-.12-.18,0-.27-.01-.34,.03,.41-.07,1.42,0,1.18,.07h-.18c1.17,.04,3.57,.03,3.75-.18,.01,.03-.16,.26-.23,.3l2.1-.7c-.19,.18,.52,.62-.46,.72,.28,.03,.62,.06,1.21,0-.19-.03-.47-.27-.21-.28,.71,.21,.5,.11,1.38,.29-.29-.04,.03-.33,.49-.31-.07,.04,.04,.28-.13,.31l1.13-.27c-.28,.05-.05,.24,.2,.32-.12-.06,.97,.01,1.27-.01l-.48-.07c1.27,.05,1.26-.39,2.52-.36-.15,.06-.38,.35,.26,.39,.29-.14,1.3-.68,2.42-.78l.21,.08,.86-.09c-.53,.21-2.03,.66-2.85,.83,.47,.07,.13,.1,.84,.1,.25,.08-.39,.11-.6,.12l1.66,.06c-.07-.17,1.27-.16,1.21-.3l-1.8,.16c-.07-.17,1.04-.47,2.22-.43,.3,.07-.23,.3-.2,.35,.15-.06,1.11-.1,1.22-.06l-.5,.09c.65,.07,1.07-.21,1.85-.05,.27,.01,.81,.22,.85,.12-.44-.2-.52-.79-.23-.93,.09,.01,1.42,.19,1.73,.29,.44,.15-.67,.35-.29,.49,.02-.05,.26-.1,.37-.12,.28,.04-.12,.14,.5,.13,.1-.17,1.26,.02,.29-.14,.61-.04,.64,.04,1.35,.04-.23-.11,.64-.37,1.25-.41-.04,.04,.1,.1,.17,.13,1.24,.03,1.9,.11,3.06,.12,.11,.04,.66,.1,.43,.17,.17-.03,.32-.09,.68-.09,.69,.15-.8,.02-.27,.2,.05-.1,.92-.13,1.43-.19-.15-.15-1.17-.04-1.68,.02,0-.21,.89-.42,2.09-.51,.96-.04,.42,.14,.58,.11,1.8,.05,1.54-.36,3.04-.19,.59,.14,.02,.27,.16,.37-.78,.04-1.2-.09-1.73-.09l.65,.07c-.25,.04-.77,.07-1.06,.03,.5,.12,3.05,.05,4.44,.17,.25-.04,.67-.09,.47-.14l-.44,.02c-.4-.11,.83-.14,.27-.2,.59-.07,1.25-.19,2.08-.12l.15,.15s-.54-.1-.78-.05c.35-.07,1.27,.22,1.65,.02l-.58-.11c.59-.07,1.33-.23,2.06-.18-.33-.15-.17,.02-.69-.17,.45,.22-1.88-.02-1.16,.21-.54-.21-.93-.09-1.63-.28,.02,.05,.25,.1-.37,.07-.03,.01-.09,.03-.14,.04-.02,0-.03,0-.04,0,.01,0,.02,0,.03,0-.03,0-.03,0,.01,0,.15,.02,.27,.05,.31,.08-.31,.11-1.29,.1-1.62,.16-.37-.03,.15-.06-.05-.11l-.5,.09c-.05-.11-.97-.19-.11-.25h-.78c-.46-.08-1.09-.11-1.48-.06-.37-.03-.93,.12-.61,.03l-1.22,.06v-.03c-1.22-.02-2.49,.17-3.87-.05-.41,.03-.82,.06-1.5,.02l-.13-.1c-.52,.03-1.56-.11-1.79,0-.56-.27-2.53-.08-3.44-.13l-.04,.13c-.63-.01-1.23,.02-2.02,.06l.05,.11c-.68,.09-1.73-.09-2.8-.09,.07-.04,.34-.03,.53,0-1.27-.26-2.69,.16-3.84-.03-.29,.04-.5,.02-.7,0,.03,0,.05,0,.07,0-.03,0-.07,0-.12,0-.13-.02-.26-.04-.4-.06,.12,.03,.24,.05,.34,.06-.22,0-.56,.01-.89,.04l-.14-.12s-.05,0-.08,0c-.32-.05-.26,.05-.09,.15-.17,.02-.32,.04-.44,.07-.26-.2-.87,.06-1.22-.15-.22,.1-1.66,.06-1.84,.27-.01-.03-.11-.04,.07-.04-.37-.03-.74-.05-1.07,0l-.15-.15-.81,.2c-.49-.1-.69-.15-.2-.27-1.17,.17-.95,.06-1.95,.23l.05-.1c-.36,0-.93,.13-1.14,.05-.79-.19-3.94-.06-5.98-.25,.39,.29-.95-.14-1.03,.09-.12-.07-.4-.11-.07-.17-1.04,.06-1.57-.12-2.29,.06-.12-.07,.22-.1,.12-.14-.08,.01-.33,.06-.44,.02-.11-.04,.15-.06,.32-.09-1.07,0-1.17,.21-1.25,.41-.54-.1-.81-.09-1.2,.04-.19-.07-.5-.14,.16-.16-.37-.01-2.27-.11-2.31,.05-.12-.04-.52-.02-.62,0-.84-.02-.91-.03-1.73-.02l.23,.03c-.33,.19-.68,.04-1.34,.06l.02-.02c-1.52-.15-.66,.06-2.15-.11l.08,.12c-.14,.26-1.32-.16-2.19-.07l.31,.07c-.48,.08-1.32-.36-1.8-.4-.1-.02,.16-.03,.31-.05-1.25-.16-.16,.16-1.09,.19-.17-.09,.22-.21-.4-.23-.31-.07-1.82,.26-2.67,.09,.19,.07,.37,.13-.06,.18-.66,.02-1.79-.26-2.39-.06-.08-.02-.12-.04-.12-.05-.51,.05-1.64,.08-1.95,.18-.46-.42-3.15,.18-3.13-.21h-1.56s.04-.03,.04-.03c-.99-.03-1.35,.06-1.7,.14-.23-.03-.06-.06-.04-.08-1.45-.09-1.6-.07-2.82,.11l-.13-.12c-.33,.07-2.1-.21-3.53-.08,.01-.01,.04-.04,.16-.05-1.6,.13-3.84-.37-4.43,.07l-1.06,.1c1.37,.05-.21,.19,.36,.27-.54,.02-1.39-.15-.73-.17l.1,.02c.24-.23-1.7-.1-1.66-.26-2.69,0-5.32-.16-7.84-.19l.29,.19-.88-.02c-.23-.04-.31-.15,.32-.13-.33-.11-1.05,.08-1.07,.12-1.23-.08,.48-.21,.1-.22h-.51s.12,.03,.12,.03c-.42,.07-.45,.15-1.21,.14-.48-.04-.24-.11-.43-.12,0-.01-.06-.02-.29,0l-1.11-.02,.44,.15c-.49,.07-1.04-.02-.53,.15-.75-.26-4.14-.12-4.6-.2-.69,.1-1.37,.09-2.21,.07,.21,.03,.33,.19-.39,.17,.27-.33-1.33-.16-1.91-.4,.52,.16-2.06,.02-1.24,.26-.61-.03-.04-.13-.49-.21-1.44,.12-3.18-.11-4.96-.08-.03,.04,.27,.11-.11,.18l-.94-.23c-.35,.02-.33,.25-.97,.09,.09,.04,.23,.09-.01,.11-3.49-.24-7.14,.12-10.68-.31,.48,.09,.16,.09-.21,.1,.24,.02,0,.11,.04,.17l-1.48-.18c-.27,.16-1.59,0-1.75,.16l.47-.02c-.63,.18,.87,.42,.78,.66,.7-.21,1.84,.33,2.99,.03,.25,.05-.22,.08-.08,.13,.29-.1,.64-.12,1.29-.07l-.07,.02c1.83-.01,2.61,.1,4.67,.18l-.15-.12c.44,.02,.53,.06,.74,.09,.51-.18-1.24-.02-.78-.21,.58,.25,3.12,.03,3.51,.31,.68,0-.2-.14,.48-.13l.18,.08,.17-.09c.45,.02,.67,.11,.69,.18-.11,0-.31,.02-.42,.02,.58,.09,1.63-.02,1.83,.01l-.65-.05c1.86-.05,4.12,.06,5.91-.08l-.14-.06c1.37-.09,1.1,.07,2.6,.03h-.05c.3-.04,.7-.07,1.11-.06-.38,.06,.71,.13,.21,.2,1.48-.1,.73-.08,1.72-.28l.23,.09c.33-.08,.36-.13,1.11-.14-.62,.07,.48,.15-.21,.24,1.57,.22,2.34-.19,3.06,.12,.73-.25-1.36-.15-.96-.2-.34-.09,.6-.19,1.09-.16,.5,0,.85,.33,2.12,.34-.13,0-.13,.02-.26,.02,.47,.07,.93-.08,1.51,.03,.33-.15,.75,.01,.85-.18l-1.16,.04c.66-.05,1.28-.27,2.36-.15-.08,.04-.41,.09-.63,.12,.32,.06,.61-.03,.94,.03-.1,.2-1.41,.03-2.12,.18,.34,.09,1.33-.13,.98,.08,.51-.27,1.25,.04,2.11-.16l-.06,.12c.14-.02,.42-.07,.67-.07l-.45,.15c.69-.13,1.34,.13,2,.06-1.39,0-.31-.15-.9-.24,1.72-.15,.99,.32,2.91,.28-.26,.01-.98-.08-.57-.13,.37,.03,.85,.08,1.07,.14,1.27-.01-.19-.12,.35-.19,.43,.15,.63-.05,1.19-.1v.12c1.45,.09,.39-.25,1.7-.14l-.55,.16,.68-.04-.14,.14c.74-.1,.97-.07,1.7-.02-.17-.09,.1-.22,.74-.22,.44,.08-.25,.11,.67,.1-.21,.07-.43,.17-.83,.05-.04,.04-.2,.07-.25,.11,.47,.09,1.19,.03,1.52,.03-.13,0-.28-.01-.36-.03l1.32-.16c.21,.05,.04,.08-.12,.12,.27-.01,.45-.06,.85-.07-.1,.1-.08,.2-.64,.24l1.26-.1c.08,.04,.65,.12,.48,.16,.7,.06,1.71-.18,2.64-.09,.05-.02,.14-.04,.34-.05,.87,.03,1.64,.16,2.67,.03l.58,.18c.81-.03-.79-.23,.56-.28,.95-.05,.35,.15,.69,.2,.47-.08,1.3-.26,2.17-.11-.29,.03-.52,0-.79,.01Zm9.96,0c-.19,.02-.58,.1-.72,.03,.22-.14,.39-.07,.72-.03Zm15.14-.17c-.14,.04-.37,.02-.62-.03,.18,0,.39,0,.62,.03Zm42.19-.51s-.01,0-.02,0c-.43-.05-.28-.03,.02,0Zm.89,.06c.09-.02,.08-.03,.05-.05-.06,.03-.26,.03-.49,.02,.06,.03,.18,.05,.45,.03Zm-96.01-.71l.17,.03c-.39,.03-.28,0-.17-.03Z"/>
    <path class="cls-1" d="M91.43,43.8c-.05-.02-.07-.04-.08-.07-.08,.02-.08,.04,.08,.07Z"/>
    <path class="cls-1" d="M61.84,43.83s-.02,0-.03,0c-.02,0-.03,.01-.03,.02l.06-.02Z"/>
    <path class="cls-1" d="M122.37,44.11c-.18-.02-.29-.04-.35-.07-.01,.03,.07,.06,.35,.07Z"/>
    <path class="cls-1" d="M140.97,43.03l-.57,.03c.28,0,.38,.02,.52,.04-.01-.03-.12-.07,.06-.07Z"/>
    <path class="cls-1" d="M145.93,43.82c.08-.01,.18,0,.26-.01l-.02-.06c-.36,0-.61,.04-.24,.07Z"/>
    <path class="cls-1" d="M141.49,43.44c.04,.1,.4,.07,.81,.05-.02,0-.05,0-.07,0,.12-.14-.31-.1-.73-.05Z"/>
    <path class="cls-1" d="M142.39,43.49c.12,0,.25,0,.37,0,.05-.06-.15-.01-.37,0Z"/>
    <path class="cls-1" d="M137.36,43.14c.19,.03,.12-.13,.23-.09,.21-.13-1.27,.15-.23,.09Z"/>
    <polygon class="cls-1" points="141.82 43.77 141.67 43.65 141.45 43.75 141.82 43.77"/>
    <path class="cls-1" d="M138.65,43.66l.64,.04s.07-.03,.17-.04c-.39,0-.83-.04-.81,0Z"/>
    <path class="cls-1" d="M139.46,43.66c.21,0,.4,0,.52-.02-.11,0-.35,0-.52,.02Z"/>
    <polygon class="cls-1" points="140.94 43.8 140.75 43.78 140.3 43.76 140.94 43.8"/>
    <path class="cls-1" d="M131.76,43.58l-.7,.03c-.07,.04,.12,.07,.38,.06,.17-.03,.43-.04,.32-.09Z"/>
    <path class="cls-1" d="M133.87,43.94c-.19-.03-.2-.06-.31-.1l-.02,.16,.33-.06Z"/>
    <path class="cls-1" d="M131.83,43.96c-.07,.04-1.02,.12-.13,.11,.07-.04,.77-.07,.13-.11Z"/>
    <polygon class="cls-1" points="121.29 43.68 121.47 43.68 121.45 43.42 121.29 43.68"/>
    <path class="cls-1" d="M112,44.22c.83,.07,.2-.16,.95-.07,.2-.06-.61-.07-.41-.12-.5,.06-.76,.02-.53,.19Z"/>
    <path class="cls-1" d="M112.53,44.02c.08,0,.17-.02,.26-.04-.15,.01-.21,.03-.26,.04Z"/>
    <polygon class="cls-1" points="7.67 42.11 7.13 42.05 7.48 42.14 7.67 42.11"/>
    <path class="cls-1" d="M6.64,42.29l-.12-.16-.32,.14c.12,0,.35-.02,.45,.02Z"/>
    <path class="cls-1" d="M79.48,44.16l.04-.04c-.08-.04-.21-.05-.46-.06l.42,.09Z"/>
    <polygon class="cls-1" points="72.25 43.98 72.37 43.98 72.14 43.84 72.25 43.98"/>
    <path class="cls-1" d="M66.18,44.12c.25,0,.54-.02,.79-.01-.54,.02-.85-.17-.79,.01Z"/>
  </g>
  <g>
    <path class="cls-1" d="M167.61,67.04c.24,0,.15-.1,.19-.12-.4,.02-.18,.14-.19,.12Z"/>
    <polygon class="cls-1" points="163.7 67.29 163.77 67.25 163.19 67.35 163.7 67.29"/>
    <path class="cls-1" d="M160.04,67.3c.35,.18,1.33-.03,1.98,.03l.11,.04,.29-.14c-.79,.03-1.82,.12-2.38,.08Z"/>
    <path class="cls-1" d="M158.09,66.92c.12,.07-.42,.06,.46,.02-.04,0-.06-.01-.08-.02-.08,0-.19,0-.37,0Z"/>
    <path class="cls-1" d="M158.46,66.92c.39,0-.25-.06,0,0h0Z"/>
    <path class="cls-1" d="M156.68,66.97l.51-.06c-.11-.04-.56-.05-.39-.08-.52,.03-.41,.08-.12,.14Z"/>
    <path class="cls-1" d="M156.2,67.1l.26-.03s-.12-.02-.26,.03Z"/>
    <path class="cls-1" d="M157.02,67.02l-.56,.06c.07,.03,.08,.09,.26-.02-.05,.05,.06,0,.3-.04Z"/>
    <path class="cls-1" d="M157.33,67.04c.29,.04,.65,.06,.14,.12,.97-.03,.83-.15-.14-.12Z"/>
    <path class="cls-1" d="M159.85,67.49l.38,.05,.33-.06c-.16,.03-.73-.05-.71,.01Z"/>
    <path class="cls-1" d="M153.51,66.88s.17,.1,.21,.15l.38-.04c-.19-.03-.56-.05-.58-.11Z"/>
    <path class="cls-1" d="M153.72,67.03l-.56,.07c.5,0,.59-.02,.56-.07Z"/>
    <polygon class="cls-1" points="156.11 67.3 157.03 67.16 155.93 67.3 156.11 67.3"/>
    <polygon class="cls-1" points="151.37 66.88 151.69 66.79 151.12 66.92 151.37 66.88"/>
    <path class="cls-1" d="M149.95,66.9c.24-.07-.32-.12-.07-.17-.39,.01-.72,.08-1.01,.13,.32-.03,.65-.02,1.09,.03Z"/>
    <path class="cls-1" d="M148.36,66.94c.16-.02,.32-.05,.5-.08-.17,.02-.33,.04-.5,.08Z"/>
    <path class="cls-1" d="M152.21,67.08s-.13-.08-.44-.11l.22,.11c.07,0,.14,0,.22,0Z"/>
    <path class="cls-1" d="M151.99,67.08h0c-.24,0-.41,0-.48,0,.06,0,.21,0,.48,0Z"/>
    <path class="cls-1" d="M152.26,67.08s-.04,0-.06,0c.02,.01,.03,.01,.06,0Z"/>
    <path class="cls-1" d="M154.64,67.2c-.33,.06-1.02,.13-.35,.22,.24-.07-.14-.12,.35-.22Z"/>
    <path class="cls-1" d="M152.54,67.21l.6,.02s-.12-.07,.04-.1l-.64,.08Z"/>
    <polygon class="cls-1" points="152.24 67.25 152.54 67.21 152.31 67.2 152.24 67.25"/>
    <path class="cls-1" d="M149.38,67.04c-.26,.05-.54,.05-.86,.06,.34,.02,.69,.03,1.03,.03,.05-.03,.19-.09-.17-.09Z"/>
    <path class="cls-1" d="M150.65,67.07h-.06s.06,.02,.06,0Z"/>
    <polygon class="cls-1" points="145.39 67.1 145.44 67.12 145.46 67.1 145.39 67.1"/>
    <path class="cls-1" d="M149.61,67.15c.26,.02,.41,0,.56-.04-.19,.01-.39,.02-.61,.02-.02,.02-.03,.03,.06,.02Z"/>
    <path class="cls-1" d="M147.49,66.99c.14,.02,.29,.04,.44,.06-.13-.03-.4-.09-.44-.06Z"/>
    <path class="cls-1" d="M150.51,67.05h.04c-.08-.03-.07-.02-.04,0Z"/>
    <path class="cls-1" d="M150.51,67.05c-.13,.02-.24,.04-.34,.07,.16,0,.3-.02,.43-.04-.03,0-.06-.02-.09-.03Z"/>
    <path class="cls-1" d="M144.45,67.78c.05-.1,.72-.19,1.3-.08,.57-.07,.2-.4-.3-.58-.02,.04-.02,.08-.61,.14,.21,.05,1.31,.13,.81,.22-.78,.05-.64-.04-1.02-.09,.32,.12-.99,.18-.82,.36l.68-.06s-.24,.07-.05,.1Z"/>
    <path class="cls-1" d="M146.57,67.13h.24c-.28-.03-.47-.07-.84-.15-.4,.05-.49,.08-.51,.12h1.19s-.08,.03-.08,.03Z"/>
    <path class="cls-1" d="M147.9,67.12c-.19,.11-.77,.15-.41,.27,.71,0,.5-.09,.92-.14-1.15,.03,.33-.06-.5-.12,.23-.02,.43-.02,.62-.03-.2-.02-.4-.03-.59-.05h.03s0,0,0,0h0s.07,.02,0,.02c0,0-.02,0-.02,0,0,.02-.03,.03-.05,.04-.33-.02-.05-.03,.05-.04,0,0,.01-.01,.01-.02h0s-1.15,.06-1.15,.06c.24,.01,.55,.01,1.09,0Z"/>
    <path class="cls-1" d="M153.67,67.65s-.03-.02-.04-.02c-.07,.01-.1,.02,.04,.02Z"/>
    <path class="cls-1" d="M153.2,67.59c.08-.02,.15-.06,.43-.05,.24,.03,0,.05,.01,.09,.16-.03,.57-.08,.06-.13h-.08c-.46-.02-1.06-.16-.98-.17,.14,.1,.25,.17,.56,.26Z"/>
    <path class="cls-1" d="M150.51,67.38l-.96,.05,.49,.09-.02-.06c.54,.02,.43-.05,.49-.09Z"/>
    <polygon class="cls-1" points="145.29 67.05 145.41 66.93 144.86 67.09 145.29 67.05"/>
    <polygon class="cls-1" points="144.04 67.06 144.09 66.96 143.76 67.02 144.04 67.06"/>
    <path class="cls-1" d="M73.8,67.73l-.28,.02c.13,0,.22-.01,.28-.02Z"/>
    <path class="cls-1" d="M75.83,67.76l.05-.05c-.09,.03-.13,.04-.05,.05Z"/>
    <path class="cls-1" d="M113.48,66.96c-.41-.1-.87-.24-.82-.13l.13,.11c.29-.02,.51,0,.69,.02Z"/>
    <path class="cls-1" d="M92.54,67.41l.12,.03c.1-.04,.19-.07,.28-.1-.12,.02-.26,.04-.4,.07Z"/>
    <path class="cls-1" d="M92.24,67.85l-.54-.08c.12,.03,.29,.05,.54,.08Z"/>
    <path class="cls-1" d="M62.67,67.65l-.33,.1c.51,0,.29-.05,.33-.1Z"/>
    <path class="cls-1" d="M131.29,67.08c-.35-.04-.63-.06-.88-.07,.43,.06,.77,.16,.88,.07Z"/>
    <path class="cls-1" d="M74.61,66.59c-.17,.02-.25,.04-.24,.06,.18-.02,.28-.03,.24-.06Z"/>
    <path class="cls-1" d="M129.39,67c.07,0,.12,.02,.19,.03,.26-.02,.52-.03,.83-.02-.31-.05-.67-.08-1.02,0Z"/>
    <path class="cls-1" d="M22.31,66.67l-.09-.02s.03,.02,.09,.02Z"/>
    <path class="cls-1" d="M10.59,65.24c.12,0,.3,0,.48,0-.09,0-.23-.01-.48,0Z"/>
    <path class="cls-1" d="M139.03,67.01c.26,0,.04-.01,0,0h0Z"/>
    <path class="cls-1" d="M140.32,67.44c-.06,.01-.1,.03-.11,.05,.02-.03,.06-.04,.11-.05Z"/>
    <path class="cls-1" d="M126.76,67.67h-.02c.08,.02,.06,.02,.02,0Z"/>
    <path class="cls-1" d="M139.43,67.06c-.1-.01-.21-.02-.34-.03,.06,0,.16,.02,.34,.03Z"/>
    <path class="cls-1" d="M139.38,67.01c.09,0,.16,0,.23,.01,.03-.02,0-.03-.23-.01Z"/>
    <path class="cls-1" d="M138.67,67.01c.15,0,.29,0,.43,.01-.05,0-.07-.01-.06-.02-.08,0-.19,0-.37,0Z"/>
    <path class="cls-1" d="M43.94,66.9s-.03,0-.06-.01c-.27,.04-.15,.03,.06,.01Z"/>
    <path class="cls-1" d="M106.6,68.03h.03s-.03,0-.04,0h0Z"/>
    <path class="cls-1" d="M105.65,68.1c.4-.13,.63-.11,.94-.08l-.31-.32-.63,.4Z"/>
    <path class="cls-1" d="M68.92,67.68l.66,.11c-.81,.15-1.39,.08-.76,.23,.1-.34,2.59,0,2.69-.33l.44,.08c-.13,0-.15,.01-.27,0,.85,.18,.64-.24,1.74-.17,.38,.03,.65,.09,.39,.12l.86-.07c.25,.01,.19,.07-.06,.06h1.3s0,0,0,0c.19-.05,.61-.13,.82-.16,.33,.05-.17,.03-.08,.08l.72-.07c.29,.09-.31,.17-.8,.15,.67,.35,.6-.08,2.05,.14l-.68,.03c.44,.2,.97,.14,1.74,.27-.18-.07-1.54-.32-.75-.4,.22,.03,.51,.04,.93-.02,0,.12,.41,.1,.93,.1l-.04,.16c.56-.04,.52-.12,.84-.19,.62,.02,.75,.15,.89,.26,1,.04-.68-.21,.49-.22,.83,.07,1.41,.02,2.4-.07,.58,.06-.1,.1,.1,.15l.52-.12c.13,0,.08,.04,.06,.06,.43-.04,.04-.16,.72-.19,.19-.17,1.39,.28,2.24,.08,.21,.05-.1,.1-.04,.16,1.16-.12,.99-.08,1.94-.25l.81,.11c-.59-.13,.17-.26,.83-.37-.21-.06-.39-.11-.51-.14l1.06-.07c.13,.03,.02,.08-.15,.15,.07-.01,.14-.03,.19-.04,.38,.06,.18,.15-.09,.24-.13-.03-.25-.07-.38-.1-.26,.09-.51,.2-.46,.29,.07-.02,.2-.03,.35-.04-.07,.03-.11,.05-.08,.06,.04,.02,.15-.02,.32-.06l.24,.18,.06-.07,1.39,.13c1-.17,1.86-.42,3.44-.48-.39,.13-.09,.21-.11,.37-.43-.17-1.22,.06-2.04,.01,.43,.02,.33,.09,.22,.12l1.46-.13c-.03,.13,.31,.1,.69,.15-.29-.25,1.09-.16,1.68-.23,.04,.08-.11,.17-.83,.14,.8,.2,1.03-.28,1.82-.12-.18,0-.27-.01-.34,.03,.41-.07,1.42,0,1.18,.07h-.18c1.17,.04,3.57,.04,3.75-.18,.01,.03-.16,.25-.23,.3l2.1-.7c-.19,.18,.52,.62-.46,.72,.28,.03,.62,.06,1.21,0-.19-.03-.47-.27-.21-.28,.71,.21,.49,.11,1.37,.29-.29-.04,.03-.33,.49-.31-.07,.04,.04,.28-.13,.31l1.12-.27c-.28,.05-.05,.24,.2,.32-.12-.06,.97,.01,1.27-.01l-.48-.07c1.27,.05,1.26-.39,2.51-.36-.15,.06-.38,.35,.26,.39,.29-.14,1.3-.68,2.42-.79l.21,.08,.85-.09c-.53,.21-2.03,.66-2.84,.83,.47,.07,.13,.1,.84,.1,.25,.08-.39,.11-.6,.12l1.65,.06c-.07-.17,1.27-.16,1.2-.3l-1.8,.16c-.07-.17,1.04-.47,2.21-.43,.3,.07-.22,.3-.2,.35,.15-.06,1.11-.1,1.22-.06l-.5,.09c.65,.07,1.07-.22,1.85-.05,.27,.01,.81,.22,.85,.12-.44-.19-.52-.79-.23-.93,.09,.01,1.42,.19,1.73,.29,.44,.15-.67,.36-.29,.49,.02-.05,.26-.1,.37-.12,.28,.04-.12,.14,.5,.12,.1-.17,1.26,.02,.29-.14,.6-.05,.64,.04,1.35,.03-.23-.11,.64-.37,1.24-.42-.04,.04,.1,.1,.17,.13,1.24,.02,1.9,.1,3.06,.1,.11,.04,.66,.09,.43,.17,.17-.03,.32-.09,.68-.09,.69,.15-.79,.02-.27,.2,.05-.1,.92-.13,1.43-.19-.16-.15-1.17-.03-1.68,.03,0-.21,.88-.43,2.09-.52,.96-.05,.42,.14,.58,.11,1.8,.04,1.54-.36,3.03-.21,.59,.14,.03,.27,.16,.36-.78,.05-1.2-.09-1.73-.08l.65,.07c-.25,.04-.77,.08-1.05,.04,.5,.12,3.04,.03,4.43,.15,.25-.04,.67-.09,.47-.15l-.44,.02c-.4-.11,.83-.15,.27-.2,.59-.08,1.25-.2,2.08-.13l.16,.15s-.54-.09-.78-.05c.35-.07,1.27,.21,1.65,0l-.58-.11c.59-.08,1.32-.24,2.06-.19-.33-.15-.17,.02-.69-.16,.45,.22-1.88-.01-1.15,.22-.54-.21-.93-.09-1.63-.26,.02,.05,.25,.1-.37,.07-.03,.01-.09,.03-.14,.04-.02,0-.03,0-.04,0h.03s-.03,.02,.01,0c.15,.02,.27,.05,.31,.08-.31,.12-1.29,.11-1.62,.17-.37-.02,.15-.06-.05-.11l-.5,.09c-.05-.11-.97-.19-.11-.25h-.78c-.46-.07-1.09-.1-1.48-.05-.37-.03-.93,.12-.61,.03l-1.22,.07v-.03c-1.21-.02-2.49,.18-3.86-.03-.41,.03-.82,.06-1.5,.03l-.13-.1c-.52,.03-1.56-.1-1.78,0-.56-.26-2.52-.07-3.44-.12l-.04,.13c-.63-.01-1.23,.02-2.01,.07l.05,.11c-.67,.09-1.73-.09-2.8-.08,.07-.04,.34-.03,.53,0-1.27-.26-2.69,.17-3.84-.03-.29,.04-.5,.02-.7,0,.03,0,.05,0,.07,0-.03,0-.07,0-.12,0-.13-.02-.26-.04-.4-.06,.12,.03,.24,.05,.34,.06-.22,0-.56,.01-.89,.04l-.14-.12s-.05,0-.08,0c-.32-.05-.26,.06-.09,.15-.17,.02-.32,.04-.44,.07-.26-.2-.87,.06-1.22-.15-.22,.1-1.66,.06-1.84,.28-.01-.03-.11-.04,.07-.04-.37-.03-.73-.05-1.06,0l-.15-.15-.8,.2c-.49-.1-.69-.15-.2-.27-1.17,.17-.95,.06-1.95,.23l.05-.1c-.36,0-.92,.13-1.14,.04-.79-.2-3.93-.06-5.97-.26,.39,.3-.95-.14-1.03,.08-.12-.07-.4-.11-.07-.17-1.04,.06-1.56-.13-2.29,.05-.12-.07,.22-.1,.12-.14-.08,.01-.33,.06-.44,.01-.11-.04,.15-.06,.32-.08-1.06,0-1.17,.21-1.25,.41-.54-.1-.81-.09-1.2,.04-.19-.07-.5-.14,.16-.15-.37-.01-2.27-.12-2.31,.04-.12-.04-.52-.02-.62,0-.83-.02-.91-.03-1.73-.03l.23,.03c-.33,.19-.68,.03-1.34,.05l.02-.02c-1.51-.16-.65,.06-2.15-.12l.08,.12c-.14,.26-1.32-.17-2.19-.08l.31,.07c-.47,.08-1.32-.37-1.79-.41-.1-.02,.16-.03,.31-.05-1.24-.17-.16,.15-1.09,.18-.17-.09,.22-.21-.4-.24-.31-.07-1.82,.25-2.67,.08,.19,.07,.37,.14-.06,.18-.66,.01-1.78-.28-2.38-.08-.08-.02-.12-.04-.12-.05-.51,.05-1.64,.06-1.95,.17-.46-.42-3.14,.15-3.13-.23h-1.55s.04-.04,.04-.04c-.99-.04-1.35,.04-1.7,.13-.23-.03-.06-.06-.04-.08-1.45-.1-1.59-.09-2.81,.08l-.12-.13c-.33,.07-2.09-.23-3.52-.11,.01-.01,.04-.04,.16-.05-1.6,.12-3.83-.41-4.42,.02l-1.06,.09c1.37,.06-.21,.19,.35,.28-.54,.02-1.39-.16-.73-.17l.1,.02c.25-.23-1.7-.12-1.66-.28-2.69-.04-5.31-.22-7.83-.29l.29,.19-.88-.03c-.23-.05-.31-.15,.32-.13-.33-.11-1.05,.06-1.07,.1-1.23-.1,.48-.2,.11-.22h-.51s.11,.03,.11,.03c-.42,.07-.45,.14-1.21,.12-.48-.05-.24-.12-.43-.13,0-.01-.06-.02-.29-.01l-1.11-.04,.44,.15c-.49,.06-1.04-.03-.53,.14-.74-.27-4.13-.18-4.59-.28-.69,.09-1.37,.07-2.21,.04,.21,.04,.33,.2-.4,.16,.27-.33-1.32-.18-1.9-.43,.52,.17-2.06-.01-1.25,.24-.6-.04-.03-.13-.49-.22-1.44,.1-3.17-.17-4.95-.17-.03,.04,.27,.12-.12,.17l-.93-.24c-.35,.01-.33,.25-.97,.08,.09,.04,.22,.1-.01,.11-3.48-.3-7.13-.02-10.66-.52,.48,.1,.16,.1-.21,.09,.24,.03,0,.11,.04,.17l-1.48-.21c-.27,.16-1.59-.03-1.75,.12h.47c-.63,.15,.86,.42,.76,.66,.71-.19,1.83,.37,2.99,.1,.25,.06-.22,.07-.08,.13,.29-.09,.65-.11,1.29-.04l-.07,.02c1.83,.03,2.61,.15,4.66,.28l-.15-.12c.44,.03,.53,.07,.74,.1,.51-.17-1.24-.04-.77-.23,.58,.26,3.11,.09,3.5,.37,.68,.02-.2-.14,.48-.12l.18,.08,.17-.09c.44,.03,.67,.13,.68,.19-.11-.01-.31,0-.42,.01,.57,.1,1.63,.01,1.83,.05l-.65-.06c1.85-.02,4.11,.14,5.91,.03l-.13-.06c1.37-.07,1.09,.09,2.59,.08h-.05c.3-.04,.7-.05,1.11-.04-.38,.06,.71,.14,.21,.2,1.48-.07,.74-.07,1.72-.25l.22,.1c.34-.08,.36-.12,1.11-.12-.62,.06,.47,.15-.22,.24,1.57,.24,2.34-.15,3.05,.16,.73-.24-1.36-.17-.95-.22-.34-.09,.6-.18,1.09-.14,.5,.02,.85,.35,2.11,.37-.13,0-.13,.02-.26,.01,.47,.08,.93-.07,1.51,.05,.33-.15,.75,.03,.85-.17l-1.16,.02c.66-.04,1.28-.25,2.36-.12-.09,.04-.41,.08-.63,.11,.32,.07,.61-.03,.94,.04-.1,.2-1.41,.01-2.12,.15,.34,.09,1.34-.11,.98,.09,.51-.26,1.24,.06,2.1-.13l-.06,.12c.14-.02,.42-.07,.67-.06l-.45,.14c.7-.12,1.33,.15,2,.09-1.39-.02-.31-.15-.9-.25,1.72-.12,.98,.33,2.9,.31-.26,.01-.98-.09-.57-.14,.37,.03,.85,.09,1.07,.15,1.27,0-.19-.13,.35-.19,.43,.15,.63-.05,1.19-.08v.12c1.45,.11,.39-.24,1.7-.12l-.56,.16,.68-.03-.14,.13c.74-.09,.97-.06,1.7,0-.17-.09,.1-.22,.74-.21,.44,.08-.25,.11,.66,.11-.21,.07-.43,.16-.83,.04-.04,.04-.2,.07-.25,.11,.47,.09,1.19,.04,1.52,.05-.13,0-.28-.02-.36-.04l1.32-.14c.21,.05,.04,.08-.12,.12,.27,0,.45-.06,.85-.06-.1,.1-.08,.2-.64,.23l1.26-.09c.08,.04,.64,.13,.48,.16,.7,.07,1.71-.16,2.64-.07,.05-.02,.15-.03,.34-.05,.87,.04,1.64,.17,2.67,.06l.58,.19c.81-.03-.79-.24,.56-.28,.95-.04,.35,.16,.69,.21,.47-.08,1.3-.25,2.17-.09-.29,.03-.52,0-.79,0Zm9.95,.08c-.19,.02-.58,.1-.72,.02,.22-.14,.39-.07,.72-.02Zm15.13-.1c-.14,.04-.37,.02-.61-.03,.18,0,.39,0,.61,.03Zm42.14-.56h-.02c-.43-.04-.28-.02,.02,0Zm.89,.05c.09-.02,.08-.03,.05-.05-.06,.03-.26,.03-.49,.02,.06,.03,.18,.05,.45,.03Zm-95.89-1.13l.17,.04c-.39,.03-.28,0-.17-.04Z"/>
    <path class="cls-1" d="M92.28,67.8c-.05-.02-.07-.04-.08-.07-.08,.02-.08,.04,.08,.07Z"/>
    <path class="cls-1" d="M62.73,67.63h-.03s-.03,.01-.03,.02l.06-.02Z"/>
    <path class="cls-1" d="M123.19,68.13c-.18-.02-.29-.04-.35-.06-.01,.03,.07,.05,.35,.06Z"/>
    <path class="cls-1" d="M141.77,66.96l-.57,.03c.28,0,.38,.02,.52,.04-.01-.03-.12-.07,.06-.07Z"/>
    <path class="cls-1" d="M146.73,67.71c.08-.01,.18,0,.26-.02l-.02-.06c-.36,0-.61,.05-.24,.07Z"/>
    <path class="cls-1" d="M142.29,67.36c.05,.1,.4,.07,.8,.05h-.07c.12-.14-.31-.1-.73-.05Z"/>
    <path class="cls-1" d="M143.19,67.4c.12,0,.25,0,.37,0,.05-.06-.15-.01-.37,0Z"/>
    <path class="cls-1" d="M138.17,67.09c.19,.03,.12-.13,.23-.09,.21-.13-1.27,.16-.23,.09Z"/>
    <polygon class="cls-1" points="142.62 67.69 142.48 67.57 142.25 67.67 142.62 67.69"/>
    <path class="cls-1" d="M139.45,67.6l.64,.04s.07-.03,.17-.04c-.39,0-.83-.03-.81,0Z"/>
    <path class="cls-1" d="M140.27,67.59c.21,0,.4,0,.52-.02-.11,0-.35,0-.52,.02Z"/>
    <polygon class="cls-1" points="141.74 67.73 141.55 67.7 141.1 67.69 141.74 67.73"/>
    <path class="cls-1" d="M132.57,67.56l-.7,.03c-.07,.04,.12,.07,.38,.05,.17-.03,.43-.05,.32-.09Z"/>
    <path class="cls-1" d="M134.68,67.91c-.19-.03-.2-.05-.31-.1l-.02,.16,.33-.06Z"/>
    <path class="cls-1" d="M132.65,67.94c-.07,.04-1.01,.12-.13,.11,.07-.04,.77-.08,.13-.11Z"/>
    <polygon class="cls-1" points="122.12 67.7 122.29 67.7 122.27 67.44 122.12 67.7"/>
    <path class="cls-1" d="M112.83,68.25c.83,.07,.2-.16,.95-.07,.19-.06-.61-.07-.41-.12-.5,.06-.76,.02-.53,.19Z"/>
    <path class="cls-1" d="M113.37,68.06c.08-.01,.16-.02,.26-.04-.14,.01-.21,.03-.26,.04Z"/>
    <polygon class="cls-1" points="8.65 65.05 8.11 64.98 8.46 65.08 8.65 65.05"/>
    <path class="cls-1" d="M7.62,65.21l-.12-.17-.32,.14c.12,0,.35-.01,.44,.03Z"/>
    <path class="cls-1" d="M80.34,68.1l.04-.04c-.08-.04-.21-.05-.46-.06l.42,.1Z"/>
    <polygon class="cls-1" points="73.12 67.87 73.25 67.88 73.02 67.73 73.12 67.87"/>
    <path class="cls-1" d="M67.06,67.96c.25,0,.54,0,.79,0-.54,.02-.85-.18-.79,0Z"/>
  </g>
  <g>
    <path class="cls-1" d="M177.47,94.29c.26,0,.17-.1,.21-.11-.44,.02-.2,.14-.21,.11Z"/>
    <polygon class="cls-1" points="173.14 94.53 173.21 94.48 172.58 94.59 173.14 94.53"/>
    <path class="cls-1" d="M169.09,94.52c.38,.18,1.47-.03,2.19,.03l.12,.04,.33-.14c-.88,.02-2.02,.12-2.63,.07Z"/>
    <path class="cls-1" d="M166.93,94.14c.13,.07-.47,.06,.5,.02-.05,0-.06-.01-.09-.02-.09,0-.21,0-.41,0Z"/>
    <path class="cls-1" d="M167.34,94.14c.43,0-.28-.06,0,0h0Z"/>
    <path class="cls-1" d="M165.37,94.18l.56-.06c-.12-.04-.62-.05-.43-.08-.58,.03-.46,.07-.13,.14Z"/>
    <path class="cls-1" d="M164.84,94.31l.29-.03c-.05-.02-.13-.02-.29,.03Z"/>
    <path class="cls-1" d="M165.75,94.23l-.62,.05c.08,.03,.09,.09,.28-.02-.05,.05,.07,0,.33-.03Z"/>
    <path class="cls-1" d="M166.1,94.26c.32,.04,.72,.06,.16,.13,1.07-.02,.92-.15-.16-.13Z"/>
    <path class="cls-1" d="M168.88,94.71l.42,.05,.36-.06c-.18,.03-.81-.05-.79,0Z"/>
    <path class="cls-1" d="M161.87,94.08s.19,.1,.23,.15l.41-.04c-.21-.03-.62-.05-.65-.11Z"/>
    <path class="cls-1" d="M162.1,94.23l-.62,.06c.55,0,.66-.02,.62-.06Z"/>
    <polygon class="cls-1" points="164.74 94.51 165.76 94.37 164.54 94.51 164.74 94.51"/>
    <polygon class="cls-1" points="159.5 94.08 159.85 93.99 159.23 94.12 159.5 94.08"/>
    <path class="cls-1" d="M157.93,94.09c.26-.07-.36-.12-.08-.17-.43,.01-.79,.07-1.12,.13,.35-.03,.72-.02,1.2,.04Z"/>
    <path class="cls-1" d="M156.18,94.13c.17-.02,.36-.05,.55-.08-.19,.02-.37,.04-.55,.08Z"/>
    <path class="cls-1" d="M160.43,94.28s-.14-.08-.49-.11l.24,.11c.07,0,.16,0,.24,0Z"/>
    <path class="cls-1" d="M160.19,94.28h0c-.26,0-.45,0-.53-.01,.07,0,.23,0,.54,.01Z"/>
    <path class="cls-1" d="M160.49,94.28s-.04,0-.06,0c.02,.01,.04,.01,.06,0Z"/>
    <path class="cls-1" d="M163.11,94.41c-.36,.06-1.13,.12-.39,.21,.26-.07-.16-.13,.39-.21Z"/>
    <path class="cls-1" d="M160.79,94.41l.66,.03s-.13-.07,.05-.1l-.71,.07Z"/>
    <polygon class="cls-1" points="160.47 94.45 160.79 94.41 160.55 94.4 160.47 94.45"/>
    <path class="cls-1" d="M157.31,94.23c-.28,.05-.6,.05-.95,.06,.38,.02,.77,.03,1.14,.03,.05-.03,.22-.09-.19-.09Z"/>
    <path class="cls-1" d="M158.71,94.27h-.06s.07,.02,.06,0Z"/>
    <polygon class="cls-1" points="152.89 94.28 152.95 94.3 152.96 94.28 152.89 94.28"/>
    <path class="cls-1" d="M157.56,94.34c.28,.02,.45,0,.61-.04-.22,0-.44,.01-.68,.02-.02,.02-.03,.03,.06,.02Z"/>
    <path class="cls-1" d="M155.21,94.18c.16,.02,.32,.04,.49,.06-.14-.03-.44-.09-.49-.06Z"/>
    <path class="cls-1" d="M158.55,94.24h.04c-.09-.03-.08-.02-.04,0Z"/>
    <path class="cls-1" d="M158.55,94.24c-.15,.02-.26,.04-.38,.06,.17,0,.33-.02,.47-.04-.04,0-.07-.02-.1-.03Z"/>
    <path class="cls-1" d="M151.84,94.97c.05-.1,.8-.19,1.44-.08,.63-.07,.22-.4-.33-.58-.02,.04-.02,.08-.67,.14,.23,.05,1.45,.13,.9,.22-.86,.05-.71-.04-1.13-.09,.36,.12-1.1,.18-.91,.36l.76-.06s-.26,.07-.05,.1Z"/>
    <path class="cls-1" d="M154.19,94.32h.27c-.31-.03-.52-.07-.93-.15-.45,.05-.54,.08-.57,.12l1.32,.02h-.09Z"/>
    <path class="cls-1" d="M155.66,94.31c-.21,.11-.85,.15-.46,.27,.79,0,.55-.09,1.02-.14-1.27,.03,.36-.06-.55-.12,.25-.02,.47-.02,.69-.03-.22-.02-.44-.03-.66-.05h.03s0,0,0,0h0c.05,.02,.07,.02,.01,.02,0,0-.02,0-.03,0,0,.01-.03,.03-.06,.04-.37-.02-.06-.03,.06-.04,0,0,.01-.01,.02-.02h0s-1.27,.05-1.27,.05c.27,.02,.61,.01,1.2,0Z"/>
    <path class="cls-1" d="M162.04,94.85s-.04-.02-.04-.03c-.08,.01-.11,.02,.04,.03Z"/>
    <path class="cls-1" d="M161.52,94.79c.09-.01,.17-.06,.47-.05,.26,.03,0,.05,.01,.09,.18-.03,.63-.08,.07-.13h-.09c-.51-.02-1.17-.16-1.08-.17,.15,.1,.28,.17,.62,.26Z"/>
    <path class="cls-1" d="M158.55,94.57l-1.06,.05,.54,.09-.03-.06c.6,.02,.47-.05,.55-.09Z"/>
    <polygon class="cls-1" points="152.77 94.23 152.91 94.12 152.3 94.27 152.77 94.23"/>
    <polygon class="cls-1" points="151.39 94.24 151.45 94.14 151.08 94.2 151.39 94.24"/>
    <path class="cls-1" d="M73.71,94.96l-.31,.02c.15,0,.24-.02,.31-.02Z"/>
    <path class="cls-1" d="M75.96,94.99l.06-.05c-.1,.03-.15,.05-.06,.05Z"/>
    <path class="cls-1" d="M117.59,94.11c-.45-.1-.96-.24-.9-.13l.14,.11c.32-.02,.56,0,.77,.02Z"/>
    <path class="cls-1" d="M94.43,94.59l.13,.03c.11-.04,.21-.07,.31-.1-.13,.02-.28,.04-.44,.07Z"/>
    <path class="cls-1" d="M94.11,95.04l-.6-.07c.13,.03,.33,.05,.6,.07Z"/>
    <path class="cls-1" d="M61.4,94.94l-.36,.11c.57,0,.32-.05,.36-.11Z"/>
    <path class="cls-1" d="M137.3,94.24c-.39-.04-.7-.06-.98-.07,.47,.06,.85,.16,.98,.07Z"/>
    <path class="cls-1" d="M74.6,93.82c-.19,.02-.27,.04-.27,.06,.2-.02,.31-.04,.27-.06Z"/>
    <path class="cls-1" d="M135.19,94.16c.07,0,.14,.02,.21,.03,.29-.02,.57-.03,.92-.02-.35-.05-.75-.08-1.13,0Z"/>
    <path class="cls-1" d="M16.76,94.21h-.1s.03,0,.1,0Z"/>
    <path class="cls-1" d="M3.78,92.89c.13,0,.34,0,.53,0-.1,0-.26-.01-.53,0Z"/>
    <path class="cls-1" d="M145.86,94.18c.29,0,.05-.01,0,0h0Z"/>
    <path class="cls-1" d="M147.27,94.61c-.06,.01-.11,.03-.12,.05,.02-.03,.06-.04,.12-.05Z"/>
    <path class="cls-1" d="M132.28,94.83h-.03c.09,.02,.07,.02,.03,0Z"/>
    <path class="cls-1" d="M146.29,94.23c-.12-.01-.24-.02-.37-.03,.07,0,.18,.02,.37,.03Z"/>
    <path class="cls-1" d="M146.24,94.18c.1,0,.18,0,.26,.01,.04-.02,0-.03-.26-.01Z"/>
    <path class="cls-1" d="M145.45,94.18c.17,0,.32,0,.47,.01-.06,0-.08-.01-.07-.02-.09,0-.21,0-.41,0Z"/>
    <path class="cls-1" d="M40.68,94.29s-.04,0-.06-.01c-.3,.04-.17,.04,.06,.01Z"/>
    <path class="cls-1" d="M109.98,95.19h.03s-.03,0-.04,0h0Z"/>
    <path class="cls-1" d="M108.93,95.26c.45-.13,.7-.11,1.04-.08l-.34-.32-.69,.4Z"/>
    <path class="cls-1" d="M68.31,94.94l.74,.11c-.89,.15-1.53,.09-.84,.23,.11-.34,2.86,0,2.97-.34l.48,.08c-.14,0-.16,.01-.3,.01,.94,.17,.7-.24,1.92-.18,.42,.03,.72,.08,.43,.12l.95-.07c.27,0,.21,.07-.07,.06h1.44s-.01,0-.01,0c.21-.05,.67-.13,.9-.16,.37,.05-.18,.03-.09,.08l.8-.07c.32,.09-.34,.17-.89,.15,.74,.35,.66-.08,2.27,.14l-.75,.04c.48,.2,1.07,.13,1.92,.26-.2-.06-1.7-.32-.84-.4,.24,.03,.57,.04,1.03-.02,0,.12,.46,.1,1.03,.09l-.04,.16c.62-.04,.57-.12,.93-.19,.69,.02,.83,.15,.99,.25,1.1,.04-.76-.21,.55-.22,.92,.07,1.56,.01,2.66-.07,.64,.06-.11,.1,.12,.14l.57-.12c.14,0,.09,.04,.07,.06,.48-.04,.04-.16,.79-.2,.2-.17,1.54,.27,2.48,.08,.23,.05-.11,.1-.04,.16,1.28-.12,1.1-.09,2.15-.25l.89,.11c-.66-.13,.18-.26,.92-.37-.23-.06-.43-.11-.56-.14l1.17-.08c.14,.03,.02,.08-.17,.15,.08-.01,.15-.03,.22-.04,.42,.06,.2,.15-.1,.24l-.42-.1c-.29,.09-.56,.2-.5,.29,.08-.02,.22-.03,.38-.04-.08,.03-.12,.05-.09,.07,.04,.02,.16-.02,.35-.06l.27,.18,.07-.07,1.53,.12c1.1-.17,2.06-.43,3.8-.49-.43,.13-.09,.21-.12,.37-.47-.17-1.35,.06-2.25,.02,.47,.02,.37,.09,.25,.12l1.61-.14c-.04,.13,.34,.1,.76,.15-.32-.25,1.2-.16,1.86-.23,.04,.08-.12,.17-.92,.14,.88,.19,1.14-.29,2.01-.12-.2,0-.3-.01-.38,.03,.46-.07,1.57,0,1.31,.07h-.19c1.3,.04,3.95,.03,4.14-.18,.01,.03-.17,.26-.25,.3l2.32-.7c-.21,.18,.57,.62-.5,.72,.31,.03,.69,.06,1.34,0-.21-.03-.52-.27-.24-.28,.79,.21,.55,.11,1.52,.29-.32-.04,.04-.33,.54-.31-.08,.04,.04,.28-.14,.31l1.24-.27c-.31,.05-.06,.24,.22,.32-.13-.06,1.07,.01,1.4-.01l-.53-.07c1.4,.05,1.39-.39,2.78-.36-.17,.06-.42,.35,.29,.39,.32-.14,1.44-.68,2.67-.79l.24,.08,.94-.09c-.59,.21-2.24,.66-3.14,.83,.52,.07,.15,.1,.93,.1,.28,.08-.43,.11-.66,.12l1.83,.06c-.08-.17,1.4-.16,1.33-.3l-1.99,.16c-.08-.17,1.15-.47,2.45-.43,.33,.07-.25,.3-.22,.35,.17-.06,1.23-.1,1.35-.06l-.55,.09c.72,.07,1.18-.22,2.05-.05,.3,.01,.89,.22,.94,.12-.49-.19-.58-.79-.25-.93,.1,.01,1.57,.19,1.91,.29,.49,.15-.74,.35-.32,.49,.02-.05,.29-.1,.4-.12,.31,.04-.13,.14,.55,.12,.11-.17,1.39,.02,.32-.14,.67-.05,.71,.04,1.49,.03-.25-.11,.71-.37,1.38-.42-.04,.04,.11,.1,.18,.13,1.37,.02,2.1,.1,3.38,.11,.12,.04,.73,.09,.47,.17,.18-.03,.35-.09,.75-.09,.76,.15-.88,.02-.3,.2,.05-.1,1.02-.13,1.58-.19-.17-.15-1.3-.03-1.86,.03,0-.21,.98-.43,2.31-.52,1.06-.05,.46,.14,.64,.11,1.99,.04,1.7-.36,3.35-.2,.66,.14,.03,.27,.17,.37-.86,.05-1.33-.09-1.91-.09l.72,.07c-.27,.04-.85,.08-1.17,.04,.55,.12,3.37,.04,4.9,.15,.27-.04,.74-.09,.52-.14l-.49,.02c-.45-.11,.92-.15,.3-.2,.65-.07,1.38-.19,2.3-.13l.17,.15s-.6-.09-.86-.05c.38-.07,1.41,.21,1.83,.01l-.64-.11c.66-.08,1.47-.24,2.28-.19-.37-.15-.19,.02-.77-.16,.5,.22-2.08-.01-1.28,.22-.59-.21-1.03-.09-1.8-.27,.02,.05,.27,.1-.41,.07-.03,.01-.1,.03-.15,.04-.02,0-.03,0-.05,0h.04s-.03,.02,.01,0c.16,.02,.29,.05,.35,.08-.34,.12-1.43,.11-1.79,.17-.41-.03,.17-.06-.05-.11l-.55,.09c-.05-.11-1.08-.19-.12-.25h-.86c-.51-.07-1.2-.1-1.63-.05-.41-.03-1.02,.12-.67,.03l-1.35,.06v-.03c-1.34-.02-2.75,.18-4.27-.03-.45,.03-.91,.06-1.66,.03l-.15-.1c-.58,.03-1.73-.11-1.97,0-.62-.26-2.79-.07-3.8-.12l-.04,.13c-.7-.01-1.36,.02-2.23,.07l.05,.11c-.75,.09-1.91-.09-3.09-.08,.08-.04,.38-.03,.59,0-1.41-.26-2.97,.17-4.25-.02-.32,.04-.55,.02-.77,0,.03,0,.06,0,.08,0-.03,0-.08,0-.13,0-.14-.02-.29-.04-.44-.06,.13,.03,.26,.05,.37,.06-.25,0-.62,.01-.98,.04l-.15-.12s-.05,0-.08,0c-.36-.05-.29,.06-.1,.15-.18,.02-.35,.04-.48,.07-.29-.2-.96,.06-1.35-.15-.25,.1-1.83,.06-2.03,.28-.01-.03-.12-.04,.08-.04-.41-.03-.81-.05-1.18,0l-.17-.15-.89,.2c-.54-.1-.76-.15-.23-.27-1.29,.17-1.05,.06-2.15,.23l.05-.1c-.39,0-1.02,.13-1.26,.05-.88-.19-4.35-.06-6.61-.25,.44,.29-1.05-.14-1.14,.09-.13-.07-.45-.11-.08-.17-1.15,.06-1.73-.12-2.53,.06-.13-.07,.25-.1,.13-.14-.09,.01-.37,.06-.49,.01-.12-.04,.17-.06,.35-.08-1.18,0-1.3,.21-1.39,.41-.6-.1-.89-.09-1.33,.04-.21-.07-.55-.14,.18-.16-.41-.01-2.51-.12-2.56,.04-.13-.04-.57-.02-.68,0-.92-.02-1-.03-1.91-.02l.25,.03c-.36,.19-.75,.04-1.48,.05l.02-.02c-1.67-.16-.72,.06-2.38-.11l.09,.12c-.16,.26-1.46-.17-2.42-.08l.35,.07c-.52,.08-1.46-.36-1.99-.4-.11-.02,.18-.03,.34-.05-1.38-.17-.18,.16-1.21,.18-.19-.09,.25-.21-.44-.24-.34-.07-2.01,.26-2.95,.08,.21,.07,.41,.13-.06,.18-.73,.02-1.97-.27-2.64-.07-.09-.02-.13-.04-.13-.05-.56,.05-1.82,.07-2.15,.18-.51-.42-3.48,.16-3.46-.22h-1.72s.05-.04,.05-.04c-1.1-.04-1.49,.05-1.87,.14-.25-.03-.07-.06-.05-.08-1.6-.1-1.76-.08-3.11,.09l-.14-.13c-.37,.07-2.32-.22-3.89-.1,.02-.01,.05-.04,.17-.05-1.77,.13-4.24-.4-4.89,.05l-1.17,.1c1.51,.06-.23,.19,.39,.28-.6,.02-1.54-.16-.8-.17l.11,.02c.27-.23-1.88-.11-1.84-.27-2.98-.03-5.87-.2-8.66-.25l.32,.19-.97-.02c-.25-.05-.34-.15,.35-.13-.36-.11-1.16,.07-1.18,.11-1.36-.09,.53-.21,.12-.22h-.57s.13,.03,.13,.03c-.46,.07-.5,.15-1.33,.13-.53-.04-.27-.12-.48-.13,0-.01-.07-.02-.32,0l-1.22-.03,.49,.15c-.54,.06-1.15-.02-.59,.15-.83-.26-4.57-.16-5.08-.24-.76,.09-1.51,.08-2.44,.05,.23,.03,.37,.2-.44,.17,.3-.33-1.47-.17-2.11-.42,.58,.17-2.28,0-1.38,.24-.67-.04-.04-.13-.55-.21-1.59,.11-3.51-.14-5.48-.13-.03,.04,.3,.12-.13,.17l-1.04-.24c-.39,.02-.36,.25-1.07,.08,.1,.04,.25,.1-.01,.11-3.85-.28-7.88,.04-11.79-.43,.53,.09,.18,.1-.23,.09,.26,.03,0,.11,.04,.17l-1.64-.19c-.3,.16-1.76-.02-1.93,.13l.52-.02c-.69,.17,.96,.43,.85,.67,.78-.2,2.03,.35,3.31,.07,.28,.05-.24,.07-.09,.13,.32-.1,.71-.11,1.43-.05l-.08,.02c2.02,.01,2.89,.13,5.16,.24l-.17-.12c.49,.02,.59,.06,.82,.1,.56-.17-1.37-.03-.86-.22,.64,.25,3.44,.06,3.87,.34,.75,.01-.22-.14,.53-.13l.2,.08,.19-.09c.49,.02,.74,.12,.76,.18-.12,0-.34,.01-.47,.02,.64,.1,1.8,0,2.02,.03l-.72-.06c2.05-.03,4.55,.1,6.53-.02l-.15-.06c1.51-.08,1.21,.08,2.87,.06h-.06c.33-.04,.78-.06,1.23-.05-.42,.06,.79,.14,.24,.2,1.64-.09,.81-.07,1.9-.27l.25,.1c.37-.08,.4-.12,1.23-.13-.68,.07,.53,.15-.24,.24,1.74,.23,2.59-.17,3.38,.14,.8-.25-1.5-.16-1.06-.21-.37-.09,.66-.18,1.21-.15,.56,.01,.94,.34,2.34,.36-.14,0-.15,.02-.29,.01,.52,.07,1.03-.07,1.67,.04,.36-.15,.83,.02,.94-.18l-1.28,.03c.73-.04,1.41-.26,2.61-.13-.09,.04-.45,.09-.7,.11,.35,.06,.67-.03,1.04,.04-.11,.2-1.56,.02-2.34,.16,.37,.09,1.48-.12,1.08,.09,.57-.26,1.38,.05,2.33-.14l-.06,.12c.15-.02,.46-.07,.74-.06l-.5,.15c.77-.12,1.48,.14,2.21,.07-1.54-.02-.34-.15-.99-.24,1.9-.13,1.09,.32,3.21,.3-.29,.01-1.08-.09-.63-.13,.4,.03,.94,.08,1.19,.15,1.41,0-.21-.12,.39-.19,.48,.15,.69-.05,1.31-.09v.12c1.61,.1,.43-.25,1.88-.13l-.61,.16,.75-.03-.16,.14c.82-.09,1.08-.06,1.88-.01-.19-.09,.11-.22,.82-.21,.48,.08-.27,.11,.73,.11-.23,.07-.48,.16-.92,.05-.05,.04-.23,.07-.27,.11,.52,.09,1.31,.04,1.68,.04-.14,0-.31-.02-.39-.03l1.46-.15c.23,.05,.05,.08-.13,.12,.3,0,.5-.06,.94-.07-.11,.1-.09,.2-.7,.24l1.39-.09c.09,.04,.71,.13,.53,.16,.77,.07,1.89-.17,2.92-.08,.05-.02,.16-.04,.38-.05,.96,.03,1.81,.16,2.95,.04l.64,.18c.89-.03-.87-.23,.61-.28,1.05-.04,.39,.15,.76,.21,.52-.08,1.44-.25,2.4-.1-.32,.03-.57,0-.87,.01Zm11.01,.04c-.21,.02-.64,.1-.79,.02,.24-.14,.43-.07,.79-.02Zm16.73-.14c-.16,.04-.4,.02-.68-.03,.2,0,.43,0,.68,.03Zm46.61-.57h-.02c-.48-.04-.31-.02,.02,0Zm.99,.06c.1-.02,.09-.03,.05-.05-.07,.03-.29,.03-.54,.02,.07,.03,.2,.05,.49,.03Zm-106.07-.89l.19,.03c-.43,.03-.31,0-.19-.03Z"/>
    <path class="cls-1" d="M94.15,94.99c-.06-.02-.08-.04-.09-.07-.08,.02-.09,.04,.09,.07Z"/>
    <path class="cls-1" d="M61.46,94.92h-.03s-.03,.01-.03,.02l.07-.02Z"/>
    <path class="cls-1" d="M128.34,95.28c-.2-.02-.32-.04-.39-.06-.01,.03,.08,.05,.39,.06Z"/>
    <path class="cls-1" d="M148.88,94.13l-.63,.03c.31,0,.42,.02,.57,.04-.01-.03-.13-.07,.06-.07Z"/>
    <path class="cls-1" d="M154.37,94.89c.09-.01,.2,0,.29-.02l-.03-.06c-.39,0-.67,.05-.26,.07Z"/>
    <path class="cls-1" d="M149.46,94.53c.05,.1,.45,.07,.89,.05h-.08c.13-.14-.34-.1-.81-.05Z"/>
    <path class="cls-1" d="M150.46,94.58c.14,0,.28,0,.41,0,.05-.06-.17-.01-.41,0Z"/>
    <path class="cls-1" d="M144.9,94.26c.21,.03,.13-.13,.25-.09,.24-.13-1.4,.15-.25,.09Z"/>
    <polygon class="cls-1" points="149.82 94.87 149.66 94.74 149.41 94.84 149.82 94.87"/>
    <path class="cls-1" d="M146.32,94.77l.71,.04s.08-.03,.19-.04c-.44,0-.91-.03-.9,0Z"/>
    <path class="cls-1" d="M147.22,94.76c.23,0,.44,0,.57-.02-.12,0-.39,0-.57,.02Z"/>
    <polygon class="cls-1" points="148.85 94.9 148.64 94.88 148.14 94.87 148.85 94.9"/>
    <path class="cls-1" d="M138.71,94.72l-.77,.03c-.08,.04,.13,.07,.42,.05,.19-.03,.47-.04,.35-.09Z"/>
    <path class="cls-1" d="M141.04,95.07c-.21-.03-.22-.05-.34-.1l-.02,.16,.36-.06Z"/>
    <path class="cls-1" d="M138.79,95.1c-.08,.04-1.12,.12-.14,.11,.08-.04,.85-.08,.14-.11Z"/>
    <polygon class="cls-1" points="127.14 94.85 127.34 94.85 127.31 94.6 127.14 94.85"/>
    <path class="cls-1" d="M116.88,95.4c.92,.07,.22-.16,1.05-.07,.22-.06-.68-.07-.46-.12-.55,.06-.84,.02-.59,.19Z"/>
    <path class="cls-1" d="M117.47,95.21c.09-.01,.18-.02,.28-.04-.16,.01-.24,.03-.28,.04Z"/>
    <polygon class="cls-1" points="1.63 92.71 1.04 92.65 1.42 92.74 1.63 92.71"/>
    <path class="cls-1" d="M.49,92.88l-.14-.16-.36,.14c.13,0,.39-.01,.49,.02Z"/>
    <path class="cls-1" d="M80.95,95.32l.05-.04c-.09-.04-.23-.05-.5-.06l.46,.1Z"/>
    <polygon class="cls-1" points="72.96 95.11 73.1 95.12 72.84 94.97 72.96 95.11"/>
    <path class="cls-1" d="M66.26,95.23c.27,0,.6,0,.87-.01-.6,.02-.94-.17-.87,.01Z"/>
  </g>
  <g>
    <path class="cls-1" d="M43.22,148.87c0,.2,.1,.13,.11,.16-.02-.33-.14-.15-.11-.16Z"/>
    <polygon class="cls-1" points="42.97 145.57 43.02 145.63 42.91 145.14 42.97 145.57"/>
    <path class="cls-1" d="M42.96,142.48c-.18,.29,.03,1.12-.03,1.67l-.04,.09,.14,.25c-.03-.67-.12-1.54-.08-2.01Z"/>
    <path class="cls-1" d="M43.34,140.83c-.07,.1-.06-.36-.02,.38,0-.04,.01-.05,.02-.07,0-.07,0-.16,0-.31Z"/>
    <path class="cls-1" d="M43.34,141.15c0,.33,.06-.21,0,0h0Z"/>
    <path class="cls-1" d="M43.3,139.64l.06,.43c.04-.09,.05-.47,.08-.33-.04-.44-.08-.35-.14-.1Z"/>
    <path class="cls-1" d="M43.16,139.24l.03,.22s.02-.1-.03-.22Z"/>
    <path class="cls-1" d="M43.25,139.93l-.06-.47c-.03,.06-.09,.07,.02,.22-.05-.04,0,.05,.04,.25Z"/>
    <path class="cls-1" d="M43.22,140.2c-.04,.24-.06,.55-.12,.12,.03,.82,.15,.7,.12-.12Z"/>
    <path class="cls-1" d="M42.78,142.32l-.05,.32,.06,.28c-.03-.14,.05-.62,0-.6Z"/>
    <path class="cls-1" d="M43.38,136.98s-.1,.14-.15,.18l.04,.32c.03-.16,.05-.47,.1-.49Z"/>
    <path class="cls-1" d="M43.23,137.15l-.07-.47c0,.42,.03,.5,.07,.47Z"/>
    <polygon class="cls-1" points="42.97 139.16 43.11 139.94 42.96 139.01 42.97 139.16"/>
    <polygon class="cls-1" points="43.38 135.17 43.46 135.44 43.33 134.96 43.38 135.17"/>
    <path class="cls-1" d="M43.36,133.97c.07,.2,.12-.27,.17-.06-.01-.33-.08-.6-.13-.85,.03,.27,.03,.55-.03,.92Z"/>
    <path class="cls-1" d="M43.3,132.63c.02,.13,.05,.27,.08,.42-.02-.14-.04-.28-.08-.42Z"/>
    <path class="cls-1" d="M43.18,135.87s.08-.11,.11-.37l-.11,.19c0,.06,0,.12,0,.19Z"/>
    <path class="cls-1" d="M43.17,135.69h0c0-.21,0-.35,0-.41,0,.05,0,.17,0,.41Z"/>
    <path class="cls-1" d="M43.18,135.92s0-.03,0-.05c-.01,.02-.01,.03,0,.05Z"/>
    <path class="cls-1" d="M43.06,137.92c-.06-.28-.13-.86-.22-.3,.07,.2,.12-.12,.22,.3Z"/>
    <path class="cls-1" d="M43.04,136.15l-.02,.5s.07-.1,.1,.04l-.08-.54Z"/>
    <polygon class="cls-1" points="43.01 135.91 43.04 136.15 43.05 135.96 43.01 135.91"/>
    <path class="cls-1" d="M43.21,133.49c-.05-.22-.05-.45-.06-.72-.02,.29-.03,.59-.03,.87,.03,.04,.09,.16,.09-.14Z"/>
    <path class="cls-1" d="M43.18,134.56s0-.03,0-.05c0,.03-.01,.05,0,.05Z"/>
    <path class="cls-1" d="M43.14,130.13s-.01,.03-.02,.04c0,0,.01,0,.02,0v-.05Z"/>
    <path class="cls-1" d="M43.1,133.69c-.02,.22,0,.35,.04,.47-.01-.16-.02-.33-.02-.52-.02-.02-.03-.02-.02,.05Z"/>
    <path class="cls-1" d="M43.25,131.89c-.02,.11-.04,.24-.06,.37,.03-.11,.09-.33,.06-.37Z"/>
    <path class="cls-1" d="M43.21,134.44s0,.02,0,.03c.02-.07,.01-.06,0-.03Z"/>
    <path class="cls-1" d="M43.21,134.44c-.02-.11-.04-.2-.07-.29,0,.13,.02,.25,.04,.36,0-.03,.02-.05,.03-.07Z"/>
    <path class="cls-1" d="M42.45,129.33c.1,.04,.19,.61,.09,1.1,.08,.48,.4,.17,.58-.26-.04-.01-.08-.01-.14-.51-.05,.17-.12,1.1-.21,.68-.05-.66,.03-.54,.08-.86-.12,.27-.18-.84-.36-.69l.07,.58s-.07-.2-.1-.04Z"/>
    <path class="cls-1" d="M43.11,131.12v.2c.03-.23,.07-.4,.14-.71-.05-.34-.09-.41-.12-.43v1.01s-.03-.07-.03-.07Z"/>
    <path class="cls-1" d="M43.13,132.24c-.11-.16-.16-.65-.27-.35,0,.6,.09,.42,.14,.78-.03-.97,.06,.28,.12-.42,.02,.19,.03,.36,.03,.52,.01-.17,.03-.34,.05-.5,0,0,0,.01,0,.02h0s0,0,0,0c-.01,.04-.02,.06-.01,0,0,0,0-.01,0-.02-.02,0-.03-.02-.04-.04,.02-.28,.03-.04,.04,.04,0,0,.01,.01,.02,.01,0,0,0,0,0,0l-.06-.97c-.01,.21-.01,.46,0,.92Z"/>
    <path class="cls-1" d="M42.61,137.11s.02-.03,.02-.03c-.01-.06-.02-.09-.02,.03Z"/>
    <path class="cls-1" d="M42.67,136.71c.02,.07,.06,.13,.05,.36-.03,.2-.05,0-.09,0,.03,.14,.08,.48,.13,.05v-.07c.02-.39,.15-.89,.17-.82-.1,.11-.17,.22-.26,.48Z"/>
    <path class="cls-1" d="M42.87,134.45l-.06-.81-.09,.41,.06-.02c-.02,.46,.05,.36,.09,.42Z"/>
    <polygon class="cls-1" points="43.19 130.04 43.31 130.14 43.14 129.68 43.19 130.04"/>
    <polygon class="cls-1" points="43.17 128.99 43.27 129.02 43.21 128.75 43.17 128.99"/>
    <path class="cls-1" d="M41.72,69.76l-.03-.24c0,.11,.02,.18,.03,.24Z"/>
    <path class="cls-1" d="M41.72,71.48l.05,.04c-.03-.08-.05-.11-.05-.04Z"/>
    <path class="cls-1" d="M43.07,103.21c.09-.35,.23-.73,.12-.69l-.11,.11c.02,.24,0,.43-.01,.58Z"/>
    <path class="cls-1" d="M42.35,85.56s-.02,.07-.03,.1c.04,.08,.07,.16,.1,.23-.02-.1-.05-.21-.07-.33Z"/>
    <path class="cls-1" d="M41.9,85.31l.07-.46c-.02,.1-.05,.25-.07,.46Z"/>
    <path class="cls-1" d="M41.57,60.38l-.11-.28c0,.43,.06,.24,.11,.28Z"/>
    <path class="cls-1" d="M43.09,118.24c.04-.3,.06-.54,.06-.74-.06,.36-.15,.65-.06,.74Z"/>
    <path class="cls-1" d="M42.88,70.43c-.02-.15-.04-.21-.07-.2,.02,.15,.04,.23,.07,.2Z"/>
    <path class="cls-1" d="M43.15,116.63c-.01,.05-.02,.1-.02,.16,.02,.22,.03,.44,.03,.7,.05-.27,.07-.57,0-.86Z"/>
    <path class="cls-1" d="M41.53,26.35s0-.05,.01-.08c-.01,0-.02,.03-.01,.08Z"/>
    <path class="cls-1" d="M42.59,16.43c0,.1,0,.26,0,.41,0-.07,0-.2,0-.41Z"/>
    <path class="cls-1" d="M43.21,124.76c0,.22,.01,.04,0,0h0Z"/>
    <path class="cls-1" d="M42.78,125.85s-.03-.08-.05-.09c.03,.02,.04,.05,.05,.09Z"/>
    <path class="cls-1" d="M42.47,114.42s0-.01,0-.02c-.02,.07-.02,.05,0,.02Z"/>
    <path class="cls-1" d="M43.16,125.1c.01-.08,.02-.18,.03-.28,0,.05-.02,.13-.03,.28Z"/>
    <path class="cls-1" d="M43.21,125.05c0,.08,0,.14,0,.19,.02,.03,.03,0,0-.19Z"/>
    <path class="cls-1" d="M43.2,124.45c0,.13,0,.25,0,.36,0-.04,.01-.06,.02-.05,0-.07,0-.16,0-.31Z"/>
    <path class="cls-1" d="M41.89,44.58s0-.03,.01-.05c-.05-.22-.04-.13-.01,.05Z"/>
    <path class="cls-1" d="M41.92,97.42s0,.02,0,.03c0-.01,0-.02,0-.03h0Z"/>
    <path class="cls-1" d="M41.83,96.62c.14,.34,.12,.53,.09,.79l.31-.27-.4-.53Z"/>
    <path class="cls-1" d="M41.68,65.65l-.1,.56c-.16-.68-.11-1.17-.24-.64,.34,.08,.04,2.18,.38,2.26l-.07,.37c0-.11-.02-.12-.01-.23-.16,.72,.25,.53,.2,1.46-.02,.32-.07,.55-.11,.33l.09,.72c0,.21-.06,.16-.06-.05l.03,1.1h-.01c.05,.15,.14,.5,.17,.68-.05,.28-.04-.14-.08-.07l.08,.61c-.09,.25-.17-.26-.16-.68-.34,.57,.09,.5-.11,1.73l-.05-.57c-.19,.37-.12,.82-.24,1.47,.06-.15,.3-1.3,.38-.64-.02,.19-.04,.43,.03,.79-.12,0-.09,.35-.08,.79l-.16-.03c.05,.47,.13,.43,.2,.71-.01,.52-.14,.63-.24,.76-.02,.84,.2-.58,.23,.41-.06,.7,0,1.19,.11,2.02-.05,.49-.1-.09-.14,.09l.13,.43c0,.11-.04,.07-.06,.05,.05,.36,.16,.03,.21,.6,.18,.15-.25,1.18-.05,1.89-.04,.18-.1-.08-.16-.03,.13,.97,.1,.84,.28,1.63l-.1,.68c.12-.5,.26,.14,.38,.7,.06-.18,.11-.33,.13-.43l.09,.89c-.03,.11-.08,.02-.15-.13,.01,.06,.03,.12,.04,.16-.06,.32-.15,.15-.24-.07,.03-.11,.06-.22,.1-.32-.1-.22-.21-.43-.3-.38,.02,.06,.03,.17,.04,.29-.03-.06-.05-.09-.07-.07-.02,.03,.02,.12,.06,.27l-.18,.2,.07,.05-.11,1.17c.18,.84,.45,1.56,.53,2.89-.13-.33-.21-.07-.37-.09,.16-.36-.07-1.03-.04-1.72-.02,.36-.09,.28-.12,.19l.15,1.23c-.13-.03-.09,.26-.15,.58,.25-.24,.17,.92,.25,1.41-.08,.03-.17-.09-.15-.7-.19,.67,.3,.87,.14,1.53,0-.15,0-.23-.03-.29,.08,.35,.02,1.2-.05,1v-.15c-.03,.99,0,3.01,.22,3.16-.03,0-.26-.13-.3-.19l.72,1.76c-.18-.15-.62,.44-.72-.38-.03,.24-.05,.53,.01,1.02,.03-.16,.26-.4,.28-.18-.2,.6-.11,.42-.28,1.16,.04-.24,.33,.03,.32,.41-.04-.06-.28,.03-.31-.11l.28,.95c-.05-.24-.24-.04-.32,.17,.05-.1,0,.82,.03,1.07l.06-.4c-.04,1.07,.4,1.05,.39,2.11-.06-.13-.36-.32-.39,.22,.14,.25,.7,1.09,.81,2.03l-.08,.18,.1,.72c-.22-.45-.68-1.7-.86-2.39-.06,.4-.1,.11-.09,.71-.08,.21-.12-.33-.12-.5l-.04,1.39c.17-.06,.17,1.07,.31,1.01l-.18-1.51c.17-.06,.48,.87,.45,1.86-.07,.25-.3-.19-.36-.17,.06,.13,.11,.94,.07,1.03l-.09-.42c-.06,.55,.23,.9,.07,1.56,0,.23-.21,.68-.11,.72,.19-.37,.78-.45,.93-.2-.01,.08-.18,1.2-.27,1.46-.15,.38-.36-.56-.49-.24,.05,.01,.1,.22,.12,.31-.04,.24-.14-.1-.12,.42,.17,.09-.01,1.06,.14,.25,.05,.51-.03,.54-.02,1.14,.11-.19,.38,.54,.43,1.05-.04-.03-.1,.08-.12,.14-.01,1.04-.09,1.6-.08,2.58-.04,.09-.09,.56-.16,.36,.03,.14,.09,.27,.09,.57-.15,.58-.03-.67-.2-.23,.1,.04,.14,.78,.2,1.2,.15-.13,.03-.99-.04-1.42,.21,0,.43,.74,.54,1.76,.06,.81-.14,.35-.1,.49-.03,1.52,.37,1.29,.23,2.55-.13,.5-.27,.02-.36,.13-.05-.66,.08-1.01,.07-1.46l-.06,.55c-.05-.21-.08-.65-.04-.89-.12,.42-.01,2.57-.12,3.74,.05,.21,.09,.57,.15,.4l-.02-.37c.11-.34,.15,.7,.2,.23,.08,.5,.2,1.05,.14,1.75l-.15,.13s.09-.46,.04-.65c.07,.29-.2,1.07,0,1.39l.1-.49c.08,.5,.24,1.12,.2,1.74,.15-.28-.02-.14,.16-.58-.22,.38,0-1.59-.23-.97,.2-.45,.08-.78,.26-1.38-.05,.02-.1,.21-.07-.31-.01-.02-.03-.08-.04-.11,0-.02,0-.02,0-.04,0,.01,0,.02,0,.03,0-.02,0-.02,0,.01-.02,.12-.05,.22-.08,.27-.12-.26-.12-1.09-.18-1.37,.02-.31,.06,.13,.11-.04l-.09-.42c.11-.04,.18-.82,.25-.09v-.66c.06-.39,.09-.92,.04-1.24,.02-.31-.13-.78-.04-.51l-.07-1.03h.03c.01-1.02-.19-2.1,0-3.26-.03-.34-.07-.69-.04-1.27l.1-.11c-.04-.44,.09-1.32,0-1.51,.26-.47,.05-2.13,.09-2.9l-.13-.03c0-.53-.03-1.04-.09-1.7l-.11,.04c-.09-.57,.07-1.46,.06-2.36,.04,.06,.03,.29,0,.45,.25-1.07-.19-2.26-.01-3.24-.04-.24-.03-.42,0-.59,0,.02,0,.04,0,.06,0-.02,0-.06,0-.1,.02-.11,.04-.22,.06-.34-.03,.1-.05,.2-.06,.28,0-.19-.02-.47-.05-.75l.12-.12s0-.04,0-.06c.04-.27-.06-.22-.15-.07-.02-.14-.04-.27-.07-.37,.19-.22-.07-.73,.14-1.03-.1-.19-.08-1.4-.29-1.55,.03,0,.04-.09,.04,.06,.02-.31,.05-.62-.01-.9l.15-.13-.21-.68c.09-.41,.15-.58,.26-.17-.18-.99-.07-.8-.25-1.64l.1,.04c0-.3-.14-.78-.06-.96,.19-.67,.01-3.32,.18-5.04-.29,.33,.13-.8-.1-.87,.07-.1,.11-.34,.17-.06-.07-.88,.1-1.32-.09-1.93,.07-.1,.1,.19,.14,.1-.02-.07-.06-.28-.02-.37,.04-.09,.06,.13,.09,.27-.01-.9-.23-.99-.43-1.05,.09-.46,.08-.68-.05-1.01,.06-.16,.13-.42,.16,.13,0-.31,.09-1.92-.07-1.95,.04-.1,.01-.44,0-.52,0-.7,.02-.77,0-1.46l-.03,.19c-.19-.27-.05-.57-.07-1.13l.02,.02c.13-1.28-.07-.55,.09-1.81l-.12,.07c-.26-.12,.15-1.12,.05-1.85l-.07,.26c-.09-.4,.35-1.12,.38-1.52,.02-.09,.04,.14,.05,.26,.15-1.05-.16-.14-.2-.92,.08-.14,.22,.19,.23-.34,.07-.26-.28-1.53-.12-2.25-.06,.16-.13,.32-.18-.05-.03-.56,.24-1.51,.03-2.01,.02-.07,.03-.1,.05-.1-.05-.43-.09-1.38-.21-1.64,.41-.4-.21-2.65,.17-2.64l-.03-1.31,.04,.03c.02-.84-.07-1.13-.16-1.43,.03-.19,.06-.05,.08-.04,.07-1.22,.06-1.35-.14-2.37l.12-.11c-.07-.28,.19-1.77,.04-2.97,.01,.01,.04,.04,.06,.13-.15-1.35,.33-3.23-.12-3.73l-.11-.89c-.03,1.15-.2-.17-.27,.3-.03-.45,.13-1.17,.16-.62l-.02,.09c.24,.2,.08-1.43,.24-1.4-.02-2.27,.1-4.48,.1-6.61l-.18,.25v-.74c.05-.19,.15-.26,.14,.27,.1-.28-.09-.89-.13-.9,.07-1.04,.21,.4,.22,.09l-.02-.43-.02,.1c-.08-.35-.16-.38-.15-1.02,.04-.4,.11-.21,.12-.37,.01,0,.02-.05,0-.24v-.93s-.13,.37-.13,.37c-.07-.41,0-.88-.16-.45,.25-.63,.08-3.48,.15-3.87-.11-.58-.11-1.15-.1-1.86-.03,.18-.19,.28-.17-.33,.34,.22,.14-1.12,.38-1.62-.16,.44-.05-1.74-.27-1.04,.03-.51,.13-.03,.2-.42-.13-1.21,.07-2.68,.02-4.18-.04-.02-.11,.23-.18-.09l.22-.79c-.02-.3-.25-.27-.1-.81-.04,.08-.09,.19-.11,0,.2-2.94-.2-6.01,.19-9-.08,.4-.09,.14-.1-.17-.02,.2-.11,0-.17,.04l.16-1.25c-.17-.23-.02-1.34-.17-1.47l.03,.4c-.19-.53-.41,.74-.65,.66,.21,.59-.31,1.56,0,2.52-.05,.21-.08-.18-.13-.07,.1,.24,.13,.54,.08,1.09l-.03-.06c.03,1.54-.07,2.2-.13,3.94l.12-.13c-.01,.37-.05,.45-.08,.63,.18,.43,0-1.05,.21-.66-.24,.49,0,2.62-.27,2.96,0,.57,.14-.17,.14,.4l-.07,.15,.1,.14c-.01,.38-.11,.57-.17,.58,0-.09-.02-.26-.02-.36-.09,.49,.03,1.37,0,1.54l.04-.55c.08,1.56-.01,3.47,.14,4.98l.06-.11c.11,1.15-.06,.92,0,2.19v-.05c.04,.25,.07,.59,.07,.94-.07-.32-.12,.6-.2,.18,.12,1.25,.09,.62,.3,1.44l-.09,.19c.08,.28,.13,.3,.16,.94-.08-.52-.14,.4-.25-.18-.2,1.33,.21,1.97-.08,2.58,.26,.61,.14-1.15,.19-.81,.08-.29,.19,.5,.17,.92,0,.42-.33,.72-.32,1.79,0-.11-.02-.11-.02-.22-.06,.4,.09,.78-.01,1.27,.16,.27,0,.64,.19,.71l-.05-.98c.05,.55,.29,1.07,.18,1.99-.04-.07-.09-.34-.12-.53-.06,.27,.04,.51-.02,.79-.2-.08-.05-1.19-.2-1.78-.08,.29,.15,1.12-.07,.83,.27,.43-.03,1.05,.18,1.77l-.12-.05c.02,.11,.08,.35,.07,.56l-.16-.38c.13,.58-.11,1.13-.04,1.69,0-1.17,.14-.26,.23-.76,.16,1.45-.31,.83-.24,2.45-.02-.22,.07-.82,.12-.48-.02,.31-.07,.72-.13,.91,.03,1.07,.12-.17,.2,.29-.14,.37,.06,.53,.11,1h-.12c-.07,1.23,.25,.33,.16,1.43l-.17-.46,.05,.57-.14-.12c.1,.62,.08,.82,.04,1.43,.08-.14,.22,.08,.23,.62-.07,.37-.12-.21-.1,.56-.08-.17-.17-.36-.06-.7-.04-.03-.08-.17-.12-.21-.08,.4-.01,1-.01,1.28,0-.11,.01-.24,.03-.3l.17,1.11c-.04,.18-.08,.04-.12-.1,.01,.23,.07,.38,.08,.71-.1-.09-.2-.06-.25-.53l.11,1.06c-.04,.07-.12,.54-.15,.41-.06,.59,.2,1.44,.12,2.22,.02,.04,.04,.12,.05,.29-.02,.73-.14,1.38,0,2.25l-.17,.49c.04,.68,.22-.67,.29,.46,.06,.8-.15,.3-.2,.58,.09,.4,.27,1.09,.13,1.83-.03-.24,0-.44-.02-.66Zm.11,8.39c-.03-.16-.11-.49-.03-.61,.14,.18,.07,.33,.03,.61Zm.34,12.75c-.04-.12-.02-.31,.02-.52,.01,.15,0,.33-.02,.52Zm.97,35.53s0-.01,0-.02c.05-.36,.03-.23,0,.02Zm-.05,.75c.02,.08,.03,.07,.05,.04-.03-.05-.03-.22-.03-.41-.03,.05-.05,.15-.02,.38Zm-.35-80.88l-.03,.15c-.04-.33,0-.24,.03-.15Z"/>
    <path class="cls-1" d="M41.95,85.35s.04-.06,.07-.07c-.02-.06-.04-.07-.07,.07Z"/>
    <path class="cls-1" d="M41.59,60.43s0-.02,0-.03c0-.01-.01-.02-.02-.03l.02,.05Z"/>
    <path class="cls-1" d="M41.98,111.41c.02-.16,.04-.24,.06-.3-.03,0-.05,.06-.06,.3Z"/>
    <path class="cls-1" d="M43.27,127.07l-.03-.48c0,.23-.02,.32-.04,.43,.03-.01,.07-.1,.07,.05Z"/>
    <path class="cls-1" d="M42.54,131.26c.02,.07,0,.15,.02,.22l.06-.02c0-.3-.05-.51-.07-.2Z"/>
    <path class="cls-1" d="M42.87,127.51c-.1,.04-.07,.34-.05,.68,0-.02,0-.04,0-.06,.14,.1,.09-.26,.05-.62Z"/>
    <path class="cls-1" d="M42.83,128.27c0,.1,0,.21,0,.31,.06,.04,.01-.13,0-.31Z"/>
    <path class="cls-1" d="M43.12,124.03c-.03,.16,.13,.1,.09,.19,.13,.18-.16-1.07-.09-.19Z"/>
    <polygon class="cls-1" points="42.54 127.79 42.66 127.67 42.56 127.48 42.54 127.79"/>
    <path class="cls-1" d="M42.62,125.12l-.03,.54s.03,.06,.04,.14c0-.33,.03-.7-.01-.68Z"/>
    <path class="cls-1" d="M42.63,125.81c0,.17,0,.34,.02,.43,0-.09,0-.3-.02-.43Z"/>
    <polygon class="cls-1" points="42.5 127.05 42.52 126.89 42.53 126.51 42.5 127.05"/>
    <path class="cls-1" d="M42.62,119.32l-.04-.59c-.04-.06-.07,.1-.05,.32,.03,.14,.05,.36,.09,.27Z"/>
    <path class="cls-1" d="M42.28,121.1c.03-.16,.05-.17,.09-.26l-.16-.02,.06,.28Z"/>
    <path class="cls-1" d="M42.24,119.38c-.04-.06-.13-.85-.11-.11,.04,.06,.08,.65,.11,.11Z"/>
    <polygon class="cls-1" points="42.4 110.5 42.41 110.65 42.66 110.63 42.4 110.5"/>
    <path class="cls-1" d="M41.77,102.68c-.06,.7,.16,.17,.08,.8,.06,.16,.06-.52,.11-.35-.07-.42-.03-.64-.2-.45Z"/>
    <path class="cls-1" d="M41.96,103.13c.01,.07,.02,.14,.04,.22-.02-.12-.03-.18-.04-.22Z"/>
    <polygon class="cls-1" points="42.72 14.78 42.77 14.33 42.69 14.62 42.72 14.78"/>
    <path class="cls-1" d="M42.53,13.92l.16-.11-.15-.27c0,.1,.02,.3-.01,.38Z"/>
    <path class="cls-1" d="M41.46,75.29l.04,.03c.04-.07,.04-.17,.05-.39l-.09,.35Z"/>
    <polygon class="cls-1" points="41.56 69.2 41.56 69.3 41.7 69.1 41.56 69.2"/>
    <path class="cls-1" d="M41.35,64.09c0,.21,.03,.45,.02,.66-.03-.45,.16-.72-.02-.66Z"/>
  </g>
  <g>
    <path class="cls-1" d="M90.7,.16c0-.21-.1-.13-.12-.16,.03,.34,.14,.15,.12,.16Z"/>
    <polygon class="cls-1" points="90.97 3.56 90.93 3.5 91.04 4 90.97 3.56"/>
    <path class="cls-1" d="M91,6.74c.18-.3-.04-1.15,.02-1.72l.04-.09-.15-.25c.03,.69,.13,1.58,.09,2.07Z"/>
    <path class="cls-1" d="M90.64,8.43c.07-.11,.06,.37,.02-.4,0,.03-.01,.05-.02,.07,0,.07,0,.16,0,.32Z"/>
    <path class="cls-1" d="M90.64,8.11c0-.33-.06,.22,0,0h0Z"/>
    <path class="cls-1" d="M90.69,9.66l-.07-.44c-.04,.09-.05,.48-.08,.34,.04,.45,.08,.36,.14,.1Z"/>
    <path class="cls-1" d="M90.83,10.07l-.03-.23s-.02,.1,.03,.23Z"/>
    <path class="cls-1" d="M90.74,9.36l.06,.48c.03-.06,.09-.07-.02-.22,.05,.04,0-.06-.04-.26Z"/>
    <path class="cls-1" d="M90.76,9.09c.04-.25,.06-.57,.12-.13-.03-.84-.16-.72-.12,.13Z"/>
    <path class="cls-1" d="M91.19,6.9l.05-.33-.06-.29c.03,.14-.04,.64,.01,.62Z"/>
    <path class="cls-1" d="M90.63,12.4s.1-.15,.15-.18l-.05-.33c-.02,.17-.04,.49-.1,.51Z"/>
    <path class="cls-1" d="M90.78,12.22l.07,.49c0-.44-.03-.51-.07-.49Z"/>
    <polygon class="cls-1" points="91.03 10.15 90.88 9.35 91.03 10.3 91.03 10.15"/>
    <polygon class="cls-1" points="90.64 14.26 90.55 13.99 90.69 14.48 90.64 14.26"/>
    <path class="cls-1" d="M90.67,15.5c-.07-.2-.12,.28-.17,.07,.02,.34,.08,.62,.14,.88-.03-.27-.03-.57,.03-.94Z"/>
    <path class="cls-1" d="M90.73,16.87c-.02-.14-.05-.28-.09-.43,.02,.15,.04,.29,.09,.43Z"/>
    <path class="cls-1" d="M90.84,13.54s-.08,.11-.1,.38l.1-.19c0-.06,0-.12,0-.19Z"/>
    <path class="cls-1" d="M90.84,13.72h0c0,.21,0,.36,0,.42,0-.05,0-.18,0-.42Z"/>
    <path class="cls-1" d="M90.84,13.49v.05s.01-.03,0-.05Z"/>
    <path class="cls-1" d="M90.94,11.43c.06,.29,.13,.88,.22,.3-.08-.2-.12,.13-.22-.3Z"/>
    <path class="cls-1" d="M90.97,13.25l.02-.52s-.07,.1-.1-.04l.08,.55Z"/>
    <polygon class="cls-1" points="91 13.5 90.97 13.25 90.96 13.44 91 13.5"/>
    <path class="cls-1" d="M90.82,15.99c.05,.22,.06,.47,.07,.74,.02-.3,.03-.6,.02-.89-.03-.04-.1-.17-.09,.15Z"/>
    <path class="cls-1" d="M90.84,14.89v.05s.02-.06,0-.05Z"/>
    <polygon class="cls-1" points="90.91 19.45 90.93 19.4 90.91 19.39 90.91 19.45"/>
    <path class="cls-1" d="M90.93,15.79c.02-.22,0-.36-.04-.48,.01,.17,.02,.34,.02,.53,.02,.02,.03,.02,.02-.05Z"/>
    <path class="cls-1" d="M90.79,17.63c.02-.13,.04-.25,.05-.39-.03,.11-.08,.35-.05,.39Z"/>
    <path class="cls-1" d="M90.82,15.01v-.03c-.03,.07-.02,.06,0,.03Z"/>
    <path class="cls-1" d="M90.82,15.01c.02,.11,.04,.2,.07,.29,0-.14-.02-.26-.04-.37,0,.03-.02,.06-.03,.08Z"/>
    <path class="cls-1" d="M91.61,20.27c-.1-.04-.2-.62-.1-1.13-.08-.5-.4-.17-.58,.27,.04,.01,.08,.01,.15,.53,.05-.18,.11-1.14,.21-.71,.06,.68-.03,.56-.08,.89,.12-.28,.19,.86,.37,.71l-.07-.59s.08,.2,.1,.04Z"/>
    <path class="cls-1" d="M90.93,18.43v-.21c-.03,.24-.07,.41-.14,.73,.05,.35,.09,.42,.12,.45v-1.04s.02,.07,.02,.07Z"/>
    <path class="cls-1" d="M90.91,17.28c.11,.16,.16,.67,.27,.36-.01-.62-.09-.43-.14-.8,.04,1-.06-.29-.12,.44-.02-.2-.03-.37-.03-.54-.01,.17-.03,.35-.04,.52v-.02s0,0,0,0h0s.02-.06,.01,0c0,0,0,.02,0,.02,.02,0,.03,.02,.04,.04-.02,.29-.03,.05-.04-.04,0,0-.01-.01-.02-.01h0s.07,1,.07,1c.01-.21,0-.48-.01-.94Z"/>
    <path class="cls-1" d="M91.4,12.26s-.02,.03-.02,.03c.01,.06,.02,.09,.02-.03Z"/>
    <path class="cls-1" d="M91.34,12.67c-.02-.07-.06-.13-.05-.37,.03-.2,.05,0,.09-.01-.03-.14-.08-.5-.13-.05l.02,.07c-.03,.4-.16,.92-.18,.85,.1-.12,.16-.22,.26-.49Z"/>
    <path class="cls-1" d="M91.15,15l.06,.83,.09-.42-.06,.02c.02-.47-.05-.37-.09-.43Z"/>
    <polygon class="cls-1" points="90.86 19.54 90.75 19.44 90.91 19.91 90.86 19.54"/>
    <polygon class="cls-1" points="90.89 20.62 90.79 20.59 90.85 20.87 90.89 20.62"/>
    <path class="cls-1" d="M93.35,81.53l.04,.24c-.02-.11-.03-.19-.04-.24Z"/>
    <path class="cls-1" d="M93.25,79.76l-.05-.04c.03,.08,.05,.11,.05,.04Z"/>
    <path class="cls-1" d="M91.17,47.15c-.09,.36-.23,.76-.12,.71l.11-.11c-.02-.25-.01-.44,0-.6Z"/>
    <path class="cls-1" d="M92.21,65.31l.03-.11c-.04-.08-.08-.16-.11-.24,.02,.1,.05,.22,.08,.34Z"/>
    <path class="cls-1" d="M92.66,65.55l-.06,.47c.02-.11,.04-.26,.06-.47Z"/>
    <path class="cls-1" d="M94.09,91.15l.13,.28c-.03-.44-.07-.25-.13-.28Z"/>
    <path class="cls-1" d="M91.04,31.69c-.04,.31-.05,.55-.06,.77,.06-.37,.15-.67,.06-.77Z"/>
    <path class="cls-1" d="M92.16,80.9c.03,.15,.05,.21,.08,.2-.03-.15-.05-.24-.08-.2Z"/>
    <path class="cls-1" d="M90.99,33.34c0-.06,.02-.11,.02-.16-.02-.22-.04-.45-.03-.72-.04,.27-.07,.59,0,.89Z"/>
    <path class="cls-1" d="M95.7,126.18v.08s0-.03,0-.08Z"/>
    <path class="cls-1" d="M94.37,136.35c0-.1,0-.26,.01-.42-.01,.07-.02,.2-.01,.42Z"/>
    <path class="cls-1" d="M90.88,24.97c0-.23-.01-.04,0,0h0Z"/>
    <path class="cls-1" d="M91.3,23.85s.03,.09,.05,.09c-.03-.02-.04-.05-.05-.09Z"/>
    <path class="cls-1" d="M91.69,35.62v.02c.02-.07,.02-.06,0-.02Z"/>
    <path class="cls-1" d="M90.93,24.63c-.01,.09-.02,.19-.03,.29,0-.05,.02-.14,.03-.29Z"/>
    <path class="cls-1" d="M90.88,24.67c0-.08,0-.14,0-.2-.02-.03-.03,0,0,.2Z"/>
    <path class="cls-1" d="M90.89,25.29c0-.13,0-.25,0-.37,0,.05-.01,.06-.02,.05,0,.07,0,.16,0,.32Z"/>
    <path class="cls-1" d="M94.79,107.4s0,.03,0,.05c.06,.23,.04,.13,0-.05Z"/>
    <polygon class="cls-1" points="92.42 53.1 92.41 53.07 92.41 53.11 92.42 53.1"/>
    <path class="cls-1" d="M92.52,53.92c-.14-.35-.13-.55-.11-.81l-.31,.28,.41,.54Z"/>
    <path class="cls-1" d="M93.64,85.75l.06-.58c.2,.69,.18,1.19,.28,.64-.34-.06-.18-2.24-.52-2.3l.05-.38c0,.11,.02,.13,.03,.23,.11-.75-.28-.53-.29-1.49,0-.33,.04-.57,.1-.34l-.13-.73c0-.22,.06-.17,.06,.05l-.09-1.13h.01c-.06-.15-.17-.51-.21-.69,.03-.29,.04,.14,.08,.07l-.12-.62c.08-.26,.18,.25,.2,.69,.3-.6-.11-.51,.02-1.78l.07,.59c.17-.39,.08-.85,.17-1.52-.05,.16-.24,1.35-.35,.68,.02-.19,.02-.44-.07-.81,.12,0,.07-.36,.04-.81l.16,.02c-.07-.48-.15-.44-.24-.72,0-.54,.12-.66,.22-.79,0-.86-.19,.6-.24-.42,.05-.72-.03-1.22-.15-2.08,.04-.5,.1,.08,.14-.1l-.14-.44c0-.11,.04-.08,.06-.06-.06-.37-.16-.02-.22-.61-.18-.15,.23-1.22,.01-1.94,.04-.18,.1,.08,.16,.03-.15-1-.11-.86-.31-1.67l.09-.7c-.11,.52-.27-.13-.39-.71-.05,.18-.1,.34-.12,.45l-.11-.92c.02-.11,.08-.02,.15,.13-.02-.06-.03-.12-.04-.17,.05-.33,.15-.16,.24,.07-.03,.11-.06,.22-.09,.33,.1,.22,.21,.43,.31,.38-.02-.06-.04-.17-.05-.3,.03,.06,.05,.1,.07,.07,.02-.03-.02-.13-.07-.28l.17-.21-.07-.05,.09-1.21c-.2-.86-.48-1.6-.58-2.96,.14,.34,.22,.07,.37,.08-.16,.38,.09,1.06,.08,1.77,0-.37,.08-.29,.11-.2l-.18-1.26c.13,.02,.09-.27,.13-.6-.24,.26-.19-.94-.28-1.45,.08-.03,.17,.09,.17,.71,.17-.7-.31-.89-.17-1.57,0,.15,0,.24,.04,.3-.08-.36-.04-1.23,.04-1.03v.15c.01-1.02-.06-3.09-.28-3.24,.03-.01,.26,.13,.3,.19l-.76-1.8c.19,.16,.61-.46,.73,.38,.02-.24,.04-.54-.03-1.05-.02,.17-.25,.42-.28,.19,.19-.62,.1-.43,.26-1.2-.03,.25-.33-.02-.33-.41,.04,.06,.28-.04,.31,.11l-.3-.97c.06,.24,.24,.04,.31-.18-.05,.1-.01-.84-.05-1.1l-.06,.41c.02-1.1-.42-1.08-.42-2.17,.06,.13,.36,.32,.39-.23-.15-.25-.7-1.12-.82-2.08l.08-.19-.1-.74c.22,.46,.69,1.75,.88,2.45,.06-.41,.1-.12,.08-.73,.07-.22,.12,.33,.13,.52l.03-1.44c-.17,.07-.18-1.1-.32-1.04l.19,1.56c-.17,.06-.49-.9-.47-1.91,.06-.26,.3,.19,.36,.17-.06-.13-.12-.96-.08-1.06l.09,.43c.06-.57-.23-.92-.08-1.6,0-.23,.21-.7,.11-.74-.19,.38-.78,.47-.93,.21,.01-.08,.17-1.23,.26-1.5,.15-.39,.36,.58,.49,.25-.05-.01-.1-.23-.12-.32,.04-.25,.14,.1,.12-.44-.17-.09,0-1.09-.15-.25-.05-.52,.03-.56,.02-1.17-.11,.2-.38-.55-.43-1.07,.04,.03,.1-.09,.12-.15,0-1.07,.08-1.65,.07-2.65,.04-.09,.09-.58,.16-.37-.03-.14-.09-.28-.1-.58,.14-.6,.03,.69,.2,.23-.1-.04-.14-.8-.21-1.24-.15,.14-.02,1.02,.05,1.46-.21,0-.44-.76-.55-1.81-.06-.83,.13-.36,.1-.51,.02-1.56-.38-1.33-.24-2.63,.13-.52,.27-.03,.36-.14,.06,.68-.07,1.04-.06,1.5l.06-.57c.05,.22,.09,.67,.05,.91,.12-.43,0-2.64,.09-3.85-.05-.21-.1-.58-.15-.41l.02,.38c-.1,.35-.16-.72-.2-.23-.08-.51-.21-1.08-.15-1.81l.15-.14s-.09,.47-.04,.67c-.07-.3,.2-1.11,0-1.43l-.1,.51c-.08-.51-.25-1.15-.21-1.79-.15,.29,.02,.15-.15,.6,.22-.4,0,1.63,.23,1-.2,.47-.08,.81-.25,1.42,.05-.02,.09-.22,.08,.32,.02,.02,.03,.08,.05,.12,0,.02,0,.02,0,.04v-.03s.02,.03,0-.01c.02-.13,.05-.23,.07-.27,.12,.26,.12,1.12,.19,1.41-.02,.32-.06-.13-.11,.04l.09,.43c-.11,.04-.18,.85-.25,.1v.67c-.06,.4-.08,.94-.03,1.28-.02,.32,.13,.8,.04,.53l.08,1.06h-.03c0,1.05,.21,2.16,.02,3.35,.03,.35,.07,.71,.04,1.3l-.1,.12c.04,.45-.08,1.36,.02,1.55-.26,.49-.03,2.19-.07,2.98l.13,.03c0,.55,.04,1.07,.1,1.75l.11-.04c.1,.58-.06,1.5-.04,2.43-.04-.06-.03-.3-.01-.46-.24,1.11,.21,2.33,.03,3.33,.04,.25,.03,.43,0,.61,0-.02,0-.04,0-.06,0,.03,0,.06,0,.1-.02,.11-.04,.23-.06,.35,.03-.1,.05-.21,.06-.29,0,.19,.02,.48,.05,.77l-.12,.12s0,.04,0,.07c-.04,.28,.06,.23,.15,.07,.02,.14,.05,.28,.08,.38-.19,.23,.08,.75-.12,1.06,.11,.19,.11,1.44,.32,1.59-.03,.01-.04,.09-.04-.06-.02,.32-.03,.64,.03,.92l-.15,.14,.22,.69c-.08,.42-.13,.6-.26,.18,.2,1.01,.09,.82,.28,1.68l-.1-.04c.01,.31,.15,.8,.08,.99-.17,.69,.05,3.42-.09,5.19,.28-.35-.11,.83,.11,.89-.07,.11-.1,.35-.17,.07,.09,.9-.08,1.36,.12,1.98-.07,.11-.11-.19-.14-.1,.02,.07,.07,.29,.03,.38-.04,.09-.06-.13-.09-.27,.03,.92,.25,1.01,.45,1.07-.08,.47-.07,.7,.07,1.04-.06,.17-.12,.44-.16-.13,0,.32-.05,1.98,.11,2-.04,.1,0,.45,.02,.54,0,.72,0,.79,.02,1.5l.02-.2c.2,.27,.06,.59,.09,1.16l-.02-.02c-.11,1.32,.08,.56-.05,1.87l.12-.08c.26,.11-.13,1.16-.01,1.9l.06-.27c.09,.41-.32,1.17-.33,1.58-.02,.09-.04-.14-.07-.27-.1,1.09,.16,.13,.24,.94-.08,.15-.22-.18-.21,.36-.05,.27,.35,1.56,.23,2.31,.06-.17,.11-.33,.18,.04,.06,.57-.16,1.56,.08,2.07-.01,.07-.03,.1-.05,.11,.08,.44,.17,1.42,.3,1.68-.39,.43,.38,2.71,0,2.72l.11,1.35-.04-.03c.03,.86,.15,1.16,.26,1.46-.01,.2-.06,.06-.08,.04,0,1.26,.03,1.39,.3,2.43l-.12,.12c.09,.28-.07,1.83,.16,3.05-.01-.01-.04-.03-.06-.13,.24,1.38-.11,3.34,.37,3.82l.17,.91c-.05-1.19,.21,.16,.25-.33,.06,.46-.05,1.21-.12,.64l.02-.09c-.25-.19,.02,1.48-.15,1.46,.17,2.33,.18,4.61,.3,6.79l.17-.26,.03,.76c-.03,.2-.13,.28-.15-.27-.09,.29,.14,.91,.18,.92-.02,1.07-.24-.4-.22-.08l.04,.44,.02-.1c.09,.35,.18,.38,.2,1.04-.01,.41-.1,.22-.1,.38-.01,0-.02,.05,0,.25l.04,.96,.12-.39c.1,.42,.04,.9,.18,.45-.22,.66,.07,3.58,.01,3.99,.13,.59,.14,1.18,.16,1.91,.02-.18,.18-.3,.18,.33-.34-.22-.11,1.16-.33,1.67,.15-.46,.08,1.78,.29,1.07-.02,.53-.12,.03-.2,.43,.15,1.25-.02,2.75,.02,4.29,.04,.02,.11-.24,.18,.1l-.22,.82c.02,.3,.26,.28,.11,.84,.04-.08,.09-.2,.11,0-.1,1.51-.1,3.05-.09,4.6-.03,1.55-.07,3.1-.34,4.63,.11-.41,.1-.13,.09,.18,.03-.2,.11,0,.17-.03l-.24,1.27c.15,.24-.06,1.37,.09,1.52v-.41c.15,.55,.45-.73,.68-.64-.18-.62,.41-1.59,.15-2.6,.06-.22,.07,.19,.13,.08-.09-.26-.11-.56-.04-1.13l.02,.06c.02-1.59,.17-2.27,.25-4.05l-.12,.13c.02-.38,.06-.46,.09-.64-.17-.44-.02,1.08-.22,.67,.25-.51,.04-2.71,.31-3.05,0-.59-.14,.17-.14-.42l.07-.16-.1-.15c.01-.39,.11-.58,.17-.6,0,.09,.02,.27,.02,.37,.08-.5-.04-1.42,0-1.59l-.04,.57c-.07-1.61-.01-3.58-.2-5.13l-.05,.12c-.13-1.19,.04-.95-.05-2.26v.05c-.05-.26-.09-.61-.1-.96,.08,.33,.11-.62,.19-.19-.16-1.28-.11-.63-.35-1.48l.09-.2c-.1-.29-.14-.31-.2-.96,.1,.53,.12-.42,.25,.17,.14-1.37-.3-2.02-.03-2.66-.28-.61-.09,1.19-.16,.84-.07,.3-.22-.51-.21-.94-.01-.44,.29-.76,.23-1.85,0,.11,.02,.12,.03,.22,.04-.41-.13-.8-.05-1.31-.17-.27-.03-.65-.23-.72l.1,1c-.08-.57-.34-1.09-.28-2.03,.04,.07,.11,.35,.15,.54,.04-.28-.07-.53-.03-.81,.21,.07,.11,1.22,.3,1.82,.07-.3-.21-1.15,.02-.85-.29-.43-.03-1.08-.28-1.81l.12,.04c-.03-.12-.1-.36-.11-.57l.18,.38c-.17-.59,.04-1.17-.06-1.74,.08,1.21-.13,.28-.18,.8-.25-1.48,.26-.88,.09-2.54,.03,.22-.01,.85-.09,.5,0-.32,.02-.74,.07-.94-.1-1.1-.11,.18-.21-.29,.12-.39-.09-.54-.17-1.02h.12c0-1.27-.27-.33-.26-1.47l.2,.47-.08-.59,.15,.11c-.15-.63-.13-.84-.14-1.47-.07,.15-.22-.07-.27-.62,.05-.38,.13,.2,.06-.58,.09,.17,.2,.36,.11,.71,.04,.03,.09,.17,.13,.2,.05-.41-.05-1.03-.07-1.31,0,.11,0,.24,0,.31l-.25-1.13c.03-.18,.08-.04,.12,.1-.03-.23-.1-.39-.13-.73,.1,.08,.2,.05,.28,.53l-.18-1.08c.04-.08,.08-.57,.12-.43,.02-.61-.29-1.47-.27-2.27-.02-.04-.05-.12-.07-.29-.03-.75,.05-1.43-.15-2.31l.14-.52c-.09-.7-.17,.7-.32-.46-.11-.82,.13-.32,.16-.61-.12-.4-.34-1.1-.25-1.87,.05,.25,.04,.45,.06,.68Zm-.58-8.61c.03,.17,.13,.49,.06,.62-.15-.18-.09-.33-.06-.62Zm-.65-13.1c.04,.12,.03,.32-.01,.53-.01-.16-.01-.34,.01-.53Zm-1.41-36.55v.02c-.04,.37-.02,.24,0-.02Zm.04-.78c-.02-.08-.03-.07-.05-.04,.03,.05,.03,.23,.03,.43,.03-.06,.05-.16,.02-.39Zm3.06,83.19l.02-.15c.05,.34,.02,.24-.02,.15Z"/>
    <path class="cls-1" d="M92.61,65.52s-.04,.06-.06,.07c.02,.07,.05,.07,.06-.07Z"/>
    <path class="cls-1" d="M94.07,91.1v.03s.02,.02,.02,.02l-.02-.05Z"/>
    <path class="cls-1" d="M92.2,38.7c-.02,.16-.04,.25-.06,.31,.03,0,.05-.06,.06-.31Z"/>
    <path class="cls-1" d="M90.8,22.6l.04,.5c0-.24,.02-.33,.03-.45-.03,.01-.07,.11-.07-.05Z"/>
    <path class="cls-1" d="M91.51,18.28c-.02-.07,0-.15-.02-.23l-.06,.02c0,.31,.05,.52,.07,.2Z"/>
    <path class="cls-1" d="M91.2,22.14c.1-.04,.06-.35,.04-.7v.06c-.14-.1-.09,.27-.04,.64Z"/>
    <path class="cls-1" d="M91.24,21.36c0-.11,0-.22,0-.32-.06-.04-.01,.13,0,.32Z"/>
    <path class="cls-1" d="M90.97,25.72c.02-.17-.13-.1-.09-.2-.13-.18,.17,1.1,.09,.2Z"/>
    <polygon class="cls-1" points="91.53 21.85 91.41 21.98 91.51 22.17 91.53 21.85"/>
    <path class="cls-1" d="M91.47,24.6l.03-.56s-.03-.06-.04-.15c0,.34-.02,.72,.02,.7Z"/>
    <path class="cls-1" d="M91.45,23.89c0-.18,0-.35-.03-.45,0,.1,0,.3,.03,.45Z"/>
    <polygon class="cls-1" points="91.58 22.61 91.55 22.78 91.55 23.17 91.58 22.61"/>
    <path class="cls-1" d="M91.51,30.57l.04,.61c.04,.06,.07-.1,.05-.33-.03-.14-.05-.37-.09-.28Z"/>
    <path class="cls-1" d="M91.83,28.73c-.02,.16-.05,.18-.09,.27l.16,.02-.06-.29Z"/>
    <path class="cls-1" d="M91.88,30.5c.04,.06,.13,.88,.12,.11-.04-.06-.09-.67-.12-.11Z"/>
    <polygon class="cls-1" points="91.78 39.64 91.78 39.49 91.52 39.51 91.78 39.64"/>
    <path class="cls-1" d="M92.47,47.69c.05-.72-.16-.17-.09-.82-.06-.17-.06,.53-.11,.36,.07,.43,.03,.66,.2,.46Z"/>
    <path class="cls-1" d="M92.27,47.23c-.01-.07-.03-.14-.04-.22,.02,.13,.03,.18,.04,.22Z"/>
    <polygon class="cls-1" points="94.14 138.03 94.06 138.49 94.17 138.2 94.14 138.03"/>
    <path class="cls-1" d="M94.28,138.93l-.17,.1,.13,.29c0-.1,0-.31,.04-.38Z"/>
    <path class="cls-1" d="M93.32,75.84l-.04-.03c-.04,.07-.04,.18-.03,.4l.07-.36Z"/>
    <polygon class="cls-1" points="93.54 82.1 93.54 81.99 93.4 82.2 93.54 82.1"/>
    <path class="cls-1" d="M94.06,87.33c0-.21-.06-.46-.07-.68,.06,.46-.11,.75,.07,.68Z"/>
  </g>
  <g>
    <path class="cls-1" d="M70.61,142.06c0,.2,.1,.13,.12,.16-.04-.34-.15-.15-.12-.16Z"/>
    <polygon class="cls-1" points="70.24 138.7 70.28 138.76 70.16 138.27 70.24 138.7"/>
    <path class="cls-1" d="M70.12,135.55c-.17,.3,.07,1.14,.03,1.71l-.04,.09,.15,.25c-.05-.68-.18-1.57-.15-2.05Z"/>
    <path class="cls-1" d="M70.44,133.85c-.07,.11-.07-.36,0,.39,0-.03,.01-.05,.01-.07,0-.07,0-.16,0-.32Z"/>
    <path class="cls-1" d="M70.44,134.17c.02,.33,.05-.22,0,0h0Z"/>
    <path class="cls-1" d="M70.36,132.64l.07,.44c.04-.09,.04-.48,.07-.34-.04-.45-.08-.35-.14-.1Z"/>
    <path class="cls-1" d="M70.23,132.23l.03,.23s.02-.1-.03-.23Z"/>
    <path class="cls-1" d="M70.32,132.94l-.06-.48c-.03,.06-.09,.07,.02,.22-.05-.04,0,.06,.04,.26Z"/>
    <path class="cls-1" d="M70.3,133.21c-.03,.25-.05,.56-.12,.13,.05,.84,.17,.71,.12-.13Z"/>
    <path class="cls-1" d="M69.92,135.39l-.04,.33,.07,.28c-.04-.14,.02-.63-.03-.61Z"/>
    <path class="cls-1" d="M70.41,129.91s-.1,.15-.15,.18l.05,.32c.02-.17,.04-.48,.1-.51Z"/>
    <path class="cls-1" d="M70.26,130.1l-.07-.48c0,.43,.03,.51,.07,.48Z"/>
    <polygon class="cls-1" points="70.03 132.16 70.18 132.95 70.02 132 70.03 132.16"/>
    <polygon class="cls-1" points="70.38 128.07 70.47 128.34 70.33 127.85 70.38 128.07"/>
    <path class="cls-1" d="M70.34,126.84c.08,.2,.12-.28,.17-.07-.02-.33-.09-.62-.15-.87,.04,.27,.03,.56-.02,.94Z"/>
    <path class="cls-1" d="M70.27,125.48c.02,.14,.05,.28,.09,.43-.02-.14-.05-.29-.09-.43Z"/>
    <path class="cls-1" d="M70.19,128.79s.08-.11,.1-.38l-.1,.19c0,.06,0,.12,0,.19Z"/>
    <path class="cls-1" d="M70.19,128.61h0c0-.21,0-.36,0-.42,0,.05,0,.18,0,.42Z"/>
    <path class="cls-1" d="M70.19,128.84v-.05s-.01,.03,0,.05Z"/>
    <path class="cls-1" d="M70.1,130.89c-.06-.28-.14-.87-.22-.3,.08,.2,.12-.13,.22,.3Z"/>
    <path class="cls-1" d="M70.06,129.08l-.02,.51s.07-.1,.1,.04l-.08-.55Z"/>
    <polygon class="cls-1" points="70.02 128.83 70.06 129.08 70.07 128.89 70.02 128.83"/>
    <path class="cls-1" d="M70.19,126.36c-.05-.22-.06-.46-.07-.74-.02,.29-.02,.6-.02,.89,.03,.04,.1,.17,.09-.15Z"/>
    <path class="cls-1" d="M70.18,127.45v-.05s-.02,.05,0,.05Z"/>
    <polygon class="cls-1" points="70.11 122.92 70.09 122.96 70.1 122.97 70.11 122.92"/>
    <path class="cls-1" d="M70.08,126.56c-.02,.22,.01,.35,.05,.48-.01-.17-.02-.34-.03-.53-.02-.02-.03-.02-.02,.05Z"/>
    <path class="cls-1" d="M70.21,124.73c-.02,.12-.04,.25-.06,.38,.03-.11,.08-.34,.06-.38Z"/>
    <path class="cls-1" d="M70.2,127.33v.03c.03-.07,.02-.06,0-.03Z"/>
    <path class="cls-1" d="M70.2,127.33c-.02-.11-.05-.2-.07-.29,.01,.13,.02,.26,.04,.37,0-.03,.02-.06,.03-.07Z"/>
    <path class="cls-1" d="M69.42,122.1c.1,.04,.19,.62,.08,1.12,.07,.49,.4,.17,.58-.26-.04-.02-.08-.01-.14-.52-.05,.18-.13,1.13-.22,.7-.05-.67,.04-.55,.09-.88-.12,.28-.18-.86-.36-.71l.06,.59s-.07-.2-.1-.04Z"/>
    <path class="cls-1" d="M70.08,123.93v.21c.03-.24,.07-.41,.15-.72-.05-.35-.08-.42-.12-.44v1.03s-.03-.07-.03-.07Z"/>
    <path class="cls-1" d="M70.09,125.08c-.11-.16-.15-.66-.27-.36,.01,.61,.1,.43,.15,.8-.04-.99,.07,.28,.11-.43,.02,.19,.03,.37,.04,.53,.01-.17,.03-.34,.04-.51v.02s0,0,0,0h0s-.02,.06-.01,0c0,0,0-.02,0-.02-.02,0-.03-.02-.04-.04,.02-.29,.03-.05,.04,.04,0,0,.01,.01,.02,.01h0s-.06-.99-.06-.99c-.01,.21-.01,.47,0,.94Z"/>
    <path class="cls-1" d="M69.64,130.06s.02-.03,.02-.03c-.01-.06-.02-.09-.02,.03Z"/>
    <path class="cls-1" d="M69.7,129.65c.02,.07,.06,.13,.05,.37-.03,.2-.05,0-.09,.01,.03,.14,.09,.49,.13,.05l-.02-.07c.03-.4,.15-.92,.17-.85-.09,.12-.16,.22-.25,.49Z"/>
    <path class="cls-1" d="M69.87,127.34l-.07-.83-.09,.42,.06-.02c-.01,.47,.05,.37,.1,.43Z"/>
    <polygon class="cls-1" points="70.16 122.83 70.27 122.93 70.11 122.46 70.16 122.83"/>
    <polygon class="cls-1" points="70.15 121.75 70.24 121.79 70.18 121.51 70.15 121.75"/>
    <path class="cls-1" d="M70.97,61.15l-.02-.24c0,.12,0,.19,.02,.24Z"/>
    <path class="cls-1" d="M70.89,62.91l.05,.05c-.02-.08-.04-.12-.05-.05Z"/>
    <path class="cls-1" d="M70.65,95.4c.11-.35,.26-.74,.15-.7l-.11,.1c.01,.25,0,.44-.04,.6Z"/>
    <path class="cls-1" d="M70.78,77.33l-.04,.1c.03,.09,.06,.17,.09,.24-.02-.11-.04-.22-.05-.35Z"/>
    <path class="cls-1" d="M70.34,77.06l.09-.46c-.03,.1-.06,.25-.09,.46Z"/>
    <path class="cls-1" d="M71.28,51.55l-.1-.29c-.02,.44,.05,.25,.1,.29Z"/>
    <path class="cls-1" d="M70.19,110.76c.05-.3,.07-.55,.08-.76-.07,.37-.17,.66-.08,.76Z"/>
    <path class="cls-1" d="M72.09,61.89c-.01-.15-.03-.21-.06-.21,.01,.15,.03,.24,.06,.21Z"/>
    <path class="cls-1" d="M70.28,109.12c-.01,.06-.02,.11-.03,.16,.01,.22,.03,.45,.01,.72,.05-.27,.08-.58,.01-.88Z"/>
    <path class="cls-1" d="M72.05,16.77v-.08s0,.03,0,.08Z"/>
    <path class="cls-1" d="M72.93,6.6c0,.1,.01,.26,.02,.42,0-.08,0-.2-.02-.42Z"/>
    <path class="cls-1" d="M70.19,117.44c0,.23,.01,.04,0,0h0Z"/>
    <path class="cls-1" d="M69.76,118.54s-.03-.09-.05-.09c.03,.02,.04,.05,.05,.09Z"/>
    <path class="cls-1" d="M69.65,106.84v-.02c-.02,.07-.02,.06,0,.02Z"/>
    <path class="cls-1" d="M70.14,117.78c.01-.09,.02-.18,.03-.29,0,.05-.02,.14-.03,.29Z"/>
    <path class="cls-1" d="M70.2,117.73c0,.08,0,.14-.01,.2,.02,.03,.03,0,.01-.2Z"/>
    <path class="cls-1" d="M70.19,117.12c0,.13,0,.25-.01,.37,0-.04,.01-.06,.02-.05,0-.07,0-.16,0-.32Z"/>
    <path class="cls-1" d="M72.19,35.42s0-.03,.01-.05c-.04-.23-.04-.13-.01,.05Z"/>
    <polygon class="cls-1" points="69.75 89.43 69.75 89.46 69.76 89.43 69.75 89.43"/>
    <path class="cls-1" d="M69.7,88.61c.12,.35,.09,.55,.05,.81l.32-.26-.38-.56Z"/>
    <path class="cls-1" d="M71.14,56.94l-.12,.57c-.13-.7-.05-1.2-.21-.67,.34,.1-.07,2.23,.27,2.33l-.09,.38c0-.11-.01-.13,0-.23-.2,.73,.22,.56,.13,1.5-.04,.33-.1,.56-.13,.33l.05,.74c-.02,.21-.07,.16-.06-.05l-.02,1.12h0c.05,.15,.11,.52,.14,.7-.06,.28-.03-.14-.08-.07l.05,.63c-.1,.25-.16-.27-.13-.7-.37,.56,.06,.52-.2,1.76v-.59c-.23,.37-.18,.83-.33,1.49,.07-.15,.37-1.31,.42-.64-.03,.19-.06,.44,0,.81-.12,0-.11,.35-.12,.8l-.16-.04c.02,.48,.11,.45,.16,.74-.04,.54-.17,.64-.28,.76-.07,.86,.23-.58,.21,.43-.1,.71-.05,1.22,0,2.07-.08,.5-.09-.09-.15,.08l.11,.45c0,.11-.05,.07-.06,.05,.03,.38,.16,.04,.17,.63,.17,.17-.31,1.19-.15,1.93-.05,.18-.09-.09-.16-.04,.08,1,.05,.86,.19,1.69l-.14,.69c.14-.51,.26,.15,.34,.73,.07-.18,.12-.33,.15-.43l.04,.92c-.03,.11-.08,.01-.14-.14,.01,.06,.02,.12,.03,.17-.07,.32-.16,.15-.24-.09,.04-.11,.08-.22,.11-.32-.09-.23-.18-.45-.28-.4,.02,.06,.03,.18,.03,.3-.02-.06-.05-.1-.06-.07-.02,.03,.01,.13,.05,.28l-.19,.2,.07,.05-.17,1.19c.14,.86,.37,1.62,.38,2.98-.12-.34-.21-.08-.36-.11,.18-.36-.02-1.06,.05-1.76-.03,.37-.1,.28-.13,.19l.09,1.26c-.13-.03-.11,.26-.17,.59,.26-.24,.13,.94,.18,1.46-.09,.03-.17-.1-.12-.72-.22,.68,.25,.9,.07,1.57,0-.15,.02-.23-.02-.3,.06,.36-.04,1.23-.1,1.02v-.15c-.07,1.01-.13,3.08,.07,3.24-.03,0-.25-.14-.29-.21l.64,1.83c-.18-.17-.64,.43-.7-.42-.04,.24-.08,.54-.04,1.05,.03-.16,.28-.4,.29-.17-.23,.61-.12,.42-.33,1.18,.05-.24,.32,.04,.3,.43-.04-.06-.28,.02-.31-.12l.24,.98c-.04-.24-.24-.05-.32,.16,.06-.1-.04,.84-.02,1.1l.08-.41c-.08,1.09,.35,1.1,.3,2.18-.05-.13-.35-.34-.4,.21,.13,.26,.65,1.14,.73,2.11l-.09,.18,.07,.74c-.2-.47-.61-1.77-.76-2.48-.08,.41-.1,.11-.12,.72-.09,.21-.1-.34-.1-.52l-.1,1.43c.17-.06,.13,1.1,.27,1.05l-.12-1.56c.17-.06,.44,.91,.38,1.92-.07,.26-.29-.2-.35-.18,.05,.13,.08,.96,.04,1.06l-.08-.43c-.08,.56,.2,.93,.02,1.6-.02,.23-.24,.69-.14,.73,.2-.38,.8-.43,.93-.17-.02,.08-.22,1.22-.32,1.48-.16,.38-.34-.59-.48-.26,.05,.02,.1,.23,.11,.32-.05,.24-.14-.11-.13,.43,.17,.09-.04,1.08,.14,.26,.03,.52-.05,.55-.06,1.17,.12-.19,.36,.56,.39,1.08-.04-.03-.1,.08-.13,.14-.05,1.07-.12,1.64-.15,2.64-.04,.09-.1,.57-.17,.36,.03,.14,.08,.28,.08,.58-.16,.59-.01-.69-.2-.24,.1,.04,.12,.8,.18,1.24,.16-.13,.05-1.01,0-1.45,.21,0,.42,.77,.5,1.81,.04,.83-.14,.36-.11,.5-.06,1.55,.35,1.33,.18,2.62-.14,.51-.27,.02-.37,.13-.04-.67,.1-1.03,.1-1.49l-.07,.56c-.04-.21-.07-.67-.03-.91-.12,.43-.08,2.63-.18,3.82,.04,.21,.09,.58,.15,.41l-.02-.38c.11-.35,.15,.72,.2,.24,.08,.51,.2,1.08,.13,1.8l-.15,.13s.09-.47,.04-.67c.07,.3-.21,1.1,0,1.43l.11-.5c.08,.51,.24,1.14,.19,1.78,.15-.29-.02-.15,.16-.6-.22,.39,0-1.62-.22-1,.21-.46,.09-.8,.26-1.4-.05,.02-.1,.21-.07-.32-.01-.02-.03-.08-.04-.12,0-.02,0-.02,0-.04v.03s-.02-.03,0,.01c-.02,.13-.05,.23-.08,.27-.12-.26-.11-1.11-.17-1.4,.02-.32,.06,.13,.11-.04l-.09-.43c.11-.04,.2-.84,.25-.09l.02-.67c.07-.39,.1-.94,.06-1.27,.03-.32-.11-.8-.03-.52l-.05-1.05h.03c.03-1.05-.15-2.15,.07-3.33-.02-.35-.05-.71-.01-1.29l.1-.11c-.03-.45,.13-1.34,.04-1.54,.27-.48,.12-2.17,.19-2.96l-.13-.03c.02-.54,0-1.06-.03-1.74l-.11,.04c-.08-.58,.12-1.49,.14-2.41,.04,.06,.02,.3,0,.46,.28-1.09-.1-2.32,.12-3.31-.03-.25-.01-.43,.02-.6,0,.02,0,.04,0,.06,0-.03,0-.06,0-.1,.02-.11,.05-.23,.07-.34-.03,.1-.06,.2-.07,.29,0-.19,0-.48-.02-.77l.12-.12s0-.04,0-.07c.05-.28-.05-.23-.14-.08-.01-.14-.03-.28-.06-.38,.2-.22-.04-.75,.18-1.05-.09-.2-.02-1.43-.23-1.59,.03,0,.04-.09,.04,.06,.04-.32,.07-.63,.02-.92l.16-.13-.18-.7c.11-.42,.17-.59,.27-.17-.14-1.02-.03-.82-.17-1.69l.1,.05c0-.31-.1-.8-.01-.98,.22-.68,.17-3.39,.43-5.14-.31,.33,.17-.81-.05-.89,.07-.1,.12-.34,.17-.05-.02-.9,.17-1.34,.01-1.97,.07-.1,.09,.2,.14,.11-.01-.07-.05-.29,0-.38,.05-.09,.05,.13,.07,.28,.03-.92-.18-1.02-.37-1.1,.12-.46,.11-.69,0-1.03,.07-.16,.15-.43,.15,.15,.02-.32,.19-1.95,.03-1.99,.05-.1,.03-.45,.02-.53,.04-.72,.06-.78,.08-1.49l-.04,.19c-.18-.29-.01-.59-.01-1.16l.02,.02c.2-1.3-.04-.57,.18-1.85l-.12,.06c-.25-.13,.21-1.13,.14-1.89l-.08,.27c-.07-.41,.41-1.12,.46-1.53,.03-.09,.03,.14,.04,.27,.2-1.07-.15-.15-.15-.95,.09-.14,.21,.2,.25-.34,.08-.27-.2-1.58,0-2.3-.07,.16-.15,.32-.18-.06,0-.57,.32-1.53,.14-2.05,.02-.07,.04-.1,.06-.1-.03-.44-.02-1.42-.12-1.69,.43-.38-.08-2.72,.3-2.69l.04-1.34,.04,.04c.06-.86-.02-1.16-.1-1.47,.03-.2,.06-.05,.08-.03,.13-1.25,.12-1.37-.03-2.43l.13-.1c-.06-.29,.27-1.8,.17-3.04,.01,.01,.04,.04,.05,.14-.08-1.39,.47-3.3,.03-3.82l-.08-.92c-.07,1.18-.19-.18-.28,.3-.01-.46,.18-1.19,.18-.62l-.03,.09c.23,.22,.13-1.46,.29-1.43,.06-2.32,.28-4.58,.32-6.76l-.19,.25,.03-.76c.05-.2,.15-.26,.13,.28,.11-.28-.07-.91-.11-.93,.1-1.06,.2,.42,.22,.09v-.44s-.03,.1-.03,.1c-.07-.36-.15-.39-.12-1.04,.05-.41,.12-.21,.13-.37,.01,0,.02-.05,.01-.25l.04-.96-.15,.38c-.06-.43,.03-.9-.15-.46,.28-.64,.16-3.57,.23-3.96-.1-.6-.09-1.18-.08-1.91-.03,.18-.19,.29-.17-.34,.33,.23,.15-1.15,.4-1.65-.16,.45-.03-1.78-.26-1.07,.03-.52,.13-.03,.21-.43-.11-1.24,.08-2.74,.02-4.28-.04-.02-.11,.23-.18-.1l.21-.81c-.02-.3-.26-.28-.11-.83-.04,.08-.09,.2-.11,0,.09-1.51,.04-3.05-.01-4.59-.07-1.54-.11-3.09,.05-4.63-.07,.42-.09,.14-.1-.18-.01,.21-.11,0-.17,.04l.13-1.29c-.17-.23-.05-1.37-.21-1.5l.04,.4c-.2-.53-.39,.77-.63,.7,.23,.6-.27,1.6,.07,2.58-.04,.22-.08-.18-.13-.07,.11,.25,.14,.55,.11,1.11l-.03-.06c.07,1.58,0,2.25-.04,4.02l.12-.13c-.01,.38-.05,.46-.08,.64,.18,.43,0-1.07,.2-.67-.24,.51,.02,2.68-.25,3.03,0,.59,.14-.17,.14,.41l-.07,.16,.1,.15c-.01,.38-.1,.58-.17,.59,0-.09-.02-.26-.03-.36-.08,.5,.04,1.4,.02,1.57l.04-.56c.09,1.6,.01,3.55,.14,5.09l.06-.12c.09,1.18-.07,.94-.03,2.24v-.05c.04,.26,.07,.61,.06,.96-.06-.33-.13,.61-.2,.18,.1,1.28,.08,.63,.28,1.48l-.09,.19c.08,.29,.13,.31,.14,.96-.08-.53-.14,.41-.25-.18-.21,1.35,.17,2.02-.13,2.63,.24,.63,.17-1.17,.22-.82,.09-.29,.18,.52,.15,.94-.02,.43-.34,.73-.36,1.82,0-.11-.02-.12-.01-.22-.07,.41,.07,.8-.05,1.3,.15,.28-.02,.65,.17,.73l-.02-1c.04,.57,.26,1.1,.13,2.04-.04-.07-.08-.35-.11-.54-.06,.27,.03,.53-.04,.81-.2-.09-.02-1.22-.15-1.83-.09,.29,.12,1.15-.09,.84,.26,.45-.06,1.07,.13,1.82l-.12-.05c.02,.12,.07,.36,.06,.58l-.15-.39c.12,.6-.14,1.15-.09,1.72,.03-1.2,.15-.27,.25-.77,.11,1.48-.34,.84-.33,2.5,0-.22,.1-.84,.14-.49-.03,.31-.09,.73-.16,.92-.01,1.1,.13-.16,.19,.3-.16,.37,.04,.54,.07,1.02h-.12c-.12,1.25,.24,.34,.11,1.46l-.15-.48,.02,.59-.13-.13c.08,.64,.05,.84-.01,1.46,.09-.14,.22,.09,.2,.64-.08,.38-.11-.22-.12,.57-.07-.18-.16-.38-.04-.72-.04-.04-.07-.18-.11-.22-.1,.4-.05,1.02-.06,1.31,0-.11,.02-.24,.04-.31l.12,1.14c-.05,.18-.08,.03-.11-.11,0,.23,.05,.39,.05,.73-.09-.09-.2-.07-.22-.56l.06,1.09c-.05,.07-.14,.55-.17,.41-.08,.6,.13,1.48,.02,2.28,.02,.04,.03,.13,.04,.3-.05,.75-.2,1.41-.1,2.3l-.2,.5c.01,.7,.25-.67,.27,.49,.02,.82-.16,.3-.22,.58,.07,.41,.22,1.13,.04,1.88-.02-.25,.01-.45,.01-.68Zm-.32,8.58c-.02-.17-.08-.5,0-.62,.13,.2,.06,.34,0,.62Zm-.33,13.05c-.03-.13,0-.32,.05-.53,0,.16-.01,.33-.05,.53Zm-.37,36.36v-.02c.05-.37,.03-.24,0,.02Zm-.06,.77c.02,.08,.03,.07,.05,.04-.03-.05-.03-.23-.02-.42-.03,.05-.06,.15-.03,.38Zm3-82.71l-.03,.15c-.03-.34,0-.24,.03-.15Z"/>
    <path class="cls-1" d="M70.39,77.09s.05-.06,.07-.07c-.02-.07-.04-.07-.07,.07Z"/>
    <path class="cls-1" d="M71.3,51.61v-.03s-.01-.02-.02-.03l.02,.05Z"/>
    <path class="cls-1" d="M69.26,103.75c.02-.16,.05-.25,.07-.3-.03,0-.06,.06-.07,.3Z"/>
    <path class="cls-1" d="M70.25,119.79l-.03-.49c0,.24-.02,.32-.04,.44,.03-.01,.07-.1,.07,.05Z"/>
    <path class="cls-1" d="M69.5,124.08c.01,.07,0,.15,.02,.22l.06-.02c0-.31-.05-.52-.07-.2Z"/>
    <path class="cls-1" d="M69.85,120.25c-.1,.04-.07,.35-.05,.69v-.06c.14,.1,.1-.27,.05-.63Z"/>
    <path class="cls-1" d="M69.8,121.02c0,.11,0,.22,0,.32,.06,.04,.01-.13,0-.32Z"/>
    <path class="cls-1" d="M70.11,116.69c-.03,.16,.13,.1,.09,.2,.13,.18-.16-1.09-.09-.2Z"/>
    <polygon class="cls-1" points="69.51 120.53 69.64 120.4 69.54 120.21 69.51 120.53"/>
    <path class="cls-1" d="M69.61,117.8l-.03,.55s.03,.06,.04,.15c0-.34,.03-.71,0-.7Z"/>
    <path class="cls-1" d="M69.61,118.5c0,.18,0,.35,.02,.44,0-.1,0-.3-.02-.44Z"/>
    <polygon class="cls-1" points="69.48 119.77 69.5 119.61 69.51 119.22 69.48 119.77"/>
    <path class="cls-1" d="M69.7,111.86l-.03-.6c-.04-.06-.07,.1-.06,.33,.03,.14,.04,.37,.08,.28Z"/>
    <path class="cls-1" d="M69.33,113.68c.03-.16,.06-.17,.1-.26l-.15-.02,.06,.29Z"/>
    <path class="cls-1" d="M69.32,111.92c-.04-.06-.11-.88-.11-.11,.04,.06,.07,.67,.11,.11Z"/>
    <polygon class="cls-1" points="69.72 102.83 69.71 102.99 69.97 102.97 69.72 102.83"/>
    <path class="cls-1" d="M69.37,94.81c-.09,.71,.15,.18,.05,.82,.05,.17,.08-.53,.13-.35-.05-.43,0-.66-.18-.47Z"/>
    <path class="cls-1" d="M69.55,95.27c0,.07,.02,.14,.03,.22-.01-.13-.02-.18-.03-.22Z"/>
    <polygon class="cls-1" points="73.02 4.91 73.06 4.45 72.98 4.75 73.02 4.91"/>
    <path class="cls-1" d="M72.8,4.04l.16-.11-.15-.27c.01,.1,.03,.3,0,.39Z"/>
    <path class="cls-1" d="M70.43,66.78l.04,.04c.05-.07,.05-.18,.07-.39l-.11,.35Z"/>
    <polygon class="cls-1" points="70.84 60.56 70.83 60.67 70.99 60.48 70.84 60.56"/>
    <path class="cls-1" d="M70.89,55.33c-.01,.21,0,.46,0,.68,0-.47,.19-.73,0-.68Z"/>
  </g>
</svg>