<?xml version="1.0" encoding="UTF-8"?>
<svg id="Layer_1" data-name="Layer 1" xmlns="http://www.w3.org/2000/svg" viewBox="0 0 194.54 86.36">
  <defs>
    <style>
      .cls-1 {
        fill: #231f20;
      }
    </style>
  </defs>
  <g>
    <path class="cls-1" d="M188.17,4.56c.23,.02,.15-.09,.19-.11-.38,0-.18,.13-.19,.11Z"/>
    <polygon class="cls-1" points="184.38 4.63 184.45 4.59 183.89 4.67 184.38 4.63"/>
    <path class="cls-1" d="M180.85,4.47c.33,.19,1.28,.03,1.91,.12l.1,.05,.29-.13c-.77-.01-1.76,.04-2.3-.04Z"/>
    <path class="cls-1" d="M178.98,4c.11,.07-.41,.04,.44,.04-.04-.01-.05-.01-.08-.02-.08,0-.18-.01-.36-.02Z"/>
    <path class="cls-1" d="M179.34,4.02c.37,.01-.24-.07,0,0h0Z"/>
    <path class="cls-1" d="M177.62,3.98l.49-.04c-.1-.05-.54-.07-.37-.1-.5,.01-.4,.06-.12,.14Z"/>
    <path class="cls-1" d="M177.15,4.09l.26-.02s-.11-.03-.26,.02Z"/>
    <path class="cls-1" d="M177.95,4.04l-.54,.03c.07,.03,.07,.09,.25,0-.05,.05,.06,0,.29-.02Z"/>
    <path class="cls-1" d="M178.25,4.08c.27,.05,.63,.09,.13,.13,.94,.02,.81-.12-.13-.13Z"/>
    <path class="cls-1" d="M180.66,4.64l.37,.07,.32-.05c-.16,.02-.71-.08-.69-.02Z"/>
    <path class="cls-1" d="M174.57,3.76s.16,.11,.19,.16l.36-.03c-.18-.03-.54-.07-.56-.13Z"/>
    <path class="cls-1" d="M174.77,3.92l-.54,.04c.48,.03,.57,0,.54-.04Z"/>
    <polygon class="cls-1" points="177.06 4.28 177.95 4.19 176.88 4.28 177.06 4.28"/>
    <polygon class="cls-1" points="172.51 3.66 172.82 3.59 172.26 3.7 172.51 3.66"/>
    <path class="cls-1" d="M171.13,3.62c.23-.06-.31-.14-.06-.17-.37,0-.69,.05-.98,.09,.31-.02,.63,0,1.05,.08Z"/>
    <path class="cls-1" d="M169.6,3.6c.15-.01,.31-.04,.48-.06-.16,0-.32,.03-.48,.06Z"/>
    <path class="cls-1" d="M173.3,3.9s-.12-.09-.42-.13l.21,.12c.07,0,.14,0,.21,.01Z"/>
    <path class="cls-1" d="M173.1,3.89h0c-.23-.02-.39-.03-.46-.03,.06,0,.2,.01,.47,.03Z"/>
    <path class="cls-1" d="M173.36,3.9s-.03,0-.05,0c.02,.01,.03,.02,.05,0Z"/>
    <path class="cls-1" d="M175.64,4.13c-.32,.05-.99,.08-.35,.2,.23-.06-.13-.13,.35-.2Z"/>
    <path class="cls-1" d="M173.61,4.05l.57,.05s-.11-.07,.05-.1l-.62,.05Z"/>
    <polygon class="cls-1" points="173.33 4.07 173.61 4.05 173.4 4.03 173.33 4.07"/>
    <path class="cls-1" d="M170.58,3.74c-.25,.04-.52,.03-.83,.02,.33,.04,.67,.06,.99,.07,.05-.03,.19-.09-.16-.1Z"/>
    <path class="cls-1" d="M171.8,3.82h-.06s.06,.02,.06,0Z"/>
    <polygon class="cls-1" points="166.73 3.64 166.78 3.66 166.79 3.64 166.73 3.64"/>
    <path class="cls-1" d="M170.8,3.86c.25,.03,.4,.01,.54-.02-.19,0-.38,0-.59,0-.02,.01-.03,.02,.05,.02Z"/>
    <path class="cls-1" d="M168.76,3.61c.14,.02,.28,.05,.43,.08-.12-.04-.38-.1-.43-.08Z"/>
    <path class="cls-1" d="M171.67,3.79h.04c-.08-.03-.07-.02-.04,0Z"/>
    <path class="cls-1" d="M171.67,3.79c-.13,0-.23,.03-.33,.05,.15,0,.29,0,.41-.02-.03,0-.06-.02-.08-.03Z"/>
    <path class="cls-1" d="M165.79,4.29c.05-.1,.7-.16,1.26-.03,.56-.05,.21-.39-.27-.59-.02,.04-.02,.08-.59,.12,.2,.06,1.26,.18,.77,.25-.75,.02-.62-.06-.98-.13,.31,.14-.97,.14-.81,.33l.66-.04s-.23,.06-.05,.1Z"/>
    <path class="cls-1" d="M167.86,3.71h.23c-.27-.03-.46-.08-.8-.17-.39,.03-.47,.07-.5,.1l1.15,.06h-.08Z"/>
    <path class="cls-1" d="M169.14,3.75c-.19,.1-.75,.12-.41,.25,.69,.02,.48-.07,.9-.1-1.11-.02,.32-.05-.48-.14,.22,0,.41,0,.6,0-.19-.03-.38-.05-.57-.07h.03s0,0,0,0h0s.06,.03,0,.02c0,0-.02,0-.02,0,0,.01-.03,.03-.05,.04-.32-.04-.05-.03,.05-.04,0,0,.01,0,.01-.02h0s-1.11,.01-1.11,.01c.23,.02,.53,.03,1.05,.04Z"/>
    <path class="cls-1" d="M174.69,4.53s-.03-.02-.03-.03c-.07,.01-.1,.02,.03,.03Z"/>
    <path class="cls-1" d="M174.24,4.45c.08-.01,.15-.05,.41-.03,.23,.04,0,.05,0,.09,.16-.02,.56-.05,.06-.13h-.08c-.45-.04-1.01-.2-.93-.22,.13,.1,.24,.18,.53,.28Z"/>
    <path class="cls-1" d="M171.66,4.13h-.93s.47,.13,.47,.13l-.02-.06c.52,.04,.41-.03,.48-.07Z"/>
    <polygon class="cls-1" points="166.63 3.58 166.75 3.47 166.21 3.61 166.63 3.58"/>
    <polygon class="cls-1" points="165.43 3.55 165.47 3.45 165.15 3.5 165.43 3.55"/>
    <path class="cls-1" d="M97.62,2.49l-.27,.02c.13,0,.21-.01,.27-.02Z"/>
    <path class="cls-1" d="M99.58,2.55l.05-.05c-.09,.02-.13,.04-.05,.05Z"/>
    <path class="cls-1" d="M135.93,2.44c-.39-.11-.83-.26-.79-.15l.12,.11c.28,0,.49,0,.67,.04Z"/>
    <path class="cls-1" d="M115.71,2.43l.11,.04c.1-.03,.19-.07,.27-.1-.12,.02-.25,.04-.38,.06Z"/>
    <path class="cls-1" d="M115.42,2.87l-.52-.09c.12,.03,.28,.06,.52,.09Z"/>
    <path class="cls-1" d="M86.88,2.34l-.32,.1c.5,.01,.28-.05,.32-.1Z"/>
    <path class="cls-1" d="M153.13,3.1c-.34-.06-.61-.08-.85-.1,.41,.08,.74,.18,.85,.1Z"/>
    <path class="cls-1" d="M98.42,1.36c-.17,.02-.24,.04-.23,.06,.17-.01,.27-.03,.23-.06Z"/>
    <path class="cls-1" d="M151.29,2.96c.06,.01,.12,.02,.18,.03,.25,0,.5-.01,.81,0-.3-.06-.65-.1-.99-.04Z"/>
    <path class="cls-1" d="M47.93,1.48h-.09s.03,0,.09,0Z"/>
    <path class="cls-1" d="M36.6,.22c.11,0,.29,0,.47,0-.08,0-.22,0-.47,0Z"/>
    <path class="cls-1" d="M160.6,3.3c.25,0,.04-.01,0,0h0Z"/>
    <path class="cls-1" d="M161.82,3.78c-.05,0-.1,.02-.1,.05,.02-.03,.06-.04,.1-.05Z"/>
    <path class="cls-1" d="M148.73,3.54h-.02c.07,.02,.06,.02,.02,0Z"/>
    <path class="cls-1" d="M160.98,3.37c-.1-.02-.2-.03-.32-.05,.06,0,.16,.02,.32,.05Z"/>
    <path class="cls-1" d="M160.93,3.31c.09,0,.16,.01,.22,.02,.03-.02,0-.03-.22-.02Z"/>
    <path class="cls-1" d="M160.24,3.29c.15,0,.28,.01,.41,.03-.05,0-.07-.02-.06-.02-.07,0-.18,0-.35,0Z"/>
    <path class="cls-1" d="M68.81,1.56s-.03,0-.05-.01c-.26,.04-.14,.04,.05,.01Z"/>
    <polygon class="cls-1" points="129.27 3.34 129.29 3.34 129.26 3.33 129.27 3.34"/>
    <path class="cls-1" d="M128.35,3.39c.39-.12,.61-.1,.91-.06l-.29-.32-.62,.38Z"/>
    <path class="cls-1" d="M92.91,2.4l.64,.11c-.78,.14-1.34,.07-.74,.22,.1-.34,2.5,.03,2.6-.31l.42,.08c-.12,0-.14,.01-.26,0,.82,.18,.62-.23,1.68-.15,.37,.04,.63,.09,.37,.13l.83-.06c.24,.01,.18,.07-.06,.06h1.26s0,.02,0,.02c.18-.05,.59-.12,.79-.15,.32,.06-.16,.03-.08,.08l.7-.06c.28,.1-.3,.17-.78,.14,.64,.36,.58-.07,1.98,.17l-.66,.02c.42,.2,.93,.15,1.67,.29-.17-.07-1.48-.34-.72-.41,.21,.03,.49,.05,.9,0,0,.12,.4,.1,.9,.11l-.04,.16c.54-.03,.5-.11,.82-.18,.6,.03,.72,.16,.86,.27,.96,.05-.66-.22,.48-.22,.8,.08,1.36,.03,2.32-.03,.56,.07-.1,.1,.1,.15l.5-.11c.12,0,.08,.04,.06,.06,.42-.04,.04-.16,.7-.18,.18-.17,1.34,.3,2.16,.12,.2,.05-.1,.1-.04,.16,1.12-.1,.96-.07,1.88-.22l.78,.13c-.57-.14,.17-.26,.81-.35-.2-.06-.37-.12-.49-.15l1.03-.05c.12,.03,.02,.08-.15,.14,.07-.01,.13-.02,.19-.03,.36,.07,.17,.16-.09,.24-.12-.04-.24-.07-.37-.11-.26,.09-.5,.19-.45,.29,.07-.02,.2-.03,.34-.03-.07,.02-.11,.05-.08,.06,.03,.02,.14-.01,.31-.05l.23,.19,.06-.07,1.34,.15c.96-.15,1.81-.39,3.33-.42-.38,.12-.09,.21-.11,.36-.41-.18-1.18,.03-1.97-.02,.41,.03,.32,.1,.21,.12l1.41-.11c-.04,.13,.3,.1,.66,.17-.27-.26,1.05-.13,1.63-.19,.03,.09-.11,.17-.8,.12,.76,.21,1-.26,1.75-.08-.17,0-.26-.02-.33,.02,.4-.06,1.37,.03,1.14,.09h-.17c1.13,.06,3.44,.11,3.62-.1,.01,.03-.16,.25-.23,.29l2.04-.65c-.18,.18,.48,.63-.46,.71,.27,.03,.6,.08,1.17,.03-.18-.03-.45-.28-.2-.29,.68,.23,.47,.13,1.32,.33-.27-.05,.04-.32,.48-.3-.07,.04,.03,.28-.13,.31l1.09-.24c-.27,.04-.06,.24,.18,.32-.11-.06,.94,.04,1.23,.02l-.46-.08c1.22,.08,1.22-.35,2.43-.3-.15,.05-.38,.34,.24,.4,.29-.13,1.28-.65,2.35-.72l.2,.09,.83-.07c-.52,.2-1.98,.6-2.77,.75,.46,.08,.12,.1,.81,.12,.24,.09-.38,.1-.58,.1l1.59,.1c-.07-.17,1.23-.13,1.17-.27l-1.74,.11c-.06-.17,1.02-.44,2.15-.37,.29,.08-.23,.29-.2,.35,.15-.05,1.08-.07,1.18-.03l-.48,.07c.63,.09,1.04-.19,1.79,0,.26,.02,.77,.24,.82,.15-.42-.21-.48-.8-.19-.94,.09,.02,1.36,.23,1.66,.34,.42,.17-.66,.33-.3,.48,.02-.05,.26-.09,.36-.11,.27,.05-.12,.14,.48,.14,.11-.17,1.21,.06,.29-.13,.58-.03,.62,.06,1.3,.08-.21-.12,.63-.35,1.21-.38-.04,.04,.09,.1,.16,.13,1.19,.06,1.83,.16,2.95,.21,.1,.05,.64,.12,.4,.18,.16-.02,.31-.08,.65-.07,.66,.17-.77,0-.27,.19,.05-.1,.89-.1,1.39-.15-.14-.16-1.13-.07-1.62-.03,0-.21,.87-.4,2.04-.45,.93-.02,.4,.15,.56,.13,1.74,.1,1.49-.31,2.93-.1,.57,.16,.02,.27,.14,.37-.76,.02-1.15-.13-1.66-.14l.63,.09c-.24,.04-.75,.05-1.02,0,.48,.14,2.93,.13,4.27,.3,.24-.04,.65-.07,.46-.13h-.42c-.39-.12,.8-.12,.27-.19,.57-.05,1.21-.15,2.01-.05l.14,.16s-.52-.11-.75-.08c.34-.05,1.22,.26,1.59,.07l-.56-.13c.57-.05,1.29-.19,2-.11-.32-.16-.16,.01-.66-.19,.43,.24-1.82-.08-1.12,.18-.51-.23-.89-.12-1.56-.33,.02,.05,.24,.11-.36,.06-.03,.01-.09,.03-.13,.04-.02,0-.02,0-.04,0h.03s-.03,.02,.01,0c.14,.03,.26,.06,.3,.09-.3,.1-1.25,.06-1.57,.11-.35-.04,.15-.05-.04-.11l-.48,.07c-.04-.11-.93-.22-.1-.26l-.75-.03c-.44-.08-1.05-.13-1.42-.1-.35-.04-.9,.09-.59,.01l-1.18,.02v-.03c-1.17-.06-2.41,.09-3.72-.16-.39,.01-.8,.03-1.45-.02l-.12-.1c-.5,.01-1.5-.15-1.72-.06-.53-.28-2.43-.15-3.31-.22l-.04,.13c-.61-.03-1.19-.01-1.95,0l.04,.11c-.65,.07-1.67-.14-2.7-.17,.07-.04,.33-.02,.52,.01-1.22-.3-2.6,.09-3.71-.13-.28,.03-.48,.01-.67-.02,.03,0,.05,0,.07,0-.03,0-.07,0-.11,0-.12-.02-.25-.05-.38-.07,.12,.03,.23,.06,.32,.07-.21,0-.54,0-.86,.01l-.13-.12s-.05,0-.07,0c-.31-.06-.25,.05-.09,.14-.16,.01-.31,.03-.42,.06-.25-.2-.84,.04-1.18-.18-.22,.09-1.6,.02-1.78,.23,0-.03-.1-.04,.07-.04-.35-.04-.71-.07-1.03-.02l-.15-.16-.78,.18c-.47-.11-.66-.17-.19-.27-1.13,.14-.92,.04-1.88,.19l.05-.1c-.34,0-.9,.11-1.1,.02-.76-.21-3.8-.15-5.76-.39,.37,.3-.91-.16-1,.06-.11-.07-.39-.12-.07-.17-1.01,.04-1.51-.15-2.21,.01-.11-.07,.22-.09,.12-.14-.08,.01-.32,.05-.42,0-.1-.04,.15-.05,.31-.08-1.03-.02-1.14,.19-1.22,.39-.52-.11-.78-.1-1.16,.01-.18-.07-.48-.15,.16-.15-.36-.02-2.19-.16-2.23,0-.11-.04-.5-.03-.6-.01-.81-.03-.88-.05-1.67-.06l.22,.03c-.32,.18-.66,.02-1.3,.03l.02-.02c-1.46-.18-.63,.05-2.07-.15l.08,.12c-.14,.25-1.27-.19-2.11-.11l.3,.08c-.46,.08-1.27-.39-1.73-.43-.1-.03,.16-.03,.3-.04-1.2-.19-.16,.15-1.06,.16-.16-.09,.22-.21-.38-.24-.3-.08-1.76,.22-2.57,.04,.18,.07,.36,.14-.06,.18-.64,0-1.72-.29-2.3-.1-.08-.02-.11-.04-.11-.05-.49,.04-1.59,.05-1.88,.15-.44-.43-3.04,.12-3.02-.26l-1.5-.02,.04-.04c-.96-.05-1.3,.03-1.64,.12-.22-.03-.06-.06-.04-.08-1.4-.11-1.54-.1-2.72,.06l-.12-.13c-.32,.06-2.02-.24-3.4-.13,.01-.01,.04-.04,.15-.05-1.55,.11-3.69-.43-4.27,0l-1.02,.09c1.32,.06-.2,.19,.34,.28-.52,.02-1.34-.17-.7-.17l.1,.02c.24-.23-1.64-.12-1.6-.28-2.6-.04-5.13-.23-7.56-.29l.28,.19-.85-.03c-.22-.05-.3-.15,.31-.13-.32-.11-1.02,.07-1.04,.11-1.18-.1,.47-.2,.1-.22h-.49s.11,.03,.11,.03c-.4,.07-.44,.15-1.17,.12-.46-.05-.23-.12-.42-.13,0-.01-.06-.02-.28-.01l-1.07-.04,.42,.15c-.48,.06-1.01-.03-.51,.15-.72-.27-3.99-.17-4.43-.25-.67,.09-1.32,.08-2.13,.05,.2,.03,.32,.2-.38,.17,.26-.33-1.28-.17-1.84-.42,.5,.17-1.99,0-1.2,.25-.58-.04-.03-.13-.48-.21-1.39,.1-3.06-.14-4.78-.12-.03,.04,.26,.12-.11,.17l-.9-.23c-.34,.02-.32,.25-.93,.09,.09,.04,.22,.1-.01,.11-3.36-.27-6.88,.07-10.29-.37,.46,.09,.15,.1-.2,.09,.23,.02,0,.11,.04,.17l-1.43-.18c-.26,.16-1.53,0-1.69,.15l.45-.02c-.61,.18,.84,.43,.75,.66,.68-.2,1.78,.34,2.89,.05,.24,.05-.21,.07-.08,.13,.28-.1,.62-.12,1.25-.06l-.07,.02c1.76,0,2.52,.11,4.5,.21l-.15-.12c.43,.02,.51,.06,.71,.09,.49-.17-1.2-.03-.75-.22,.56,.25,3,.05,3.38,.33,.66,.01-.19-.14,.47-.13l.17,.08,.17-.09c.43,.02,.64,.12,.66,.18-.1,0-.3,.01-.41,.02,.56,.1,1.57,0,1.76,.03l-.63-.06c1.79-.04,3.97,.09,5.7-.03l-.13-.06c1.32-.08,1.06,.08,2.51,.06h-.05c.29-.04,.68-.06,1.07-.05-.37,.06,.69,.14,.2,.2,1.43-.09,.71-.07,1.66-.27l.22,.1c.32-.08,.35-.12,1.08-.13-.59,.07,.46,.15-.21,.24,1.51,.23,2.26-.16,2.95,.15,.7-.24-1.31-.17-.92-.22-.33-.09,.58-.18,1.06-.15,.48,.02,.82,.34,2.04,.36-.12,0-.13,.02-.25,.01,.46,.07,.9-.07,1.45,.05,.32-.15,.73,.02,.82-.17l-1.12,.02c.64-.04,1.23-.26,2.28-.13-.08,.04-.39,.08-.61,.11,.3,.06,.59-.03,.9,.04-.09,.2-1.36,.02-2.04,.15,.33,.09,1.29-.12,.94,.09,.5-.26,1.2,.06,2.03-.13l-.06,.12c.13-.02,.4-.07,.64-.06l-.44,.15c.67-.12,1.29,.14,1.93,.08-1.34-.03-.3-.15-.86-.25,1.66-.12,.95,.33,2.8,.31-.25,.01-.94-.09-.55-.14,.35,.03,.82,.09,1.03,.15,1.23,0-.19-.13,.34-.19,.42,.15,.6-.05,1.14-.08v.12c1.4,.11,.38-.24,1.64-.12l-.54,.16,.66-.03-.14,.13c.72-.09,.94-.05,1.64,0-.16-.09,.1-.22,.72-.21,.42,.08-.24,.11,.64,.11-.2,.07-.42,.16-.8,.04-.04,.04-.2,.07-.24,.11,.45,.09,1.14,.04,1.46,.05-.12,0-.27-.02-.34-.04l1.28-.14c.2,.05,.04,.08-.12,.11,.26,0,.44-.06,.82-.06-.1,.1-.08,.2-.62,.23l1.22-.08c.08,.04,.62,.13,.46,.16,.67,.07,1.66-.15,2.55-.05,.05-.02,.14-.03,.33-.04,.84,.04,1.58,.18,2.58,.07l.56,.19c.78-.02-.76-.24,.54-.27,.92-.03,.34,.16,.66,.21,.46-.08,1.26-.24,2.1-.07-.28,.03-.5,0-.76,0Zm9.6,.17c-.19,.02-.56,.09-.69,.01,.22-.13,.38-.06,.69-.01Zm14.6,.13c-.14,.04-.35,0-.59-.04,.18,0,.37,0,.59,.04Zm40.68,.58h-.02c-.41-.06-.27-.03,.02,0Zm.86,.09c.09-.01,.08-.03,.05-.05-.06,.03-.25,.02-.47,0,.06,.03,.17,.06,.43,.04ZM66.1,.69l.17,.03c-.38,.03-.27,0-.17-.03Z"/>
    <path class="cls-1" d="M115.46,2.82c-.05-.02-.07-.04-.08-.07-.07,.02-.08,.04,.08,.07Z"/>
    <path class="cls-1" d="M86.94,2.32h-.03s-.02,.01-.03,.02l.06-.02Z"/>
    <path class="cls-1" d="M145.28,3.89c-.18-.02-.27-.05-.34-.07-.01,.03,.07,.06,.34,.07Z"/>
    <path class="cls-1" d="M163.23,3.35h-.55c.27,.01,.36,.04,.5,.07-.01-.03-.11-.07,.06-.07Z"/>
    <path class="cls-1" d="M167.99,4.3c.08-.01,.17,0,.25,0l-.02-.06c-.34-.01-.59,.03-.23,.06Z"/>
    <path class="cls-1" d="M163.73,3.78c.04,.1,.39,.08,.77,.08h-.07c.12-.14-.29-.11-.71-.08Z"/>
    <path class="cls-1" d="M164.59,3.86c.12,0,.24,0,.36,.01,.05-.05-.14-.02-.36-.01Z"/>
    <path class="cls-1" d="M159.76,3.35c.18,.03,.12-.12,.22-.08,.21-.12-1.23,.11-.22,.08Z"/>
    <polygon class="cls-1" points="164.03 4.12 163.89 3.99 163.67 4.08 164.03 4.12"/>
    <path class="cls-1" d="M160.98,3.91l.62,.06s.07-.03,.17-.04c-.38-.02-.8-.06-.78-.02Z"/>
    <path class="cls-1" d="M161.76,3.93c.2,.01,.39,.02,.5,0-.11,0-.34,0-.5,0Z"/>
    <polygon class="cls-1" points="163.18 4.13 163 4.09 162.56 4.06 163.18 4.13"/>
    <path class="cls-1" d="M154.34,3.62h-.68c-.07,.05,.11,.08,.36,.08,.16-.02,.41-.03,.31-.08Z"/>
    <path class="cls-1" d="M156.37,4.04c-.18-.03-.19-.06-.29-.11l-.03,.15,.32-.05Z"/>
    <path class="cls-1" d="M154.4,4c-.07,.04-.98,.09-.13,.11,.07-.04,.75-.05,.13-.11Z"/>
    <polygon class="cls-1" points="144.25 3.43 144.42 3.43 144.4 3.17 144.25 3.43"/>
    <path class="cls-1" d="M135.27,3.72c.8,.09,.2-.15,.91-.05,.19-.05-.59-.08-.39-.13-.48,.05-.74,0-.52,.18Z"/>
    <path class="cls-1" d="M135.79,3.54c.07,0,.15-.02,.25-.03-.14,.01-.21,.02-.25,.03Z"/>
    <polygon class="cls-1" points="34.72 .06 34.2 0 34.54 .09 34.72 .06"/>
    <path class="cls-1" d="M33.73,.24l-.12-.16-.31,.14c.12,0,.34-.02,.43,.02Z"/>
    <path class="cls-1" d="M103.93,2.94l.04-.04c-.08-.04-.2-.05-.44-.06l.4,.1Z"/>
    <polygon class="cls-1" points="96.97 2.63 97.09 2.64 96.87 2.49 96.97 2.63"/>
    <path class="cls-1" d="M91.11,2.67c.24,0,.52,0,.76,0-.52,.01-.82-.18-.76,0Z"/>
  </g>
  <g>
    <path class="cls-1" d="M189.11,23.33c.24,0,.16-.1,.19-.11-.41,.02-.18,.14-.19,.11Z"/>
    <polygon class="cls-1" points="185.11 23.56 185.18 23.52 184.59 23.62 185.11 23.56"/>
    <path class="cls-1" d="M181.38,23.55c.35,.18,1.35-.03,2.02,.04l.11,.04,.3-.14c-.81,.02-1.86,.12-2.43,.06Z"/>
    <path class="cls-1" d="M179.39,23.16c.12,.07-.43,.06,.46,.02-.04,0-.06-.01-.08-.02-.08,0-.19,0-.38,0Z"/>
    <path class="cls-1" d="M179.77,23.17c.39,0-.26-.06,0,0h0Z"/>
    <path class="cls-1" d="M177.95,23.21l.52-.06c-.11-.04-.57-.05-.4-.08-.53,.03-.42,.07-.12,.14Z"/>
    <path class="cls-1" d="M177.46,23.34l.27-.03s-.12-.02-.27,.03Z"/>
    <path class="cls-1" d="M178.3,23.26l-.57,.05c.07,.03,.08,.09,.26-.02-.05,.05,.07,0,.31-.03Z"/>
    <path class="cls-1" d="M178.62,23.28c.29,.04,.67,.06,.15,.13,.99-.02,.85-.15-.15-.13Z"/>
    <path class="cls-1" d="M181.18,23.74l.39,.05,.34-.06c-.17,.03-.75-.05-.72,0Z"/>
    <path class="cls-1" d="M174.72,23.11s.17,.1,.21,.15l.38-.04c-.2-.03-.57-.05-.6-.11Z"/>
    <path class="cls-1" d="M174.93,23.26l-.57,.06c.51,0,.61-.02,.57-.06Z"/>
    <polygon class="cls-1" points="177.36 23.53 178.31 23.4 177.18 23.54 177.36 23.53"/>
    <polygon class="cls-1" points="172.53 23.1 172.86 23.01 172.28 23.15 172.53 23.1"/>
    <path class="cls-1" d="M171.08,23.11c.24-.07-.33-.12-.07-.17-.39,.01-.73,.07-1.03,.13,.32-.03,.67-.02,1.11,.04Z"/>
    <path class="cls-1" d="M169.46,23.16c.16-.02,.33-.05,.51-.08-.17,.02-.34,.04-.51,.08Z"/>
    <path class="cls-1" d="M173.38,23.3s-.13-.08-.45-.11l.22,.11c.07,0,.15,0,.23,0Z"/>
    <path class="cls-1" d="M173.17,23.3h0c-.24,0-.41,0-.49-.01,.06,0,.21,0,.49,.01Z"/>
    <path class="cls-1" d="M173.44,23.3s-.04,0-.06,0c.02,.01,.03,.01,.06,0Z"/>
    <path class="cls-1" d="M175.86,23.43c-.34,.06-1.04,.12-.36,.21,.24-.07-.15-.13,.36-.21Z"/>
    <path class="cls-1" d="M173.72,23.44l.61,.03s-.12-.07,.05-.1l-.65,.07Z"/>
    <polygon class="cls-1" points="173.42 23.47 173.72 23.44 173.49 23.43 173.42 23.47"/>
    <path class="cls-1" d="M170.51,23.26c-.26,.05-.55,.05-.88,.06,.35,.02,.71,.03,1.05,.03,.05-.03,.2-.09-.17-.09Z"/>
    <path class="cls-1" d="M171.8,23.29h-.06s.06,.02,.06,0Z"/>
    <polygon class="cls-1" points="166.43 23.31 166.48 23.33 166.5 23.31 166.43 23.31"/>
    <path class="cls-1" d="M170.74,23.37c.26,.02,.42,0,.57-.04-.2,.01-.4,.02-.63,.02-.02,.02-.03,.03,.06,.02Z"/>
    <path class="cls-1" d="M168.57,23.21c.14,.02,.3,.04,.45,.06-.13-.03-.4-.09-.45-.06Z"/>
    <path class="cls-1" d="M171.65,23.27h.04c-.09-.03-.08-.02-.04,0Z"/>
    <path class="cls-1" d="M171.65,23.27c-.13,.02-.24,.04-.35,.06,.16,0,.31-.02,.44-.03-.03,0-.06-.02-.09-.03Z"/>
    <path class="cls-1" d="M165.46,23.99c.05-.1,.73-.19,1.33-.08,.58-.07,.2-.4-.3-.58-.02,.04-.02,.08-.62,.14,.21,.05,1.33,.13,.83,.22-.8,.05-.65-.04-1.04-.09,.33,.12-1.01,.18-.84,.36l.7-.06s-.24,.07-.05,.1Z"/>
    <path class="cls-1" d="M167.63,23.34h.25c-.28-.03-.48-.07-.85-.15-.41,.05-.5,.08-.53,.12l1.22,.02h-.08Z"/>
    <path class="cls-1" d="M168.99,23.33c-.19,.11-.79,.15-.42,.27,.73,0,.51-.09,.94-.14-1.17,.02,.34-.06-.51-.12,.23-.02,.44-.02,.63-.03-.21-.02-.41-.03-.61-.05h.03s0,0,0,0h0c.05,.02,.07,.02,.01,.02,0,0-.02,0-.02,0,0,.01-.03,.03-.05,.04-.34-.02-.05-.03,.05-.04,0,0,.01-.01,.01-.02h0s-1.17,.06-1.17,.06c.25,.02,.56,.01,1.11,0Z"/>
    <path class="cls-1" d="M174.87,23.88s-.03-.02-.04-.03c-.08,.01-.1,.02,.04,.03Z"/>
    <path class="cls-1" d="M174.39,23.81c.09-.01,.16-.06,.43-.05,.24,.03,0,.05,.01,.09,.17-.03,.59-.08,.06-.13h-.08c-.47-.02-1.08-.16-1-.17,.14,.1,.26,.17,.57,.26Z"/>
    <path class="cls-1" d="M171.66,23.6l-.98,.05,.5,.09-.02-.06c.56,.02,.44-.05,.51-.09Z"/>
    <polygon class="cls-1" points="166.32 23.26 166.45 23.14 165.89 23.3 166.32 23.26"/>
    <polygon class="cls-1" points="165.05 23.27 165.1 23.17 164.76 23.23 165.05 23.27"/>
    <path class="cls-1" d="M93.38,24.38l-.29,.03c.14,0,.22-.02,.29-.03Z"/>
    <path class="cls-1" d="M95.46,24.39l.05-.05c-.1,.03-.14,.05-.05,.05Z"/>
    <path class="cls-1" d="M133.86,23.23c-.42-.09-.88-.24-.83-.13l.13,.11c.29-.02,.52,0,.71,.02Z"/>
    <path class="cls-1" d="M112.49,23.85l.12,.03c.1-.04,.2-.07,.28-.1-.12,.02-.26,.05-.4,.07Z"/>
    <path class="cls-1" d="M112.2,24.29l-.55-.07c.12,.02,.3,.05,.55,.07Z"/>
    <path class="cls-1" d="M82.02,24.48l-.34,.11c.52,0,.29-.06,.34-.11Z"/>
    <path class="cls-1" d="M152.04,23.29c-.36-.04-.65-.06-.9-.07,.43,.06,.79,.16,.9,.07Z"/>
    <path class="cls-1" d="M94.2,23.23c-.18,.02-.25,.04-.25,.07,.18-.02,.28-.04,.25-.07Z"/>
    <path class="cls-1" d="M150.1,23.22c.07,0,.13,.02,.19,.03,.26-.02,.53-.03,.85-.02-.32-.05-.69-.08-1.04,0Z"/>
    <path class="cls-1" d="M40.84,24.33h-.09s.03,0,.09,0Z"/>
    <path class="cls-1" d="M28.84,23.22c.12,0,.31,0,.49,0-.09,0-.24,0-.49,0Z"/>
    <path class="cls-1" d="M159.94,23.21c.27,0,.04-.01,0,0h0Z"/>
    <path class="cls-1" d="M161.25,23.64c-.06,.01-.1,.03-.11,.05,.02-.03,.06-.04,.11-.05Z"/>
    <path class="cls-1" d="M147.41,23.89h-.02c.08,.02,.07,.02,.02,0Z"/>
    <path class="cls-1" d="M160.35,23.26c-.1-.01-.22-.02-.34-.03,.06,0,.16,.02,.34,.03Z"/>
    <path class="cls-1" d="M160.29,23.21c.09,0,.17,0,.24,.01,.03-.02,0-.03-.24-.01Z"/>
    <path class="cls-1" d="M159.57,23.22c.15,0,.3,0,.44,.01-.05,0-.08-.01-.06-.02-.08,0-.19,0-.38,0Z"/>
    <path class="cls-1" d="M62.91,24.07s-.04,0-.06-.01c-.27,.04-.15,.04,.06,.01Z"/>
    <path class="cls-1" d="M126.84,24.35h.03s-.03,0-.04,0h0Z"/>
    <path class="cls-1" d="M125.88,24.43c.41-.13,.65-.12,.96-.09l-.32-.31-.64,.4Z"/>
    <path class="cls-1" d="M88.4,24.41l.68,.1c-.82,.16-1.41,.1-.78,.24,.1-.34,2.64-.03,2.74-.37l.45,.07c-.13,0-.15,.02-.28,.01,.87,.16,.65-.24,1.77-.19,.39,.03,.66,.08,.4,.12l.87-.08c.25,0,.19,.07-.06,.06l1.33-.03h0c.19-.04,.62-.12,.83-.16,.34,.05-.17,.04-.08,.08l.74-.08c.3,.09-.31,.17-.82,.16,.69,.34,.61-.08,2.09,.12l-.69,.04c.45,.19,.99,.12,1.78,.25-.19-.06-1.57-.31-.77-.39,.23,.03,.52,.04,.95-.03,0,.12,.42,.09,.95,.09l-.04,.16c.57-.05,.52-.13,.86-.2,.63,.02,.77,.14,.92,.25,1.02,.03-.7-.2,.5-.23,.84,.06,1.44,0,2.45-.1,.59,.06-.1,.1,.11,.14l.52-.13c.13,0,.09,.04,.07,.06,.44-.05,.04-.16,.73-.2,.19-.18,1.43,.26,2.29,.06,.21,.05-.1,.1-.04,.16,1.18-.13,1.01-.09,1.98-.27l.82,.11c-.61-.12,.17-.26,.85-.38-.21-.06-.4-.11-.52-.13l1.08-.08c.13,.03,.02,.08-.16,.15,.07-.01,.14-.03,.2-.04,.39,.06,.19,.15-.09,.24-.13-.03-.26-.07-.39-.1-.27,.1-.52,.2-.46,.3,.07-.02,.21-.03,.35-.04-.07,.03-.11,.05-.08,.07,.04,.02,.15-.02,.33-.06l.25,.18,.06-.07,1.42,.11c1.01-.18,1.9-.44,3.5-.51-.4,.13-.09,.21-.11,.37-.44-.16-1.25,.07-2.08,.03,.43,.02,.34,.09,.23,.12l1.49-.15c-.03,.13,.32,.1,.7,.15-.29-.25,1.11-.17,1.71-.24,.04,.08-.11,.17-.85,.15,.81,.19,1.05-.29,1.85-.13-.18,0-.28-.01-.35,.03,.42-.07,1.45-.01,1.21,.06h-.18c1.2,.03,3.64,0,3.82-.2,.01,.03-.16,.26-.23,.3l2.14-.71c-.19,.18,.53,.62-.46,.72,.28,.03,.64,.06,1.24,0-.19-.03-.48-.26-.22-.28,.73,.2,.51,.11,1.4,.28-.29-.04,.03-.33,.49-.32-.07,.04,.04,.28-.13,.31l1.15-.28c-.29,.05-.05,.24,.2,.32-.12-.06,.99,0,1.3-.02l-.49-.07c1.29,.04,1.28-.39,2.56-.38-.16,.06-.38,.36,.27,.39,.3-.14,1.33-.69,2.46-.8l.22,.08,.87-.09c-.54,.22-2.07,.67-2.9,.85,.48,.07,.13,.1,.86,.09,.26,.08-.4,.12-.61,.12l1.69,.05c-.07-.17,1.29-.17,1.23-.31l-1.83,.17c-.07-.17,1.06-.48,2.26-.44,.3,.07-.23,.3-.2,.35,.16-.06,1.14-.11,1.24-.07l-.51,.09c.67,.06,1.09-.22,1.89-.06,.28,.01,.82,.22,.87,.12-.45-.19-.54-.79-.23-.93,.1,.01,1.45,.19,1.76,.28,.45,.15-.68,.36-.3,.49,.02-.05,.27-.1,.37-.12,.29,.04-.12,.14,.51,.12,.11-.17,1.28,.02,.3-.14,.62-.05,.65,.04,1.38,.03-.23-.11,.65-.37,1.27-.42-.04,.04,.1,.1,.17,.13,1.26,.02,1.94,.1,3.12,.1,.11,.04,.68,.09,.43,.17,.17-.03,.33-.09,.69-.09,.7,.15-.81,.02-.27,.2,.05-.1,.94-.14,1.46-.2-.16-.15-1.2-.03-1.71,.03,0-.21,.9-.43,2.13-.53,.98-.05,.42,.14,.59,.11,1.84,.04,1.57-.37,3.09-.21,.61,.14,.03,.27,.16,.36-.8,.05-1.22-.09-1.76-.08l.66,.06c-.25,.04-.79,.08-1.08,.04,.51,.12,3.11,.03,4.52,.14,.25-.04,.69-.09,.48-.15l-.45,.02c-.41-.11,.85-.15,.28-.2,.6-.08,1.28-.19,2.12-.13l.16,.15s-.55-.09-.79-.05c.35-.07,1.3,.21,1.69,0l-.59-.11c.6-.08,1.35-.24,2.1-.19-.34-.15-.17,.02-.71-.16,.46,.22-1.92-.01-1.18,.22-.55-.21-.95-.09-1.66-.27,.02,.05,.25,.1-.38,.07-.03,.01-.1,.03-.14,.04-.02,0-.03,0-.04,0h.03s-.03,.02,.01,0c.15,.02,.27,.05,.32,.08-.31,.12-1.32,.11-1.66,.17-.37-.02,.16-.06-.05-.11l-.51,.09c-.05-.11-.99-.19-.11-.25h-.79c-.47-.07-1.11-.1-1.51-.05-.37-.02-.95,.12-.62,.04l-1.24,.07v-.03c-1.24-.02-2.54,.18-3.94-.02-.41,.03-.84,.06-1.53,.03l-.13-.1c-.53,.03-1.59-.1-1.82,0-.57-.26-2.57-.06-3.51-.11l-.04,.13c-.64,0-1.26,.03-2.06,.08l.05,.11c-.69,.09-1.77-.08-2.85-.07,.07-.04,.35-.03,.54,0-1.3-.26-2.74,.18-3.92,0-.29,.04-.51,.03-.71,0,.03,0,.05,0,.07,0-.03,0-.07,0-.12,0-.13-.02-.27-.04-.41-.06,.12,.03,.24,.05,.34,.06-.23,0-.57,.02-.91,.04l-.14-.12s-.05,0-.08,0c-.33-.04-.27,.06-.09,.15-.17,.02-.32,.04-.45,.07-.27-.19-.88,.06-1.25-.14-.23,.1-1.69,.07-1.87,.29-.01-.03-.11-.04,.07-.04-.38-.02-.75-.05-1.09,0l-.16-.15-.82,.2c-.5-.09-.7-.15-.21-.27-1.19,.18-.97,.07-1.98,.24l.05-.1c-.36,0-.94,.13-1.16,.05-.81-.19-4.02-.03-6.1-.21,.4,.29-.97-.13-1.05,.09-.12-.07-.41-.11-.07-.17-1.06,.07-1.6-.11-2.33,.08-.12-.07,.23-.1,.12-.14-.09,.01-.34,.06-.45,.02-.11-.04,.16-.06,.32-.09-1.09,0-1.2,.22-1.28,.42-.55-.1-.82-.08-1.22,.05-.19-.07-.51-.13,.16-.16-.38-.01-2.32-.1-2.36,.06-.12-.04-.53-.01-.63,0-.85-.01-.93-.03-1.76-.01l.23,.03c-.33,.19-.7,.04-1.37,.06l.02-.02c-1.55-.14-.67,.07-2.19-.1l.08,.12c-.14,.26-1.35-.15-2.24-.06l.32,.07c-.48,.09-1.35-.35-1.84-.39-.11-.02,.17-.04,.31-.05-1.27-.15-.16,.16-1.11,.19-.17-.08,.23-.22-.41-.23-.32-.07-1.85,.27-2.72,.11,.19,.07,.38,.13-.06,.18-.67,.02-1.82-.25-2.43-.04-.09-.02-.12-.04-.12-.05-.52,.05-1.68,.09-1.99,.2-.48-.41-3.21,.2-3.19-.19l-1.59,.02,.04-.04c-1.01-.03-1.37,.06-1.73,.16-.23-.03-.06-.06-.04-.08-1.48-.08-1.63-.06-2.87,.13l-.13-.12c-.34,.07-2.14-.2-3.59-.06,.01-.01,.04-.04,.16-.06-1.63,.14-3.91-.35-4.51,.1l-1.08,.11c1.4,.04-.21,.2,.37,.27-.55,.03-1.42-.14-.74-.16l.11,.02c.25-.23-1.73-.09-1.7-.25-2.75,0-5.42-.13-7.99-.14l.3,.18h-.9c-.24-.05-.32-.16,.32-.15-.34-.1-1.07,.09-1.09,.12-1.25-.08,.49-.21,.1-.22h-.52s.12,.03,.12,.03c-.42,.07-.46,.15-1.23,.14-.49-.04-.25-.11-.44-.12,0-.01-.06-.02-.29,0l-1.13-.02,.45,.15c-.5,.07-1.06,0-.54,.16-.77-.25-4.22-.1-4.69-.18-.7,.1-1.39,.1-2.25,.09,.21,.03,.34,.19-.4,.17,.27-.33-1.36-.15-1.95-.39,.53,.16-2.1,.04-1.26,.26-.62-.03-.04-.13-.51-.21-1.47,.13-3.24-.09-5.06-.05-.03,.04,.28,.11-.11,.18l-.96-.22c-.36,.02-.33,.25-.99,.1,.09,.04,.23,.09,0,.11-3.56-.22-7.27,.16-10.89-.24,.49,.09,.16,.09-.21,.1,.24,.02,0,.11,.04,.17l-1.51-.17c-.28,.16-1.62,0-1.78,.17l.48-.03c-.64,.19,.89,.42,.8,.66,.71-.21,1.88,.32,3.05,.02,.26,.05-.22,.08-.08,.13,.3-.1,.65-.12,1.32-.08l-.07,.03c1.87-.02,2.67,.08,4.76,.15l-.16-.12c.45,.02,.55,.05,.76,.08,.52-.18-1.26-.01-.79-.21,.6,.24,3.18,0,3.58,.28,.69,0-.2-.14,.49-.13l.18,.07,.17-.1c.45,.02,.68,.11,.7,.17-.11,0-.31,.02-.43,.02,.59,.09,1.66-.03,1.86,0l-.67-.05c1.89-.07,4.2,.03,6.03-.11l-.14-.06c1.39-.1,1.12,.06,2.65,.02h-.06c.31-.04,.72-.07,1.13-.06-.39,.06,.73,.13,.22,.2,1.51-.11,.75-.09,1.75-.29l.23,.09c.34-.08,.37-.13,1.13-.15-.63,.08,.49,.14-.21,.25,1.61,.21,2.38-.2,3.12,.1,.74-.26-1.39-.14-.98-.2-.35-.08,.61-.19,1.11-.16,.51,0,.87,.33,2.16,.33-.13,0-.14,.02-.27,.02,.48,.07,.95-.09,1.54,.02,.33-.15,.77,.01,.86-.19l-1.18,.04c.67-.05,1.3-.28,2.4-.17-.09,.04-.41,.09-.64,.12,.32,.06,.62-.04,.96,.02-.1,.2-1.44,.04-2.16,.19,.35,.08,1.36-.14,1,.07,.52-.27,1.27,.04,2.14-.17l-.06,.12c.14-.02,.42-.07,.68-.07l-.46,.15c.71-.13,1.36,.12,2.04,.05-1.42,0-.32-.14-.92-.23,1.75-.16,1.01,.31,2.97,.26-.27,.02-1-.07-.58-.13,.37,.02,.87,.07,1.1,.13,1.3-.02-.2-.12,.35-.19,.44,.15,.64-.06,1.21-.1v.12c1.48,.08,.4-.25,1.73-.16l-.56,.17,.69-.04-.14,.14c.76-.1,.99-.07,1.73-.03-.17-.09,.1-.22,.75-.22,.45,.07-.25,.11,.68,.1-.21,.08-.44,.17-.84,.06-.04,.04-.21,.08-.25,.11,.48,.08,1.21,.02,1.55,.02-.13,0-.28-.01-.36-.03l1.35-.17c.21,.05,.04,.08-.12,.12,.27-.01,.46-.07,.86-.08-.1,.1-.08,.2-.65,.24l1.28-.11c.09,.04,.66,.12,.49,.15,.71,.06,1.75-.19,2.69-.11,.05-.02,.15-.04,.35-.05,.89,.02,1.67,.15,2.72,.01l.6,.18c.82-.04-.81-.22,.56-.29,.97-.05,.36,.15,.7,.2,.48-.09,1.32-.27,2.21-.12-.3,.03-.53,0-.8,.02Zm10.15-.06c-.2,.02-.59,.1-.73,.03,.22-.14,.4-.07,.73-.03Zm15.43-.27c-.15,.04-.37,.02-.63-.03,.19,0,.4,0,.63,.03Zm43-.77h-.02c-.44-.04-.28-.02,.02,0Zm.91,.05c.09-.02,.09-.03,.05-.05-.06,.03-.27,.03-.5,.02,.06,.03,.18,.05,.45,.03Zm-97.87-.1l.18,.03c-.4,.03-.29,0-.18-.03Z"/>
    <path class="cls-1" d="M112.24,24.24c-.06-.02-.07-.04-.08-.07-.08,.02-.08,.04,.08,.07Z"/>
    <path class="cls-1" d="M82.09,24.46h-.03s-.03,.01-.03,.02l.06-.02Z"/>
    <path class="cls-1" d="M143.78,24.36c-.19-.02-.29-.04-.36-.06-.01,.03,.07,.05,.36,.06Z"/>
    <path class="cls-1" d="M162.73,23.16l-.58,.03c.28,0,.38,.02,.53,.04-.01-.03-.12-.07,.06-.07Z"/>
    <path class="cls-1" d="M167.79,23.92c.09-.01,.18,0,.27-.02l-.02-.06c-.36,0-.62,.05-.24,.07Z"/>
    <path class="cls-1" d="M163.27,23.56c.05,.1,.41,.07,.82,.05h-.07c.12-.14-.31-.1-.75-.05Z"/>
    <path class="cls-1" d="M164.18,23.61c.13,0,.25,0,.38,0,.05-.06-.15-.01-.38,0Z"/>
    <path class="cls-1" d="M159.06,23.29c.19,.03,.12-.13,.23-.09,.22-.13-1.29,.15-.23,.09Z"/>
    <polygon class="cls-1" points="163.6 23.9 163.45 23.77 163.22 23.87 163.6 23.9"/>
    <path class="cls-1" d="M160.37,23.8l.65,.04s.07-.03,.18-.04c-.4,0-.84-.03-.83,0Z"/>
    <path class="cls-1" d="M161.2,23.79c.21,0,.41,0,.53-.02-.11,0-.36,0-.53,.02Z"/>
    <polygon class="cls-1" points="162.7 23.93 162.51 23.91 162.05 23.9 162.7 23.93"/>
    <path class="cls-1" d="M153.35,23.77l-.71,.03c-.07,.04,.12,.07,.39,.05,.17-.03,.44-.05,.33-.09Z"/>
    <path class="cls-1" d="M155.5,24.11c-.19-.03-.21-.05-.31-.1l-.02,.16,.34-.06Z"/>
    <path class="cls-1" d="M153.42,24.15c-.07,.04-1.04,.12-.13,.11,.07-.04,.79-.08,.13-.11Z"/>
    <polygon class="cls-1" points="142.68 23.93 142.86 23.93 142.83 23.68 142.68 23.93"/>
    <path class="cls-1" d="M133.21,24.53c.84,.06,.2-.16,.96-.08,.2-.06-.62-.06-.42-.11-.51,.06-.78,.03-.54,.19Z"/>
    <path class="cls-1" d="M133.75,24.33c.08-.01,.16-.02,.26-.04-.15,.02-.22,.03-.26,.04Z"/>
    <polygon class="cls-1" points="26.85 23.08 26.31 23.02 26.66 23.11 26.85 23.08"/>
    <path class="cls-1" d="M25.81,23.26l-.13-.16-.33,.15c.12,0,.36-.02,.45,.02Z"/>
    <path class="cls-1" d="M100.06,24.68l.04-.04c-.08-.04-.21-.05-.47-.05l.42,.09Z"/>
    <polygon class="cls-1" points="92.69 24.54 92.82 24.55 92.58 24.4 92.69 24.54"/>
    <path class="cls-1" d="M86.51,24.72c.25,0,.55-.01,.8-.02-.55,.03-.87-.16-.8,.02Z"/>
  </g>
  <g>
    <path class="cls-1" d="M194.33,48.98c.27,.01,.17-.09,.21-.11-.44,.02-.2,.14-.21,.11Z"/>
    <polygon class="cls-1" points="189.95 49.15 190.03 49.11 189.38 49.21 189.95 49.15"/>
    <path class="cls-1" d="M185.85,49.09c.38,.18,1.48,0,2.21,.07l.12,.04,.33-.14c-.89,.01-2.04,.09-2.66,.03Z"/>
    <path class="cls-1" d="M183.68,48.67c.13,.07-.47,.05,.51,.03-.05,0-.06-.01-.09-.02-.09,0-.21,0-.42-.01Z"/>
    <path class="cls-1" d="M184.1,48.68c.43,0-.28-.06,0,0h0Z"/>
    <path class="cls-1" d="M182.1,48.69l.57-.05c-.12-.04-.62-.06-.43-.09-.58,.03-.46,.07-.13,.14Z"/>
    <path class="cls-1" d="M181.56,48.82l.29-.02c-.05-.02-.13-.03-.29,.02Z"/>
    <path class="cls-1" d="M182.48,48.75l-.63,.05c.08,.03,.09,.09,.29-.02-.05,.05,.07,0,.34-.03Z"/>
    <path class="cls-1" d="M182.84,48.78c.32,.04,.73,.07,.16,.13,1.09,0,.93-.14-.16-.13Z"/>
    <path class="cls-1" d="M185.64,49.27l.42,.06,.37-.05c-.18,.03-.82-.06-.79,0Z"/>
    <path class="cls-1" d="M178.57,48.55s.19,.1,.23,.15l.42-.04c-.22-.03-.62-.06-.65-.12Z"/>
    <path class="cls-1" d="M178.8,48.71l-.63,.06c.56,.02,.66-.01,.63-.06Z"/>
    <polygon class="cls-1" points="181.46 49.01 182.49 48.89 181.26 49.01 181.46 49.01"/>
    <polygon class="cls-1" points="176.17 48.51 176.53 48.43 175.89 48.55 176.17 48.51"/>
    <path class="cls-1" d="M174.58,48.51c.26-.07-.36-.13-.08-.17-.43,0-.8,.06-1.14,.12,.35-.03,.73-.01,1.21,.05Z"/>
    <path class="cls-1" d="M172.81,48.53c.18-.01,.36-.04,.56-.07-.19,.01-.37,.04-.56,.07Z"/>
    <path class="cls-1" d="M177.1,48.73s-.14-.09-.49-.12l.24,.11c.08,0,.16,0,.25,0Z"/>
    <path class="cls-1" d="M176.86,48.73h0c-.27-.01-.45-.02-.53-.02,.07,0,.23,0,.54,.02Z"/>
    <path class="cls-1" d="M177.16,48.73s-.04,0-.06,0c.02,.01,.04,.01,.06,0Z"/>
    <path class="cls-1" d="M179.82,48.89c-.37,.05-1.14,.11-.4,.21,.27-.07-.16-.13,.4-.21Z"/>
    <path class="cls-1" d="M177.47,48.87l.67,.03s-.13-.07,.05-.1l-.72,.06Z"/>
    <polygon class="cls-1" points="177.14 48.9 177.47 48.87 177.22 48.85 177.14 48.9"/>
    <path class="cls-1" d="M173.95,48.64c-.29,.04-.6,.04-.96,.04,.38,.03,.77,.04,1.15,.05,.05-.03,.22-.09-.19-.09Z"/>
    <path class="cls-1" d="M175.36,48.69s-.04,0-.06,0c.04,0,.07,.01,.06,0Z"/>
    <polygon class="cls-1" points="169.48 48.64 169.54 48.66 169.55 48.64 169.48 48.64"/>
    <path class="cls-1" d="M174.2,48.76c.29,.02,.46,0,.62-.03-.22,0-.44,0-.69,0-.02,.01-.03,.02,.06,.02Z"/>
    <path class="cls-1" d="M171.83,48.56c.16,.02,.32,.04,.5,.07-.15-.04-.44-.09-.5-.07Z"/>
    <path class="cls-1" d="M175.2,48.67h.04c-.09-.03-.08-.02-.04,0Z"/>
    <path class="cls-1" d="M175.2,48.67c-.15,.01-.26,.04-.38,.06,.17,0,.34-.02,.48-.03-.04,0-.07-.02-.1-.03Z"/>
    <path class="cls-1" d="M168.41,49.31c.05-.1,.81-.18,1.46-.06,.64-.07,.23-.4-.33-.59-.02,.04-.02,.08-.68,.13,.23,.06,1.46,.15,.9,.23-.87,.04-.71-.05-1.14-.1,.36,.13-1.11,.16-.93,.35l.77-.05s-.26,.07-.05,.1Z"/>
    <path class="cls-1" d="M170.8,48.68h.27c-.31-.03-.53-.07-.93-.16-.45,.04-.55,.08-.58,.11l1.33,.03h-.09Z"/>
    <path class="cls-1" d="M172.28,48.69c-.21,.1-.87,.14-.47,.26,.8,0,.56-.08,1.04-.12-1.28,0,.37-.05-.56-.13,.25-.01,.48-.02,.69-.02-.23-.02-.45-.04-.66-.06h.03s0,0,0,0h0c.06,.02,.07,.02,.01,.02,0,0-.02,0-.03,0,0,.01-.03,.03-.06,.04-.37-.03-.06-.03,.06-.04,0,0,.01-.01,.02-.02h0s-1.29,.04-1.29,.04c.27,.02,.61,.02,1.22,.02Z"/>
    <path class="cls-1" d="M178.73,49.32s-.04-.02-.04-.03c-.08,.01-.12,.02,.04,.03Z"/>
    <path class="cls-1" d="M178.2,49.25c.09-.01,.17-.06,.48-.04,.26,.04,0,.05,.01,.09,.18-.03,.64-.07,.07-.13h-.09c-.52-.03-1.18-.17-1.09-.19,.15,.1,.28,.17,.62,.27Z"/>
    <path class="cls-1" d="M175.2,49l-1.07,.04,.54,.1-.03-.06c.61,.03,.48-.04,.55-.08Z"/>
    <polygon class="cls-1" points="169.36 48.58 169.51 48.47 168.89 48.62 169.36 48.58"/>
    <polygon class="cls-1" points="167.97 48.57 168.03 48.48 167.66 48.53 167.97 48.57"/>
    <path class="cls-1" d="M89.43,48.68l-.32,.02c.15,0,.24-.01,.32-.02Z"/>
    <path class="cls-1" d="M91.7,48.71l.06-.05c-.11,.03-.15,.04-.06,.05Z"/>
    <path class="cls-1" d="M133.79,48.09c-.46-.1-.97-.25-.91-.14l.14,.11c.32-.01,.57,0,.77,.03Z"/>
    <path class="cls-1" d="M110.38,48.41l.13,.03c.11-.04,.22-.07,.31-.1-.14,.02-.29,.04-.44,.06Z"/>
    <path class="cls-1" d="M110.05,48.85l-.6-.08c.14,.03,.33,.05,.6,.08Z"/>
    <path class="cls-1" d="M76.98,48.61l-.37,.11c.57,0,.32-.05,.37-.11Z"/>
    <path class="cls-1" d="M153.72,48.41c-.39-.05-.71-.07-.99-.08,.48,.07,.86,.17,.99,.08Z"/>
    <path class="cls-1" d="M90.34,47.54c-.19,.02-.28,.04-.27,.06,.2-.02,.31-.03,.27-.06Z"/>
    <path class="cls-1" d="M151.59,48.31c.07,.01,.14,.02,.21,.03,.29-.01,.58-.02,.93-.01-.35-.05-.75-.09-1.14-.02Z"/>
    <path class="cls-1" d="M31.87,47.88h-.1s.04,0,.1,0Z"/>
    <path class="cls-1" d="M18.73,46.59c.13,0,.34,0,.54,0-.1,0-.26-.01-.54,0Z"/>
    <path class="cls-1" d="M162.37,48.45c.3,0,.05-.01,0,0h0Z"/>
    <path class="cls-1" d="M163.8,48.9c-.06,.01-.11,.03-.12,.05,.02-.03,.07-.04,.12-.05Z"/>
    <path class="cls-1" d="M148.64,48.95h-.03c.09,.02,.07,.02,.03,0Z"/>
    <path class="cls-1" d="M162.82,48.5c-.12-.01-.24-.02-.38-.04,.07,0,.18,.02,.38,.04Z"/>
    <path class="cls-1" d="M162.76,48.45c.1,0,.18,.01,.26,.01,.04-.02,0-.03-.26-.01Z"/>
    <path class="cls-1" d="M161.96,48.45c.17,0,.33,0,.48,.02-.06,0-.08-.01-.07-.02-.09,0-.21,0-.41,0Z"/>
    <path class="cls-1" d="M56.05,47.93s-.04,0-.06-.01c-.3,.04-.17,.04,.06,.01Z"/>
    <path class="cls-1" d="M126.09,49.11h.03s-.03,0-.04,0h0Z"/>
    <path class="cls-1" d="M125.03,49.18c.45-.13,.71-.11,1.05-.07l-.35-.32-.71,.39Z"/>
    <path class="cls-1" d="M83.97,48.63l.74,.11c-.9,.15-1.55,.08-.85,.23,.11-.34,2.89,0,3-.33l.49,.08c-.14,0-.16,.01-.3,0,.95,.18,.71-.24,1.94-.17,.43,.03,.73,.09,.43,.12l.96-.07c.28,.01,.21,.07-.07,.06h1.46s-.01,0-.01,0c.21-.05,.68-.13,.91-.16,.37,.05-.19,.03-.09,.08l.81-.07c.33,.09-.34,.17-.9,.15,.75,.35,.67-.08,2.29,.15l-.76,.03c.49,.2,1.08,.14,1.94,.27-.2-.07-1.72-.33-.84-.4,.25,.03,.57,.05,1.04-.02,0,.12,.46,.1,1.04,.1l-.04,.16c.62-.04,.58-.12,.94-.19,.69,.03,.84,.15,1,.26,1.11,.04-.77-.21,.55-.22,.92,.07,1.58,.02,2.68-.06,.65,.06-.11,.1,.12,.15l.58-.12c.14,0,.09,.04,.07,.06,.48-.04,.04-.16,.8-.19,.21-.17,1.56,.28,2.5,.09,.23,.05-.11,.1-.04,.16,1.29-.11,1.11-.08,2.17-.24l.9,.12c-.66-.13,.19-.26,.93-.37-.23-.06-.44-.11-.57-.14l1.19-.07c.14,.03,.02,.08-.17,.15,.08-.01,.15-.03,.22-.04,.42,.07,.2,.15-.1,.24l-.43-.1c-.29,.09-.57,.2-.51,.29,.08-.02,.23-.03,.39-.04-.08,.03-.13,.05-.09,.06,.04,.02,.16-.02,.36-.05l.27,.18,.07-.07,1.55,.13c1.11-.16,2.08-.41,3.85-.46-.44,.12-.1,.21-.12,.37-.48-.17-1.37,.05-2.28,0,.48,.02,.37,.1,.25,.12l1.63-.13c-.04,.13,.34,.1,.77,.16-.32-.25,1.22-.15,1.88-.22,.04,.08-.12,.17-.93,.14,.89,.2,1.16-.28,2.03-.1-.2,0-.3-.02-.38,.03,.46-.07,1.59,0,1.32,.08h-.2c1.31,.05,3.99,.06,4.19-.15,.01,.03-.18,.25-.26,.3l2.35-.68c-.21,.18,.57,.63-.51,.71,.31,.03,.7,.07,1.36,.01-.21-.03-.53-.27-.24-.28,.8,.21,.55,.12,1.53,.3-.32-.04,.04-.32,.54-.31-.08,.04,.04,.28-.15,.31l1.26-.26c-.31,.05-.06,.24,.22,.32-.13-.06,1.09,.02,1.42,0l-.53-.07c1.42,.06,1.41-.38,2.81-.34-.17,.06-.43,.35,.29,.4,.33-.14,1.46-.67,2.71-.76l.24,.09,.96-.08c-.6,.21-2.27,.64-3.19,.8,.53,.07,.15,.1,.94,.1,.28,.08-.43,.11-.67,.11l1.85,.08c-.08-.17,1.42-.15,1.35-.29l-2.01,.15c-.08-.17,1.17-.46,2.48-.41,.33,.07-.25,.3-.23,.35,.17-.06,1.25-.09,1.36-.05l-.56,.08c.73,.07,1.19-.21,2.07-.03,.3,.02,.9,.23,.95,.13-.49-.2-.58-.79-.24-.93,.11,.01,1.59,.21,1.93,.31,.5,.16-.75,.35-.33,.48,.02-.05,.3-.1,.41-.11,.32,.04-.13,.14,.56,.13,.12-.17,1.4,.03,.33-.14,.68-.04,.72,.05,1.51,.05-.25-.11,.72-.36,1.4-.4-.04,.04,.11,.1,.18,.13,1.38,.04,2.13,.12,3.42,.14,.12,.04,.74,.1,.47,.17,.19-.03,.36-.08,.76-.08,.77,.16-.89,.01-.3,.2,.05-.1,1.03-.12,1.6-.18-.17-.16-1.31-.05-1.88,0,0-.21,.99-.42,2.34-.5,1.07-.04,.46,.14,.65,.12,2.01,.07,1.72-.34,3.39-.17,.66,.14,.02,.27,.17,.37-.87,.04-1.34-.1-1.93-.11l.73,.07c-.28,.04-.86,.07-1.18,.02,.55,.13,3.4,.07,4.95,.21,.28-.04,.75-.08,.53-.14h-.49c-.45-.1,.93-.12,.31-.18,.66-.07,1.4-.18,2.33-.1l.17,.16s-.61-.1-.87-.06c.39-.06,1.42,.23,1.85,.03l-.65-.12c.66-.07,1.49-.22,2.31-.16-.37-.16-.19,.01-.77-.17,.5,.23-2.1-.04-1.3,.2-.6-.21-1.04-.1-1.82-.29,.02,.05,.28,.1-.41,.07-.03,.01-.11,.03-.15,.04-.02,0-.03,0-.05,0h.04s-.03,.02,.01,0c.16,.02,.3,.05,.35,.08-.35,.11-1.44,.09-1.82,.15-.41-.03,.17-.06-.05-.11l-.56,.08c-.05-.11-1.09-.2-.12-.25l-.87-.02c-.51-.07-1.21-.11-1.65-.06-.41-.03-1.04,.11-.68,.03l-1.36,.05v-.03c-1.36-.03-2.78,.15-4.32-.08-.45,.02-.92,.05-1.68,0l-.15-.1c-.58,.03-1.74-.12-2-.02-.62-.27-2.82-.1-3.84-.16l-.04,.13c-.7-.02-1.38,0-2.25,.05l.05,.11c-.75,.08-1.93-.11-3.13-.11,.08-.04,.38-.03,.6,0-1.42-.27-3.01,.14-4.29-.06-.32,.04-.56,.02-.78-.01,.03,0,.06,0,.08,0-.03,0-.08,0-.13,0-.14-.02-.29-.04-.45-.07,.13,.03,.26,.05,.37,.07-.25,0-.62,0-.99,.03l-.16-.12s-.05,0-.09,0c-.36-.05-.29,.05-.1,.15-.19,.02-.36,.04-.49,.07-.29-.2-.97,.05-1.37-.16-.25,.1-1.86,.05-2.06,.26-.01-.03-.12-.04,.08-.04-.41-.03-.82-.06-1.19,0l-.17-.16-.9,.19c-.54-.1-.77-.16-.23-.27-1.31,.16-1.06,.05-2.18,.22l.06-.1c-.4,0-1.04,.12-1.27,.04-.89-.2-4.4-.09-6.68-.3,.44,.3-1.06-.15-1.15,.08-.13-.07-.45-.11-.08-.17-1.17,.05-1.75-.13-2.56,.04-.13-.07,.25-.1,.13-.14-.09,.01-.37,.05-.49,.01-.12-.04,.17-.06,.36-.08-1.19,0-1.31,.21-1.4,.4-.6-.1-.9-.09-1.34,.03-.21-.07-.56-.14,.18-.15-.42-.02-2.54-.13-2.58,.03-.13-.04-.58-.02-.69,0-.93-.02-1.01-.04-1.93-.04l.25,.03c-.36,.19-.76,.03-1.5,.04l.02-.02c-1.69-.16-.73,.06-2.4-.13l.09,.12c-.16,.26-1.48-.17-2.45-.09l.35,.07c-.53,.08-1.48-.37-2.01-.41-.12-.02,.18-.03,.35-.05-1.39-.17-.18,.15-1.22,.18-.19-.09,.25-.21-.45-.24-.35-.07-2.03,.25-2.98,.07,.21,.07,.42,.14-.07,.18-.74,.01-1.99-.28-2.66-.08-.09-.02-.13-.04-.13-.05-.57,.04-1.84,.06-2.18,.17-.52-.42-3.51,.15-3.5-.23h-1.74s.05-.04,.05-.04c-1.11-.04-1.5,.04-1.9,.13-.26-.03-.07-.06-.05-.08-1.62-.1-1.78-.09-3.15,.08l-.14-.13c-.37,.07-2.34-.23-3.94-.11,.02-.01,.05-.04,.18-.05-1.79,.12-4.28-.41-4.94,.04l-1.18,.09c1.53,.06-.23,.19,.4,.28-.6,.02-1.55-.16-.81-.17l.12,.02c.27-.23-1.9-.11-1.86-.27-3.01-.03-5.94-.2-8.76-.25l.32,.19-.98-.02c-.26-.05-.34-.15,.36-.13-.37-.11-1.18,.07-1.2,.11-1.37-.09,.54-.21,.12-.22h-.57s.13,.03,.13,.03c-.46,.07-.51,.15-1.35,.13-.53-.04-.27-.12-.48-.13,0-.01-.07-.02-.32,0l-1.24-.03,.49,.15c-.55,.06-1.16-.02-.59,.15-.84-.26-4.62-.16-5.13-.24-.77,.09-1.53,.08-2.47,.06,.23,.03,.37,.2-.44,.17,.3-.33-1.48-.17-2.14-.42,.58,.17-2.31,0-1.39,.25-.68-.04-.04-.13-.55-.21-1.61,.11-3.55-.14-5.54-.12-.03,.04,.3,.12-.13,.17l-1.05-.23c-.39,.02-.36,.25-1.08,.09,.1,.04,.25,.1-.01,.11-3.9-.27-7.97,.06-11.93-.4,.54,.09,.18,.1-.23,.09,.27,.02,0,.11,.05,.17l-1.66-.19c-.3,.16-1.78-.01-1.95,.14l.53-.02c-.7,.18,.97,.43,.87,.67,.78-.2,2.06,.34,3.34,.06,.28,.05-.24,.07-.09,.13,.33-.1,.72-.11,1.45-.06l-.08,.02c2.04,0,2.92,.12,5.22,.22l-.17-.12c.49,.02,.6,.06,.83,.09,.57-.17-1.39-.03-.87-.22,.65,.25,3.48,.05,3.92,.33,.76,.01-.22-.14,.54-.13l.2,.08,.19-.09c.5,.02,.75,.12,.77,.18-.12,0-.34,.01-.47,.02,.64,.1,1.82,0,2.04,.03l-.73-.06c2.07-.04,4.6,.09,6.6-.03l-.15-.06c1.53-.08,1.22,.08,2.9,.06h-.06c.34-.04,.79-.06,1.24-.05-.42,.06,.8,.14,.24,.2,1.66-.09,.82-.08,1.92-.27l.25,.1c.37-.08,.41-.12,1.24-.13-.69,.07,.53,.15-.24,.24,1.76,.23,2.61-.17,3.42,.14,.81-.25-1.52-.16-1.07-.21-.38-.09,.67-.18,1.22-.15,.56,.01,.95,.34,2.37,.36-.14,0-.15,.02-.29,.01,.53,.07,1.04-.07,1.68,.04,.37-.15,.84,.02,.95-.18l-1.3,.03c.74-.04,1.43-.26,2.64-.13-.09,.04-.46,.09-.7,.11,.35,.06,.68-.03,1.05,.04-.11,.2-1.58,.02-2.36,.16,.38,.09,1.49-.12,1.09,.09,.57-.26,1.39,.05,2.35-.14l-.06,.12c.15-.02,.47-.07,.74-.06l-.51,.15c.78-.12,1.49,.14,2.24,.08-1.56-.02-.35-.15-1-.24,1.92-.13,1.1,.33,3.25,.3-.29,.01-1.09-.09-.64-.14,.41,.03,.95,.08,1.2,.15,1.42,0-.22-.13,.39-.19,.48,.15,.7-.05,1.32-.09v.12c1.62,.1,.44-.25,1.9-.13l-.62,.16,.76-.03-.16,.13c.83-.09,1.09-.06,1.9,0-.19-.09,.11-.22,.83-.21,.49,.08-.28,.11,.74,.11-.23,.07-.48,.16-.93,.05-.05,.04-.23,.07-.27,.11,.53,.09,1.33,.04,1.69,.04-.14,0-.31-.02-.4-.03l1.48-.15c.23,.05,.05,.08-.14,.12,.3,0,.51-.06,.95-.07-.11,.1-.09,.2-.71,.24l1.41-.09c.09,.04,.72,.13,.54,.16,.78,.07,1.92-.16,2.95-.07,.05-.02,.16-.03,.38-.05,.97,.04,1.83,.17,2.98,.05l.65,.19c.9-.03-.88-.23,.62-.28,1.06-.04,.4,.16,.77,.21,.53-.08,1.45-.25,2.43-.09-.32,.03-.58,0-.88,0Zm11.13,.08c-.22,.02-.65,.09-.8,.02,.25-.13,.44-.07,.8-.02Zm16.91-.05c-.16,.04-.41,.01-.69-.04,.2,0,.43,0,.69,.04Zm47.12-.16h-.02c-.48-.05-.31-.03,.02,0Zm1,.07c.1-.02,.09-.03,.05-.05-.07,.03-.29,.03-.55,.02,.07,.03,.2,.06,.5,.03Zm-107.23-1.49l.19,.03c-.44,.03-.32,0-.19-.03Z"/>
    <path class="cls-1" d="M110.09,48.8c-.06-.02-.08-.04-.09-.07-.09,.02-.09,.04,.09,.07Z"/>
    <path class="cls-1" d="M77.05,48.59h-.03s-.03,.01-.03,.02l.07-.02Z"/>
    <path class="cls-1" d="M144.65,49.37c-.21-.02-.32-.04-.4-.07-.01,.03,.08,.06,.4,.07Z"/>
    <path class="cls-1" d="M165.43,48.44l-.64,.02c.31,0,.42,.03,.58,.05-.01-.03-.13-.07,.07-.07Z"/>
    <path class="cls-1" d="M170.97,49.26c.09-.01,.2,0,.29-.01l-.02-.06c-.4,0-.68,.04-.27,.07Z"/>
    <path class="cls-1" d="M166.01,48.84c.05,.1,.45,.07,.9,.06h-.08c.13-.14-.34-.1-.82-.06Z"/>
    <path class="cls-1" d="M167.02,48.9c.14,0,.28,0,.41,0,.05-.06-.17-.01-.41,0Z"/>
    <path class="cls-1" d="M161.4,48.52c.21,.03,.14-.13,.26-.08,.24-.13-1.42,.14-.26,.08Z"/>
    <polygon class="cls-1" points="166.37 49.18 166.21 49.06 165.96 49.15 166.37 49.18"/>
    <path class="cls-1" d="M162.83,49.04l.72,.04s.08-.03,.19-.04c-.44-.01-.92-.04-.91,0Z"/>
    <path class="cls-1" d="M163.74,49.05c.23,0,.45,0,.58-.01-.12,0-.39,0-.58,.01Z"/>
    <polygon class="cls-1" points="165.39 49.21 165.18 49.18 164.67 49.16 165.39 49.21"/>
    <path class="cls-1" d="M155.14,48.91l-.78,.02c-.08,.04,.13,.07,.42,.06,.19-.03,.48-.04,.36-.08Z"/>
    <path class="cls-1" d="M157.5,49.28c-.21-.03-.22-.06-.34-.1l-.03,.15,.37-.05Z"/>
    <path class="cls-1" d="M155.22,49.29c-.08,.04-1.14,.11-.15,.11,.08-.04,.86-.07,.15-.11Z"/>
    <polygon class="cls-1" points="143.45 48.92 143.65 48.92 143.62 48.67 143.45 48.92"/>
    <path class="cls-1" d="M133.06,49.38c.92,.07,.22-.15,1.06-.07,.22-.06-.68-.07-.46-.12-.56,.06-.85,.02-.6,.19Z"/>
    <path class="cls-1" d="M133.66,49.2c.09-.01,.18-.02,.29-.03-.16,.01-.24,.02-.29,.03Z"/>
    <polygon class="cls-1" points="16.55 46.42 15.96 46.36 16.34 46.45 16.55 46.42"/>
    <path class="cls-1" d="M15.41,46.6l-.14-.16-.36,.14c.13,0,.4-.02,.5,.02Z"/>
    <path class="cls-1" d="M96.75,49.06l.05-.04c-.09-.04-.23-.05-.51-.06l.46,.1Z"/>
    <polygon class="cls-1" points="88.67 48.82 88.81 48.83 88.56 48.68 88.67 48.82"/>
    <path class="cls-1" d="M81.9,48.91c.28,0,.6,0,.88,0-.6,.02-.95-.18-.88,0Z"/>
  </g>
  <g>
    <path class="cls-1" d="M.19,67.71c-.24-.01-.16,.09-.19,.11,.41-.02,.18-.14,.19-.11Z"/>
    <polygon class="cls-1" points="4.21 67.49 4.14 67.53 4.73 67.43 4.21 67.49"/>
    <path class="cls-1" d="M7.97,67.51c-.35-.18-1.36,.02-2.03-.04l-.11-.04-.3,.14c.81-.02,1.87-.11,2.44-.06Z"/>
    <path class="cls-1" d="M9.97,67.91c-.12-.07,.43-.06-.47-.02,.05,0,.06,.01,.08,.02,.08,0,.19,0,.38,0Z"/>
    <path class="cls-1" d="M9.59,67.9c-.4,0,.26,.06,0,0h0Z"/>
    <path class="cls-1" d="M11.42,67.87l-.52,.06c.11,.04,.57,.05,.4,.08,.53-.03,.43-.07,.12-.14Z"/>
    <path class="cls-1" d="M11.91,67.74l-.27,.02s.12,.02,.27-.02Z"/>
    <path class="cls-1" d="M11.07,67.82l.57-.05c-.08-.03-.08-.09-.26,.02,.05-.05-.07,0-.31,.03Z"/>
    <path class="cls-1" d="M10.75,67.79c-.29-.04-.67-.07-.15-.13-1,.02-.85,.15,.15,.13Z"/>
    <path class="cls-1" d="M8.16,67.33l-.39-.05-.34,.06c.17-.03,.75,.05,.73,0Z"/>
    <path class="cls-1" d="M14.67,67.98s-.17-.1-.21-.15l-.39,.04c.2,.03,.57,.05,.6,.11Z"/>
    <path class="cls-1" d="M14.45,67.83l.58-.06c-.51-.01-.61,.02-.58,.06Z"/>
    <polygon class="cls-1" points="12.01 67.54 11.06 67.68 12.19 67.54 12.01 67.54"/>
    <polygon class="cls-1" points="16.87 67.99 16.54 68.08 17.12 67.95 16.87 67.99"/>
    <path class="cls-1" d="M18.33,67.99c-.24,.07,.33,.12,.08,.17,.4-.01,.74-.07,1.04-.13-.32,.03-.67,.02-1.12-.04Z"/>
    <path class="cls-1" d="M19.95,67.95c-.16,.02-.33,.05-.51,.08,.17-.02,.34-.04,.51-.08Z"/>
    <path class="cls-1" d="M16.01,67.79s.13,.08,.45,.11l-.23-.11c-.07,0-.15,0-.23,0Z"/>
    <path class="cls-1" d="M16.23,67.79h0c.25,0,.42,.01,.49,.01-.06,0-.21,0-.5-.01Z"/>
    <path class="cls-1" d="M15.95,67.79s.04,0,.06,0c-.02-.01-.03-.01-.06,0Z"/>
    <path class="cls-1" d="M13.52,67.65c.34-.06,1.04-.12,.36-.21-.24,.07,.15,.13-.36,.21Z"/>
    <path class="cls-1" d="M15.67,67.65l-.61-.03s.12,.07-.05,.1l.66-.07Z"/>
    <polygon class="cls-1" points="15.97 67.62 15.67 67.65 15.9 67.66 15.97 67.62"/>
    <path class="cls-1" d="M18.91,67.84c.26-.05,.55-.05,.88-.05-.35-.02-.71-.04-1.06-.04-.05,.03-.2,.09,.18,.09Z"/>
    <path class="cls-1" d="M17.61,67.81s.04,0,.06,0c-.04,0-.07-.01-.06,0Z"/>
    <path class="cls-1" d="M23,67.8s-.03-.01-.05-.02c0,0,0,.01-.01,.02h.06Z"/>
    <path class="cls-1" d="M18.67,67.73c-.26-.02-.42,0-.57,.04,.2,0,.41-.02,.63-.02,.02-.02,.03-.03-.06-.02Z"/>
    <path class="cls-1" d="M20.85,67.9c-.14-.02-.29-.04-.46-.06,.13,.03,.41,.09,.46,.06Z"/>
    <path class="cls-1" d="M17.75,67.83s-.03,0-.04,0c.09,.02,.08,.01,.04,0Z"/>
    <path class="cls-1" d="M17.75,67.83c.14-.01,.24-.04,.35-.06-.16,0-.31,.02-.44,.03,.03,0,.07,.02,.09,.03Z"/>
    <path class="cls-1" d="M23.98,67.12c-.05,.1-.74,.19-1.34,.08-.59,.07-.21,.4,.31,.58,.02-.04,.02-.08,.62-.14-.21-.06-1.34-.13-.83-.22,.8-.05,.66,.04,1.05,.09-.33-.13,1.02-.17,.85-.36l-.7,.06s.24-.07,.05-.1Z"/>
    <path class="cls-1" d="M21.8,67.77h-.25c.28,.03,.49,.07,.86,.15,.41-.05,.5-.08,.53-.12l-1.23-.02h.09Z"/>
    <path class="cls-1" d="M20.43,67.78c.19-.11,.79-.15,.43-.27-.73,0-.51,.09-.95,.13,1.18-.02-.34,.06,.51,.12-.23,.02-.44,.02-.64,.03,.21,.01,.42,.03,.61,.05-.01,0-.02,0-.03,0h0s0,0,0,0c-.05-.01-.07-.02-.01-.01,0,0,.02,0,.02,0,0-.01,.03-.03,.05-.04,.34,.02,.05,.03-.05,.04,0,0-.01,.01-.01,.02,0,0,0,0,0,0l1.18-.05c-.25-.02-.56-.01-1.12,0Z"/>
    <path class="cls-1" d="M14.51,67.21s.03,.02,.04,.03c.08-.01,.11-.02-.04-.03Z"/>
    <path class="cls-1" d="M15,67.27c-.09,.01-.16,.06-.44,.04-.24-.03,0-.05-.01-.09-.17,.03-.59,.07-.06,.13h.08c.48,.03,1.09,.16,1,.18-.14-.1-.26-.17-.58-.26Z"/>
    <path class="cls-1" d="M17.75,67.5l.98-.05-.5-.1,.03,.06c-.56-.02-.44,.04-.51,.09Z"/>
    <polygon class="cls-1" points="23.11 67.86 22.98 67.97 23.55 67.81 23.11 67.86"/>
    <polygon class="cls-1" points="24.39 67.85 24.34 67.95 24.68 67.89 24.39 67.85"/>
    <path class="cls-1" d="M96.49,66.97l.29-.03c-.14,0-.22,.02-.29,.03Z"/>
    <path class="cls-1" d="M94.4,66.96l-.05,.05c.1-.03,.14-.05,.05-.05Z"/>
    <path class="cls-1" d="M55.77,67.99c.42,.09,.89,.24,.84,.13l-.13-.11c-.29,.02-.52,0-.71-.02Z"/>
    <path class="cls-1" d="M77.26,67.45s-.08-.02-.12-.03c-.1,.04-.2,.07-.28,.1,.12-.02,.26-.04,.41-.07Z"/>
    <path class="cls-1" d="M77.56,67l.55,.07c-.12-.03-.3-.05-.55-.07Z"/>
    <path class="cls-1" d="M107.91,66.91l.34-.11c-.53,0-.3,.05-.34,.11Z"/>
    <path class="cls-1" d="M37.48,67.87c.36,.04,.65,.06,.91,.07-.44-.06-.79-.16-.91-.07Z"/>
    <path class="cls-1" d="M95.66,68.12c.18-.02,.25-.04,.25-.06-.18,.02-.29,.04-.25,.06Z"/>
    <path class="cls-1" d="M39.43,67.95c-.06-.01-.13-.02-.19-.03-.27,.02-.53,.03-.86,.02,.32,.05,.69,.08,1.05,0Z"/>
    <path class="cls-1" d="M149.33,67.2s.07,0,.09,.01c0-.01-.03-.02-.09-.01Z"/>
    <path class="cls-1" d="M161.4,68.35c-.12,0-.31,0-.5,0,.09,0,.24,0,.5,0Z"/>
    <path class="cls-1" d="M29.53,67.92c-.27,0-.04,.01,0,0h0Z"/>
    <path class="cls-1" d="M28.22,67.49c.06-.01,.1-.03,.11-.05-.02,.03-.06,.04-.11,.05Z"/>
    <path class="cls-1" d="M42.13,67.29s.01,0,.02,0c-.08-.02-.07-.02-.02,0Z"/>
    <path class="cls-1" d="M29.12,67.87c.1,.01,.22,.03,.35,.03-.06,0-.16-.02-.35-.03Z"/>
    <path class="cls-1" d="M29.18,67.92c-.09,0-.17,0-.24-.01-.03,.02,0,.03,.24,.01Z"/>
    <path class="cls-1" d="M29.91,67.92c-.15,0-.3,0-.44-.01,.05,0,.08,.01,.06,.02,.08,0,.19,0,.38,0Z"/>
    <path class="cls-1" d="M127.14,67.39s.04,0,.06,.01c.27-.04,.15-.04-.06-.01Z"/>
    <path class="cls-1" d="M62.82,66.9s-.02,0-.03,0c.01,0,.03,0,.04,0h0Z"/>
    <path class="cls-1" d="M63.8,66.82c-.42,.13-.65,.12-.96,.09l.32,.31,.64-.4Z"/>
    <path class="cls-1" d="M101.5,66.96l-.68-.1c.83-.16,1.42-.1,.78-.24-.1,.34-2.66,.02-2.75,.36l-.45-.07c.13,0,.15-.02,.28-.01-.88-.17-.65,.24-1.78,.19-.39-.03-.67-.08-.4-.12l-.88,.08c-.26,0-.19-.07,.06-.06l-1.34,.02h0c-.19,.04-.62,.12-.83,.16-.34-.05,.17-.04,.08-.08l-.74,.08c-.3-.09,.31-.17,.82-.16-.69-.34-.61,.08-2.11-.12l.7-.04c-.45-.19-1-.13-1.79-.25,.19,.06,1.58,.31,.78,.39-.23-.03-.52-.04-.96,.03,0-.12-.43-.09-.96-.09l.04-.16c-.57,.04-.53,.13-.87,.2-.64-.02-.77-.14-.92-.25-1.02-.03,.7,.2-.51,.23-.85-.07-1.45,0-2.46,.09-.59-.06,.1-.1-.11-.14l-.53,.13c-.13,0-.09-.04-.07-.06-.44,.05-.04,.16-.74,.2-.19,.18-1.43-.26-2.3-.07-.21-.05,.1-.1,.04-.16-1.19,.13-1.02,.09-1.99,.26l-.83-.11c.61,.12-.17,.26-.85,.37,.22,.06,.4,.11,.52,.14l-1.09,.08c-.13-.03-.02-.08,.16-.15-.07,.01-.14,.03-.2,.04-.39-.06-.19-.15,.09-.24,.13,.03,.26,.07,.39,.1,.27-.1,.52-.2,.47-.3-.07,.02-.21,.03-.36,.04,.07-.03,.12-.05,.08-.07-.04-.02-.15,.02-.33,.06l-.25-.18-.06,.07-1.42-.12c-1.02,.17-1.91,.43-3.53,.5,.4-.13,.09-.21,.11-.37,.44,.17,1.25-.06,2.09-.03-.44-.02-.34-.09-.23-.12l-1.5,.14c.03-.13-.32-.1-.71-.15,.29,.25-1.12,.16-1.72,.24-.04-.08,.11-.17,.85-.15-.82-.19-1.06,.29-1.86,.12,.18,0,.28,.01,.35-.03-.42,.07-1.46,0-1.21-.06h.18c-1.2-.04-3.66-.02-3.84,.19-.01-.03,.16-.26,.23-.3l-2.15,.71c.19-.18-.53-.62,.46-.72-.29-.03-.64-.06-1.24,0,.2,.03,.49,.27,.22,.28-.73-.21-.51-.11-1.41-.29,.29,.04-.03,.33-.5,.31,.07-.04-.04-.28,.13-.31l-1.15,.28c.29-.05,.05-.24-.21-.32,.12,.06-1,0-1.3,.02l.49,.07c-1.3-.05-1.29,.39-2.58,.37,.16-.06,.39-.36-.27-.39-.3,.14-1.34,.69-2.48,.79l-.22-.08-.88,.09c.55-.21,2.08-.66,2.92-.84-.49-.07-.14-.1-.86-.09-.26-.08,.4-.12,.61-.12l-1.7-.06c.07,.17-1.3,.16-1.23,.3l1.84-.17c.07,.17-1.07,.47-2.27,.44-.31-.07,.23-.3,.21-.35-.16,.06-1.14,.1-1.25,.06l.51-.09c-.67-.07-1.09,.22-1.9,.05-.28-.01-.83-.22-.88-.12,.45,.19,.54,.79,.24,.93-.1-.01-1.46-.19-1.77-.29-.46-.15,.69-.36,.3-.49-.02,.05-.27,.1-.38,.12-.29-.04,.12-.14-.51-.12-.11,.17-1.29-.02-.3,.14-.62,.05-.66-.04-1.39-.03,.23,.11-.66,.37-1.28,.42,.04-.04-.1-.1-.17-.13-1.27-.02-1.95-.1-3.14-.11-.11-.04-.68-.09-.44-.17-.17,.03-.33,.09-.69,.09-.71-.15,.82-.02,.28-.2-.05,.1-.95,.13-1.47,.19,.16,.15,1.2,.04,1.72-.02,0,.21-.91,.43-2.15,.52-.98,.05-.43-.14-.6-.11-1.85-.05-1.58,.36-3.11,.2-.61-.14-.03-.27-.16-.37,.8-.05,1.23,.09,1.77,.09l-.67-.07c.26-.04,.79-.07,1.08-.03-.51-.12-3.12-.04-4.55-.16-.25,.04-.69,.09-.48,.14l.45-.02c.41,.11-.85,.15-.28,.2-.61,.07-1.29,.19-2.14,.12l-.16-.15s.56,.09,.8,.05c-.36,.07-1.31-.21-1.7-.01l.6,.11c-.61,.07-1.36,.23-2.12,.18,.34,.15,.17-.02,.71,.16-.46-.22,1.93,.02,1.19-.22,.55,.21,.95,.09,1.67,.27-.02-.05-.25-.1,.38-.07,.03-.01,.1-.03,.14-.04,.02,0,.03,0,.04,0-.01,0-.02,0-.03,0,.03,0,.03,0-.01,0-.15-.02-.27-.05-.32-.08,.32-.11,1.32-.11,1.67-.16,.38,.03-.16,.06,.05,.11l.51-.09c.05,.11,1,.19,.11,.25h.8c.47,.07,1.12,.1,1.51,.06,.38,.03,.95-.12,.62-.03l1.25-.06v.03c1.25,.02,2.55-.17,3.96,.04,.42-.03,.85-.06,1.54-.02l.14,.1c.53-.03,1.6,.1,1.83,0,.57,.26,2.59,.07,3.53,.12l.04-.13c.65,.01,1.27-.02,2.07-.07l-.05-.11c.69-.09,1.78,.09,2.87,.08-.07,.04-.35,.03-.55,0,1.31,.26,2.76-.17,3.94,.02,.3-.04,.51-.02,.72,0-.03,0-.05,0-.07,0,.03,0,.08,0,.12,0,.13,.02,.26,.04,.41,.06-.12-.03-.24-.05-.34-.06,.23,0,.57-.01,.91-.04l.14,.12s.05,0,.08,0c.33,.05,.27-.06,.09-.15,.17-.02,.33-.04,.45-.07,.27,.2,.89-.06,1.26,.15,.23-.1,1.7-.07,1.88-.28,.01,.03,.11,.04-.07,.04,.38,.03,.75,.05,1.09,0l.16,.15,.83-.2c.5,.1,.71,.15,.21,.27,1.2-.18,.97-.06,2-.24l-.05,.1c.36,0,.95-.13,1.17-.05,.82,.19,4.04,.05,6.13,.23-.4-.29,.97,.14,1.06-.09,.12,.07,.41,.11,.07,.17,1.07-.06,1.61,.12,2.35-.07,.12,.07-.23,.1-.12,.14,.09-.01,.34-.06,.45-.02,.11,.04-.16,.06-.33,.09,1.09,0,1.2-.22,1.28-.42,.55,.1,.83,.09,1.23-.04,.19,.07,.51,.14-.17,.16,.38,.01,2.33,.11,2.37-.05,.12,.04,.53,.01,.63,0,.86,.01,.93,.03,1.77,.02l-.23-.03c.33-.19,.7-.04,1.38-.06l-.02,.02c1.55,.15,.67-.06,2.21,.1l-.08-.12c.14-.26,1.36,.16,2.25,.06l-.32-.07c.49-.09,1.36,.36,1.85,.39,.11,.02-.17,.04-.32,.05,1.28,.16,.17-.16,1.12-.19,.18,.09-.23,.21,.41,.23,.32,.07,1.86-.27,2.74-.1-.19-.07-.38-.13,.06-.18,.68-.02,1.83,.26,2.45,.05,.09,.02,.12,.04,.12,.05,.52-.05,1.69-.08,2-.19,.48,.42,3.22-.19,3.21,.2h1.6s-.04,.03-.04,.03c1.02,.03,1.38-.06,1.74-.15,.24,.03,.06,.06,.04,.08,1.49,.08,1.64,.07,2.89-.12l.13,.12c.34-.07,2.15,.2,3.61,.07-.01,.01-.04,.04-.16,.05,1.64-.14,3.93,.36,4.54-.09l1.09-.11c-1.4-.04,.21-.19-.37-.27,.55-.02,1.43,.14,.75,.16l-.11-.02c-.25,.23,1.74,.09,1.71,.25,2.76,0,5.45,.14,8.04,.17l-.3-.18h.9c.24,.06,.32,.16-.33,.15,.34,.11,1.08-.08,1.1-.12,1.26,.08-.49,.21-.11,.22h.52s-.12-.03-.12-.03c.43-.07,.46-.15,1.24-.14,.49,.04,.25,.11,.44,.12,0,.01,.06,.02,.3,0l1.14,.02-.45-.15c.5-.07,1.07,.01,.55-.15,.77,.26,4.24,.11,4.71,.19,.71-.1,1.4-.1,2.27-.08-.21-.03-.34-.19,.4-.17-.27,.33,1.36,.15,1.96,.4-.54-.16,2.12-.03,1.27-.26,.62,.03,.04,.13,.51,.21,1.48-.12,3.26,.1,5.08,.07,.03-.04-.28-.11,.12-.18l.96,.22c.36-.02,.33-.25,.99-.1-.09-.04-.23-.09,.01-.11,3.58,.23,7.31-.14,10.95,.28-.49-.09-.16-.09,.21-.1-.24-.02,0-.11-.04-.17l1.52,.17c.28-.16,1.63,0,1.79-.16l-.48,.03c.64-.18-.89-.42-.8-.66-.72,.21-1.89-.32-3.07-.03-.26-.05,.22-.08,.08-.13-.3,.1-.66,.12-1.33,.07l.08-.03c-1.88,.02-2.68-.09-4.79-.17l.16,.12c-.45-.02-.55-.06-.76-.09-.52,.18,1.27,.02,.8,.21-.6-.24-3.19-.02-3.6-.29-.7,0,.2,.14-.49,.13l-.18-.07-.18,.09c-.46-.02-.69-.11-.7-.17,.11,0,.32-.02,.43-.02-.59-.09-1.67,.02-1.87,0l.67,.05c-1.9,.06-4.22-.05-6.06,.09l.14,.06c-1.4,.1-1.12-.07-2.66-.03h.06c-.31,.04-.72,.07-1.14,.06,.39-.06-.73-.13-.22-.2-1.52,.1-.75,.08-1.76,.29l-.23-.09c-.34,.08-.37,.13-1.14,.15,.63-.08-.49-.14,.22-.25-1.61-.21-2.4,.19-3.14-.11-.74,.25,1.4,.15,.98,.2,.35,.09-.61,.19-1.12,.16-.52,0-.88-.33-2.17-.33,.13,0,.14-.02,.27-.02-.49-.07-.95,.08-1.55-.03-.33,.15-.77-.01-.87,.18l1.19-.04c-.67,.05-1.31,.28-2.42,.16,.09-.04,.42-.09,.65-.12-.32-.06-.63,.04-.96-.03,.1-.2,1.45-.04,2.17-.18-.35-.09-1.37,.14-1-.08-.52,.27-1.28-.04-2.16,.16l.06-.12c-.14,.02-.43,.07-.68,.07l.46-.15c-.71,.13-1.37-.12-2.05-.05,1.43,0,.32,.14,.92,.23-1.76,.15-1.01-.32-2.98-.27,.27-.02,1,.08,.58,.13-.38-.03-.87-.07-1.1-.14-1.31,.02,.2,.12-.36,.19-.44-.15-.64,.06-1.22,.1v-.12c-1.49-.08-.4,.25-1.74,.15l.57-.16-.7,.04,.14-.14c-.76,.1-1,.07-1.74,.03,.17,.09-.1,.22-.76,.22-.45-.07,.25-.11-.68-.1,.21-.07,.44-.17,.85-.05,.04-.04,.21-.07,.25-.11-.48-.08-1.22-.02-1.56-.03,.13,0,.29,.01,.37,.03l-1.36,.16c-.21-.05-.04-.08,.12-.12-.27,.01-.46,.07-.87,.07,.1-.1,.08-.2,.65-.24l-1.29,.1c-.09-.04-.66-.12-.49-.16-.72-.06-1.76,.18-2.71,.1-.05,.02-.15,.04-.35,.05-.89-.03-1.68-.15-2.74-.02l-.6-.18c-.83,.04,.81,.23-.57,.28-.98,.05-.36-.15-.71-.2-.49,.09-1.33,.26-2.23,.12,.3-.03,.53,0,.81-.02Zm-10.21,.03c.2-.02,.59-.1,.74-.03-.23,.14-.4,.07-.74,.03Zm-15.53,.22c.15-.04,.37-.02,.63,.03-.19,0-.4,0-.63-.03Zm-43.25,.63s.01,0,.02,0c.44,.05,.28,.03-.02,0Zm-.92-.06c-.09,.02-.09,.03-.05,.05,.06-.03,.27-.03,.5-.02-.06-.03-.18-.05-.46-.03Zm98.44,.43l-.18-.03c.4-.03,.29,0,.18,.03Z"/>
    <path class="cls-1" d="M77.52,67.05c.06,.02,.07,.04,.08,.07,.08-.02,.08-.04-.08-.07Z"/>
    <path class="cls-1" d="M107.85,66.93s.02,0,.03,0c.02,0,.03-.01,.03-.02l-.06,.02Z"/>
    <path class="cls-1" d="M45.79,66.83c.19,.02,.29,.04,.36,.06,.01-.03-.08-.05-.36-.06Z"/>
    <path class="cls-1" d="M26.73,67.96l.59-.03c-.28,0-.39-.02-.53-.04,.01,.03,.12,.07-.06,.07Z"/>
    <path class="cls-1" d="M21.63,67.19c-.09,.01-.18,0-.27,.02l.02,.06c.37,0,.62-.05,.24-.07Z"/>
    <path class="cls-1" d="M26.19,67.56c-.05-.1-.41-.07-.83-.05,.02,0,.05,0,.07,0-.12,.14,.32,.1,.75,.05Z"/>
    <path class="cls-1" d="M25.26,67.51c-.13,0-.26,0-.38,0-.05,.06,.15,.01,.38,0Z"/>
    <path class="cls-1" d="M30.42,67.84c-.19-.03-.12,.13-.23,.09-.22,.13,1.3-.15,.23-.09Z"/>
    <polygon class="cls-1" points="25.85 67.23 26 67.35 26.23 67.25 25.85 67.23"/>
    <path class="cls-1" d="M29.1,67.33l-.66-.04s-.07,.03-.18,.04c.4,0,.85,.03,.83,0Z"/>
    <path class="cls-1" d="M28.27,67.34c-.21,0-.41,0-.53,.02,.11,0,.36,0,.53-.02Z"/>
    <polygon class="cls-1" points="26.75 67.19 26.95 67.22 27.41 67.23 26.75 67.19"/>
    <path class="cls-1" d="M36.17,67.39l.72-.03c.07-.04-.12-.07-.39-.05-.17,.03-.44,.04-.33,.09Z"/>
    <path class="cls-1" d="M34,67.04c.19,.03,.21,.05,.32,.1l.02-.16-.34,.06Z"/>
    <path class="cls-1" d="M36.09,67.01c.07-.04,1.04-.12,.13-.11-.07,.04-.79,.07-.13,.11Z"/>
    <polygon class="cls-1" points="46.9 67.26 46.72 67.26 46.74 67.52 46.9 67.26"/>
    <path class="cls-1" d="M56.43,66.7c-.85-.07-.2,.16-.97,.08-.2,.06,.63,.07,.42,.12,.51-.06,.78-.02,.55-.19Z"/>
    <path class="cls-1" d="M55.88,66.89c-.08,0-.17,.02-.26,.04,.15-.02,.22-.03,.26-.04Z"/>
    <polygon class="cls-1" points="163.4 68.5 163.94 68.56 163.59 68.47 163.4 68.5"/>
    <path class="cls-1" d="M164.45,68.32l.13,.16,.33-.15c-.12,0-.36,.02-.46-.02Z"/>
    <path class="cls-1" d="M89.77,66.66l-.04,.04c.08,.04,.21,.05,.47,.05l-.43-.09Z"/>
    <polygon class="cls-1" points="97.18 66.82 97.05 66.81 97.29 66.96 97.18 66.82"/>
    <path class="cls-1" d="M103.4,66.66c-.25,0-.55,.02-.81,.02,.55-.02,.88,.17,.81-.02Z"/>
  </g>
  <g>
    <path class="cls-1" d="M186.98,83.84c.24,0,.15-.1,.19-.12-.39,.03-.18,.14-.19,.12Z"/>
    <polygon class="cls-1" points="183.08 84.12 183.15 84.07 182.58 84.18 183.08 84.12"/>
    <path class="cls-1" d="M179.44,84.14c.35,.18,1.32-.04,1.97,.02l.11,.04,.29-.15c-.79,.03-1.81,.13-2.37,.09Z"/>
    <path class="cls-1" d="M177.49,83.78c.12,.07-.42,.06,.45,.02-.04,0-.06-.01-.08-.02-.08,0-.19,0-.37,0Z"/>
    <path class="cls-1" d="M177.86,83.78c.38,0-.25-.06,0,0h0Z"/>
    <path class="cls-1" d="M176.09,83.83l.5-.07c-.11-.04-.56-.05-.39-.08-.52,.04-.41,.08-.12,.14Z"/>
    <path class="cls-1" d="M175.61,83.97l.26-.03s-.12-.02-.26,.03Z"/>
    <path class="cls-1" d="M176.43,83.88l-.55,.06c.07,.03,.08,.09,.25-.02-.04,.05,.06,0,.3-.04Z"/>
    <path class="cls-1" d="M176.74,83.9c.28,.04,.65,.06,.14,.12,.97-.03,.82-.16-.14-.12Z"/>
    <path class="cls-1" d="M179.25,84.33l.38,.05,.33-.06c-.16,.03-.73-.04-.71,.01Z"/>
    <path class="cls-1" d="M172.94,83.77s.17,.1,.21,.15l.37-.05c-.19-.02-.56-.05-.58-.1Z"/>
    <path class="cls-1" d="M173.15,83.91l-.56,.07c.5,0,.59-.03,.56-.07Z"/>
    <polygon class="cls-1" points="175.52 84.17 176.44 84.02 175.35 84.17 175.52 84.17"/>
    <polygon class="cls-1" points="170.81 83.78 171.12 83.69 170.56 83.83 170.81 83.78"/>
    <path class="cls-1" d="M169.39,83.81c.23-.07-.32-.12-.07-.17-.38,.02-.71,.08-1.01,.14,.31-.03,.65-.03,1.08,.03Z"/>
    <path class="cls-1" d="M167.82,83.87c.16-.02,.32-.05,.5-.09-.17,.02-.33,.04-.5,.09Z"/>
    <path class="cls-1" d="M171.64,83.97s-.13-.08-.44-.1l.22,.1c.07,0,.14,0,.22,0Z"/>
    <path class="cls-1" d="M171.43,83.98h0c-.24,0-.4,0-.47,0,.06,0,.21,0,.48,0Z"/>
    <path class="cls-1" d="M171.7,83.97s-.04,0-.06,0c.02,.01,.03,.01,.06,0Z"/>
    <path class="cls-1" d="M174.06,84.08c-.33,.06-1.01,.13-.35,.22,.23-.08-.14-.12,.35-.22Z"/>
    <path class="cls-1" d="M171.97,84.11l.59,.02s-.12-.07,.04-.1l-.64,.08Z"/>
    <polygon class="cls-1" points="171.68 84.14 171.97 84.11 171.75 84.1 171.68 84.14"/>
    <path class="cls-1" d="M168.83,83.96c-.26,.05-.54,.06-.85,.07,.34,.02,.69,.03,1.02,.02,.05-.03,.19-.1-.17-.09Z"/>
    <path class="cls-1" d="M170.09,83.98s-.04,0-.06,0c.04,0,.06,.01,.06,0Z"/>
    <path class="cls-1" d="M164.86,84.05s.03,.01,.05,.02c0,0,0-.01,.01-.02h-.06Z"/>
    <path class="cls-1" d="M169.06,84.07c.26,.02,.41,0,.55-.04-.19,.01-.39,.02-.61,.02-.02,.02-.02,.03,.06,.02Z"/>
    <path class="cls-1" d="M166.95,83.93c.13,.02,.28,.04,.44,.05-.13-.03-.4-.08-.44-.05Z"/>
    <path class="cls-1" d="M169.95,83.96s.02,0,.04,0c-.08-.02-.07-.01-.04,0Z"/>
    <path class="cls-1" d="M169.95,83.96c-.13,.02-.23,.04-.34,.07,.16,0,.3-.02,.42-.04-.03,0-.06-.02-.09-.03Z"/>
    <path class="cls-1" d="M163.92,84.74c.04-.1,.71-.2,1.29-.1,.57-.08,.19-.4-.31-.58-.02,.04-.02,.08-.6,.15,.21,.05,1.3,.12,.81,.21-.78,.06-.64-.03-1.01-.08,.32,.12-.99,.19-.82,.37l.68-.07s-.23,.08-.04,.1Z"/>
    <path class="cls-1" d="M166.03,84.07h.24c-.28-.03-.47-.07-.84-.14-.4,.05-.48,.09-.51,.12h1.19s-.08,.02-.08,.02Z"/>
    <path class="cls-1" d="M167.35,84.05c-.19,.11-.77,.16-.41,.27,.71-.01,.5-.09,.92-.14-1.14,.04,.33-.06-.5-.12,.22-.02,.43-.03,.62-.03-.21-.01-.4-.03-.59-.04,.01,0,.02,0,.03,0h0s0,0,0,0c.05,.01,.07,.02,.01,.01,0,0-.02,0-.02,0,0,.02-.03,.03-.05,.04-.33-.02-.05-.03,.05-.04,0,0,.01-.01,.01-.02,0,0,0,0,0,0l-1.14,.07c.24,.01,.55,0,1.08,0Z"/>
    <path class="cls-1" d="M173.1,84.54s-.03-.02-.04-.02c-.07,.01-.1,.02,.04,.02Z"/>
    <path class="cls-1" d="M172.63,84.48c.08-.02,.15-.06,.42-.05,.23,.03,0,.05,.01,.09,.16-.03,.57-.08,.06-.13l-.08,.02c-.46-.03-1.05-.16-.97-.18,.14,.1,.25,.16,.56,.26Z"/>
    <path class="cls-1" d="M169.96,84.29l-.95,.06,.49,.09-.03-.06c.54,.02,.42-.05,.49-.09Z"/>
    <polygon class="cls-1" points="164.75 84 164.88 83.88 164.33 84.05 164.75 84"/>
    <polygon class="cls-1" points="163.51 84.02 163.56 83.92 163.23 83.99 163.51 84.02"/>
    <path class="cls-1" d="M93.63,85.86l-.28,.03c.13,0,.22-.02,.28-.03Z"/>
    <path class="cls-1" d="M95.66,85.85l.05-.05c-.09,.03-.13,.05-.05,.05Z"/>
    <path class="cls-1" d="M133.1,84.3c-.41-.09-.87-.23-.82-.12l.13,.11c.28-.02,.5-.01,.69,0Z"/>
    <path class="cls-1" d="M112.27,85.13s.08,.02,.12,.03c.1-.04,.19-.07,.27-.11-.12,.02-.25,.05-.39,.07Z"/>
    <path class="cls-1" d="M111.98,85.58l-.54-.07c.12,.02,.29,.05,.54,.07Z"/>
    <path class="cls-1" d="M82.56,86.07l-.33,.11c.51,0,.29-.06,.33-.11Z"/>
    <path class="cls-1" d="M150.83,84.17c-.35-.04-.63-.05-.88-.06,.42,.06,.77,.15,.88,.06Z"/>
    <path class="cls-1" d="M94.42,84.7c-.17,.02-.24,.04-.24,.07,.18-.02,.28-.04,.24-.07Z"/>
    <path class="cls-1" d="M148.93,84.12c.06,.01,.12,.02,.19,.02,.26-.02,.52-.04,.83-.03-.31-.04-.67-.07-1.02,0Z"/>
    <path class="cls-1" d="M42.4,86.33s-.06,0-.09-.01c0,.01,.03,.02,.09,.01Z"/>
    <path class="cls-1" d="M30.69,85.34c.12,0,.3,0,.48-.01-.09,0-.23,0-.48,.01Z"/>
    <path class="cls-1" d="M158.53,84.02c.26,0,.04-.01,0,0h0Z"/>
    <path class="cls-1" d="M159.81,84.44c-.06,.01-.1,.03-.1,.05,.02-.03,.06-.04,.1-.05Z"/>
    <path class="cls-1" d="M146.32,84.82s-.01,0-.02,0c.08,.02,.06,.02,.02,0Z"/>
    <path class="cls-1" d="M158.93,84.06c-.1-.01-.21-.02-.34-.03,.05,0,.16,.02,.34,.03Z"/>
    <path class="cls-1" d="M158.87,84.01c.09,0,.16,0,.23,0,.03-.02,0-.03-.23,0Z"/>
    <path class="cls-1" d="M158.16,84.03c.15,0,.29,0,.43,0-.05,0-.07-.01-.06-.02-.08,0-.19,0-.37,0Z"/>
    <path class="cls-1" d="M63.91,85.85s-.04,0-.06,0c-.26,.05-.15,.04,.06,0Z"/>
    <path class="cls-1" d="M126.27,85.48s.02,0,.03,0c-.01,0-.03,0-.04,0h0Z"/>
    <path class="cls-1" d="M125.33,85.57c.4-.14,.63-.12,.93-.1l-.31-.31-.62,.41Z"/>
    <path class="cls-1" d="M88.78,85.93l.66,.09c-.8,.17-1.38,.12-.75,.25,.09-.34,2.58-.06,2.66-.4l.44,.07c-.13,0-.15,.02-.27,.02,.85,.16,.63-.25,1.72-.21,.38,.02,.65,.07,.39,.11l.85-.09c.25,0,.19,.06-.06,.06l1.3-.04h0c.18-.04,.6-.13,.81-.17,.33,.05-.16,.04-.08,.08l.72-.09c.29,.09-.3,.18-.8,.17,.67,.33,.59-.09,2.04,.09l-.68,.05c.44,.19,.97,.11,1.73,.23-.18-.06-1.54-.29-.76-.38,.22,.02,.51,.03,.93-.04,0,.12,.42,.09,.93,.08l-.03,.16c.55-.05,.51-.13,.84-.21,.62,.01,.75,.13,.89,.24,.99,.02-.69-.19,.49-.23,.82,.05,1.4-.02,2.39-.12,.58,.05-.1,.1,.11,.14l.51-.13c.13,0,.09,.04,.06,.06,.43-.05,.03-.16,.71-.21,.18-.18,1.39,.25,2.23,.04,.21,.04-.1,.1-.04,.16,1.15-.14,.99-.1,1.93-.29l.81,.1c-.59-.11,.16-.26,.82-.39-.21-.06-.39-.11-.51-.13l1.05-.1c.13,.03,.02,.08-.15,.15,.07-.01,.14-.03,.19-.04,.38,.06,.18,.15-.09,.24-.13-.03-.26-.06-.38-.1-.26,.1-.5,.21-.45,.3,.07-.02,.2-.04,.35-.05-.07,.03-.11,.05-.08,.07,.04,.02,.15-.02,.32-.06l.24,.18,.06-.07,1.38,.1c.99-.19,1.84-.46,3.41-.55-.39,.13-.08,.21-.1,.37-.43-.16-1.21,.08-2.03,.05,.42,.01,.33,.09,.22,.11l1.45-.16c-.03,.13,.31,.09,.69,.14-.29-.25,1.08-.18,1.67-.26,.04,.08-.1,.17-.82,.16,.8,.18,1.02-.3,1.8-.15-.18,0-.27,0-.34,.03,.41-.08,1.41-.03,1.18,.05h-.18c1.17,.02,3.55-.03,3.72-.24,.01,.03-.15,.26-.22,.3l2.08-.73c-.18,.18,.53,.61-.44,.72,.28,.02,.62,.05,1.21-.02-.19-.02-.47-.26-.22-.28,.71,.2,.49,.1,1.37,.27-.28-.04,.03-.33,.48-.32-.07,.04,.04,.28-.12,.31l1.11-.29c-.28,.05-.05,.24,.2,.32-.12-.05,.97,0,1.26-.03l-.47-.06c1.26,.03,1.24-.41,2.49-.4-.15,.06-.37,.36,.27,.39,.29-.15,1.29-.7,2.39-.82l.21,.08,.85-.1c-.53,.22-2.01,.69-2.82,.87,.47,.06,.13,.1,.84,.08,.25,.07-.38,.12-.59,.13l1.65,.04c-.07-.17,1.26-.18,1.19-.32l-1.79,.19c-.07-.17,1.03-.49,2.2-.47,.3,.06-.22,.3-.19,.36,.15-.06,1.11-.12,1.21-.08l-.49,.09c.65,.06,1.06-.23,1.84-.08,.27,0,.81,.21,.85,.11-.44-.19-.53-.78-.24-.93,.09,.01,1.42,.17,1.72,.26,.44,.15-.66,.36-.28,.49,.02-.05,.26-.1,.36-.12,.28,.04-.12,.14,.5,.12,.1-.17,1.25,0,.29-.15,.6-.05,.64,.03,1.34,.02-.23-.11,.63-.38,1.23-.43-.04,.04,.1,.1,.17,.12,1.23,0,1.89,.08,3.04,.07,.11,.04,.66,.09,.43,.16,.16-.03,.32-.09,.67-.1,.69,.14-.79,.03-.27,.2,.04-.1,.92-.14,1.42-.21-.16-.15-1.17-.02-1.67,.05,0-.21,.87-.44,2.07-.55,.95-.06,.41,.13,.58,.1,1.79,.02,1.52-.38,3.01-.24,.59,.13,.03,.27,.16,.36-.78,.06-1.19-.07-1.72-.06l.65,.06c-.25,.05-.77,.09-1.05,.05,.5,.12,3.03,0,4.41,.1,.25-.05,.67-.1,.47-.15l-.44,.02c-.4-.1,.82-.16,.27-.2,.59-.08,1.24-.21,2.07-.15l.16,.15s-.54-.09-.77-.04c.34-.07,1.27,.2,1.64,0l-.58-.1c.59-.08,1.32-.25,2.05-.21-.33-.15-.17,.02-.69-.15,.45,.22-1.87,0-1.15,.23-.54-.2-.92-.08-1.62-.25,.02,.05,.25,.09-.37,.07-.03,.02-.09,.03-.13,.05-.02,0-.03,0-.04,0,.01,0,.02,0,.03,0-.03,0-.03,0,.01,0,.15,.02,.27,.05,.31,.07-.3,.12-1.28,.12-1.61,.19-.37-.02,.15-.06-.05-.11l-.49,.09c-.05-.11-.97-.18-.11-.25h-.77c-.46-.06-1.08-.08-1.47-.03-.37-.02-.92,.13-.6,.04l-1.21,.08v-.03c-1.21,0-2.47,.21-3.84,.02-.4,.03-.82,.07-1.49,.04l-.13-.1c-.52,.04-1.55-.08-1.78,.02-.56-.26-2.51-.04-3.42-.07l-.03,.13c-.63,0-1.23,.04-2,.1l.05,.11c-.67,.1-1.72-.06-2.78-.04,.07-.04,.34-.03,.53-.01-1.27-.24-2.67,.21-3.82,.03-.29,.04-.49,.03-.69,0,.03,0,.05,0,.07,0-.03,0-.07,0-.12,0-.13-.02-.26-.04-.4-.06,.12,.03,.24,.05,.34,.06-.22,0-.56,.02-.88,.05l-.14-.12s-.05,0-.08,0c-.32-.04-.26,.06-.09,.15-.17,.02-.32,.05-.43,.08-.26-.19-.86,.07-1.22-.13-.22,.1-1.65,.09-1.82,.3-.01-.03-.11-.04,.07-.04-.37-.02-.73-.04-1.06,.02l-.16-.15-.8,.21c-.49-.09-.69-.14-.21-.26-1.16,.19-.94,.08-1.93,.26l.05-.1c-.35,0-.92,.14-1.13,.06-.79-.18-3.92,0-5.95-.15,.4,.29-.95-.12-1.02,.1-.12-.07-.4-.1-.07-.17-1.04,.08-1.56-.1-2.27,.1-.12-.07,.22-.1,.12-.14-.08,.02-.33,.06-.44,.02-.11-.04,.15-.06,.32-.09-1.06,.02-1.16,.23-1.24,.43-.54-.09-.81-.07-1.19,.06-.19-.06-.5-.13,.16-.16-.37,0-2.26-.08-2.3,.08-.12-.04-.52,0-.61,.01-.83,0-.9-.02-1.72,0l.23,.02c-.32,.2-.68,.05-1.33,.08l.02-.02c-1.51-.13-.65,.07-2.14-.07l.08,.12c-.14,.26-1.32-.14-2.18-.03l.31,.07c-.47,.09-1.32-.34-1.79-.37-.1-.02,.16-.04,.31-.06-1.24-.14-.16,.16-1.08,.2-.17-.08,.22-.22-.4-.23-.31-.07-1.8,.29-2.65,.14,.19,.06,.37,.13-.05,.18-.66,.03-1.78-.23-2.37-.02-.08-.02-.12-.03-.12-.05-.5,.06-1.63,.1-1.93,.22-.47-.41-3.12,.23-3.12-.15l-1.55,.03,.04-.04c-.99-.02-1.34,.08-1.68,.17-.23-.02-.06-.06-.04-.08-1.44-.06-1.59-.05-2.8,.15l-.13-.12c-.33,.07-2.09-.18-3.51-.02,.01-.01,.04-.04,.16-.06-1.59,.16-3.82-.31-4.4,.15l-1.05,.12c1.36,.02-.2,.2,.36,.27-.53,.03-1.38-.12-.73-.15l.1,.02c.24-.24-1.69-.07-1.66-.23-2.68,.03-5.29-.07-7.8-.06l.29,.18h-.87c-.23-.04-.31-.14,.31-.14-.33-.1-1.05,.1-1.06,.14-1.22-.06,.48-.22,.1-.22l-.51,.02,.11,.02c-.41,.08-.45,.16-1.2,.16-.47-.03-.24-.11-.43-.12,0-.01-.06-.02-.29,0h-1.1s.44,.13,.44,.13c-.49,.08-1.04,0-.53,.16-.75-.25-4.11-.05-4.57-.13-.68,.11-1.36,.12-2.2,.11,.21,.03,.33,.19-.39,.18,.26-.34-1.32-.13-1.91-.37,.52,.16-2.05,.06-1.23,.28-.6-.02-.04-.13-.5-.2-1.43,.14-3.16-.06-4.93,0-.03,.04,.27,.11-.11,.18l-.94-.21c-.35,.02-.32,.26-.96,.11,.09,.04,.23,.09,0,.11-3.47-.18-7.09,.24-10.62-.13,.48,.08,.16,.09-.2,.1,.24,.02,0,.11,.04,.17l-1.48-.15c-.27,.17-1.58,.03-1.73,.18l.47-.03c-.62,.19,.87,.41,.78,.65,.69-.22,1.84,.3,2.98-.02,.25,.05-.21,.08-.08,.13,.29-.11,.64-.13,1.29-.09l-.07,.03c1.82-.04,2.6,.05,4.64,.1l-.15-.12c.44,.01,.53,.05,.74,.08,.5-.18-1.23,0-.78-.2,.58,.24,3.1-.02,3.49,.25,.68,0-.2-.14,.48-.14l.18,.07,.17-.1c.44,.01,.67,.1,.68,.17-.11,0-.31,.02-.42,.03,.58,.08,1.62-.04,1.82-.02l-.65-.04c1.84-.09,4.1,0,5.88-.17l-.14-.05c1.36-.12,1.09,.05,2.58,0h-.05c.3-.04,.7-.08,1.11-.07-.38,.07,.71,.12,.22,.2,1.47-.12,.73-.09,1.7-.31l.23,.09c.33-.09,.36-.13,1.1-.16-.61,.08,.48,.14-.21,.25,1.57,.19,2.32-.22,3.04,.07,.72-.26-1.36-.13-.95-.19-.34-.08,.59-.2,1.08-.18,.5,0,.85,.32,2.11,.3-.13,0-.13,.02-.26,.02,.47,.06,.92-.1,1.5,0,.32-.16,.75,0,.84-.2l-1.15,.06c.65-.06,1.26-.29,2.34-.19-.08,.04-.4,.1-.62,.13,.32,.06,.61-.04,.93,.01-.09,.2-1.4,.06-2.1,.21,.34,.08,1.32-.15,.97,.06,.5-.28,1.24,.02,2.09-.19l-.06,.12c.13-.02,.41-.08,.66-.08l-.45,.16c.69-.14,1.33,.1,1.99,.03-1.38,.02-.31-.14-.9-.22,1.71-.17,.98,.3,2.9,.23-.26,.02-.97-.06-.57-.12,.36,.02,.85,.06,1.07,.12,1.27-.04-.2-.12,.34-.2,.43,.14,.62-.06,1.18-.12v.12c1.45,.06,.39-.25,1.69-.17l-.55,.17,.68-.05-.14,.14c.74-.11,.97-.08,1.69-.05-.17-.08,.09-.22,.73-.23,.44,.07-.24,.12,.66,.09-.2,.08-.43,.17-.82,.07-.04,.04-.2,.08-.24,.12,.47,.08,1.18,0,1.51,0-.13,0-.28,0-.36-.03l1.31-.18c.21,.04,.04,.08-.12,.12,.27-.02,.45-.07,.84-.09-.1,.1-.08,.2-.63,.25l1.25-.12c.08,.04,.64,.11,.48,.15,.69,.05,1.7-.21,2.62-.14,.05-.02,.14-.04,.34-.05,.87,.01,1.63,.13,2.66-.02l.58,.17c.8-.05-.79-.21,.55-.29,.95-.06,.35,.15,.69,.19,.47-.09,1.29-.28,2.16-.14-.29,.04-.51,.01-.78,.03Zm9.9-.16c-.19,.03-.57,.11-.71,.04,.22-.14,.39-.08,.71-.04Zm15.05-.42c-.14,.04-.36,.02-.61-.02,.18-.01,.39,0,.61,.02Zm41.92-1.2s-.01,0-.02,0c-.43-.04-.28-.03,.02,0Zm.89,.04c.09-.02,.08-.03,.05-.05-.06,.03-.26,.03-.49,.03,.06,.03,.18,.05,.44,.02Zm-95.44,.88l.17,.03c-.39,.04-.28,0-.17-.03Z"/>
    <path class="cls-1" d="M112.02,85.53c-.05-.02-.07-.04-.08-.06-.08,.02-.08,.04,.08,.06Z"/>
    <path class="cls-1" d="M82.62,86.05s-.02,0-.03,0c-.02,0-.03,.01-.03,.02l.06-.02Z"/>
    <path class="cls-1" d="M142.78,85.33c-.18-.02-.29-.04-.35-.06,0,.03,.07,.05,.35,.06Z"/>
    <path class="cls-1" d="M161.25,83.94l-.57,.04c.28,0,.37,.02,.51,.04-.01-.03-.12-.07,.06-.07Z"/>
    <path class="cls-1" d="M166.2,84.64c.08-.02,.18,0,.26-.02l-.02-.06c-.35,0-.6,.05-.24,.07Z"/>
    <path class="cls-1" d="M161.78,84.34c.05,.1,.4,.06,.8,.04-.02,0-.05,0-.07,0,.12-.14-.31-.09-.73-.04Z"/>
    <path class="cls-1" d="M162.67,84.37c.12,0,.25,0,.37,0,.05-.06-.15-.01-.37,0Z"/>
    <path class="cls-1" d="M157.67,84.11c.19,.02,.12-.13,.22-.09,.21-.13-1.26,.17-.22,.09Z"/>
    <polygon class="cls-1" points="162.11 84.67 161.96 84.54 161.74 84.65 162.11 84.67"/>
    <path class="cls-1" d="M158.96,84.6l.64,.03s.07-.03,.17-.04c-.39,0-.82-.02-.81,.02Z"/>
    <path class="cls-1" d="M159.76,84.59c.2,0,.4,0,.51-.03-.11,0-.35,0-.51,.03Z"/>
    <polygon class="cls-1" points="161.23 84.71 161.05 84.69 160.6 84.68 161.23 84.71"/>
    <path class="cls-1" d="M152.11,84.64l-.7,.04c-.07,.04,.12,.07,.38,.05,.17-.03,.42-.05,.32-.09Z"/>
    <path class="cls-1" d="M154.21,84.96c-.19-.02-.2-.05-.31-.09l-.02,.16,.33-.06Z"/>
    <path class="cls-1" d="M152.18,85.02c-.07,.04-1.01,.13-.13,.12,.07-.04,.77-.09,.13-.12Z"/>
    <polygon class="cls-1" points="141.7 84.91 141.88 84.91 141.85 84.65 141.7 84.91"/>
    <path class="cls-1" d="M132.47,85.6c.82,.05,.19-.16,.94-.09,.19-.06-.61-.06-.41-.11-.5,.07-.76,.03-.53,.2Z"/>
    <path class="cls-1" d="M133,85.4c.08-.01,.16-.02,.25-.04-.14,.02-.21,.03-.25,.04Z"/>
    <polygon class="cls-1" points="28.75 85.22 28.22 85.17 28.56 85.25 28.75 85.22"/>
    <path class="cls-1" d="M27.73,85.42l-.13-.16-.32,.15c.12,0,.35-.02,.44,.01Z"/>
    <path class="cls-1" d="M100.15,86.08l.04-.04c-.08-.04-.21-.04-.46-.05l.42,.09Z"/>
    <polygon class="cls-1" points="92.97 86.02 93.09 86.03 92.86 85.88 92.97 86.02"/>
    <path class="cls-1" d="M86.94,86.26c.25,0,.54-.03,.78-.03-.54,.03-.85-.16-.78,.03Z"/>
  </g>
</svg>