<?xml version="1.0" encoding="UTF-8"?>
<svg id="Layer_1" data-name="Layer 1" xmlns="http://www.w3.org/2000/svg" viewBox="0 0 75.6 186.55">
  <defs>
    <style>
      .cls-1 {
        fill: #231f20;
      }
    </style>
  </defs>
  <g>
    <path class="cls-1" d="M2.29,168.08c-.02,.18,.09,.12,.1,.15,0-.3-.13-.14-.1-.15Z"/>
    <polygon class="cls-1" points="2.26 165.13 2.3 165.19 2.23 164.75 2.26 165.13"/>
    <path class="cls-1" d="M2.43,162.4c-.19,.25-.03,.99-.12,1.48l-.05,.08,.13,.23c.01-.59-.04-1.37,.04-1.78Z"/>
    <path class="cls-1" d="M2.9,160.96c-.07,.09-.04-.32-.04,.34,0-.03,.01-.04,.02-.06,0-.06,0-.14,.02-.28Z"/>
    <path class="cls-1" d="M2.88,161.24c-.01,.29,.07-.19,0,0h0Z"/>
    <path class="cls-1" d="M2.9,159.9l.04,.38c.04-.08,.07-.42,.09-.29-.02-.39-.06-.31-.14-.09Z"/>
    <path class="cls-1" d="M2.79,159.54l.02,.2s.03-.09-.02-.2Z"/>
    <path class="cls-1" d="M2.84,160.16l-.04-.42c-.03,.05-.09,.06,.01,.19-.05-.04,0,.05,.03,.23Z"/>
    <path class="cls-1" d="M2.81,160.39c-.05,.21-.09,.49-.13,.1-.01,.73,.12,.63,.13-.1Z"/>
    <path class="cls-1" d="M2.26,162.25l-.07,.28,.04,.25c-.02-.12,.08-.55,.02-.53Z"/>
    <path class="cls-1" d="M3.09,157.54s-.11,.12-.16,.15l.03,.28c.03-.14,.07-.42,.12-.43Z"/>
    <path class="cls-1" d="M2.94,157.69l-.05-.42c-.02,.37,0,.44,.05,.42Z"/>
    <polygon class="cls-1" points="2.59 159.46 2.7 160.16 2.6 159.33 2.59 159.46"/>
    <polygon class="cls-1" points="3.15 155.93 3.23 156.17 3.11 155.74 3.15 155.93"/>
    <path class="cls-1" d="M3.17,154.87c.07,.18,.13-.24,.17-.05,0-.29-.06-.54-.11-.76,.03,.24,.01,.49-.06,.81Z"/>
    <path class="cls-1" d="M3.15,153.68c.01,.12,.04,.24,.07,.38-.01-.13-.04-.25-.07-.38Z"/>
    <path class="cls-1" d="M2.93,156.55s.09-.09,.12-.33l-.11,.16c0,.05,0,.11,0,.17Z"/>
    <path class="cls-1" d="M2.94,156.39h0c0-.18,.01-.31,.02-.36,0,.05,0,.15-.02,.36Z"/>
    <path class="cls-1" d="M2.93,156.59v-.04s-.01,.03,0,.04Z"/>
    <path class="cls-1" d="M2.74,158.36c-.05-.25-.1-.77-.2-.27,.07,.18,.13-.1,.2,.27Z"/>
    <path class="cls-1" d="M2.79,156.79l-.04,.45s.07-.09,.1,.04l-.06-.48Z"/>
    <polygon class="cls-1" points="2.76 156.57 2.79 156.79 2.81 156.63 2.76 156.57"/>
    <path class="cls-1" d="M3.03,154.44c-.04-.19-.04-.41-.04-.64-.03,.25-.04,.52-.05,.77,.03,.04,.09,.15,.09-.13Z"/>
    <path class="cls-1" d="M2.98,155.39v-.04s-.02,.05,0,.04Z"/>
    <polygon class="cls-1" points="3.03 151.45 3.01 151.49 3.03 151.5 3.03 151.45"/>
    <path class="cls-1" d="M2.92,154.61c-.02,.19,0,.31,.03,.42,0-.15,0-.3,0-.46-.01-.02-.02-.02-.02,.04Z"/>
    <path class="cls-1" d="M3.12,153.02c-.02,.1-.05,.21-.07,.33,.04-.1,.09-.3,.07-.33Z"/>
    <path class="cls-1" d="M3.01,155.28v.03c.03-.06,.02-.05,0-.03Z"/>
    <path class="cls-1" d="M3.01,155.28c-.01-.1-.04-.18-.06-.26,0,.12,.01,.23,.03,.32,0-.02,.02-.05,.03-.06Z"/>
    <path class="cls-1" d="M2.36,150.73c.1,.03,.18,.54,.07,.97,.07,.43,.4,.15,.59-.22-.04-.01-.08-.01-.13-.46-.06,.15-.14,.98-.22,.6-.04-.58,.04-.48,.1-.76-.13,.24-.17-.74-.36-.62l.06,.51s-.07-.18-.1-.03Z"/>
    <path class="cls-1" d="M2.99,152.33v.18c.03-.21,.07-.35,.15-.63-.04-.3-.08-.37-.11-.39l-.03,.89v-.06Z"/>
    <path class="cls-1" d="M2.98,153.32c-.1-.14-.14-.58-.26-.32,0,.53,.08,.37,.12,.69,0-.86,.05,.25,.13-.37,.01,.17,.02,.32,.02,.46l.06-.44v.02s0,0,0,0h0s-.02,.05-.01,0c0,0,0-.02,0-.02-.01,0-.03-.02-.04-.04,.03-.25,.03-.04,.04,.04,0,0,.01,0,.02,.01h0s-.04-.87-.04-.87c-.02,.18-.02,.41-.02,.82Z"/>
    <path class="cls-1" d="M2.32,157.63s.02-.02,.03-.03c-.01-.06-.02-.08-.03,.03Z"/>
    <path class="cls-1" d="M2.4,157.27c.01,.06,.05,.12,.04,.32-.04,.17-.05,0-.09,0,.02,.12,.06,.43,.13,.05v-.06c.04-.34,.19-.78,.2-.72-.1,.1-.17,.18-.28,.41Z"/>
    <path class="cls-1" d="M2.67,155.28l-.03-.72-.1,.36,.06-.02c-.03,.41,.04,.32,.08,.37Z"/>
    <polygon class="cls-1" points="3.09 151.37 3.2 151.47 3.05 151.05 3.09 151.37"/>
    <polygon class="cls-1" points="3.08 150.44 3.18 150.47 3.13 150.22 3.08 150.44"/>
    <path class="cls-1" d="M.38,97.98l-.03-.21c0,.1,.02,.16,.03,.21Z"/>
    <path class="cls-1" d="M.38,99.5l.05,.04c-.03-.07-.05-.1-.05-.04Z"/>
    <path class="cls-1" d="M2.33,127.58c.08-.31,.2-.66,.09-.62l-.1,.1c.03,.21,.03,.38,.01,.52Z"/>
    <path class="cls-1" d="M1.07,111.98l-.03,.09c.04,.07,.07,.14,.11,.2-.02-.09-.05-.19-.08-.3Z"/>
    <path class="cls-1" d="M.61,111.77l.06-.41c-.02,.09-.04,.22-.06,.41Z"/>
    <path class="cls-1" d="M.25,89.66l-.11-.25c0,.38,.06,.21,.11,.25Z"/>
    <path class="cls-1" d="M2.95,140.89c.03-.27,.05-.48,.05-.66-.05,.32-.14,.58-.05,.66Z"/>
    <path class="cls-1" d="M1.53,98.58c-.02-.13-.04-.18-.07-.18,.02,.13,.04,.21,.07,.18Z"/>
    <path class="cls-1" d="M2.97,139.46c0,.05-.01,.09-.02,.14,.02,.19,.04,.39,.04,.62,.04-.24,.06-.51-.02-.77Z"/>
    <path class="cls-1" d="M.27,59.51v-.07s0,.02,0,.07Z"/>
    <path class="cls-1" d="M1.35,50.72c0,.09,0,.23,0,.36,0-.06,0-.17,0-.36Z"/>
    <path class="cls-1" d="M3.14,146.68c0,.2,.01,.03,0,0h0Z"/>
    <path class="cls-1" d="M2.71,147.65s-.03-.07-.05-.08c.03,.02,.04,.04,.05,.08Z"/>
    <path class="cls-1" d="M2.23,137.52v-.02c-.02,.06-.02,.05,0,.02Z"/>
    <path class="cls-1" d="M3.09,146.98c.01-.07,.02-.16,.03-.25,0,.04-.02,.12-.03,.25Z"/>
    <path class="cls-1" d="M3.14,146.94c0,.07,0,.12,0,.17,.02,.02,.03,0,0-.17Z"/>
    <path class="cls-1" d="M3.13,146.41c0,.11,0,.22,0,.32,0-.04,.01-.06,.02-.04,0-.06,0-.14,0-.28Z"/>
    <path class="cls-1" d="M.6,75.66s0-.03,.01-.04c-.05-.2-.04-.11-.01,.04Z"/>
    <polygon class="cls-1" points=".93 122.5 .94 122.52 .94 122.5 .93 122.5"/>
    <path class="cls-1" d="M.82,121.8c.15,.3,.14,.47,.13,.7l.3-.25-.43-.45Z"/>
    <path class="cls-1" d="M.34,94.33l-.1,.5c-.16-.6-.11-1.03-.24-.57,.34,.07,.04,1.93,.38,2l-.07,.33c0-.09-.02-.11-.01-.2-.16,.64,.25,.47,.2,1.3-.03,.29-.07,.49-.11,.29l.09,.64c0,.19-.07,.14-.06-.04l.03,.97h-.01c.05,.13,.14,.45,.17,.6-.05,.25-.04-.12-.08-.06l.08,.54c-.09,.22-.17-.23-.16-.6-.34,.5,.09,.45-.11,1.53l-.05-.51c-.19,.33-.12,.73-.24,1.3,.06-.14,.3-1.15,.38-.57-.02,.16-.04,.38,.03,.7-.12,0-.09,.31-.08,.7l-.16-.03c.05,.42,.13,.38,.2,.63-.01,.46-.14,.56-.24,.67-.02,.74,.19-.52,.23,.37-.06,.62,.01,1.05,.11,1.79-.05,.43-.1-.07-.14,.08l.13,.38c0,.09-.04,.06-.06,.05,.05,.32,.16,.03,.21,.53,.18,.14-.25,1.05-.04,1.68-.04,.16-.1-.07-.16-.03,.14,.86,.11,.74,.29,1.45l-.09,.61c.11-.45,.26,.12,.39,.61,.06-.16,.1-.29,.13-.38l.1,.79c-.02,.1-.08,.02-.15-.11,.01,.05,.03,.1,.04,.14-.05,.28-.15,.14-.24-.06,.03-.09,.06-.19,.09-.29-.1-.19-.21-.38-.3-.33,.02,.05,.04,.15,.05,.26-.03-.05-.05-.08-.07-.06-.02,.03,.02,.11,.06,.24l-.17,.18,.07,.04-.09,1.04c.2,.74,.47,1.38,.58,2.55-.14-.29-.22-.06-.37-.07,.15-.33-.1-.91-.08-1.52,0,.32-.08,.25-.11,.17l.18,1.09c-.13-.02-.09,.23-.13,.52,.24-.22,.19,.81,.28,1.25-.08,.03-.17-.07-.17-.61-.17,.6,.32,.76,.18,1.35,0-.13,0-.2-.04-.25,.08,.31,.05,1.06-.03,.89v-.13c0,.88,.1,2.67,.32,2.79-.03,.01-.26-.1-.31-.15l.79,1.53c-.19-.13-.6,.42-.74-.3-.01,.21-.03,.47,.06,.9,.02-.14,.24-.37,.27-.17-.17,.54-.09,.37-.23,1.04,.03-.21,.33,0,.34,.35-.05-.05-.28,.04-.32-.08l.33,.82c-.06-.21-.24-.03-.31,.16,.05-.09,.03,.72,.07,.95l.05-.36c0,.95,.45,.92,.48,1.86-.06-.11-.37-.26-.38,.21,.16,.21,.74,.94,.9,1.76l-.07,.16,.13,.63c-.24-.39-.75-1.48-.96-2.08-.05,.36-.09,.1-.06,.63-.07,.19-.13-.28-.15-.44l.02,1.24c.17-.06,.22,.94,.36,.88l-.25-1.33c.16-.06,.52,.75,.54,1.63-.05,.23-.31-.15-.36-.13,.06,.11,.15,.83,.12,.91l-.11-.37c-.04,.49,.27,.78,.14,1.38,0,.2-.18,.61-.08,.64,.17-.34,.76-.43,.92-.21,0,.07-.13,1.07-.21,1.3-.13,.34-.38-.48-.5-.2,.05,.01,.11,.19,.14,.27-.03,.21-.15-.08-.1,.38,.17,.07,.04,.94,.16,.21,.07,.45,0,.48,.03,1.01,.1-.17,.4,.46,.47,.91-.04-.02-.1,.08-.12,.13,.02,.93-.04,1.42-.01,2.29-.04,.08-.08,.5-.15,.32,.03,.12,.1,.23,.11,.5-.13,.52-.04-.59-.21-.19,.1,.03,.16,.68,.23,1.06,.15-.12,0-.88-.07-1.25,.21,0,.46,.65,.57,1.55,.07,.72-.13,.31-.1,.44,0,1.35,.39,1.14,.26,2.26-.13,.45-.27,.02-.36,.12-.06-.58,.07-.9,.06-1.29l-.06,.49c-.05-.18-.09-.57-.05-.79-.11,.37,.02,2.27-.09,3.31,.05,.18,.1,.5,.15,.35l-.02-.33c.11-.3,.15,.62,.2,.2,.08,.44,.2,.94,.14,1.56l-.15,.12s.09-.41,.04-.58c.07,.26-.21,.95,0,1.24l.11-.44c.08,.44,.24,.99,.18,1.54,.15-.25-.02-.13,.16-.52-.22,.34,.02-1.41-.22-.87,.21-.4,.09-.7,.26-1.22-.05,.02-.1,.19-.07-.28-.01-.02-.03-.07-.04-.1,0-.01,0-.02,0-.03v.03s-.02-.02,0,0c-.02,.11-.05,.2-.08,.24-.11-.23-.12-.96-.18-1.21,.02-.27,.06,.11,.11-.04l-.09-.37c.11-.04,.18-.73,.25-.09v-.58c.06-.34,.07-.82,.02-1.11,.02-.28-.13-.69-.04-.45l-.09-.91h.03c0-.91-.23-1.86-.06-2.89-.04-.3-.09-.61-.07-1.12l.09-.1c-.05-.39,.05-1.17-.06-1.33,.24-.43-.04-1.89-.03-2.57l-.13-.02c-.02-.47-.08-.92-.16-1.5l-.11,.04c-.12-.5,.01-1.3-.04-2.09,.05,.05,.05,.25,.03,.4,.2-.96-.29-2-.15-2.87-.05-.21-.05-.37-.03-.52,0,.02,0,.04,0,.05,0-.02,0-.05,0-.09,.01-.1,.03-.2,.04-.3-.02,.09-.04,.18-.05,.25-.01-.17-.04-.42-.08-.66l.11-.11s0-.04,0-.06c.03-.24-.07-.19-.15-.06-.03-.12-.06-.24-.09-.32,.18-.2-.1-.64,.09-.92-.11-.16-.14-1.23-.36-1.36,.03,0,.04-.08,.05,.05,0-.28,.02-.55-.05-.79l.15-.12-.24-.59c.07-.37,.12-.52,.26-.17-.23-.86-.11-.71-.32-1.44l.1,.03c-.02-.26-.17-.68-.09-.85,.16-.6-.09-2.94,.05-4.46-.28,.3,.11-.71-.12-.77,.07-.09,.1-.3,.17-.06-.09-.78,.08-1.17-.12-1.7,.07-.09,.1,.16,.14,.08-.02-.06-.07-.25-.03-.33,.04-.08,.06,.11,.09,.23-.03-.79-.24-.87-.44-.92,.09-.4,.07-.61-.07-.89,.06-.14,.13-.38,.16,.12,0-.28,.07-1.7-.09-1.72,.04-.09,0-.39-.01-.46,0-.62,.01-.68,0-1.29l-.02,.17c-.2-.24-.05-.51-.08-1h.02c.13-1.12-.07-.47,.08-1.59l-.12,.06c-.26-.1,.14-.99,.04-1.64l-.07,.23c-.09-.35,.34-.99,.37-1.35,.02-.08,.04,.12,.05,.23,.15-.93-.16-.12-.2-.81,.08-.13,.22,.16,.23-.3,.07-.23-.28-1.35-.12-1.99-.06,.14-.13,.28-.18-.04-.03-.49,.24-1.34,.04-1.78,.02-.06,.03-.09,.05-.09-.05-.38-.09-1.23-.2-1.45,.41-.35-.21-2.35,.18-2.34l-.02-1.16,.04,.03c.02-.74-.07-1-.16-1.27,.03-.17,.06-.05,.08-.03,.07-1.08,.06-1.19-.13-2.1l.12-.09c-.07-.25,.19-1.57,.04-2.63,.01,.01,.04,.03,.06,.12-.15-1.2,.34-2.87-.11-3.3l-.11-.79c-.03,1.02-.2-.15-.27,.27-.03-.4,.13-1.04,.16-.55l-.02,.08c.24,.18,.08-1.27,.24-1.24-.02-2.01,.11-3.97,.12-5.85l-.18,.22v-.66c.05-.17,.15-.23,.15,.24,.1-.25-.09-.79-.13-.8,.07-.92,.21,.36,.22,.08v-.38s-.04,.09-.04,.09c-.08-.31-.15-.34-.15-.9,.04-.36,.11-.18,.12-.32,.01,0,.02-.05,0-.22v-.83s-.13,.33-.13,.33c-.07-.37,0-.78-.16-.4,.25-.56,.08-3.09,.16-3.43-.11-.51-.11-1.02-.09-1.65-.03,.16-.19,.25-.17-.29,.34,.2,.14-.99,.38-1.43-.16,.39-.04-1.54-.27-.93,.03-.45,.13-.03,.2-.37-.13-1.08,.08-2.37,.03-3.7-.04-.02-.11,.2-.18-.08l.22-.7c-.02-.26-.25-.24-.1-.72-.04,.07-.09,.17-.11,0,.21-2.61-.19-5.32,.21-7.97-.08,.36-.09,.12-.1-.15-.02,.18-.11,0-.17,.03l.16-1.11c-.17-.2-.01-1.19-.17-1.3l.03,.35c-.19-.47-.41,.65-.65,.59,.21,.52-.31,1.38,0,2.23-.05,.19-.08-.16-.13-.06,.1,.22,.13,.48,.08,.97l-.03-.05c.03,1.37-.07,1.95-.14,3.49l.12-.11c-.02,.33-.05,.4-.08,.55,.18,.38,0-.93,.21-.58-.24,.44,0,2.33-.27,2.62,0,.51,.14-.15,.14,.36l-.07,.13,.1,.13c-.02,.33-.11,.5-.17,.51,0-.08-.02-.23-.02-.32-.09,.43,.03,1.22,0,1.36l.04-.49c.07,1.38-.02,3.08,.13,4.41l.06-.1c.11,1.02-.06,.82,0,1.94v-.04c.04,.22,.07,.52,.07,.83-.07-.28-.13,.53-.2,.16,.11,1.11,.09,.55,.3,1.28l-.09,.17c.08,.25,.13,.27,.15,.83-.08-.46-.14,.36-.25-.16-.2,1.18,.21,1.74-.09,2.28,.26,.54,.14-1.02,.2-.72,.08-.25,.19,.45,.17,.81,0,.38-.33,.64-.32,1.58,0-.09-.02-.1-.02-.19-.06,.35,.09,.69-.02,1.13,.16,.24,0,.56,.19,.63l-.05-.87c.05,.49,.29,.95,.17,1.76-.04-.06-.09-.3-.12-.47-.06,.24,.04,.46-.02,.7-.2-.07-.05-1.05-.2-1.58-.08,.25,.15,1-.07,.73,.27,.38-.03,.93,.18,1.57l-.12-.04c.02,.1,.08,.31,.07,.5l-.15-.34c.13,.52-.11,1-.04,1.5,0-1.04,.14-.23,.23-.67,.16,1.28-.31,.74-.25,2.17-.02-.19,.07-.73,.13-.43-.02,.27-.07,.63-.13,.8,.03,.95,.12-.15,.2,.26-.14,.32,.06,.47,.11,.88h-.12c-.08,1.09,.25,.29,.16,1.27l-.17-.41,.04,.51-.14-.1c.1,.55,.08,.73,.04,1.27,.08-.13,.22,.07,.22,.55-.07,.33-.12-.18-.1,.5-.08-.15-.17-.32-.06-.62-.04-.03-.08-.15-.11-.18-.08,.35-.02,.89-.02,1.13,0-.09,.01-.21,.03-.27l.17,.99c-.04,.16-.08,.03-.12-.09,.01,.2,.07,.34,.08,.63-.1-.08-.2-.06-.25-.47l.11,.94c-.04,.06-.12,.48-.15,.36-.06,.52,.19,1.28,.12,1.97,.02,.04,.04,.11,.05,.25-.02,.65-.14,1.23,0,1.99l-.17,.44c.04,.6,.22-.59,.29,.41,.06,.71-.15,.27-.2,.52,.09,.35,.27,.97,.13,1.62-.03-.22,0-.39-.02-.59Zm.1,7.44c-.03-.14-.11-.43-.03-.54,.14,.16,.07,.29,.03,.54Zm.42,11.31c-.04-.11-.03-.27,.02-.46,.01,.14,.01,.29-.02,.46Zm2.16,31.44v-.02c.04-.32,.02-.21,0,.02Zm-.04,.67c.02,.07,.03,.06,.05,.03-.03-.05-.03-.2-.03-.37-.03,.05-.05,.13-.02,.33ZM1.4,73.56l-.03,.13c-.04-.29,0-.21,.03-.13Z"/>
    <path class="cls-1" d="M.67,111.8s.04-.05,.06-.06c-.02-.06-.04-.06-.06,.06Z"/>
    <path class="cls-1" d="M.27,89.71v-.02s-.01-.02-.02-.02l.02,.05Z"/>
    <path class="cls-1" d="M1.61,134.88c0-.14,.03-.22,.05-.27-.03,0-.05,.06-.05,.27Z"/>
    <path class="cls-1" d="M3.2,148.73l-.03-.43c0,.21-.02,.28-.04,.39,.03,0,.07-.09,.07,.04Z"/>
    <path class="cls-1" d="M2.41,152.44c.01,.06,0,.13,.01,.19l.06-.02c0-.27-.04-.45-.07-.18Z"/>
    <path class="cls-1" d="M2.79,149.13c-.1,.03-.07,.3-.05,.6v-.05c.14,.09,.1-.23,.05-.55Z"/>
    <path class="cls-1" d="M2.75,149.8c0,.09,0,.19,0,.28,.06,.04,.01-.11,0-.28Z"/>
    <path class="cls-1" d="M3.05,146.04c-.03,.14,.13,.09,.09,.17,.13,.16-.16-.95-.09-.17Z"/>
    <polygon class="cls-1" points="2.46 149.37 2.58 149.26 2.49 149.09 2.46 149.37"/>
    <path class="cls-1" d="M2.55,147l-.03,.48s.03,.05,.04,.13c0-.29,.03-.62,0-.61Z"/>
    <path class="cls-1" d="M2.56,147.61c0,.15,0,.3,.02,.39,0-.08,0-.26-.02-.39Z"/>
    <polygon class="cls-1" points="2.42 148.71 2.45 148.57 2.46 148.23 2.42 148.71"/>
    <path class="cls-1" d="M2.5,141.86l-.05-.52c-.04-.05-.07,.09-.05,.28,.03,.12,.05,.32,.09,.24Z"/>
    <path class="cls-1" d="M2.19,143.44c.02-.14,.05-.15,.09-.23h-.16s.06,.23,.06,.23Z"/>
    <path class="cls-1" d="M2.12,141.92c-.04-.05-.14-.75-.12-.09,.04,.05,.09,.57,.12,.09Z"/>
    <polygon class="cls-1" points="1.99 134.06 2 134.19 2.25 134.16 1.99 134.06"/>
    <path class="cls-1" d="M1.01,127.16c-.03,.62,.16,.14,.12,.7,.07,.14,.04-.46,.1-.31-.08-.37-.06-.57-.22-.39Z"/>
    <path class="cls-1" d="M1.23,127.55c.01,.06,.03,.12,.05,.19-.02-.11-.04-.16-.05-.19Z"/>
    <polygon class="cls-1" points="1.48 49.26 1.53 48.86 1.45 49.12 1.48 49.26"/>
    <path class="cls-1" d="M1.29,48.5l.16-.09-.15-.24c0,.09,.02,.26-.01,.33Z"/>
    <path class="cls-1" d="M.12,102.88l.04,.03c.04-.06,.04-.16,.05-.34l-.09,.31Z"/>
    <polygon class="cls-1" points=".22 97.48 .22 97.57 .36 97.4 .22 97.48"/>
    <path class="cls-1" d="M.02,92.95c0,.18,.03,.4,.02,.59-.03-.4,.16-.64-.02-.59Z"/>
  </g>
  <g>
    <path class="cls-1" d="M27.9,167.01c-.04,.17,.07,.13,.08,.16,.03-.3-.11-.16-.08-.16Z"/>
    <polygon class="cls-1" points="28.2 164.05 28.24 164.11 28.2 163.66 28.2 164.05"/>
    <path class="cls-1" d="M28.6,161.31c-.21,.24-.1,1-.24,1.48l-.05,.07,.11,.24c.07-.6,.08-1.38,.18-1.79Z"/>
    <path class="cls-1" d="M29.17,159.89c-.08,.08-.02-.32-.06,.34,.01-.03,.02-.04,.02-.06,0-.06,.02-.14,.04-.28Z"/>
    <path class="cls-1" d="M29.13,160.17c-.03,.29,.08-.18,0,0h0Z"/>
    <path class="cls-1" d="M29.24,158.83l.02,.39c.05-.08,.09-.42,.11-.29,0-.4-.04-.32-.13-.1Z"/>
    <path class="cls-1" d="M29.15,158.45v.2s.04-.08,0-.2Z"/>
    <path class="cls-1" d="M29.16,159.08v-.43c-.05,.05-.1,.05-.01,.19-.05-.04,0,.05,.01,.23Z"/>
    <path class="cls-1" d="M29.11,159.32c-.06,.21-.12,.48-.14,.09-.06,.73,.08,.64,.14-.09Z"/>
    <path class="cls-1" d="M28.44,161.15l-.09,.28,.03,.25c-.01-.13,.12-.54,.06-.53Z"/>
    <path class="cls-1" d="M29.55,156.45s-.11,.12-.16,.15l.02,.29c.04-.14,.09-.42,.14-.43Z"/>
    <path class="cls-1" d="M29.39,156.6l-.03-.43c-.04,.38-.01,.45,.03,.43Z"/>
    <polygon class="cls-1" points="28.96 158.37 29.02 159.07 28.97 158.23 28.96 158.37"/>
    <polygon class="cls-1" points="29.68 154.83 29.75 155.08 29.65 154.64 29.68 154.83"/>
    <path class="cls-1" d="M29.73,153.76c.06,.18,.14-.24,.17-.05,0-.29-.04-.55-.09-.77,.02,.24,0,.49-.08,.82Z"/>
    <path class="cls-1" d="M29.75,152.56c.01,.12,.04,.24,.06,.38-.01-.13-.03-.25-.06-.38Z"/>
    <path class="cls-1" d="M29.43,155.45s.09-.09,.13-.33l-.12,.16c0,.05,0,.11-.01,.17Z"/>
    <path class="cls-1" d="M29.44,155.29h0c.02-.19,.03-.31,.03-.36,0,.05-.02,.16-.04,.36Z"/>
    <path class="cls-1" d="M29.43,155.49v-.04s-.01,.02,0,.04Z"/>
    <path class="cls-1" d="M29.16,157.27c-.04-.25-.06-.78-.19-.28,.06,.18,.13-.1,.19,.28Z"/>
    <path class="cls-1" d="M29.28,155.69l-.06,.45s.08-.08,.1,.04l-.04-.49Z"/>
    <polygon class="cls-1" points="29.26 155.46 29.28 155.69 29.3 155.52 29.26 155.46"/>
    <path class="cls-1" d="M29.61,153.32c-.03-.2-.03-.41-.02-.65-.03,.26-.06,.52-.07,.77,.03,.04,.08,.15,.1-.12Z"/>
    <path class="cls-1" d="M29.52,154.28v-.04s-.02,.05,0,.04Z"/>
    <polygon class="cls-1" points="29.69 150.31 29.67 150.35 29.69 150.36 29.69 150.31"/>
    <path class="cls-1" d="M29.49,153.49c-.03,.19-.01,.31,.01,.42,0-.15,0-.3,0-.46-.01-.02-.02-.02-.02,.04Z"/>
    <path class="cls-1" d="M29.73,151.89c-.03,.1-.05,.21-.08,.33,.04-.1,.1-.3,.08-.33Z"/>
    <path class="cls-1" d="M29.55,154.17v.03c.03-.06,.02-.05,0-.03Z"/>
    <path class="cls-1" d="M29.55,154.17c0-.1-.03-.18-.05-.26,0,.12,0,.23,.02,.32,0-.02,.02-.05,.03-.06Z"/>
    <path class="cls-1" d="M29.03,149.57c.1,.04,.17,.55,.05,.98,.06,.43,.39,.17,.59-.21-.04-.01-.08-.02-.12-.46-.06,.15-.16,.98-.24,.6-.03-.59,.05-.48,.12-.76-.13,.24-.16-.75-.34-.63l.05,.52s-.07-.18-.1-.04Z"/>
    <path class="cls-1" d="M29.63,151.19v.18c.03-.21,.08-.36,.16-.63-.04-.31-.07-.37-.1-.39l-.05,.9v-.06Z"/>
    <path class="cls-1" d="M29.6,152.2c-.1-.15-.12-.59-.25-.33-.02,.54,.07,.38,.1,.7,.02-.87,.05,.25,.14-.37,0,.17,0,.32,0,.47l.07-.45v.02s0,0,0,0h0s-.02,.05-.01,0c0,0,0-.02,0-.02-.01,0-.03-.02-.04-.04,.03-.25,.03-.04,.04,.04,0,0,0,.01,.02,.01h0s-.02-.87-.02-.87c-.02,.18-.03,.41-.04,.82Z"/>
    <path class="cls-1" d="M28.78,156.5s.02-.02,.03-.03c0-.06-.02-.08-.03,.03Z"/>
    <path class="cls-1" d="M28.87,156.15c.01,.06,.05,.12,.02,.32-.05,.17-.05,0-.09,0,.02,.13,.04,.44,.13,.06v-.06c.06-.34,.22-.78,.23-.72-.1,.09-.18,.18-.29,.4Z"/>
    <path class="cls-1" d="M29.22,154.15v-.72s-.12,.36-.12,.36l.06-.02c-.05,.41,.03,.32,.07,.38Z"/>
    <polygon class="cls-1" points="29.75 150.23 29.86 150.33 29.71 149.9 29.75 150.23"/>
    <polygon class="cls-1" points="29.77 149.29 29.86 149.33 29.81 149.08 29.77 149.29"/>
    <path class="cls-1" d="M27.25,96.5l-.04-.21c.01,.1,.03,.16,.04,.21Z"/>
    <path class="cls-1" d="M27.33,98.03l.05,.03c-.03-.07-.05-.1-.05-.03Z"/>
    <path class="cls-1" d="M29.71,126.26c.08-.31,.22-.66,.11-.62l-.11,.1c.02,.22,.02,.38,0,.52Z"/>
    <path class="cls-1" d="M28.52,110.54l-.03,.09c.04,.07,.08,.14,.11,.2-.03-.09-.05-.19-.08-.3Z"/>
    <path class="cls-1" d="M28.06,110.34l.05-.41c-.02,.09-.04,.22-.05,.41Z"/>
    <path class="cls-1" d="M26.66,88.15l-.12-.24c.02,.39,.07,.21,.12,.24Z"/>
    <path class="cls-1" d="M29.84,139.68c.04-.27,.06-.48,.07-.66-.06,.32-.16,.58-.07,.66Z"/>
    <path class="cls-1" d="M28.43,97.04c-.03-.13-.05-.18-.08-.18,.03,.13,.05,.21,.08,.18Z"/>
    <path class="cls-1" d="M29.91,138.25c0,.05-.02,.09-.03,.14,.02,.19,.03,.39,.03,.63,.05-.24,.08-.51,0-.77Z"/>
    <path class="cls-1" d="M24.93,57.84v-.07s0,.02,0,.07Z"/>
    <path class="cls-1" d="M25.49,48.95c0,.09,.02,.23,.03,.36,0-.07,0-.17-.03-.36Z"/>
    <path class="cls-1" d="M29.9,145.51c0,.2,.01,.03,0,0h0Z"/>
    <path class="cls-1" d="M29.45,146.47s-.03-.07-.05-.08c.03,.02,.04,.04,.05,.08Z"/>
    <path class="cls-1" d="M29.22,136.27v-.02c-.02,.06-.02,.05,0,.02Z"/>
    <path class="cls-1" d="M29.84,145.81c.01-.07,.03-.16,.04-.25,0,.04-.02,.12-.04,.25Z"/>
    <path class="cls-1" d="M29.9,145.77c0,.07,0,.12-.01,.17,.02,.03,.03,0,.01-.17Z"/>
    <path class="cls-1" d="M29.9,145.24c0,.11,0,.22-.02,.32,0-.04,.01-.06,.02-.04,0-.06,0-.14,0-.28Z"/>
    <path class="cls-1" d="M26.2,74.06s0-.03,0-.04c-.06-.2-.04-.11,0,.04Z"/>
    <polygon class="cls-1" points="28.44 121.13 28.45 121.15 28.45 121.12 28.44 121.13"/>
    <path class="cls-1" d="M28.34,120.42c.14,.3,.13,.47,.11,.7l.3-.25-.42-.46Z"/>
    <path class="cls-1" d="M27.01,92.84l-.07,.51c-.19-.59-.16-1.03-.27-.56,.34,.05,.15,1.94,.49,1.99l-.05,.33c0-.09-.02-.11-.02-.2-.13,.65,.27,.46,.27,1.29-.01,.29-.05,.49-.1,.3l.12,.64c0,.19-.06,.14-.06-.04l.08,.98h-.01c.06,.13,.16,.44,.2,.59-.04,.25-.04-.12-.08-.06l.11,.54c-.08,.23-.19-.22-.19-.59-.31,.52,.11,.44-.03,1.55l-.07-.51c-.18,.34-.08,.74-.17,1.32,.06-.14,.24-1.17,.36-.59-.02,.17-.02,.39,.07,.7-.12,0-.07,.32-.05,.7l-.16-.02c.07,.42,.15,.38,.23,.62,0,.47-.11,.57-.21,.69,.01,.75,.17-.53,.25,.36-.03,.62,.06,1.06,.19,1.8-.03,.44-.1-.07-.14,.09l.15,.38c0,.09-.04,.07-.06,.05,.07,.32,.16,.02,.23,.53,.18,.13-.21,1.06,.02,1.68-.04,.16-.1-.07-.16-.02,.17,.86,.13,.74,.34,1.44l-.08,.61c.1-.45,.27,.11,.41,.61,.05-.16,.1-.3,.12-.39l.12,.79c-.02,.1-.08,.02-.15-.11,.02,.05,.03,.1,.04,.14-.05,.29-.15,.14-.24-.06,.03-.1,.06-.19,.09-.29-.11-.19-.22-.37-.31-.33,.02,.05,.04,.15,.05,.26-.03-.05-.05-.08-.07-.06-.02,.03,.02,.11,.07,.24l-.17,.19,.07,.04-.07,1.05c.21,.74,.5,1.38,.62,2.56-.14-.29-.22-.05-.37-.06,.15-.33-.11-.91-.1-1.53,0,.32-.08,.25-.11,.17l.19,1.09c-.13-.02-.09,.24-.13,.52,.24-.23,.2,.81,.29,1.25-.08,.03-.17-.07-.17-.62-.17,.61,.32,.76,.18,1.36,0-.13,0-.2-.04-.26,.09,.31,.06,1.07-.02,.89v-.13c0,.88,.08,2.68,.3,2.81-.03,0-.26-.11-.3-.16l.77,1.55c-.19-.13-.6,.41-.73-.32-.02,.21-.04,.47,.04,.91,.02-.14,.25-.36,.28-.17-.19,.54-.1,.38-.25,1.04,.03-.22,.33,.01,.33,.35-.04-.05-.28,.04-.31-.09l.3,.84c-.06-.21-.24-.03-.31,.16,.05-.09,.01,.73,.05,.95l.06-.36c-.02,.95,.42,.93,.43,1.88-.06-.11-.36-.27-.39,.21,.15,.22,.71,.96,.84,1.8l-.08,.16,.11,.64c-.22-.4-.7-1.51-.89-2.12-.06,.36-.09,.1-.08,.64-.07,.19-.12-.29-.13-.45l-.02,1.24c.17-.06,.19,.95,.33,.9l-.2-1.35c.17-.06,.49,.77,.48,1.65-.06,.23-.3-.16-.36-.14,.06,.11,.13,.83,.08,.92l-.1-.37c-.06,.49,.23,.8,.08,1.39,0,.2-.21,.61-.11,.64,.19-.33,.78-.41,.93-.19-.01,.07-.17,1.07-.26,1.31-.15,.34-.37-.5-.49-.21,.05,.01,.11,.2,.12,.27-.04,.21-.14-.09-.12,.38,.17,.08,0,.94,.15,.22,.05,.45-.03,.48-.02,1.02,.11-.17,.38,.48,.43,.93-.04-.03-.1,.08-.12,.13-.01,.93-.08,1.43-.08,2.3-.04,.08-.09,.5-.16,.32,.03,.12,.09,.24,.09,.51-.15,.52-.02-.6-.2-.2,.1,.03,.14,.69,.2,1.07,.15-.12,.03-.88-.03-1.26,.21,0,.43,.66,.53,1.57,.05,.72-.14,.31-.11,.44-.04,1.36,.37,1.16,.21,2.28-.14,.45-.27,.02-.37,.12-.05-.59,.09-.9,.09-1.3l-.07,.49c-.04-.19-.07-.58-.04-.79-.12,.37-.04,2.29-.16,3.33,.04,.19,.08,.51,.14,.36v-.33c.1-.3,.13,.62,.18,.21,.07,.45,.18,.95,.11,1.57l-.16,.11s.1-.41,.06-.58c.07,.26-.23,.95-.03,1.24l.12-.44c.07,.45,.22,1,.15,1.56,.16-.25-.01-.13,.17-.52-.23,.34,.04-1.42-.2-.88,.22-.4,.1-.7,.29-1.22-.05,.02-.1,.19-.07-.28-.01-.02-.03-.07-.04-.1,0-.01,0-.02,0-.03v.03s-.02-.02,0,0c-.02,.11-.05,.2-.08,.24-.11-.23-.1-.97-.15-1.22,.03-.28,.06,.12,.11-.03l-.09-.37c.11-.04,.19-.73,.25-.08v-.59c.08-.34,.1-.82,.06-1.11,.03-.28-.12-.7-.03-.46l-.07-.92h.03c.01-.91-.18-1.87,.02-2.91-.03-.3-.07-.62-.04-1.13l.1-.1c-.04-.39,.09-1.18-.01-1.34,.26-.42,.05-1.9,.08-2.59l-.13-.02c0-.47-.04-.93-.1-1.52l-.11,.04c-.1-.51,.07-1.3,.03-2.11,.04,.05,.04,.26,.01,.4,.23-.96-.23-2.02-.06-2.89-.05-.22-.03-.37,0-.53,0,.02,0,.04,0,.05,0-.02,0-.06,0-.09,.02-.1,.04-.2,.05-.3-.03,.09-.05,.18-.05,.25,0-.17-.03-.42-.06-.67l.12-.11s0-.04,0-.06c.04-.24-.06-.19-.15-.06-.02-.12-.05-.24-.08-.33,.19-.2-.08-.65,.12-.92-.11-.16-.11-1.25-.33-1.37,.03,0,.04-.08,.04,.05,.02-.28,.03-.55-.03-.8l.15-.12-.23-.6c.08-.37,.13-.52,.26-.16-.21-.87-.09-.71-.29-1.45l.1,.03c-.01-.27-.16-.69-.08-.85,.17-.6-.08-2.96,.04-4.5-.28,.31,.1-.72-.13-.77,.07-.09,.1-.31,.17-.06-.1-.78,.06-1.18-.15-1.71,.07-.09,.11,.16,.15,.08-.02-.06-.07-.25-.03-.33,.04-.08,.06,.11,.1,.24-.05-.8-.26-.87-.46-.92,.08-.41,.06-.61-.09-.9,.06-.14,.12-.38,.16,.11,0-.28,.02-1.71-.14-1.73,.04-.09,0-.39-.03-.46-.02-.63,0-.68-.05-1.3l-.02,.17c-.2-.23-.07-.51-.11-1.01h.02c.08-1.13-.09-.48,.01-1.61l-.12,.07c-.26-.09,.1-1-.03-1.65l-.06,.24c-.11-.35,.3-1.01,.31-1.37,.02-.08,.04,.12,.06,.23,.1-.94-.16-.11-.24-.81,.08-.13,.22,.15,.21-.32,.06-.24-.35-1.35-.22-2-.06,.14-.12,.29-.18-.03-.05-.5,.17-1.36-.06-1.79,.01-.06,.03-.09,.05-.09-.07-.38-.16-1.23-.28-1.45,.4-.37-.33-2.35,.05-2.36l-.09-1.17,.04,.03c-.02-.75-.12-1.01-.23-1.26,.02-.17,.06-.05,.08-.04,.01-1.09,0-1.2-.25-2.1l.12-.1c-.09-.24,.1-1.59-.11-2.65,.01,0,.04,.03,.06,.11-.22-1.19,.17-2.9-.31-3.31l-.16-.79c.03,1.03-.2-.14-.25,.29-.05-.4,.07-1.05,.13-.56l-.02,.08c.25,.17,0-1.28,.17-1.26-.13-2.02-.12-4-.23-5.89l-.17,.23-.03-.66c.03-.18,.13-.24,.15,.23,.09-.25-.13-.78-.17-.8,.02-.93,.23,.35,.22,.06l-.04-.38-.02,.09c-.09-.31-.17-.33-.2-.9,.01-.36,.1-.19,.1-.33,.01,0,.02-.05,0-.22l-.03-.83-.12,.34c-.09-.36-.04-.78-.18-.39,.22-.58-.1-3.11-.04-3.46-.14-.51-.17-1.02-.19-1.65-.02,.16-.18,.26-.19-.28,.35,.18,.09-1.01,.3-1.46-.14,.4-.13-1.55-.32-.91,0-.46,.12-.04,.18-.38-.19-1.07-.06-2.39-.18-3.72-.05-.02-.1,.21-.18-.07l.18-.72c-.04-.26-.27-.23-.14-.72-.03,.07-.08,.18-.11,0,.06-2.63-.5-5.34-.26-8.02-.06,.37-.09,.13-.11-.15,0,.18-.11,0-.17,.04l.1-1.12c-.18-.19-.08-1.19-.25-1.3l.05,.35c-.21-.46-.37,.68-.62,.63,.24,.51-.23,1.4,.12,2.25-.04,.19-.09-.16-.14-.05,.12,.21,.15,.47,.14,.97l-.03-.05c.11,1.37,.04,1.97,.07,3.51l.11-.12c0,.33-.03,.4-.05,.56,.2,.37-.05-.93,.17-.6-.21,.45,.14,2.34-.12,2.65,.03,.51,.13-.16,.16,.35l-.07,.14,.1,.12c0,.34-.08,.51-.14,.53,0-.08-.03-.23-.04-.32-.06,.44,.1,1.22,.08,1.37l.02-.49c.15,1.39,.16,3.09,.39,4.43l.05-.11c.17,1.02-.01,.83,.1,1.95l-.02-.04c.07,.22,.12,.52,.13,.83-.08-.28-.09,.54-.19,.17,.18,1.11,.12,.55,.37,1.27l-.08,.18c.1,.25,.14,.26,.2,.83-.11-.46-.12,.37-.26-.14-.13,1.19,.31,1.74,.05,2.3,.29,.53,.08-1.03,.15-.73,.07-.26,.22,.44,.22,.81,.02,.38-.29,.66-.23,1.61,0-.09-.02-.1-.03-.19-.04,.36,.13,.69,.05,1.13,.17,.23,.03,.57,.23,.62l-.1-.87c.08,.49,.34,.94,.28,1.76-.04-.06-.11-.3-.15-.46-.04,.24,.07,.46,.02,.71-.2-.06-.11-1.06-.29-1.58-.07,.26,.2,.99-.03,.74,.3,.37,.02,.94,.27,1.57l-.12-.04c.02,.1,.09,.31,.1,.5l-.17-.33c.16,.51-.05,1.01,.05,1.5-.07-1.04,.13-.24,.19-.69,.24,1.28-.27,.76-.12,2.2-.03-.19,.03-.74,.1-.44,0,.28-.03,.64-.08,.81,.08,.95,.11-.15,.21,.25-.12,.33,.09,.47,.16,.88h-.12c-.01,1.1,.27,.28,.23,1.27l-.19-.4,.07,.51-.14-.1c.14,.55,.12,.72,.11,1.27,.08-.13,.22,.06,.26,.54-.05,.33-.13-.18-.07,.51-.08-.15-.19-.31-.1-.62-.04-.03-.08-.15-.13-.18-.06,.36,.03,.89,.05,1.14,0-.1,0-.21,.01-.27l.23,.98c-.04,.16-.08,.04-.12-.08,.03,.2,.09,.34,.12,.63-.1-.07-.2-.05-.27-.46l.16,.94c-.04,.07-.09,.49-.13,.37-.03,.53,.27,1.27,.23,1.97,.02,.03,.04,.11,.07,.25,.02,.65-.07,1.24,.11,2l-.15,.45c.07,.6,.19-.61,.31,.4,.1,.71-.13,.28-.17,.53,.11,.35,.32,.96,.22,1.62-.05-.22-.03-.39-.05-.59Zm.49,7.47c-.03-.14-.13-.43-.06-.54,.15,.16,.09,.29,.06,.54Zm.83,11.35c-.04-.11-.03-.27,0-.46,.02,.14,.02,.29,0,.46Zm1.49,31.68v-.02c.04-.32,.02-.21,0,.02Zm-.06,.67c.02,.07,.03,.06,.05,.03-.03-.05-.03-.2-.02-.37-.03,.05-.05,.13-.03,.34Zm-2.89-72.11l-.02,.13c-.05-.29-.02-.21,.02-.13Z"/>
    <path class="cls-1" d="M28.12,110.37s.04-.05,.06-.06c-.02-.06-.05-.06-.06,.06Z"/>
    <path class="cls-1" d="M26.68,88.19v-.02s-.02-.02-.02-.02l.02,.04Z"/>
    <path class="cls-1" d="M28.72,133.6c.02-.14,.04-.22,.06-.27-.03,0-.05,.06-.06,.27Z"/>
    <path class="cls-1" d="M29.91,147.57l-.02-.43c0,.21-.03,.28-.05,.39,.03,0,.07-.09,.07,.04Z"/>
    <path class="cls-1" d="M29.05,151.29c.01,.06,0,.13,0,.2h.06c0-.28-.03-.47-.07-.2Z"/>
    <path class="cls-1" d="M29.51,147.96c-.1,.03-.07,.3-.06,.6v-.05c.14,.09,.1-.23,.06-.55Z"/>
    <path class="cls-1" d="M29.44,148.64c0,.09,0,.19,0,.28,.06,.04,.02-.11,0-.28Z"/>
    <path class="cls-1" d="M29.82,144.86c-.03,.14,.13,.09,.09,.17,.13,.16-.15-.96-.09-.17Z"/>
    <polygon class="cls-1" points="29.17 148.2 29.29 148.1 29.2 147.92 29.17 148.2"/>
    <path class="cls-1" d="M29.31,145.82l-.04,.48s.03,.05,.04,.13c0-.3,.04-.62,0-.61Z"/>
    <path class="cls-1" d="M29.3,146.43c0,.15,0,.3,.01,.39,0-.08,0-.26-.01-.39Z"/>
    <polygon class="cls-1" points="29.14 147.54 29.17 147.4 29.19 147.06 29.14 147.54"/>
    <path class="cls-1" d="M29.37,140.64l-.04-.53c-.04-.05-.07,.09-.05,.29,.03,.13,.05,.32,.09,.24Z"/>
    <path class="cls-1" d="M29.02,142.23c.03-.14,.05-.15,.1-.23l-.16-.02,.06,.25Z"/>
    <path class="cls-1" d="M28.99,140.7c-.04-.05-.12-.76-.11-.1,.04,.05,.08,.58,.11,.1Z"/>
    <polygon class="cls-1" points="29.14 132.78 29.14 132.91 29.4 132.89 29.14 132.78"/>
    <path class="cls-1" d="M28.4,125.82c-.04,.62,.16,.14,.1,.71,.06,.14,.05-.46,.11-.31-.07-.37-.04-.57-.21-.4Z"/>
    <path class="cls-1" d="M28.6,126.21c.01,.06,.03,.12,.04,.19-.02-.11-.03-.16-.04-.19Z"/>
    <polygon class="cls-1" points="25.54 47.47 25.57 47.07 25.5 47.33 25.54 47.47"/>
    <path class="cls-1" d="M25.3,46.72l.16-.1-.16-.23c.01,.09,.04,.26,0,.34Z"/>
    <path class="cls-1" d="M27.23,101.43l.04,.03c.04-.06,.04-.16,.03-.35l-.07,.32Z"/>
    <polygon class="cls-1" points="27.06 96 27.07 96.1 27.2 95.91 27.06 96"/>
    <path class="cls-1" d="M26.62,91.46c0,.19,.05,.4,.05,.59-.05-.4,.13-.65-.05-.59Z"/>
  </g>
  <g>
    <path class="cls-1" d="M48.89,186.38c0,.22,.1,.14,.11,.17-.02-.36-.14-.16-.11-.17Z"/>
    <polygon class="cls-1" points="48.66 182.79 48.7 182.85 48.59 182.33 48.66 182.79"/>
    <path class="cls-1" d="M48.66,179.43c-.18,.32,.03,1.22-.03,1.81l-.04,.1,.14,.27c-.02-.73-.12-1.67-.07-2.18Z"/>
    <path class="cls-1" d="M49.04,177.64c-.07,.11-.06-.39-.02,.42,0-.04,.01-.05,.02-.08,0-.07,0-.17,0-.34Z"/>
    <path class="cls-1" d="M49.04,177.99c0,.35,.06-.23,0,0h0Z"/>
    <path class="cls-1" d="M49,176.35l.06,.47c.04-.1,.05-.51,.08-.36-.03-.48-.07-.38-.14-.11Z"/>
    <path class="cls-1" d="M48.87,175.91l.03,.24s.02-.11-.03-.24Z"/>
    <path class="cls-1" d="M48.95,176.66l-.06-.51c-.03,.07-.09,.07,.02,.23-.05-.04,0,.06,.04,.28Z"/>
    <path class="cls-1" d="M48.92,176.95c-.04,.26-.06,.6-.12,.13,.02,.89,.15,.76,.12-.13Z"/>
    <path class="cls-1" d="M48.47,179.26l-.05,.35,.06,.3c-.03-.15,.05-.67,0-.65Z"/>
    <path class="cls-1" d="M49.09,173.45s-.1,.16-.15,.19l.04,.34c.03-.18,.05-.51,.11-.54Z"/>
    <path class="cls-1" d="M48.94,173.64l-.07-.51c0,.46,.02,.54,.07,.51Z"/>
    <polygon class="cls-1" points="48.67 175.83 48.81 176.67 48.67 175.67 48.67 175.83"/>
    <polygon class="cls-1" points="49.1 171.49 49.18 171.78 49.05 171.26 49.1 171.49"/>
    <path class="cls-1" d="M49.08,170.18c.07,.22,.12-.3,.17-.07-.01-.35-.08-.66-.13-.93,.03,.29,.02,.6-.04,1Z"/>
    <path class="cls-1" d="M49.04,168.73c.02,.14,.05,.29,.08,.46-.02-.15-.04-.3-.08-.46Z"/>
    <path class="cls-1" d="M48.9,172.25s.08-.12,.11-.41l-.11,.2c0,.06,0,.13,0,.2Z"/>
    <path class="cls-1" d="M48.89,172.06h0c0-.23,0-.38,0-.44,0,.06,0,.19,0,.44Z"/>
    <path class="cls-1" d="M48.9,172.3s0-.03,0-.05c-.01,.02-.01,.03,0,.05Z"/>
    <path class="cls-1" d="M48.77,174.48c-.06-.3-.12-.93-.21-.32,.07,.22,.12-.13,.21,.32Z"/>
    <path class="cls-1" d="M48.76,172.55l-.02,.55s.07-.11,.1,.04l-.07-.59Z"/>
    <polygon class="cls-1" points="48.73 172.29 48.76 172.55 48.77 172.35 48.73 172.29"/>
    <path class="cls-1" d="M48.94,169.67c-.05-.24-.05-.49-.06-.79-.02,.31-.03,.64-.03,.94,.03,.04,.09,.18,.09-.16Z"/>
    <path class="cls-1" d="M48.91,170.83s0-.04,0-.05c0,.03-.01,.06,0,.05Z"/>
    <path class="cls-1" d="M48.88,166.01s-.01,.03-.02,.05c0,0,.01,0,.02,.01v-.06Z"/>
    <path class="cls-1" d="M48.83,169.88c-.02,.24,0,.38,.04,.51-.01-.18-.02-.36-.02-.56-.02-.02-.03-.02-.02,.05Z"/>
    <path class="cls-1" d="M48.99,167.93c-.02,.12-.04,.26-.06,.41,.03-.12,.09-.36,.06-.41Z"/>
    <path class="cls-1" d="M48.93,170.7s0,.02,0,.04c.02-.08,.01-.07,0-.04Z"/>
    <path class="cls-1" d="M48.93,170.7c-.02-.12-.04-.22-.07-.31,0,.14,.02,.28,.04,.39,0-.03,.02-.06,.03-.08Z"/>
    <path class="cls-1" d="M48.19,165.14c.1,.04,.19,.66,.08,1.19,.07,.52,.4,.18,.58-.28-.04-.02-.08-.02-.14-.56-.05,.19-.13,1.2-.22,.74-.05-.72,.04-.59,.09-.93-.12,.3-.18-.91-.36-.75l.06,.63s-.07-.22-.1-.04Z"/>
    <path class="cls-1" d="M48.85,167.08v.22c.03-.25,.07-.43,.15-.77-.05-.37-.09-.45-.12-.47v1.09s-.03-.08-.03-.08Z"/>
    <path class="cls-1" d="M48.86,168.3c-.11-.17-.15-.71-.27-.38,0,.65,.09,.46,.14,.85-.03-1.05,.06,.3,.12-.46,.02,.21,.02,.39,.03,.57,.01-.19,.03-.37,.05-.54,0,0,0,.02,0,.02h0s0,0,0,0c-.01,.05-.02,.06-.01,0,0,0,0-.02,0-.02-.01,0-.03-.03-.04-.05,.02-.3,.03-.05,.04,.05,0,0,.01,.01,.02,.01,0,0,0,0,0,0l-.06-1.05c-.01,.22-.01,.5,0,1Z"/>
    <path class="cls-1" d="M48.32,173.59s.02-.03,.03-.03c-.01-.07-.02-.09-.03,.03Z"/>
    <path class="cls-1" d="M48.39,173.16c.02,.08,.06,.14,.05,.39-.03,.22-.05,0-.09,.01,.03,.15,.08,.53,.13,.05v-.07c.02-.42,.16-.97,.17-.9-.1,.12-.17,.23-.26,.52Z"/>
    <path class="cls-1" d="M48.6,170.7l-.05-.88-.09,.45,.06-.02c-.02,.5,.05,.39,.09,.45Z"/>
    <polygon class="cls-1" points="48.93 165.91 49.05 166.02 48.89 165.52 48.93 165.91"/>
    <polygon class="cls-1" points="48.92 164.77 49.02 164.81 48.96 164.51 48.92 164.77"/>
    <path class="cls-1" d="M47.69,100.37l-.03-.26c0,.12,.02,.2,.03,.26Z"/>
    <path class="cls-1" d="M47.68,102.24l.05,.05c-.03-.09-.05-.12-.05-.05Z"/>
    <path class="cls-1" d="M48.91,136.74c.09-.38,.24-.8,.12-.75l-.11,.12c.02,.26,0,.46-.02,.63Z"/>
    <path class="cls-1" d="M48.26,117.55s-.02,.07-.03,.11c.04,.09,.07,.18,.1,.25-.02-.11-.05-.23-.07-.36Z"/>
    <path class="cls-1" d="M47.81,117.28l.07-.5c-.02,.11-.05,.27-.07,.5Z"/>
    <path class="cls-1" d="M47.58,90.17l-.11-.3c0,.47,.06,.26,.11,.3Z"/>
    <path class="cls-1" d="M48.88,153.08c.04-.32,.06-.58,.07-.81-.06,.39-.16,.71-.07,.81Z"/>
    <path class="cls-1" d="M48.84,101.11c-.02-.16-.04-.23-.07-.22,.02,.16,.04,.25,.07,.22Z"/>
    <path class="cls-1" d="M48.94,151.33c-.01,.06-.02,.11-.03,.17,.02,.24,.03,.48,.03,.77,.05-.29,.07-.62,0-.94Z"/>
    <path class="cls-1" d="M47.67,53.17s0-.06,.01-.08c-.01,0-.02,.03-.01,.08Z"/>
    <path class="cls-1" d="M48.76,42.4c0,.11,0,.28,0,.44,0-.08,0-.21,0-.44Z"/>
    <path class="cls-1" d="M48.97,160.17c0,.24,.01,.04,0,0h0Z"/>
    <path class="cls-1" d="M48.54,161.35c-.01-.05-.03-.09-.05-.1,.03,.02,.04,.05,.05,.1Z"/>
    <path class="cls-1" d="M48.27,148.92s0-.01,0-.02c-.02,.07-.02,.06,0,.02Z"/>
    <path class="cls-1" d="M48.92,160.54c.01-.09,.02-.2,.03-.31,0,.05-.02,.14-.03,.31Z"/>
    <path class="cls-1" d="M48.97,160.49c0,.08,0,.15-.01,.21,.02,.03,.03,0,.01-.21Z"/>
    <path class="cls-1" d="M48.96,159.84c0,.14,0,.27-.01,.39,0-.05,.01-.07,.02-.05,0-.07,0-.17,0-.34Z"/>
    <path class="cls-1" d="M47.96,73s0-.03,.01-.05c-.05-.24-.04-.14-.01,.05Z"/>
    <path class="cls-1" d="M47.78,130.44s0,.02,0,.03c0-.01,0-.03,0-.04h0Z"/>
    <path class="cls-1" d="M47.7,129.57c.14,.37,.12,.58,.09,.86l.31-.29-.4-.57Z"/>
    <path class="cls-1" d="M47.66,95.9l-.1,.61c-.16-.74-.11-1.27-.24-.7,.34,.09,.03,2.37,.37,2.46l-.07,.4c0-.12-.02-.13-.01-.25-.16,.78,.25,.58,.2,1.59-.03,.35-.08,.6-.12,.36l.08,.78c0,.23-.07,.17-.06-.05l.03,1.19h0c.05,.16,.14,.55,.17,.74-.05,.3-.04-.15-.08-.07l.08,.66c-.09,.27-.17-.28-.16-.74-.34,.62,.09,.55-.11,1.88l-.04-.62c-.19,.4-.12,.89-.24,1.6,.06-.17,.3-1.41,.39-.7-.03,.2-.04,.47,.03,.86-.12,0-.09,.38-.08,.85l-.16-.03c.05,.51,.13,.47,.2,.77-.02,.57-.14,.69-.24,.82-.03,.91,.2-.63,.23,.45-.06,.76,0,1.29,.1,2.2-.06,.53-.1-.09-.14,.1l.13,.47c0,.12-.04,.08-.06,.06,.05,.4,.16,.03,.2,.66,.18,.17-.26,1.28-.06,2.05-.05,.19-.1-.09-.16-.03,.13,1.06,.1,.91,.27,1.78l-.1,.74c.12-.54,.26,.15,.38,.76,.06-.19,.11-.36,.13-.47l.09,.97c-.03,.12-.08,.02-.15-.14,.01,.07,.03,.13,.04,.18-.06,.35-.15,.17-.24-.08,.03-.12,.07-.24,.1-.35-.1-.24-.2-.46-.3-.41,.02,.06,.03,.18,.04,.32-.03-.06-.05-.1-.07-.07-.02,.03,.02,.13,.06,.29l-.18,.22,.07,.05-.11,1.27c.18,.91,.44,1.7,.52,3.15-.13-.36-.21-.08-.37-.1,.16-.39-.07-1.12-.04-1.87-.02,.39-.09,.3-.12,.21l.15,1.34c-.13-.03-.09,.28-.15,.63,.25-.26,.17,1,.24,1.54-.08,.03-.17-.1-.15-.76-.19,.73,.29,.95,.13,1.66,0-.16,.01-.25-.03-.31,.07,.38,.02,1.3-.06,1.09v-.16c-.03,1.07,0,3.27,.21,3.43-.03,.01-.26-.14-.3-.21l.72,1.92c-.18-.17-.62,.48-.72-.41-.03,.26-.06,.57,0,1.11,.03-.17,.26-.44,.28-.2-.2,.65-.11,.45-.28,1.26,.04-.26,.33,.03,.32,.44-.04-.06-.28,.03-.31-.12l.28,1.03c-.05-.26-.24-.05-.32,.18,.06-.11,0,.89,.02,1.16l.07-.44c-.04,1.16,.4,1.15,.38,2.3-.06-.14-.36-.34-.39,.24,.14,.27,.69,1.19,.8,2.21l-.08,.2,.09,.78c-.22-.49-.67-1.85-.85-2.6-.07,.43-.1,.12-.09,.77-.08,.23-.12-.36-.12-.55l-.05,1.52c.17-.07,.17,1.16,.31,1.1l-.17-1.65c.17-.07,.48,.95,.45,2.03-.07,.27-.3-.2-.36-.18,.06,.14,.11,1.02,.07,1.12l-.09-.46c-.06,.6,.22,.98,.06,1.69-.01,.25-.22,.74-.12,.78,.19-.4,.79-.48,.93-.21-.01,.09-.18,1.3-.28,1.59-.15,.41-.36-.61-.49-.27,.05,.01,.1,.24,.12,.33-.04,.26-.14-.11-.12,.46,.17,.09-.01,1.15,.14,.27,.05,.55-.04,.59-.03,1.24,.11-.21,.37,.58,.42,1.14-.04-.03-.1,.09-.13,.15-.02,1.14-.09,1.74-.09,2.8-.04,.1-.09,.61-.16,.39,.03,.15,.09,.29,.09,.62-.15,.63-.02-.73-.2-.25,.1,.04,.14,.84,.2,1.31,.15-.14,.03-1.07-.03-1.54,.21,0,.43,.81,.53,1.91,.05,.88-.14,.38-.11,.53-.04,1.65,.37,1.41,.22,2.78-.13,.54-.27,.02-.36,.15-.05-.72,.09-1.1,.08-1.59l-.06,.6c-.04-.23-.08-.71-.04-.97-.12,.46-.02,2.79-.13,4.06,.05,.23,.09,.62,.15,.43l-.02-.4c.11-.37,.15,.76,.2,.25,.08,.54,.2,1.15,.13,1.91l-.15,.14s.09-.5,.04-.71c.07,.32-.21,1.17,0,1.52l.11-.53c.08,.54,.24,1.21,.19,1.89,.15-.31-.02-.16,.16-.63-.22,.42,0-1.73-.22-1.06,.21-.49,.09-.85,.26-1.49-.05,.02-.1,.23-.07-.34-.01-.03-.03-.09-.04-.12,0-.02,0-.02,0-.04,0,.01,0,.02,0,.03,0-.02,0-.03,0,.01-.02,.13-.05,.24-.08,.29-.12-.28-.11-1.18-.17-1.49,.02-.34,.06,.14,.11-.04l-.09-.46c.11-.05,.19-.89,.25-.1v-.71c.07-.42,.09-1,.05-1.35,.02-.34-.12-.85-.04-.56l-.07-1.12h.03c.01-1.11-.19-2.28,.02-3.54-.03-.37-.06-.75-.03-1.38l.1-.12c-.03-.48,.1-1.43,0-1.64,.26-.51,.06-2.31,.1-3.15l-.13-.03c0-.58-.03-1.13-.08-1.85l-.11,.04c-.09-.62,.08-1.59,.07-2.56,.04,.07,.03,.31,0,.49,.25-1.17-.18-2.46,0-3.52-.04-.26-.03-.45,0-.64,0,.02,0,.05,0,.07,0-.03,0-.07,0-.11,.02-.12,.04-.24,.06-.37-.03,.11-.05,.22-.06,.31,0-.2-.02-.51-.04-.81l.12-.13s0-.04,0-.07c.04-.3-.06-.24-.15-.08-.02-.15-.04-.29-.07-.4,.19-.24-.07-.79,.14-1.12-.1-.2-.08-1.52-.29-1.68,.03-.01,.04-.1,.04,.06,.02-.34,.05-.67-.01-.98l.15-.14-.21-.74c.09-.45,.15-.63,.27-.19-.18-1.07-.07-.87-.25-1.78l.1,.04c0-.33-.14-.85-.05-1.04,.19-.73,.03-3.61,.2-5.48-.29,.36,.13-.87-.1-.94,.07-.11,.11-.37,.17-.07-.07-.96,.11-1.43-.08-2.09,.07-.11,.1,.2,.14,.11-.01-.08-.06-.3-.02-.4,.04-.1,.06,.14,.09,.29-.01-.98-.22-1.07-.42-1.15,.09-.49,.08-.74-.05-1.1,.07-.17,.13-.46,.16,.15,0-.34,.1-2.08-.06-2.12,.04-.11,.01-.48,0-.57,0-.77,.02-.83,0-1.58l-.03,.21c-.19-.3-.04-.62-.07-1.23l.02,.02c.14-1.39-.07-.6,.09-1.97l-.12,.07c-.26-.13,.15-1.21,.05-2.01l-.07,.29c-.09-.43,.35-1.21,.38-1.65,.02-.1,.04,.15,.05,.28,.15-1.14-.16-.15-.19-1,.08-.16,.22,.2,.23-.37,.07-.29-.28-1.66-.11-2.44-.07,.17-.13,.34-.18-.05-.02-.61,.25-1.64,.04-2.19,.02-.08,.03-.11,.05-.11-.05-.46-.09-1.51-.2-1.78,.41-.43-.2-2.88,.18-2.87l-.02-1.42,.04,.04c.03-.91-.07-1.23-.16-1.55,.03-.21,.06-.06,.08-.04,.08-1.33,.06-1.46-.13-2.58l.12-.12c-.07-.3,.19-1.92,.05-3.23,.01,.01,.04,.04,.06,.14-.15-1.47,.34-3.52-.11-4.05l-.11-.97c-.04,1.25-.2-.19-.27,.33-.03-.49,.14-1.27,.16-.67l-.02,.09c.24,.22,.08-1.56,.24-1.52-.01-2.47,.12-4.87,.13-7.18l-.18,.27v-.81c.05-.21,.15-.28,.15,.29,.1-.3-.09-.96-.13-.98,.07-1.13,.21,.44,.22,.09v-.47s-.04,.11-.04,.11c-.07-.38-.15-.41-.14-1.1,.04-.44,.11-.22,.12-.4,.01,0,.02-.06,0-.26l.02-1.02-.14,.41c-.07-.45,0-.95-.16-.49,.25-.69,.09-3.79,.17-4.21-.11-.63-.1-1.25-.09-2.02-.03,.19-.19,.31-.17-.36,.33,.24,.15-1.22,.39-1.75-.16,.48-.04-1.89-.27-1.14,.03-.55,.13-.03,.2-.45-.13-1.32,.08-2.91,.04-4.54-.04-.03-.11,.25-.18-.1l.22-.86c-.02-.32-.25-.3-.1-.89-.04,.08-.09,.21-.11,0,.21-3.2-.18-6.53,.23-9.78-.09,.44-.09,.15-.1-.19-.02,.22-.11,0-.17,.04l.17-1.36c-.17-.25-.01-1.46-.17-1.6l.03,.43c-.19-.57-.41,.8-.65,.72,.21,.64-.31,1.69-.01,2.74-.05,.23-.08-.2-.13-.07,.1,.27,.12,.59,.08,1.19l-.03-.07c.03,1.68-.08,2.39-.14,4.28l.12-.14c-.02,.4-.05,.49-.08,.68,.18,.46,.01-1.14,.21-.71-.24,.54,0,2.85-.28,3.22,0,.62,.14-.18,.14,.44l-.07,.16,.1,.16c-.02,.41-.11,.61-.17,.63,0-.1-.02-.28-.02-.39-.09,.53,.03,1.49,0,1.67l.05-.6c.07,1.7-.03,3.77,.12,5.41l.06-.12c.1,1.25-.06,1-.01,2.38v-.05c.04,.28,.07,.64,.06,1.02-.07-.35-.13,.65-.2,.2,.11,1.36,.09,.67,.29,1.57l-.09,.21c.08,.31,.13,.33,.15,1.02-.08-.56-.14,.44-.25-.19-.2,1.44,.2,2.14-.09,2.8,.26,.66,.14-1.25,.2-.88,.08-.31,.19,.55,.17,1,0,.46-.33,.78-.32,1.94,0-.12-.02-.12-.02-.24-.07,.43,.09,.85-.02,1.38,.16,.3,0,.69,.19,.78l-.05-1.06c.05,.6,.28,1.17,.17,2.16-.04-.08-.09-.37-.12-.58-.06,.29,.04,.56-.02,.86-.2-.09-.04-1.29-.19-1.94-.08,.31,.14,1.22-.07,.9,.27,.47-.03,1.14,.17,1.93l-.12-.05c.02,.12,.07,.38,.07,.61l-.15-.41c.13,.64-.11,1.22-.04,1.83,0-1.28,.14-.29,.23-.83,.16,1.57-.31,.9-.25,2.67-.02-.24,.07-.9,.13-.52-.02,.34-.07,.78-.13,.98,.02,1.17,.12-.18,.19,.32-.14,.4,.06,.57,.11,1.08h-.12c-.08,1.33,.25,.36,.16,1.55l-.17-.51,.04,.62-.14-.13c.1,.68,.08,.89,.04,1.56,.08-.15,.22,.09,.22,.68-.07,.4-.11-.23-.1,.61-.08-.19-.17-.4-.06-.76-.04-.04-.08-.19-.11-.22-.08,.43-.02,1.09-.02,1.39,0-.12,.01-.26,.03-.33l.17,1.21c-.05,.19-.08,.04-.12-.11,.01,.25,.07,.41,.08,.78-.1-.09-.2-.07-.25-.58l.11,1.15c-.04,.08-.12,.59-.15,.44-.06,.64,.19,1.57,.11,2.42,.02,.04,.04,.13,.05,.31-.02,.8-.14,1.5,0,2.45l-.18,.54c.04,.74,.22-.73,.29,.51,.06,.87-.15,.33-.2,.63,.09,.43,.27,1.19,.13,1.99-.03-.27,0-.47-.02-.72Zm.08,9.12c-.03-.18-.1-.53-.03-.66,.14,.2,.07,.36,.03,.66Zm.29,13.87c-.04-.13-.02-.33,.03-.56,0,.17,0,.36-.03,.56Zm.84,38.63s0-.01,0-.02c.05-.39,.03-.25,0,.02Zm-.05,.82c.02,.08,.03,.08,.05,.04-.03-.06-.03-.24-.02-.45-.03,.06-.05,.16-.03,.41Zm-.05-87.93l-.03,.16c-.03-.36,0-.26,.03-.16Z"/>
    <path class="cls-1" d="M47.86,117.32c.02-.05,.04-.06,.07-.08-.02-.07-.04-.07-.07,.08Z"/>
    <path class="cls-1" d="M47.6,90.23s0-.02,0-.03c0-.02-.01-.02-.02-.03l.02,.06Z"/>
    <path class="cls-1" d="M47.79,145.66c.02-.17,.04-.26,.06-.33-.03,0-.05,.07-.06,.33Z"/>
    <path class="cls-1" d="M49.02,162.68l-.03-.52c0,.25-.02,.34-.04,.47,.03-.01,.07-.11,.07,.05Z"/>
    <path class="cls-1" d="M48.27,167.23c.01,.08,0,.16,.02,.24l.06-.02c0-.33-.05-.55-.07-.22Z"/>
    <path class="cls-1" d="M48.62,163.17c-.1,.04-.07,.37-.05,.74,0-.02,0-.04,0-.06,.14,.11,.09-.28,.05-.67Z"/>
    <path class="cls-1" d="M48.58,163.99c0,.11,0,.23,0,.34,.06,.04,.01-.14,0-.34Z"/>
    <path class="cls-1" d="M48.88,159.38c-.03,.17,.13,.11,.09,.21,.13,.19-.16-1.16-.09-.21Z"/>
    <polygon class="cls-1" points="48.29 163.46 48.41 163.33 48.31 163.13 48.29 163.46"/>
    <path class="cls-1" d="M48.38,160.56l-.03,.59s.03,.07,.04,.16c0-.36,.03-.76,0-.74Z"/>
    <path class="cls-1" d="M48.39,161.31c0,.19,0,.37,.02,.47,0-.1,0-.32-.02-.47Z"/>
    <polygon class="cls-1" points="48.25 162.66 48.27 162.49 48.28 162.07 48.25 162.66"/>
    <path class="cls-1" d="M48.4,154.25l-.04-.64c-.04-.07-.07,.11-.05,.35,.03,.15,.05,.39,.09,.29Z"/>
    <path class="cls-1" d="M48.06,156.19c.03-.17,.05-.18,.1-.28l-.16-.02,.06,.3Z"/>
    <path class="cls-1" d="M48.02,154.32c-.04-.06-.12-.93-.11-.12,.04,.06,.08,.71,.11,.12Z"/>
    <polygon class="cls-1" points="48.22 144.67 48.22 144.83 48.48 144.81 48.22 144.67"/>
    <path class="cls-1" d="M47.61,136.16c-.06,.76,.16,.18,.08,.87,.06,.18,.06-.56,.11-.38-.06-.46-.03-.7-.2-.49Z"/>
    <path class="cls-1" d="M47.8,136.65c0,.07,.02,.15,.04,.23-.02-.13-.03-.2-.04-.23Z"/>
    <polygon class="cls-1" points="48.9 40.61 48.95 40.12 48.86 40.43 48.9 40.61"/>
    <path class="cls-1" d="M48.71,39.67l.16-.11-.15-.29c0,.11,.02,.32-.02,.41Z"/>
    <path class="cls-1" d="M47.41,106.38l.04,.04c.04-.08,.05-.19,.05-.42l-.09,.38Z"/>
    <polygon class="cls-1" points="47.53 99.76 47.53 99.87 47.68 99.66 47.53 99.76"/>
    <path class="cls-1" d="M47.35,94.2c0,.23,.03,.49,.02,.72-.03-.49,.16-.78-.02-.72Z"/>
  </g>
  <g>
    <path class="cls-1" d="M69.23,.21c0-.27-.1-.17-.12-.21,.04,.44,.15,.19,.12,.21Z"/>
    <polygon class="cls-1" points="69.66 4.58 69.61 4.51 69.75 5.15 69.66 4.58"/>
    <path class="cls-1" d="M69.84,8.69c.16-.4-.09-1.49-.06-2.22l.04-.12-.16-.32c.06,.89,.21,2.04,.19,2.67Z"/>
    <path class="cls-1" d="M69.55,10.9c.06-.14,.08,.47,0-.51,0,.05,0,.06-.01,.09,0,.09,0,.21,.01,.42Z"/>
    <path class="cls-1" d="M69.54,10.48c-.02-.43-.05,.29,0,0h0Z"/>
    <path class="cls-1" d="M69.67,12.47l-.09-.57c-.04,.12-.02,.63-.06,.44,.06,.58,.1,.46,.15,.13Z"/>
    <path class="cls-1" d="M69.82,13.01l-.04-.29c-.01,.05-.02,.13,.04,.29Z"/>
    <path class="cls-1" d="M69.7,12.09l.08,.62c.03-.08,.08-.1-.03-.29,.06,.05,0-.07-.05-.34Z"/>
    <path class="cls-1" d="M69.71,11.73c.02-.32,.03-.73,.12-.17-.07-1.09-.19-.92-.12,.17Z"/>
    <path class="cls-1" d="M70.03,8.89l.03-.43-.08-.37c.04,.18-.01,.83,.04,.8Z"/>
    <path class="cls-1" d="M69.73,16.02s.09-.2,.14-.24l-.06-.42c-.02,.22-.02,.63-.08,.66Z"/>
    <path class="cls-1" d="M69.87,15.78l.09,.63c-.02-.56-.05-.66-.09-.63Z"/>
    <polygon class="cls-1" points="70.02 13.1 69.84 12.07 70.03 13.3 70.02 13.1"/>
    <polygon class="cls-1" points="69.83 18.43 69.73 18.08 69.89 18.7 69.83 18.43"/>
    <path class="cls-1" d="M69.92,20.02c-.08-.26-.11,.37-.16,.09,.03,.43,.11,.8,.18,1.13-.05-.35-.06-.73-.02-1.22Z"/>
    <path class="cls-1" d="M70.04,21.8c-.03-.18-.06-.36-.11-.56,.03,.19,.06,.37,.11,.56Z"/>
    <path class="cls-1" d="M69.99,17.48s-.08,.15-.09,.5l.1-.25c0-.08,0-.16,0-.25Z"/>
    <path class="cls-1" d="M70,17.72h0c0,.28,.01,.46,.02,.54,0-.07,0-.23-.01-.54Z"/>
    <path class="cls-1" d="M69.99,17.42s0,.04,0,.06c0-.02,.01-.04,0-.06Z"/>
    <path class="cls-1" d="M70,14.75c.08,.37,.17,1.14,.23,.39-.08-.26-.12,.17-.23-.39Z"/>
    <path class="cls-1" d="M70.11,17.11v-.67s-.07,.14-.11-.05l.11,.71Z"/>
    <polygon class="cls-1" points="70.16 17.43 70.11 17.11 70.11 17.36 70.16 17.43"/>
    <path class="cls-1" d="M70.09,20.65c.06,.29,.08,.6,.1,.96,0-.38,0-.78-.02-1.15-.04-.05-.1-.21-.08,.2Z"/>
    <path class="cls-1" d="M70.06,19.23s0,.04,0,.06c0-.04,0-.07,0-.06Z"/>
    <polygon class="cls-1" points="70.34 25.12 70.36 25.06 70.34 25.05 70.34 25.12"/>
    <path class="cls-1" d="M70.19,20.39c0-.29-.03-.46-.07-.62,.02,.22,.03,.44,.05,.69,.02,.02,.03,.03,.02-.07Z"/>
    <path class="cls-1" d="M70.13,22.78c.01-.16,.02-.33,.04-.5-.03,.15-.07,.45-.04,.5Z"/>
    <path class="cls-1" d="M70.04,19.39v-.04c-.03,.1-.01,.08,0,.04Z"/>
    <path class="cls-1" d="M70.04,19.39c.02,.15,.05,.26,.08,.38-.02-.17-.03-.34-.06-.48,0,.04-.02,.07-.03,.1Z"/>
    <path class="cls-1" d="M71.07,26.15c-.1-.05-.23-.8-.15-1.46-.1-.64-.41-.2-.57,.36,.04,.02,.08,.02,.17,.67,.04-.23,.06-1.47,.18-.92,.09,.87,0,.72-.04,1.15,.11-.37,.23,1.11,.4,.91l-.1-.76s.08,.26,.1,.05Z"/>
    <path class="cls-1" d="M70.31,23.8l-.02-.27c0,.31-.03,.53-.09,.95,.07,.45,.11,.54,.14,.57l-.04-1.34,.02,.09Z"/>
    <path class="cls-1" d="M70.24,22.31c.12,.21,.19,.86,.29,.45-.04-.8-.11-.56-.18-1.03,.08,1.29-.08-.37-.1,.57-.03-.25-.05-.48-.06-.69,0,.23-.01,.45-.02,.67v-.03s0,0,0,0h0c.01-.05,.02-.07,.01-.01,0,0,0,.02,0,.03,.02,0,.03,.03,.04,.06,0,.37-.03,.06-.04-.06,0,0-.01-.01-.02-.01h0s.12,1.29,.12,1.29c0-.27-.01-.62-.05-1.22Z"/>
    <path class="cls-1" d="M70.49,15.82s-.02,.04-.02,.04c.02,.08,.03,.11,.02-.04Z"/>
    <path class="cls-1" d="M70.45,16.35c-.02-.09-.07-.17-.07-.47,.02-.27,.05,0,.09-.02-.04-.18-.11-.64-.13-.06l.02,.09c-.01,.52-.12,1.19-.14,1.1,.09-.16,.15-.29,.23-.64Z"/>
    <path class="cls-1" d="M70.37,19.37l.1,1.07,.07-.55-.05,.03c0-.61-.07-.48-.11-.55Z"/>
    <polygon class="cls-1" points="70.29 25.24 70.17 25.11 70.36 25.72 70.29 25.24"/>
    <polygon class="cls-1" points="70.37 26.64 70.27 26.59 70.34 26.96 70.37 26.64"/>
    <path class="cls-1" d="M74.53,105.36l.04,.32c-.01-.15-.02-.25-.04-.32Z"/>
    <path class="cls-1" d="M74.48,103.08l-.05-.05c.03,.11,.05,.15,.05,.05Z"/>
    <path class="cls-1" d="M71.8,60.91c-.07,.46-.2,.98-.09,.92l.1-.15c-.03-.32-.03-.57-.01-.78Z"/>
    <path class="cls-1" d="M73.31,84.37l.03-.14c-.04-.11-.08-.21-.11-.31,.03,.13,.06,.28,.09,.44Z"/>
    <path class="cls-1" d="M73.77,84.68l-.05,.61c.02-.14,.04-.33,.05-.61Z"/>
    <path class="cls-1" d="M74.97,117.85l.12,.37c-.01-.58-.06-.32-.12-.37Z"/>
    <path class="cls-1" d="M71.02,40.93c-.03,.4-.03,.71-.02,.99,.04-.48,.12-.87,.02-.99Z"/>
    <path class="cls-1" d="M73.36,104.5c.02,.19,.05,.27,.07,.27-.02-.2-.05-.31-.07-.27Z"/>
    <path class="cls-1" d="M71.04,43.07c0-.07,.01-.14,.02-.21-.03-.29-.06-.58-.07-.93-.03,.35-.04,.76,.05,1.15Z"/>
    <path class="cls-1" d="M75.57,163.15v.1s0-.04,0-.1Z"/>
    <path class="cls-1" d="M74.5,176.35c0-.13,0-.34,0-.54,0,.1,0,.26,0,.54Z"/>
    <path class="cls-1" d="M70.56,32.26c-.02-.3-.01-.05,0,0h0Z"/>
    <path class="cls-1" d="M70.93,30.8c.01,.06,.03,.11,.06,.12-.03-.02-.05-.06-.06-.12Z"/>
    <path class="cls-1" d="M71.84,45.99v.03c.02-.09,.01-.07,0-.03Z"/>
    <path class="cls-1" d="M70.59,31.81c0,.12-.01,.24-.02,.38,0-.07,0-.18,.02-.38Z"/>
    <path class="cls-1" d="M70.55,31.87c0-.1,0-.18,0-.26-.02-.04-.03,0,0,.26Z"/>
    <path class="cls-1" d="M70.59,32.67c0-.17-.01-.33,0-.48,0,.06,0,.08-.01,.07,0,.09,.01,.21,.02,.41Z"/>
    <path class="cls-1" d="M75.02,138.88s0,.04,0,.06c.05,.3,.04,.17,0-.06Z"/>
    <path class="cls-1" d="M73.22,68.57v-.03s0,.03,0,.04h0Z"/>
    <path class="cls-1" d="M73.34,69.63c-.15-.45-.14-.71-.13-1.05l-.3,.36,.43,.69Z"/>
    <path class="cls-1" d="M74.71,110.84l.08-.75c.19,.9,.15,1.55,.27,.85-.34-.1-.12-2.9-.46-3l.06-.49c0,.14,.02,.16,.02,.3,.14-.96-.27-.7-.25-1.94,.01-.43,.06-.73,.1-.44l-.11-.96c0-.28,.06-.21,.06,.07l-.07-1.46h.01c-.06-.2-.15-.67-.2-.9,.04-.37,.04,.19,.08,.09l-.1-.81c.08-.33,.18,.34,.19,.9,.32-.77-.1-.67,.04-2.31l.07,.76c.18-.5,.09-1.09,.18-1.96-.06,.21-.25,1.74-.36,.86,.02-.25,.02-.57-.06-1.05,.12,0,.08-.47,.05-1.05l.16,.03c-.07-.62-.15-.57-.23-.94,0-.7,.11-.85,.21-1.01,0-1.12-.17,.78-.25-.54,.03-.93-.05-1.58-.18-2.69,.03-.65,.1,.11,.14-.12l-.15-.57c0-.14,.04-.1,.06-.07-.06-.48-.16-.03-.23-.8-.18-.2,.21-1.58-.03-2.51,.04-.23,.1,.11,.16,.04-.18-1.29-.13-1.11-.35-2.17l.07-.91c-.1,.67-.27-.18-.41-.92-.05,.24-.09,.44-.11,.58l-.13-1.19c.02-.14,.08-.03,.15,.17-.02-.08-.03-.15-.05-.22,.04-.43,.14-.21,.24,.09l-.08,.43c.11,.29,.22,.56,.32,.5-.02-.08-.04-.23-.06-.39,.03,.08,.05,.12,.07,.09,.02-.04-.02-.16-.07-.36l.17-.28-.07-.06,.06-1.56c-.22-1.11-.51-2.07-.65-3.83,.15,.43,.22,.09,.37,.11-.15,.49,.12,1.37,.11,2.28,0-.48,.08-.38,.11-.26l-.2-1.63c.13,.03,.08-.35,.12-.78-.24,.33-.21-1.21-.31-1.87,.08-.04,.17,.11,.18,.92,.16-.9-.34-1.15-.21-2.03,0,.2,0,.31,.05,.38-.09-.46-.07-1.59,0-1.33v.2c0-1.32-.14-4-.36-4.19,.03-.01,.26,.16,.31,.24l-.8-2.32c.19,.2,.6-.61,.74,.48,.01-.31,.03-.7-.06-1.36-.02,.21-.24,.54-.27,.25,.17-.81,.09-.56,.22-1.55-.03,.32-.33-.02-.34-.53,.05,.08,.28-.05,.32,.13l-.33-1.25c.06,.31,.24,.05,.31-.24-.05,.13-.04-1.09-.08-1.42l-.04,.54c-.01-1.42-.45-1.39-.49-2.8,.06,.17,.37,.41,.38-.31-.16-.32-.75-1.43-.91-2.67l.07-.24-.13-.95c.24,.59,.76,2.24,.97,3.15,.04-.53,.09-.15,.05-.95,.07-.28,.13,.43,.15,.66l-.02-1.86c-.16,.09-.22-1.41-.36-1.34l.25,2.01c-.17,.09-.52-1.15-.55-2.46,.05-.34,.31,.24,.36,.21-.06-.17-.16-1.24-.13-1.37l.11,.55c.03-.73-.27-1.18-.15-2.07,0-.3,.18-.91,.08-.96-.17,.5-.76,.62-.92,.3,0-.11,.12-1.6,.2-1.95,.13-.51,.39,.74,.5,.3-.05-.02-.11-.29-.14-.4,.03-.32,.15,.13,.1-.57-.17-.11-.04-1.41-.16-.32-.08-.68,0-.72-.03-1.52-.1,.26-.4-.7-.48-1.38,.04,.04,.1-.12,.12-.19-.04-1.39,0-2.14-.05-3.43,.04-.12,.06-.75,.14-.48-.04-.18-.1-.35-.12-.75,.11-.78,.06,.89,.21,.29-.1-.05-.18-1.03-.27-1.59-.15,.18,.03,1.32,.11,1.88-.21,.01-.47-.97-.63-2.32-.1-1.07,.12-.47,.08-.66-.05-2.02-.44-1.71-.36-3.39,.11-.67,.27-.04,.36-.19,.09,.87-.03,1.35,0,1.94l.03-.73c.06,.28,.11,.86,.09,1.18,.1-.56-.12-3.41-.08-4.98-.06-.27-.12-.75-.17-.52l.04,.49c-.09,.46-.19-.92-.21-.3-.1-.66-.26-1.39-.24-2.33l.15-.18s-.06,.61,0,.87c-.08-.39,.15-1.44-.07-1.85l-.08,.66c-.11-.66-.3-1.47-.29-2.3-.13,.38,.03,.19-.13,.78,.2-.52,.08,2.11,.28,1.28-.18,.61-.04,1.05-.18,1.84,.05-.03,.08-.28,.09,.41,.02,.03,.04,.1,.05,.15,0,.02,0,.03,0,.05v-.04s.01,.03,0-.01c.01-.17,.04-.3,.06-.36,.13,.34,.17,1.44,.25,1.81,0,.41-.07-.17-.11,.06l.11,.55c-.11,.06-.14,1.1-.25,.13l.03,.87c-.04,.52-.04,1.22,.03,1.66,0,.41,.17,1.03,.07,.68l.13,1.36h-.03c.04,1.36,.3,2.78,.17,4.33,.05,.45,.1,.92,.1,1.68l-.09,.15c.06,.58-.03,1.75,.09,2-.24,.64,.06,2.83,.05,3.86l.13,.03c.02,.71,.09,1.38,.17,2.26l.11-.06c.12,.75,0,1.94,.06,3.14-.05-.08-.05-.38-.03-.6-.19,1.44,.3,3,.17,4.31,.05,.32,.05,.56,.03,.78,0-.03,0-.06,0-.08,0,.03,0,.08,0,.13-.01,.14-.03,.3-.04,.45,.02-.14,.04-.27,.05-.38,.01,.25,.04,.63,.08,.99l-.11,.16s0,.05,0,.09c-.03,.36,.07,.29,.15,.09,.03,.19,.06,.36,.09,.49-.18,.3,.1,.97-.09,1.38,.11,.25,.15,1.86,.37,2.05-.03,.01-.04,.12-.05-.08,0,.41-.02,.83,.06,1.19l-.15,.18,.24,.89c-.07,.55-.12,.78-.26,.24,.23,1.3,.11,1.06,.33,2.17l-.1-.05c.02,.4,.17,1.03,.1,1.27-.16,.9,.14,4.41,.04,6.71,.28-.45-.09,1.07,.14,1.15-.06,.14-.09,.46-.16,.09,.11,1.17-.05,1.76,.17,2.56-.06,.14-.11-.25-.15-.13,.02,.09,.07,.37,.04,.49-.04,.12-.06-.17-.1-.35,.05,1.19,.27,1.31,.47,1.39-.07,.61-.05,.91,.1,1.34-.06,.21-.11,.57-.16-.17,0,.42,0,2.55,.15,2.59-.04,.13,0,.58,.03,.69,.02,.94,.01,1.02,.06,1.94l.02-.26c.21,.36,.07,.76,.11,1.5l-.02-.02c-.09,1.7,.09,.73-.02,2.41l.12-.1c.26,.15-.11,1.49,.02,2.46l.06-.35c.1,.53-.3,1.5-.32,2.03-.02,.12-.04-.18-.06-.34-.11,1.4,.16,.18,.23,1.22-.08,.19-.22-.24-.22,.46-.06,.35,.34,2.02,.2,2.99,.06-.21,.12-.42,.18,.06,.04,.74-.19,2.01,.03,2.67-.02,.09-.03,.13-.05,.14,.07,.57,.14,1.84,.26,2.18-.4,.53,.3,3.52-.08,3.52l.07,1.74-.04-.04c0,1.11,.1,1.51,.2,1.9-.02,.26-.06,.07-.08,.05-.04,1.63-.02,1.79,.2,3.15l-.12,.14c.08,.37-.14,2.36,.04,3.95-.01-.02-.04-.05-.06-.17,.19,1.79-.25,4.31,.22,4.96l.13,1.18c0-1.53,.2,.22,.26-.41,.04,.6-.11,1.56-.14,.82l.02-.12c-.24-.27-.05,1.91-.21,1.87,.07,3.02,0,5.96,.03,8.79l.18-.33v.99c-.03,.26-.13,.35-.14-.35-.1,.37,.1,1.18,.14,1.2-.05,1.38-.22-.53-.22-.11l.02,.57,.02-.13c.08,.46,.16,.5,.17,1.35-.03,.54-.11,.28-.11,.49-.01,0-.02,.07,0,.32v1.24s.14-.5,.14-.5c.08,.55,.01,1.17,.17,.59-.23,.85-.02,4.64-.1,5.15,.11,.77,.12,1.53,.12,2.48,.03-.23,.19-.38,.18,.44-.34-.29-.13,1.49-.36,2.15,.15-.59,.06,2.31,.28,1.39-.02,.68-.12,.04-.2,.56,.15,1.61-.06,3.56,0,5.56,.04,.03,.11-.3,.18,.12l-.21,1.06c.02,.39,.26,.36,.11,1.08,.04-.1,.09-.25,.11,.01-.19,3.91,.21,8-.2,11.97,.09-.54,.09-.18,.1,.23,.02-.27,.11,0,.17-.05l-.17,1.66c.17,.3,.01,1.78,.17,1.96l-.03-.53c.19,.7,.42-.98,.65-.88-.21-.79,.31-2.07,.01-3.36,.05-.28,.08,.24,.13,.09-.1-.33-.12-.72-.08-1.45l.03,.08c-.03-2.05,.08-2.93,.14-5.24l-.12,.17c.01-.5,.05-.6,.08-.83-.18-.57,0,1.39-.2,.87,.24-.66-.01-3.49,.26-3.94,0-.76-.14,.22-.14-.54l.07-.2-.1-.19c.01-.5,.1-.75,.17-.77,0,.12,.02,.34,.03,.47,.08-.65-.04-1.83-.01-2.05l-.04,.73c-.08-2.08,0-4.62-.17-6.63l-.05,.15c-.12-1.53,.05-1.23-.02-2.91v.06c-.05-.34-.08-.79-.08-1.25,.07,.42,.12-.8,.2-.24-.13-1.66-.1-.82-.31-1.92l.09-.25c-.09-.37-.13-.4-.17-1.25,.09,.69,.14-.54,.25,.23,.19-1.77-.24-2.62,.05-3.43-.27-.81-.12,1.53-.18,1.08-.08,.38-.2-.67-.18-1.22,0-.56,.31-.96,.29-2.38,0,.14,.02,.15,.02,.29,.06-.53-.1-1.04,0-1.69-.16-.36,0-.85-.2-.95l.07,1.3c-.06-.74-.31-1.42-.21-2.64,.04,.09,.1,.45,.13,.7,.05-.36-.05-.68,0-1.05,.2,.1,.07,1.58,.23,2.37,.08-.38-.17-1.49,.05-1.1-.28-.57,.01-1.4-.21-2.36l.12,.06c-.02-.15-.08-.47-.08-.75l.16,.5c-.14-.78,.09-1.5,0-2.25,.03,1.56-.14,.35-.21,1.02-.19-1.92,.29-1.11,.19-3.27,.02,.29-.05,1.1-.11,.64,.02-.41,.05-.95,.11-1.21-.05-1.43-.12,.22-.2-.39,.13-.49-.07-.7-.13-1.33h.12c.05-1.64-.26-.43-.2-1.9l.18,.62-.06-.76,.14,.15c-.12-.83-.1-1.09-.07-1.9-.08,.19-.22-.1-.24-.82,.06-.49,.12,.27,.08-.75,.08,.23,.18,.48,.08,.93,.04,.04,.08,.23,.12,.27,.07-.53,0-1.33-.02-1.7,0,.14,0,.31-.02,.4l-.2-1.48c.04-.23,.08-.05,.12,.13-.02-.3-.08-.51-.1-.95,.1,.11,.2,.08,.26,.71l-.14-1.41c.04-.1,.1-.73,.14-.54,.04-.78-.24-1.92-.18-2.96-.02-.05-.04-.16-.06-.38,0-.98,.1-1.84-.06-3l.16-.66c-.06-.9-.2,.89-.3-.61-.08-1.07,.14-.4,.18-.78-.1-.53-.31-1.45-.19-2.43,.04,.32,.02,.58,.04,.88Zm-.39-11.16c.03,.22,.12,.64,.06,.8-.15-.24-.09-.43-.06-.8Zm-.84-16.96c.05,.16,.03,.41,0,.69-.02-.2-.02-.43,0-.69Zm-2.68-47.22v.02c-.02,.48,0,.31,0-.02Zm.01-1c-.02-.1-.04-.09-.05-.05,.03,.07,.05,.29,.05,.55,.03-.07,.04-.2,0-.5Zm3.44,107.56l.03-.2c.04,.44,0,.32-.03,.2Z"/>
    <path class="cls-1" d="M73.71,84.63c-.02,.06-.04,.08-.06,.09,.02,.08,.05,.09,.06-.09Z"/>
    <path class="cls-1" d="M74.95,117.78v.03s.01,.03,.02,.03l-.02-.07Z"/>
    <path class="cls-1" d="M72.48,49.96c0,.21-.03,.32-.05,.4,.03,.01,.05-.08,.05-.4Z"/>
    <path class="cls-1" d="M70.38,29.2l.06,.64c-.02-.31,0-.42,.01-.58-.03,.02-.06,.14-.07-.06Z"/>
    <path class="cls-1" d="M70.88,23.6c-.02-.09-.01-.2-.03-.29l-.05,.03c.02,.4,.08,.68,.08,.26Z"/>
    <path class="cls-1" d="M70.75,28.58c.1-.06,.05-.46,0-.9v.08c-.14-.13-.08,.35,0,.83Z"/>
    <path class="cls-1" d="M70.75,27.58c-.01-.14-.02-.28-.02-.42-.06-.05,0,.17,.02,.42Z"/>
    <path class="cls-1" d="M70.69,33.23c.02-.21-.14-.13-.1-.25-.14-.23,.22,1.41,.1,.25Z"/>
    <polygon class="cls-1" points="71.07 28.21 70.95 28.37 71.06 28.62 71.07 28.21"/>
    <path class="cls-1" d="M71.13,31.76v-.72s-.03-.08-.05-.19c.02,.44,.01,.93,.05,.91Z"/>
    <path class="cls-1" d="M71.08,30.85c0-.23-.02-.45-.05-.58,0,.12,.02,.39,.05,.58Z"/>
    <polygon class="cls-1" points="71.15 29.19 71.13 29.4 71.15 29.91 71.15 29.19"/>
    <path class="cls-1" d="M71.44,39.48l.07,.78c.05,.08,.06-.14,.03-.43-.04-.19-.07-.48-.1-.35Z"/>
    <path class="cls-1" d="M71.68,37.09c-.02,.21-.04,.23-.08,.35l.16,.02-.08-.37Z"/>
    <path class="cls-1" d="M71.81,39.38c.05,.08,.17,1.13,.12,.14-.05-.08-.11-.86-.12-.14Z"/>
    <polygon class="cls-1" points="72.1 51.19 72.09 50.99 71.84 51.03 72.1 51.19"/>
    <path class="cls-1" d="M73.13,61.58c.02-.93-.17-.21-.12-1.06-.07-.22-.04,.69-.1,.47,.09,.56,.06,.85,.22,.59Z"/>
    <path class="cls-1" d="M72.91,60.99c-.02-.09-.03-.18-.05-.28,.02,.16,.04,.24,.05,.28Z"/>
    <polygon class="cls-1" points="74.37 178.53 74.31 179.13 74.4 178.75 74.37 178.53"/>
    <path class="cls-1" d="M74.55,179.68l-.16,.14,.15,.36c0-.14-.02-.4,.02-.5Z"/>
    <path class="cls-1" d="M74.6,98.01l-.04-.04c-.04,.09-.04,.23-.04,.51l.08-.47Z"/>
    <polygon class="cls-1" points="74.71 106.11 74.71 105.97 74.57 106.24 74.71 106.11"/>
    <path class="cls-1" d="M75.09,112.91c-.01-.28-.03-.6-.04-.88,.04,.6-.14,.96,.04,.88Z"/>
  </g>
</svg>